<svg width="646" height="453" viewBox="0 0 646 453" fill="none" xmlns="http://www.w3.org/2000/svg">
<path d="M18.9478 342.575C18.9758 342.525 19.0078 342.476 19.0468 342.431C19.1828 342.273 19.3828 342.17 19.5478 342.036C19.8408 341.799 20.0158 341.475 20.2148 341.173C21.9968 338.471 26.0238 337.545 29.2038 336.91C31.1458 336.523 33.2828 336.341 35.1828 336.847C35.5378 336.941 35.7718 337.23 35.7608 337.561L35.7168 338.935C35.6958 339.597 36.5848 339.928 37.1438 339.465L38.3278 338.485C38.5768 338.279 38.9358 338.213 39.2418 338.322C42.8268 339.602 45.7178 342.149 48.0498 344.844C58.0148 356.362 58.0018 370.331 57.5868 370.764C57.2048 371.162 36.8978 360.934 32.8918 359.677C32.6078 359.588 32.4298 359.343 32.4528 359.074L32.6418 356.835C32.6878 356.299 31.9868 355.998 31.5098 356.349L29.3778 357.923C29.1298 358.106 28.7798 358.124 28.5258 357.966C23.2488 354.68 17.4568 349.369 18.8008 343.022C18.8328 342.871 18.8718 342.715 18.9478 342.575Z" fill="#EB8D2E"/>
<path d="M62.7037 380.698C62.5097 380.698 62.3257 380.585 62.2437 380.395C62.2157 380.33 59.2917 373.618 50.5297 360.245C41.8507 346.997 20.2557 342.327 20.0387 342.281C19.7677 342.224 19.5957 341.959 19.6517 341.689C19.7087 341.419 19.9727 341.24 20.2437 341.302C20.4647 341.348 42.4587 346.1 51.3667 359.696C60.1857 373.157 63.1337 379.933 63.1627 380.001C63.2717 380.255 63.1547 380.549 62.9007 380.657C62.8367 380.685 62.7697 380.698 62.7037 380.698Z" fill="#111111"/>
<path d="M107.49 324.862C107.442 324.815 107.389 324.772 107.33 324.735C107.125 324.606 106.866 324.559 106.636 324.466C106.229 324.302 105.922 324.001 105.597 323.732C102.685 321.328 97.8758 321.672 94.1128 322.053C91.8138 322.285 89.3678 322.814 87.4228 324.028C87.0588 324.255 86.8968 324.657 87.0218 325.022L87.5418 326.539C87.7918 327.27 86.9138 327.943 86.1318 327.619L84.4758 326.931C84.1268 326.786 83.7048 326.836 83.4008 327.062C79.8398 329.716 77.4868 333.546 75.8078 337.35C68.6338 353.606 73.4278 369.182 74.0388 369.523C74.6008 369.836 93.7508 351.481 97.7898 348.708C98.0758 348.511 98.1908 348.177 98.0728 347.885L97.0958 345.452C96.8618 344.869 97.5398 344.294 98.1918 344.523L101.109 345.549C101.448 345.668 101.845 345.569 102.074 345.306C106.835 339.836 111.478 331.93 107.808 325.311C107.719 325.153 107.622 324.992 107.49 324.862Z" fill="#EB8D2E"/>
<path d="M71.5586 382.296C71.5406 382.296 71.5226 382.295 71.5036 382.293C71.2296 382.263 71.0306 382.017 71.0606 381.742C71.0696 381.657 72.0396 373.097 77.2676 355.073C82.5416 336.894 105.417 324.088 105.647 323.961C105.889 323.825 106.193 323.914 106.326 324.156C106.46 324.398 106.372 324.702 106.13 324.836C105.903 324.962 83.3846 337.573 78.2266 355.353C73.0266 373.277 72.0626 381.767 72.0536 381.85C72.0266 382.106 71.8106 382.296 71.5586 382.296Z" fill="#111111"/>
<path d="M29.7179 289.34C29.7929 289.287 29.8729 289.241 29.9599 289.204C30.2639 289.075 30.6209 289.067 30.9509 288.993C31.5339 288.861 32.0109 288.523 32.5059 288.233C36.9369 285.635 43.3209 287.139 48.2919 288.464C51.3289 289.274 54.4989 290.513 56.8499 292.565C57.2889 292.949 57.4199 293.523 57.1739 293.987L56.1479 295.912C55.6529 296.84 56.6869 297.934 57.8079 297.667L60.1809 297.102C60.6799 296.983 61.2369 297.141 61.5959 297.511C65.8029 301.846 68.1349 307.499 69.5659 312.972C75.6809 336.357 65.8709 356.238 64.9759 356.563C64.1539 356.862 42.4089 328.064 37.5849 323.467C37.2429 323.141 37.1609 322.667 37.3829 322.3L39.2219 319.245C39.6629 318.513 38.8759 317.594 37.9509 317.76L33.8119 318.507C33.3309 318.594 32.8199 318.375 32.5689 317.971C27.3589 309.594 22.8349 297.971 29.1969 289.876C29.3469 289.681 29.5109 289.485 29.7179 289.34Z" fill="#EB8D2E"/>
<path d="M65.647 374.08C65.638 374.08 65.63 374.08 65.621 374.079C65.346 374.065 65.133 373.83 65.147 373.555C65.153 373.441 65.698 361.82 62.592 336.601C59.504 311.532 31.936 289.674 31.658 289.456C31.44 289.286 31.402 288.972 31.572 288.754C31.742 288.536 32.057 288.5 32.274 288.669C32.556 288.89 60.445 310.996 63.584 336.478C66.703 361.801 66.152 373.491 66.146 373.606C66.132 373.873 65.912 374.08 65.647 374.08Z" fill="#111111"/>
<path d="M43.8817 452.895C41.9217 452.895 40.3267 451.3 40.3267 449.34V428.396H52.6547V444.122C52.6547 448.959 48.7197 452.895 43.8817 452.895ZM41.3267 429.396V449.34C41.3267 450.748 42.4727 451.895 43.8817 451.895C48.1677 451.895 51.6547 448.408 51.6547 444.122V429.396H41.3267Z" fill="#111111"/>
<path d="M90.4156 452.895C85.5776 452.895 81.6416 448.96 81.6416 444.122V428.396H93.9696V449.34C93.9696 451.3 92.3756 452.895 90.4156 452.895ZM82.6416 429.396V444.122C82.6416 448.408 86.1286 451.895 90.4156 451.895C91.8236 451.895 92.9696 450.748 92.9696 449.34V429.396H82.6416Z" fill="#111111"/>
<path d="M97.9326 381.438H36.4966L37.5756 405.7L39.5146 423.239C40.8926 435.702 51.4246 445.134 63.9646 445.134H70.4646C83.0036 445.134 93.5366 435.702 94.9146 423.239L97.9326 381.438Z" fill="#111111"/>
<path d="M98.3767 384.346H36.1257C35.1997 384.346 34.4497 383.595 34.4497 382.67V375.871C34.4497 374.945 35.2007 374.195 36.1257 374.195H98.3767C99.3027 374.195 100.053 374.946 100.053 375.871V382.67C100.053 383.596 99.3017 384.346 98.3767 384.346Z" fill="#2D2D30"/>
<path d="M633.767 335.841C633.733 335.801 633.695 335.764 633.652 335.732C633.502 335.617 633.305 335.563 633.133 335.474C632.829 335.318 632.612 335.064 632.379 334.832C630.292 332.764 626.541 332.693 623.598 332.723C621.801 332.741 619.868 332.979 618.275 333.783C617.977 333.933 617.823 334.233 617.894 334.525L618.19 335.737C618.333 336.321 617.604 336.781 617.022 336.474L615.787 335.825C615.527 335.688 615.197 335.697 614.945 335.851C611.999 337.657 609.906 340.459 608.338 343.289C601.635 355.381 604.254 367.788 604.703 368.095C605.116 368.377 621.247 355.502 624.572 353.637C624.808 353.505 624.92 353.254 624.85 353.019L624.264 351.065C624.123 350.597 624.69 350.199 625.179 350.422L627.367 351.422C627.621 351.538 627.936 351.489 628.132 351.301C632.206 347.398 636.361 341.598 633.982 336.211C633.924 336.083 633.861 335.951 633.767 335.841Z" fill="#EB8D2E"/>
<path d="M602.378 377.225C602.354 377.225 602.329 377.223 602.305 377.219C602.032 377.179 601.842 376.926 601.882 376.653C601.917 376.417 602.791 370.706 608.12 357.085C613.503 343.327 631.591 335.249 632.358 334.912C632.61 334.805 632.906 334.916 633.017 335.169C633.127 335.422 633.013 335.717 632.76 335.828C632.575 335.909 614.281 344.08 609.051 357.45C603.774 370.936 602.879 376.741 602.871 376.798C602.835 377.046 602.621 377.225 602.378 377.225Z" fill="#111111"/>
<path d="M579.378 318.08C579.4 318.052 579.426 318.025 579.455 318.001C579.557 317.918 579.692 317.875 579.809 317.81C580.016 317.695 580.161 317.513 580.317 317.347C581.718 315.862 584.32 315.725 586.363 315.676C587.612 315.646 588.959 315.766 590.084 316.287C590.294 316.384 590.408 316.589 590.366 316.793L590.189 317.642C590.104 318.051 590.62 318.353 591.018 318.126L591.86 317.646C592.037 317.545 592.267 317.543 592.445 317.644C594.533 318.829 596.052 320.725 597.207 322.653C602.145 330.89 600.618 339.566 600.313 339.79C600.033 339.996 588.531 331.435 586.179 330.219C586.012 330.133 585.928 329.961 585.972 329.797L586.333 328.427C586.419 328.099 586.017 327.836 585.683 328.002L584.188 328.748C584.014 328.835 583.795 328.808 583.654 328.682C580.734 326.068 577.713 322.139 579.238 318.342C579.274 318.252 579.315 318.159 579.378 318.08Z" fill="#EB8D2E"/>
<path d="M602.467 346.705C602.24 346.705 602.035 346.551 601.981 346.32C601.97 346.276 600.885 341.799 596.906 332.561C592.985 323.461 580.149 318.239 580.02 318.187C579.763 318.084 579.639 317.793 579.742 317.538C579.844 317.282 580.136 317.155 580.391 317.26C580.934 317.477 593.739 322.684 597.824 332.165C601.846 341.501 602.911 345.906 602.954 346.09C603.017 346.359 602.851 346.628 602.583 346.692C602.544 346.7 602.505 346.705 602.467 346.705Z" fill="#111111"/>
<path d="M579.137 355.241C579.16 355.213 579.185 355.186 579.214 355.162C579.316 355.079 579.451 355.036 579.568 354.971C579.776 354.856 579.92 354.674 580.076 354.508C581.477 353.023 584.079 352.886 586.123 352.837C587.371 352.807 588.719 352.927 589.844 353.448C590.054 353.545 590.168 353.75 590.126 353.954L589.949 354.803C589.864 355.212 590.38 355.514 590.777 355.288L591.619 354.808C591.796 354.707 592.026 354.705 592.204 354.806C594.291 355.991 595.811 357.887 596.966 359.815C601.904 368.052 600.377 376.728 600.072 376.952C599.792 377.158 588.29 368.597 585.938 367.381C585.771 367.295 585.687 367.123 585.731 366.959L586.092 365.589C586.178 365.261 585.776 364.998 585.442 365.164L583.947 365.91C583.773 365.997 583.554 365.97 583.413 365.844C580.493 363.23 577.472 359.301 578.997 355.504C579.033 355.412 579.074 355.319 579.137 355.241Z" fill="#EB8D2E"/>
<path d="M602.227 383.866C602 383.866 601.795 383.712 601.741 383.481C601.73 383.437 600.646 378.96 596.666 369.722C592.743 360.615 579.909 355.4 579.78 355.348C579.523 355.246 579.399 354.955 579.502 354.699C579.605 354.443 579.897 354.318 580.151 354.421C580.694 354.638 593.5 359.844 597.584 369.326C601.606 378.661 602.671 383.068 602.714 383.251C602.777 383.519 602.611 383.789 602.343 383.853C602.303 383.862 602.265 383.866 602.227 383.866Z" fill="#111111"/>
<path d="M580.255 281.295C580.298 281.26 580.344 281.229 580.395 281.202C580.574 281.11 580.791 281.09 580.987 281.031C581.335 280.926 581.61 280.7 581.898 280.502C584.477 278.733 588.418 279.37 591.494 279.961C593.373 280.321 595.352 280.937 596.867 282.082C597.15 282.296 597.255 282.639 597.125 282.931L596.586 284.144C596.326 284.729 597 285.348 597.669 285.138L599.086 284.693C599.384 284.599 599.729 284.671 599.963 284.88C602.705 287.331 604.365 290.663 605.47 293.924C610.193 307.86 605.095 320.356 604.566 320.592C604.08 320.809 589.632 304.261 586.505 301.678C586.284 301.495 586.212 301.211 586.331 300.978L587.316 299.043C587.552 298.579 587.034 298.055 586.48 298.196L584 298.828C583.712 298.901 583.391 298.79 583.221 298.557C579.696 293.695 576.447 286.833 579.961 281.642C580.045 281.519 580.136 281.393 580.255 281.295Z" fill="#EB8D2E"/>
<path d="M605.711 331.397C605.439 331.397 605.217 331.179 605.211 330.907C605.21 330.838 605.037 323.767 602.067 308.61C599.126 293.603 581.507 281.564 581.33 281.444C581.101 281.29 581.04 280.979 581.195 280.751C581.349 280.522 581.661 280.462 581.888 280.616C582.07 280.738 600.027 293.002 603.047 308.419C606.038 323.678 606.208 330.817 606.21 330.888C606.215 331.164 605.996 331.392 605.72 331.398C605.718 331.397 605.714 331.397 605.711 331.397Z" fill="#111111"/>
<path d="M602.377 384.342C602.101 384.342 601.877 384.118 601.877 383.842V357.267C601.877 339.275 606.234 321.312 614.479 305.32L620.73 293.195C620.856 292.95 621.159 292.853 621.404 292.98C621.649 293.106 621.746 293.408 621.619 293.654L615.368 305.779C607.197 321.63 602.878 339.434 602.878 357.267V383.842C602.877 384.118 602.653 384.342 602.377 384.342Z" fill="#111111"/>
<path d="M636.452 289.892C636.428 289.858 636.4 289.827 636.368 289.798C636.256 289.698 636.104 289.642 635.973 289.561C635.742 289.418 635.587 289.202 635.417 289.004C633.896 287.232 630.929 286.935 628.595 286.77C627.17 286.669 625.623 286.734 624.309 287.269C624.064 287.369 623.922 287.597 623.96 287.832L624.117 288.812C624.193 289.284 623.586 289.602 623.144 289.321L622.207 288.727C622.01 288.602 621.747 288.588 621.538 288.694C619.088 289.936 617.25 292.022 615.826 294.164C609.74 303.315 611.02 313.314 611.356 313.586C611.665 313.836 625.272 304.668 628.026 303.404C628.221 303.314 628.326 303.123 628.286 302.932L627.947 301.346C627.866 300.966 628.34 300.687 628.713 300.895L630.382 301.828C630.576 301.936 630.828 301.918 630.996 301.781C634.474 298.949 638.138 294.62 636.599 290.199C636.561 290.094 636.519 289.985 636.452 289.892Z" fill="#EB8D2E"/>
<path d="M608.551 321.304C608.505 321.304 608.459 321.298 608.413 321.284C608.147 321.208 607.994 320.93 608.07 320.666C608.13 320.459 609.582 315.484 614.676 305.036C619.841 294.441 634.73 289.186 635.362 288.968C635.619 288.879 635.906 289.016 635.998 289.277C636.088 289.539 635.95 289.823 635.689 289.914C635.538 289.966 620.557 295.256 615.575 305.475C610.527 315.829 609.046 320.893 609.031 320.943C608.968 321.161 608.769 321.304 608.551 321.304Z" fill="#111111"/>
<path d="M635.039 316.28C635.025 316.246 635.008 316.212 634.986 316.181C634.91 316.07 634.79 315.989 634.694 315.891C634.524 315.718 634.435 315.498 634.329 315.29C633.383 313.429 630.87 312.543 628.879 311.905C627.663 311.516 626.306 311.244 625.052 311.43C624.818 311.465 624.647 311.633 624.629 311.845L624.558 312.729C624.524 313.155 623.93 313.302 623.605 312.965L622.917 312.251C622.772 312.101 622.547 312.033 622.343 312.08C619.953 312.64 617.915 314.062 616.225 315.619C609.002 322.276 607.996 331.228 608.231 331.536C608.447 331.819 622.203 326.74 624.861 326.226C625.049 326.19 625.181 326.045 625.186 325.871L625.227 324.423C625.237 324.076 625.708 323.934 625.987 324.194L627.239 325.358C627.385 325.493 627.607 325.53 627.782 325.448C631.402 323.726 635.5 320.743 635.1 316.578C635.091 316.478 635.078 316.375 635.039 316.28Z" fill="#EB8D2E"/>
<path d="M604.267 337.71C604.182 337.71 604.097 337.689 604.019 337.644C603.78 337.507 603.696 337.203 603.832 336.962C603.928 336.795 606.245 332.779 612.884 324.782C619.627 316.661 633.689 315.25 634.284 315.193C634.552 315.177 634.802 315.37 634.829 315.644C634.854 315.918 634.653 316.163 634.378 316.189C634.236 316.202 620.13 317.62 613.653 325.42C607.081 333.337 604.723 337.417 604.701 337.457C604.608 337.619 604.439 337.71 604.267 337.71Z" fill="#111111"/>
<path d="M619.242 435.935H585.69L578.69 384.192H624.242L619.242 435.935Z" fill="#111111"/>
<path d="M625.473 386.502H578.297C577.371 386.502 576.62 385.751 576.62 384.825V380.359C576.62 379.433 577.371 378.682 578.297 378.682H625.473C626.399 378.682 627.149 379.432 627.149 380.358V384.825C627.149 385.751 626.399 386.502 625.473 386.502Z" fill="#2D2D30"/>
<path d="M587.995 451.133C586.676 451.133 585.602 450.028 585.602 448.669V435.025H593.622V445.313C593.622 448.522 591.098 451.133 587.995 451.133ZM586.603 436.025V448.669C586.603 449.477 587.228 450.133 587.996 450.133C590.548 450.133 592.623 447.971 592.623 445.314V436.026H586.603V436.025Z" fill="#111111"/>
<path d="M616.831 451.133C613.729 451.133 611.204 448.523 611.204 445.314V435.026H619.223V448.67C619.224 450.027 618.15 451.133 616.831 451.133ZM612.204 436.025V445.313C612.204 447.97 614.279 450.132 616.831 450.132C617.599 450.132 618.224 449.476 618.224 448.668V436.024H612.204V436.025Z" fill="#111111"/>
<g opacity="0.56">
<path d="M306.271 52.6091H295.26C292.519 52.6091 290.297 50.3871 290.297 47.6461C290.297 44.9051 292.519 42.6831 295.26 42.6831H306.271C309.012 42.6831 311.234 44.9051 311.234 47.6461C311.234 50.3871 309.012 52.6091 306.271 52.6091Z" fill="#F6EEE3"/>
<path d="M306.271 53.1091H295.26C292.248 53.1091 289.797 50.6581 289.797 47.6461C289.797 44.6341 292.248 42.1831 295.26 42.1831H306.271C309.284 42.1831 311.734 44.6341 311.734 47.6461C311.734 50.6581 309.283 53.1091 306.271 53.1091ZM295.26 43.1821C292.799 43.1821 290.797 45.1851 290.797 47.6451C290.797 50.1051 292.799 52.1081 295.26 52.1081H306.271C308.732 52.1081 310.734 50.1061 310.734 47.6451C310.734 45.1841 308.732 43.1821 306.271 43.1821H295.26Z" fill="#5C69AB"/>
<path d="M300.765 87.183C306.474 87.183 311.102 82.555 311.102 76.846C311.102 71.1371 306.474 66.509 300.765 66.509C295.056 66.509 290.428 71.1371 290.428 76.846C290.428 82.555 295.056 87.183 300.765 87.183Z" fill="#F6EEE3"/>
<path d="M300.765 87.684C294.789 87.684 289.928 82.822 289.928 76.847C289.928 70.872 294.789 66.01 300.765 66.01C306.741 66.01 311.602 70.871 311.602 76.847C311.602 82.823 306.741 87.684 300.765 87.684ZM300.765 67.009C295.341 67.009 290.928 71.422 290.928 76.846C290.928 82.27 295.341 86.683 300.765 86.683C306.189 86.683 310.602 82.27 310.602 76.846C310.602 71.422 306.189 67.009 300.765 67.009Z" fill="#5C69AB"/>
<path d="M300.64 0H299.64V42.682H300.64V0Z" fill="#5C69AB"/>
<path d="M331.798 77.646C331.798 77.909 269.733 77.919 269.733 77.646C269.733 60.507 283.627 46.613 300.766 46.613C317.904 46.613 331.798 60.507 331.798 77.646Z" fill="#F6EEE3"/>
<path d="M300.32 78.347C292.635 78.347 284.988 78.331 279.261 78.298C269.233 78.239 269.233 78.239 269.233 77.647C269.233 60.26 283.379 46.114 300.766 46.114C318.153 46.114 332.299 60.26 332.299 77.647C332.299 78.238 332.299 78.238 321.937 78.297C316.023 78.33 308.152 78.347 300.32 78.347ZM270.236 77.19C275.428 77.414 326.076 77.414 331.295 77.189C331.05 60.562 317.449 47.113 300.765 47.113C284.082 47.113 270.48 60.563 270.236 77.19Z" fill="#5C69AB"/>
<path d="M418.289 83.5339H407.278C404.537 83.5339 402.315 81.3119 402.315 78.5709C402.315 75.8299 404.537 73.6079 407.278 73.6079H418.289C421.03 73.6079 423.252 75.8299 423.252 78.5709C423.253 81.3119 421.031 83.5339 418.289 83.5339Z" fill="#F6EEE3"/>
<path d="M418.289 84.0349H407.278C404.265 84.0349 401.815 81.5839 401.815 78.5719C401.815 75.5589 404.265 73.1089 407.278 73.1089H418.289C421.302 73.1089 423.753 75.5599 423.753 78.5719C423.753 81.5839 421.302 84.0349 418.289 84.0349ZM407.278 74.1079C404.817 74.1079 402.815 76.1099 402.815 78.5709C402.815 81.0319 404.817 83.0339 407.278 83.0339H418.289C420.75 83.0339 422.753 81.0319 422.753 78.5709C422.753 76.1099 420.75 74.1079 418.289 74.1079H407.278Z" fill="#5C69AB"/>
<path d="M412.784 118.109C418.493 118.109 423.121 113.481 423.121 107.772C423.121 102.063 418.493 97.4351 412.784 97.4351C407.075 97.4351 402.447 102.063 402.447 107.772C402.447 113.481 407.075 118.109 412.784 118.109Z" fill="#F6EEE3"/>
<path d="M412.784 118.609C406.808 118.609 401.947 113.748 401.947 107.772C401.947 101.796 406.808 96.9351 412.784 96.9351C418.76 96.9351 423.621 101.797 423.621 107.772C423.621 113.748 418.76 118.609 412.784 118.609ZM412.784 97.9351C407.36 97.9351 402.947 102.348 402.947 107.772C402.947 113.196 407.36 117.609 412.784 117.609C418.208 117.609 422.621 113.196 422.621 107.772C422.621 102.348 418.208 97.9351 412.784 97.9351Z" fill="#5C69AB"/>
<path d="M412.658 1.20898H411.658V73.608H412.658V1.20898Z" fill="#5C69AB"/>
<path d="M443.817 108.571C443.817 108.834 381.752 108.844 381.752 108.571C381.752 91.4321 395.646 77.5381 412.785 77.5381C429.923 77.5391 443.817 91.4331 443.817 108.571Z" fill="#F6EEE3"/>
<path d="M412.338 109.272C404.654 109.272 397.006 109.256 391.279 109.223C381.251 109.164 381.251 109.164 381.251 108.572C381.251 91.1851 395.397 77.0391 412.784 77.0391C430.171 77.0391 444.316 91.1851 444.316 108.572C444.316 109.163 444.316 109.163 433.954 109.222C428.042 109.255 420.171 109.272 412.338 109.272ZM382.254 108.115C387.449 108.339 438.095 108.339 443.314 108.114C443.068 91.4891 429.467 78.0381 412.785 78.0381C396.101 78.0391 382.499 91.4881 382.254 108.115Z" fill="#5C69AB"/>
<path d="M112.967 96.7618H89.7239C89.3039 96.7618 88.9619 96.4198 88.9619 95.9998V85.8638C88.9619 85.4428 89.3039 85.1018 89.7239 85.1018H112.967C113.387 85.1018 113.729 85.4438 113.729 85.8638V95.9998C113.729 96.4198 113.387 96.7618 112.967 96.7618ZM89.9619 95.7618H112.729V86.1018H89.9619V95.7618Z" fill="#5C69AB"/>
<path d="M139.879 96.7618H116.636C116.216 96.7618 115.874 96.4198 115.874 95.9998V85.8638C115.874 85.4428 116.216 85.1018 116.636 85.1018H139.879C140.299 85.1018 140.641 85.4438 140.641 85.8638V95.9998C140.642 96.4198 140.3 96.7618 139.879 96.7618ZM116.875 95.7618H139.642V86.1018H116.875V95.7618Z" fill="#5C69AB"/>
<path d="M124.035 83.8299H100.792C100.372 83.8299 100.03 83.4879 100.03 83.0679V72.9319C100.03 72.5119 100.372 72.1699 100.792 72.1699H124.035C124.455 72.1699 124.797 72.5119 124.797 72.9319V83.0679C124.797 83.4879 124.455 83.8299 124.035 83.8299ZM101.03 82.8299H123.797V73.1699H101.03V82.8299Z" fill="#5C69AB"/>
<path d="M124.035 110.16H100.792C100.372 110.16 100.03 109.818 100.03 109.398V99.262C100.03 98.842 100.372 98.5 100.792 98.5H124.035C124.455 98.5 124.797 98.842 124.797 99.262V109.398C124.797 109.818 124.455 110.16 124.035 110.16ZM101.03 109.16H123.797V99.5H101.03V109.16Z" fill="#5C69AB"/>
<path d="M144.151 75.3239C143.474 75.3239 142.923 74.7729 142.923 74.0959C142.923 73.4189 143.474 72.8679 144.151 72.8679C144.828 72.8679 145.378 73.4189 145.378 74.0959C145.378 74.7729 144.828 75.3239 144.151 75.3239ZM144.151 73.8689C144.025 73.8689 143.923 73.9709 143.923 74.0969C143.922 74.3469 144.378 74.3479 144.379 74.0969C144.378 73.9709 144.276 73.8689 144.151 73.8689Z" fill="#5C69AB"/>
<path d="M15.442 244.448H0.762001C0.342001 244.448 0 244.106 0 243.686V233.55C0 233.13 0.342001 232.788 0.762001 232.788H15.442C15.862 232.788 16.204 233.13 16.204 233.55V243.686C16.205 244.106 15.863 244.448 15.442 244.448ZM1.001 243.448H15.205V233.788H1.001V243.448Z" fill="#5C69AB"/>
<path d="M42.3551 244.448H19.1121C18.6921 244.448 18.3501 244.106 18.3501 243.686V233.55C18.3501 233.13 18.6921 232.788 19.1121 232.788H42.3551C42.7751 232.788 43.1171 233.13 43.1171 233.55V243.686C43.1171 244.106 42.7751 244.448 42.3551 244.448ZM19.3501 243.448H42.1171V233.788H19.3501V243.448Z" fill="#5C69AB"/>
<path d="M26.5099 231.516H3.26786C2.84786 231.516 2.50586 231.174 2.50586 230.754V220.618C2.50586 220.198 2.84786 219.856 3.26786 219.856H26.5109C26.9319 219.856 27.2729 220.198 27.2729 220.618V230.754C27.2729 231.174 26.9309 231.516 26.5099 231.516ZM3.50486 230.516H26.2719V220.856H3.50486V230.516Z" fill="#5C69AB"/>
<path d="M26.5099 257.847H3.26786C2.84786 257.847 2.50586 257.505 2.50586 257.084V246.948C2.50586 246.528 2.84786 246.186 3.26786 246.186H26.5109C26.9319 246.186 27.2729 246.528 27.2729 246.948V257.084C27.2729 257.505 26.9309 257.847 26.5099 257.847ZM3.50486 256.847H26.2719V247.186H3.50486V256.847Z" fill="#5C69AB"/>
<path d="M644.413 137.652H620.884C620.464 137.652 620.122 137.31 620.122 136.89V126.754C620.122 126.334 620.464 125.992 620.884 125.992H644.413C644.834 125.992 645.176 126.334 645.176 126.754V136.89C645.176 137.311 644.834 137.652 644.413 137.652ZM621.122 136.652H644.176V126.992H621.122V136.652Z" fill="#5C69AB"/>
<path d="M617.214 137.652H593.972C593.551 137.652 593.209 137.31 593.209 136.89V126.754C593.209 126.334 593.551 125.992 593.972 125.992H617.214C617.635 125.992 617.977 126.334 617.977 126.754V136.89C617.977 137.311 617.635 137.652 617.214 137.652ZM594.209 136.652H616.977V126.992H594.209V136.652Z" fill="#5C69AB"/>
<path d="M633.059 150.585H609.816C609.396 150.585 609.054 150.243 609.054 149.823V139.687C609.054 139.267 609.396 138.925 609.816 138.925H633.059C633.479 138.925 633.821 139.267 633.821 139.687V149.823C633.82 150.243 633.479 150.585 633.059 150.585ZM610.054 149.585H632.821V139.925H610.054V149.585Z" fill="#5C69AB"/>
<path d="M633.059 124.254H609.816C609.396 124.254 609.054 123.912 609.054 123.492V113.356C609.054 112.936 609.396 112.594 609.816 112.594H633.059C633.479 112.594 633.821 112.936 633.821 113.356V123.492C633.82 123.913 633.479 124.254 633.059 124.254ZM610.054 123.254H632.821V113.594H610.054V123.254Z" fill="#5C69AB"/>
<path d="M38.6269 223.01C37.9499 223.01 37.3989 222.459 37.3989 221.782C37.3989 221.105 37.9499 220.555 38.6269 220.555C39.3039 220.555 39.8549 221.106 39.8549 221.782C39.8549 222.46 39.3039 223.01 38.6269 223.01ZM38.6269 221.555C38.5019 221.555 38.3989 221.657 38.3989 221.782C38.3989 222.033 38.8539 222.032 38.8549 221.782C38.8549 221.657 38.7519 221.555 38.6269 221.555Z" fill="#5C69AB"/>
</g>
<path d="M421.447 452.021C421.405 452.021 421.361 452.015 421.318 452.004C421.051 451.933 420.892 451.658 420.964 451.392L453.432 329.69C453.502 329.424 453.773 329.267 454.044 329.336C454.311 329.407 454.47 329.682 454.398 329.948L421.93 451.649C421.871 451.873 421.669 452.021 421.447 452.021Z" fill="#111111"/>
<path d="M521.148 450.881C520.933 450.881 520.735 450.742 520.67 450.527L484.041 329.965C483.961 329.7 484.11 329.421 484.374 329.341C484.641 329.259 484.918 329.41 484.998 329.674L521.627 450.236C521.707 450.501 521.558 450.78 521.294 450.86C521.245 450.874 521.196 450.881 521.148 450.881Z" fill="#111111"/>
<path d="M503.851 171.915H487.534C470.65 171.915 456.962 185.603 456.962 202.487V314.718H426.442V332.07H517.071C526.654 332.07 534.423 324.301 534.423 314.718V202.487C534.423 185.603 520.736 171.915 503.851 171.915Z" fill="#E16C2E"/>
<path d="M445.936 202.34L431.938 214.07L418.152 185.744L418.181 185.718C417.97 185.312 417.758 184.907 417.547 184.502L417.544 184.496C414.195 178.067 410.834 171.643 407.521 165.195C407.275 164.716 407.022 164.228 406.635 163.853C406.063 163.301 405.213 163.054 404.434 163.213C403.655 163.372 402.97 163.933 402.661 164.666C402.299 165.523 402.45 166.511 402.737 167.396C403.116 168.563 403.517 169.716 403.887 170.886C404.25 172.036 402.792 172.875 401.981 171.98C399.029 168.727 396.081 165.47 393.137 162.209C392.557 161.566 391.903 160.883 391.045 160.766C389.874 160.607 388.739 161.83 388.985 162.986C389.085 163.455 389.361 163.865 389.631 164.261C391.321 166.74 392.908 169.292 394.701 171.698C396.096 173.568 396.707 174.97 397.835 176.237C397.465 175.821 396.969 175.157 396.598 174.742C394.353 172.226 392.081 169.739 389.945 167.134C389.613 166.729 389.078 166.396 388.582 166.226C388.256 166.114 387.893 166.104 387.565 166.21C387.236 166.316 386.941 166.545 386.786 166.854C386.604 167.217 386.628 167.656 386.76 168.041C386.987 168.7 387.316 169.329 387.727 169.887C388.908 171.49 390.102 173.084 391.278 174.692C392.476 176.33 393.837 177.912 394.923 179.628C394.622 179.153 394.154 178.747 393.764 178.349C392.946 177.512 392.108 176.693 391.261 175.885C390.412 175.074 389.505 174.005 388.25 173.924C387.72 173.89 387.124 174.104 386.912 174.591C386.814 174.815 386.809 175.071 386.852 175.312C386.996 176.108 387.604 176.729 388.12 177.312C388.623 177.882 389.125 178.452 389.627 179.022C390.643 180.175 391.661 181.327 392.693 182.465C393.275 183.123 393.856 183.783 394.438 184.441L391.651 182.589C390.592 181.861 388.375 181.128 387.821 182.288C387.502 182.954 387.719 183.754 388.331 184.168L403.891 196.474L418.426 243.098C421.448 252.17 432.687 255.305 439.968 249.106L461.891 230.441L445.936 202.34Z" fill="#E8A185"/>
<path opacity="0.2" d="M445.936 202.34L431.938 214.07L418.152 185.744L418.181 185.718C417.97 185.312 417.758 184.907 417.547 184.502L417.544 184.496C414.195 178.067 410.834 171.643 407.521 165.195C407.275 164.716 407.022 164.228 406.635 163.853C406.063 163.301 405.213 163.054 404.434 163.213C403.655 163.372 402.97 163.933 402.661 164.666C402.299 165.523 402.45 166.511 402.737 167.396C403.116 168.563 403.517 169.716 403.887 170.886C404.25 172.036 402.792 172.875 401.981 171.98C399.029 168.727 396.081 165.47 393.137 162.209C392.557 161.566 391.903 160.883 391.045 160.766C389.874 160.607 388.739 161.83 388.985 162.986C389.085 163.455 389.361 163.865 389.631 164.261C391.321 166.74 392.908 169.292 394.701 171.698C396.096 173.568 396.707 174.97 397.835 176.237C397.465 175.821 396.969 175.157 396.598 174.742C394.353 172.226 392.081 169.739 389.945 167.134C389.613 166.729 389.078 166.396 388.582 166.226C388.256 166.114 387.893 166.104 387.565 166.21C387.236 166.316 386.941 166.545 386.786 166.854C386.604 167.217 386.628 167.656 386.76 168.041C386.987 168.7 387.316 169.329 387.727 169.887C388.908 171.49 390.102 173.084 391.278 174.692C392.476 176.33 393.837 177.912 394.923 179.628C394.622 179.153 394.154 178.747 393.764 178.349C392.946 177.512 392.108 176.693 391.261 175.885C390.412 175.074 389.505 174.005 388.25 173.924C387.72 173.89 387.124 174.104 386.912 174.591C386.814 174.815 386.809 175.071 386.852 175.312C386.996 176.108 387.604 176.729 388.12 177.312C388.623 177.882 389.125 178.452 389.627 179.022C390.643 180.175 391.661 181.327 392.693 182.465C393.275 183.123 393.856 183.783 394.438 184.441L391.651 182.589C390.592 181.861 388.375 181.128 387.821 182.288C387.502 182.954 387.719 183.754 388.331 184.168L403.891 196.474L418.426 243.098C421.448 252.17 432.687 255.305 439.968 249.106L461.891 230.441L445.936 202.34Z" fill="#E06A4B"/>
<path d="M405.935 181.088C405.802 181.088 405.673 181.034 405.58 180.933C401.218 176.261 403.465 171.243 403.489 171.194C403.543 171.079 403.64 170.99 403.763 170.945C403.885 170.9 404.018 170.907 404.136 170.964C404.252 171.018 404.342 171.116 404.386 171.239C404.431 171.361 404.424 171.493 404.369 171.611C404.285 171.791 402.352 176.049 406.291 180.267C406.38 180.362 406.427 180.486 406.423 180.616C406.418 180.746 406.364 180.867 406.269 180.956C406.219 181.002 406.165 181.035 406.105 181.057C406.049 181.078 405.991 181.088 405.935 181.088Z" fill="#E06A4B"/>
<path d="M434.231 220.49C434.038 220.49 433.854 220.377 433.772 220.188L429.1 209.377C428.991 209.124 429.107 208.829 429.361 208.72C429.614 208.61 429.908 208.727 430.018 208.981L434.69 219.792C434.799 220.045 434.683 220.34 434.429 220.449C434.364 220.477 434.297 220.49 434.231 220.49Z" fill="#E06A4B"/>
<path d="M519.564 191.243C517.066 182.731 506.379 180.194 497.621 179.412C495.32 178.486 492.646 178.139 489.567 178.518L473.628 189.346L463.432 181.262C458.424 180.473 453.984 182.419 450.503 185.775L434.971 200.625C432.581 202.91 432.216 206.812 434.135 209.572L452.46 235.938L445.873 267.943L508.045 266.884L510.568 217.299L522.629 215.717C524.043 215.531 524.988 214.169 524.661 212.781C523.208 206.617 519.658 191.563 519.564 191.243Z" fill="#5C69AB"/>
<path d="M392.557 416.359V427.984L370.947 427.405L370.15 415.981L392.557 416.359Z" fill="#E8A185"/>
<path d="M368.878 426.425L365.533 429.585L345.984 447.496C344.69 448.682 345.554 450.838 347.309 450.802L391.355 449.894C392.532 449.87 393.459 448.884 393.412 447.708L393.213 427.076L368.878 426.425Z" fill="#EB8D2E"/>
<path d="M345.984 447.497L346.664 446.874C346.996 447.174 347.429 447.375 347.957 447.364L392.003 446.456C392.545 446.445 393.029 446.223 393.394 445.879L393.412 447.71C393.459 448.886 392.532 449.871 391.355 449.896L347.309 450.804C345.554 450.839 344.69 448.682 345.984 447.497Z" fill="#111111"/>
<path d="M352.372 447.634C352.1 447.634 351.876 447.415 351.872 447.142C351.868 446.866 352.088 446.638 352.364 446.634L393.355 445.997C393.661 446.021 393.859 446.213 393.863 446.489C393.867 446.765 393.647 446.993 393.371 446.997L352.38 447.634C352.377 447.634 352.375 447.634 352.372 447.634Z" fill="white"/>
<path d="M383.973 440.713C383.162 440.713 382.368 440.474 381.678 440.011C380.761 439.396 380.138 438.459 379.925 437.376C379.711 436.292 379.933 435.19 380.548 434.273C381.163 433.356 382.099 432.733 383.183 432.52C384.267 432.303 385.369 432.527 386.285 433.143C387.202 433.758 387.825 434.694 388.038 435.778C388.252 436.862 388.031 437.964 387.415 438.881C386.8 439.798 385.864 440.421 384.78 440.634C384.512 440.688 384.241 440.713 383.973 440.713ZM383.982 433.442C383.782 433.442 383.579 433.46 383.376 433.501C381.68 433.835 380.572 435.486 380.905 437.183C381.067 438.004 381.539 438.714 382.235 439.181C382.93 439.648 383.763 439.816 384.587 439.654C385.409 439.492 386.118 439.02 386.585 438.325C387.052 437.63 387.22 436.794 387.058 435.973C386.764 434.479 385.449 433.442 383.982 433.442Z" fill="white"/>
<path d="M369.248 434.086C369.114 434.086 368.98 434.032 368.882 433.926L365.167 429.925C364.979 429.723 364.99 429.407 365.193 429.219C365.394 429.03 365.711 429.042 365.899 429.245L369.614 433.246C369.803 433.448 369.791 433.764 369.588 433.952C369.492 434.042 369.37 434.086 369.248 434.086Z" fill="white"/>
<path d="M366.24 436.962C366.106 436.962 365.972 436.908 365.874 436.802L362.158 432.801C361.969 432.599 361.981 432.282 362.184 432.095C362.384 431.907 362.702 431.918 362.89 432.121L366.606 436.122C366.795 436.324 366.783 436.64 366.58 436.828C366.484 436.918 366.362 436.962 366.24 436.962Z" fill="white"/>
<path d="M363.411 439.789C363.277 439.789 363.143 439.735 363.045 439.629L359.329 435.628C359.14 435.426 359.152 435.11 359.355 434.922C359.556 434.733 359.872 434.745 360.061 434.948L363.777 438.949C363.965 439.151 363.954 439.468 363.751 439.655C363.655 439.745 363.533 439.789 363.411 439.789Z" fill="white"/>
<path d="M369.086 429.073C368.995 429.073 368.907 429.052 368.825 429.012C367.371 428.285 367.804 422.174 367.876 421.767C368.107 420.471 369.353 419.604 370.644 419.836C371.271 419.947 371.818 420.297 372.182 420.82C372.547 421.343 372.686 421.976 372.575 422.604C372.433 423.397 370.32 428.528 369.374 429.001C369.281 429.05 369.183 429.073 369.086 429.073ZM370.226 420.8C369.567 420.8 368.981 421.273 368.861 421.944C368.658 423.084 368.728 426.739 369.133 427.849C369.861 426.786 371.442 423.272 371.592 422.43C371.657 422.066 371.575 421.698 371.364 421.394C371.152 421.09 370.835 420.887 370.47 420.822C370.387 420.807 370.306 420.8 370.226 420.8Z" fill="white"/>
<path d="M368.477 429.087C366.656 429.087 362.815 427.756 362.463 427.552C361.324 426.893 360.935 425.43 361.593 424.291C361.912 423.739 362.427 423.345 363.043 423.181C363.655 423.016 364.3 423.101 364.853 423.421H364.854C365.656 423.886 369.092 426.639 369.457 428.059C369.548 428.413 369.462 428.661 369.374 428.806C369.254 429.005 368.927 429.087 368.477 429.087ZM363.66 424.1C363.54 424.1 363.419 424.116 363.301 424.147C362.943 424.243 362.644 424.471 362.458 424.791C362.076 425.453 362.303 426.304 362.964 426.687C363.734 427.133 367.364 428.059 368.472 428.128C368.086 427.283 365.362 424.872 364.353 424.287C364.139 424.162 363.9 424.1 363.66 424.1Z" fill="white"/>
<path d="M448.988 416.023V428.631L427.378 428.052L426.582 416.628L448.988 416.023Z" fill="#E8A185"/>
<path d="M426.072 428.017L422.727 431.177L403.178 449.089C401.884 450.275 402.748 452.431 404.503 452.395L448.549 451.487C449.726 451.463 450.653 450.477 450.605 449.302L450.406 428.67L426.072 428.017Z" fill="#EB8D2E"/>
<path d="M403.178 449.088L403.858 448.465C404.19 448.764 404.623 448.966 405.15 448.955L449.196 448.047C449.738 448.036 450.222 447.814 450.587 447.47L450.605 449.301C450.652 450.477 449.725 451.462 448.549 451.486L404.503 452.394C402.748 452.43 401.883 450.273 403.178 449.088Z" fill="#111111"/>
<path d="M409.565 449.225C409.293 449.225 409.069 449.006 409.065 448.733C409.061 448.457 409.281 448.229 409.557 448.225L450.547 447.588C450.849 447.582 451.051 447.804 451.055 448.08C451.059 448.356 450.839 448.584 450.563 448.588L409.573 449.225C409.57 449.225 409.568 449.225 409.565 449.225Z" fill="white"/>
<path d="M441.166 442.304C440.355 442.304 439.561 442.065 438.871 441.602C437.954 440.987 437.331 440.051 437.118 438.967C436.904 437.883 437.126 436.782 437.741 435.864C438.356 434.947 439.292 434.324 440.376 434.111C441.459 433.894 442.561 434.118 443.479 434.734C444.396 435.349 445.019 436.285 445.232 437.369C445.446 438.453 445.224 439.555 444.609 440.472C443.994 441.389 443.058 442.012 441.974 442.225C441.704 442.278 441.435 442.304 441.166 442.304ZM441.176 435.033C440.976 435.033 440.773 435.052 440.57 435.092C438.874 435.426 437.766 437.077 438.099 438.774C438.433 440.469 440.089 441.578 441.781 441.245C443.477 440.911 444.585 439.26 444.252 437.563C443.957 436.07 442.643 435.033 441.176 435.033Z" fill="white"/>
<path d="M426.442 435.677C426.308 435.677 426.174 435.623 426.076 435.517L422.36 431.516C422.172 431.314 422.183 430.998 422.386 430.81C422.586 430.621 422.903 430.633 423.092 430.836L426.808 434.837C426.997 435.039 426.985 435.356 426.782 435.543C426.687 435.633 426.564 435.677 426.442 435.677Z" fill="white"/>
<path d="M423.434 438.553C423.3 438.553 423.166 438.499 423.068 438.393L419.353 434.393C419.164 434.191 419.176 433.874 419.379 433.687C419.58 433.498 419.897 433.509 420.085 433.713L423.8 437.713C423.989 437.915 423.977 438.232 423.774 438.419C423.678 438.509 423.556 438.553 423.434 438.553Z" fill="white"/>
<path d="M420.606 441.38C420.472 441.38 420.338 441.326 420.24 441.22L416.524 437.219C416.335 437.017 416.347 436.7 416.55 436.513C416.75 436.324 417.067 436.336 417.255 436.539L420.972 440.54C421.16 440.742 421.149 441.059 420.946 441.246C420.85 441.336 420.728 441.38 420.606 441.38Z" fill="white"/>
<path d="M426.279 430.665C426.189 430.665 426.1 430.644 426.019 430.604C424.564 429.876 424.998 423.765 425.07 423.358C425.3 422.063 426.542 421.198 427.839 421.427C429.134 421.659 429.999 422.901 429.769 424.196C429.628 424.987 427.517 430.118 426.569 430.594C426.476 430.642 426.376 430.665 426.279 430.665ZM427.419 422.391C426.761 422.391 426.174 422.864 426.055 423.535C425.852 424.674 425.922 428.33 426.327 429.441C427.056 428.377 428.635 424.863 428.785 424.021C428.919 423.269 428.416 422.547 427.664 422.413C427.581 422.397 427.5 422.391 427.419 422.391Z" fill="white"/>
<path d="M425.672 430.678C423.851 430.678 420.009 429.347 419.656 429.143C419.104 428.824 418.71 428.309 418.546 427.693C418.382 427.078 418.467 426.434 418.786 425.883C419.445 424.743 420.908 424.352 422.047 425.013C422.849 425.477 426.284 428.229 426.65 429.65C426.741 430.003 426.655 430.252 426.567 430.397C426.448 430.597 426.121 430.678 425.672 430.678ZM420.854 425.691C420.375 425.691 419.909 425.939 419.652 426.383C419.466 426.703 419.418 427.076 419.512 427.434C419.608 427.792 419.836 428.091 420.157 428.277C420.93 428.723 424.558 429.65 425.667 429.718C425.28 428.872 422.557 426.461 421.548 425.877H421.547C421.328 425.752 421.09 425.691 420.854 425.691Z" fill="white"/>
<path d="M450.021 232.465C449.829 232.465 449.645 232.354 449.563 232.166L446.555 225.314C444.287 220.148 444.14 214.397 446.14 209.12L449.739 199.632C449.838 199.374 450.125 199.243 450.384 199.342C450.642 199.44 450.772 199.728 450.674 199.987L447.075 209.475C445.168 214.506 445.308 219.988 447.471 224.913L450.479 231.766C450.589 232.019 450.475 232.314 450.222 232.425C450.156 232.451 450.088 232.465 450.021 232.465Z" fill="#111111"/>
<path d="M530.337 239.768L521.064 215.886L494.385 219.476L502.221 242.31L460.708 245.433V245.435C459.666 244.576 458.561 243.787 457.415 243.109C457.415 243.109 446.964 238.186 443.143 237.203C442.733 237.098 442.312 236.999 441.891 237.037C441.469 237.075 441.041 237.271 440.824 237.634C440.542 238.107 440.684 238.714 440.892 239.223C441.539 240.805 442.715 242.086 443.883 243.348C442.393 243.397 440.799 243.439 439.055 243.462C435.382 243.775 429.261 243.548 429.952 248.33C430.333 249.969 431.662 250.251 433.043 250.092C431.149 250.692 429.435 251.787 430.328 254.094C430.834 256.292 432.84 256.224 434.805 255.766C433.63 256.236 432.751 257 433.148 258.454C433.554 261.134 436.094 261.292 438.23 260.738C436.375 261.864 438.654 264.716 441.494 264.729L456.891 265.58C458.162 265.682 459.726 265.123 461.271 264.323L514.797 264.792C527.707 264.89 536.148 251.296 530.337 239.768ZM437.092 255.139C437.41 255.052 437.704 254.977 437.963 254.93C437.71 255.001 437.412 255.069 437.092 255.139Z" fill="#E8A185"/>
<path opacity="0.36" d="M443.884 243.35L452.254 243.789C452.254 243.789 443.39 240.909 441.872 240.967L443.884 243.35Z" fill="#E06A4B"/>
<path d="M432.284 250.686C432.07 250.686 431.873 250.548 431.806 250.334C431.724 250.07 431.871 249.79 432.135 249.708C432.937 249.46 437.135 249.349 437.968 249.329C438.243 249.334 438.474 249.541 438.48 249.817C438.487 250.093 438.268 250.322 437.992 250.329C436.116 250.373 432.948 250.504 432.432 250.664C432.383 250.678 432.333 250.686 432.284 250.686Z" fill="#E06A4B"/>
<path d="M434.391 256.348C434.124 256.348 433.903 256.137 433.891 255.869C433.88 255.594 434.094 255.36 434.37 255.349L438.912 255.161C439.173 255.153 439.421 255.365 439.432 255.64C439.443 255.915 439.229 256.149 438.953 256.161L434.411 256.349C434.404 256.348 434.397 256.348 434.391 256.348Z" fill="#E06A4B"/>
<path d="M438.231 261.239C437.969 261.239 437.749 261.036 437.732 260.77C437.715 260.495 437.923 260.257 438.2 260.24L440.644 260.085C440.923 260.062 441.158 260.276 441.174 260.553C441.192 260.828 440.983 261.066 440.706 261.083L438.262 261.238C438.251 261.239 438.24 261.239 438.231 261.239Z" fill="#E06A4B"/>
<path d="M494.384 243.269C494.132 243.269 493.915 243.078 493.888 242.822C493.859 242.548 494.057 242.301 494.332 242.272L505.63 241.064C505.886 241.036 506.15 241.233 506.18 241.508C506.209 241.782 506.011 242.029 505.736 242.058L494.438 243.266C494.42 243.268 494.402 243.269 494.384 243.269Z" fill="#E06A4B"/>
<path d="M417.536 271.963C407.73 271.881 399.222 276.497 393.813 283.512C378.951 287.515 368.006 300.875 367.58 316.834L364.508 412.124C364.439 414.27 366.137 416.058 368.283 416.1L393.011 416.584C394.432 416.612 395.672 415.627 395.968 414.237L404.44 374.404L414.183 414.561C414.553 416.086 415.929 417.152 417.498 417.13L452.195 416.626C453.611 416.606 454.621 415.246 454.232 413.884L426.758 317.827L470.398 317.087C495.455 316.662 516.309 297.719 519.134 272.818L417.536 271.963Z" fill="#111111"/>
<path d="M404.782 377.335C404.555 377.335 404.35 377.181 404.296 376.951L388.018 308.84C385.768 299.735 387.813 290.287 393.628 282.924C399.443 275.562 408.16 271.376 417.54 271.463L519.139 272.317C519.415 272.319 519.637 272.545 519.635 272.821C519.633 273.096 519.409 273.317 519.135 273.317H519.131L417.532 272.463C408.449 272.405 400.034 276.426 394.413 283.544C388.79 290.663 386.813 299.797 388.989 308.604L405.268 376.719C405.333 376.987 405.166 377.257 404.898 377.321C404.859 377.331 404.82 377.335 404.782 377.335Z" fill="white"/>
<path d="M507.664 172.683C504.808 170.571 501.23 169.001 499.726 165.783C498.105 162.316 500.36 155.463 500.36 155.463C502.016 151.589 501.238 146.951 498.934 143.416L498.727 138.526C498.756 138.012 498.748 137.506 498.718 137.006C502.188 135.535 505.646 132.879 507.276 130.64C510.261 126.541 509.358 120.797 505.259 117.812C501.16 114.827 495.416 115.73 492.431 119.829C491.423 121.214 490.481 123.318 489.824 125.607C488.532 125.197 487.153 124.982 485.717 125.009L479.193 125.13L471.561 122.285C464.974 119.83 457.736 123.757 456.205 130.618L454.542 138.07L455.359 138.18C454.759 139.923 454.338 141.787 454.146 143.745L453.531 149.997L457.33 150.371C457.747 151.757 459.278 157.348 457.865 160.37C456.36 163.588 452.783 165.158 449.926 167.27C447.07 169.382 444.677 173.383 446.668 176.325C450.286 174.084 455.587 175.226 457.962 178.757C459.6 176.459 461.238 174.161 462.876 171.862C461.856 174.398 461.518 177.206 461.908 179.912C465.578 180.742 469.433 180.741 473.103 179.909C473.554 179.806 474.022 179.678 474.405 179.43C475.608 180.077 476.828 180.694 478.046 181.306C478.729 179.136 479.725 177.067 480.979 175.169C481.384 174.963 481.789 174.755 482.192 174.545C482.213 177.138 482.234 179.731 482.255 182.324C482.261 183.101 482.295 183.953 482.812 184.532C483.23 185 483.873 185.183 484.485 185.322C488.154 186.154 492.01 186.155 495.68 185.325C496.07 182.619 495.733 179.812 494.712 177.275C496.35 179.573 497.988 181.871 499.626 184.17C502.001 180.639 507.302 179.497 510.92 181.738C512.913 178.796 510.52 174.796 507.664 172.683Z" fill="#111111"/>
<path d="M489.718 143.993L487.59 143.919L485.067 148.539C484.153 150.213 481.625 149.698 481.438 147.801L480.487 138.175C480.313 136.419 478.097 135.759 476.991 137.133L474.849 139.794L467.35 139.522L465.703 133.271L464.422 139.396L458.147 138.554L455.076 155.902C453.868 162.731 457.663 169.233 463.759 171.442L464.671 179.358C465.383 185.542 471.176 190.001 477.544 189.268L477.808 189.238C484.176 188.505 489.931 184.271 489.219 178.087L486.041 157.433L489.249 157.544C492.933 157.672 496.052 154.762 496.18 151.078L496.185 150.925C496.312 147.24 493.402 144.121 489.718 143.993Z" fill="#E8A185"/>
<path d="M457.098 148.439C456.97 149.145 457.439 149.821 458.144 149.948C458.85 150.076 459.525 149.608 459.653 148.902C459.781 148.196 459.312 147.521 458.607 147.393C457.901 147.265 457.226 147.733 457.098 148.439Z" fill="#111111"/>
<path d="M467.616 148.889C467.675 149.672 468.357 150.258 469.139 150.199C469.922 150.14 470.508 149.458 470.449 148.676C470.39 147.893 469.708 147.307 468.926 147.366C468.144 147.424 467.557 148.107 467.616 148.889Z" fill="#111111"/>
<path d="M464.658 165.664C464.716 165.68 464.779 165.676 464.839 165.649C464.899 165.622 466.329 164.994 467.39 166.118C467.492 166.226 467.663 166.231 467.772 166.129C467.881 166.026 467.886 165.856 467.783 165.747C466.451 164.339 464.632 165.15 464.614 165.158C464.479 165.22 464.42 165.38 464.481 165.515C464.516 165.592 464.583 165.644 464.658 165.664Z" fill="#E06A4B"/>
<path d="M474.121 143.615C473.612 143.745 473.005 143.589 472.41 143.471C471.813 143.34 471.21 143.223 470.683 143.14C470.155 143.057 469.545 142.982 468.936 142.922C468.333 142.85 467.704 142.812 467.268 142.532C466.845 142.269 466.747 141.691 467.391 141.1C467.999 140.522 469.43 140.015 471.179 140.287C472.925 140.567 474.109 141.486 474.489 142.22C474.898 142.979 474.611 143.496 474.121 143.615Z" fill="#111111"/>
<path d="M455.714 143.133C456.069 143.237 456.485 143.117 456.894 143.026C457.304 142.925 457.718 142.836 458.08 142.773C458.443 142.709 458.863 142.653 459.283 142.608C459.698 142.554 460.132 142.526 460.427 142.308C460.713 142.103 460.766 141.65 460.307 141.184C459.872 140.728 458.87 140.326 457.667 140.533C456.467 140.747 455.67 141.464 455.425 142.039C455.162 142.631 455.373 143.038 455.714 143.133Z" fill="#111111"/>
<path d="M470.499 150.272C470.499 150.272 469.23 149.36 467.999 150.447Z" fill="#E8A185"/>
<path d="M468 150.947C467.861 150.947 467.724 150.89 467.625 150.778C467.442 150.571 467.462 150.255 467.669 150.072C468.881 149.002 470.241 149.47 470.791 149.866C471.015 150.027 471.066 150.34 470.905 150.564C470.744 150.787 470.432 150.839 470.209 150.68C470.107 150.609 469.221 150.037 468.331 150.822C468.236 150.906 468.118 150.947 468 150.947Z" fill="#E06A4B"/>
<path d="M459.104 149.748C459.104 149.748 458.319 149.222 457.631 149.961Z" fill="#E8A185"/>
<path d="M457.631 150.46C457.509 150.46 457.387 150.416 457.29 150.326C457.088 150.138 457.077 149.822 457.265 149.619C458.04 148.786 458.988 149.067 459.382 149.332C459.611 149.486 459.673 149.796 459.519 150.026C459.365 150.254 459.056 150.314 458.831 150.166C458.723 150.1 458.355 149.917 457.998 150.301C457.898 150.407 457.765 150.46 457.631 150.46Z" fill="#E06A4B"/>
<path d="M469.919 154.995C469.477 154.701 468.89 154.774 468.498 155.132C467.785 155.785 466.234 156.943 464.011 157.169C463.465 157.225 463.184 157.86 463.418 158.355C463.933 159.446 465.313 161.127 468.184 159.781C471.683 158.141 471.071 155.761 469.919 154.995Z" fill="white"/>
<path d="M463.247 145.806L462.74 151.102L461.404 151.186C460.822 151.107 460.285 151.514 460.206 152.097L460.074 153.066C459.966 153.862 460.517 154.596 461.312 154.714L463.722 155.071" fill="#E8A185"/>
<path d="M463.724 155.57C463.7 155.57 463.674 155.568 463.65 155.565L461.24 155.209C460.18 155.052 459.436 154.061 459.581 152.999L459.713 152.03C459.769 151.616 459.983 151.249 460.316 150.996C460.648 150.743 461.06 150.633 461.473 150.691L462.284 150.633L462.75 145.758C462.777 145.483 463.027 145.281 463.296 145.308C463.57 145.334 463.773 145.578 463.746 145.853L463.198 151.573L461.437 151.684C461.188 151.661 461.041 151.699 460.92 151.79C460.8 151.881 460.723 152.014 460.702 152.163L460.57 153.132C460.5 153.653 460.865 154.141 461.385 154.218L463.795 154.575C464.068 154.615 464.257 154.869 464.216 155.143C464.181 155.392 463.967 155.57 463.724 155.57Z" fill="#E06A4B"/>
<path d="M490.18 153.113C490.086 153.113 489.992 153.087 489.907 153.032L487.719 151.606C487.597 151.526 487.516 151.397 487.496 151.252C487.477 151.107 487.522 150.961 487.62 150.853L489.958 148.251C490.143 148.045 490.459 148.03 490.664 148.213C490.87 148.398 490.887 148.714 490.702 148.919L488.754 151.086L490.453 152.193C490.684 152.344 490.749 152.654 490.598 152.885C490.503 153.033 490.343 153.113 490.18 153.113Z" fill="#E06A4B"/>
<path d="M463.776 171.604C463.776 171.604 476.003 172.54 478.427 167.889C478.427 167.889 478.695 175.664 464.573 178.518L463.776 171.604Z" fill="#E06A4B"/>
<path d="M490.426 160.382C488.846 160.382 487.515 159.149 487.417 157.552C487.315 155.893 488.583 154.46 490.243 154.358C491.889 154.262 493.336 155.522 493.437 157.182C493.487 157.986 493.22 158.761 492.686 159.364C492.153 159.967 491.416 160.326 490.612 160.376C490.551 160.38 490.488 160.382 490.426 160.382ZM490.429 155.353C490.388 155.353 490.346 155.355 490.304 155.357C489.195 155.425 488.347 156.383 488.415 157.491C488.483 158.599 489.434 159.441 490.552 159.378C491.089 159.345 491.581 159.105 491.939 158.701C492.295 158.298 492.473 157.781 492.44 157.243C492.374 156.177 491.484 155.353 490.429 155.353Z" fill="white"/>
<path d="M493.141 183.714L489.33 175.9C489.069 175.365 488.258 175.223 487.771 175.626L473.996 186.888L464.671 177.137C463.884 176.304 462.635 176.892 462.541 178.142L460.035 184.582C459.739 185.342 459.892 186.196 460.435 186.817L466.929 194.245C467.387 195.082 468.398 195.141 468.921 194.36L473.94 188.163L481.815 195.904C482.681 196.642 484.117 196.542 484.831 195.694L492.836 186.186C493.418 185.497 493.538 184.527 493.141 183.714Z" fill="#5C69AB"/>
<path d="M483.217 196.901C482.574 196.901 481.956 196.683 481.49 196.287L473.981 188.908L469.309 194.677C468.994 195.148 468.474 195.431 467.889 195.411C467.332 195.386 466.824 195.061 466.517 194.538L460.058 187.148C459.393 186.387 459.205 185.335 459.569 184.402L462.049 178.027C462.136 177.237 462.615 176.582 463.288 176.343C463.908 176.122 464.561 176.293 465.034 176.795L474.037 186.21L487.453 175.24C487.81 174.944 488.307 174.827 488.784 174.932C489.23 175.029 489.594 175.302 489.778 175.682L493.588 183.496C494.071 184.485 493.925 185.669 493.216 186.511L485.212 196.019C484.793 196.516 484.151 196.834 483.45 196.893C483.373 196.898 483.295 196.901 483.217 196.901ZM474.004 187.528L482.165 195.549C482.459 195.797 482.911 195.931 483.369 195.894C483.807 195.858 484.2 195.668 484.448 195.373L492.452 185.865C492.907 185.325 493.001 184.567 492.691 183.932L488.88 176.118C488.83 176.016 488.718 175.939 488.572 175.907C488.401 175.871 488.211 175.908 488.088 176.011L474.004 187.528ZM463.824 177.249C463.758 177.249 463.69 177.261 463.623 177.285C463.301 177.399 463.072 177.75 463.04 178.18L463.007 178.323L460.501 184.764C460.273 185.349 460.393 186.01 460.811 186.489L467.367 194.006C467.503 194.254 467.71 194.401 467.935 194.411C468.152 194.418 468.359 194.302 468.506 194.082L473.86 187.469L464.311 177.483C464.165 177.329 463.997 177.249 463.824 177.249Z" fill="#111111"/>
<path d="M265.417 452.895C265.395 452.895 265.373 452.894 265.35 452.89C265.077 452.854 264.885 452.602 264.921 452.329L287.803 282.519L313.621 450.76C313.663 451.033 313.475 451.288 313.203 451.33C312.926 451.372 312.675 451.185 312.633 450.912L287.867 289.53L265.912 452.461C265.878 452.712 265.663 452.895 265.417 452.895Z" fill="#111111"/>
<path d="M510.569 452.895C510.547 452.895 510.524 452.894 510.502 452.89C510.228 452.854 510.036 452.602 510.073 452.329L532.954 282.519L558.772 450.76C558.814 451.033 558.626 451.288 558.354 451.33C558.078 451.372 557.826 451.185 557.784 450.912L533.019 289.53L511.064 452.461C511.03 452.712 510.816 452.895 510.569 452.895Z" fill="#111111"/>
<path d="M559.55 285.683H260.625C259.405 285.683 258.417 284.694 258.417 283.475V266.817C258.417 265.598 259.406 264.609 260.625 264.609H559.55C560.77 264.609 561.758 265.598 561.758 266.817V283.475C561.758 284.695 560.769 285.683 559.55 285.683Z" fill="#EB8D2E"/>
<path opacity="0.46" d="M558.212 276.869H261.962C260.004 276.869 258.416 278.237 258.416 279.926V282.627C258.416 284.315 260.003 285.684 261.962 285.684H558.212C560.17 285.684 561.758 284.316 561.758 282.627V279.926C561.758 278.237 560.17 276.869 558.212 276.869Z" fill="#E16C2E"/>
<path d="M304.967 258.266H301.822C301.546 258.266 301.322 258.042 301.322 257.766C301.322 257.49 301.546 257.266 301.822 257.266H304.967C307.39 257.266 309.36 255.295 309.36 252.873V250.153C309.36 249.411 308.756 248.807 308.013 248.807H301.821C301.545 248.807 301.321 248.583 301.321 248.307C301.321 248.031 301.545 247.807 301.821 247.807H308.013C309.307 247.807 310.36 248.86 310.36 250.153V252.873C310.36 255.846 307.94 258.266 304.967 258.266Z" fill="#111111"/>
<path d="M304.268 264.609H284.996V243.012C284.996 242.156 285.69 241.462 286.546 241.462H302.917C303.663 241.462 304.268 242.067 304.268 242.813V264.609Z" fill="#5C69AB"/>
<path d="M339.982 213.383H391.096C392.924 213.383 394.527 214.604 395.013 216.366L406.788 259.05H408.242H441.034C441.657 259.05 442.029 259.744 441.683 260.263L438.979 264.319H408.242H349.841L336.064 218.659C335.271 216.031 337.237 213.383 339.982 213.383Z" fill="#2D2D30"/>
<path d="M345.449 264.424H403.85L390.622 216.471C390.136 214.709 388.533 213.488 386.705 213.488H335.591C332.846 213.488 330.88 216.136 331.672 218.764L345.449 264.424Z" fill="#111111"/>
<path d="M364.286 247.325C360.67 247.325 357.728 244.383 357.728 240.767C357.728 237.151 360.669 234.208 364.286 234.208C367.902 234.208 370.845 237.15 370.845 240.767C370.845 244.383 367.902 247.325 364.286 247.325ZM364.286 235.208C361.222 235.208 358.728 237.702 358.728 240.767C358.728 243.832 361.221 246.325 364.286 246.325C367.351 246.325 369.845 243.832 369.845 240.767C369.845 237.702 367.352 235.208 364.286 235.208Z" fill="#F6EEE3"/>
<path d="M497.296 229.17C497.085 229.17 496.889 229.036 496.82 228.824L493.956 220.01L491.251 220.257C489.56 220.413 488.072 219.217 487.855 217.536L486.162 204.5C486.127 204.226 486.32 203.975 486.594 203.94C486.861 203.902 487.118 204.097 487.155 204.371L488.848 217.407C488.995 218.552 490.017 219.367 491.161 219.26L494.662 218.941L497.772 228.514C497.857 228.776 497.713 229.059 497.451 229.144C497.4 229.162 497.347 229.17 497.296 229.17Z" fill="#111111"/>
<path d="M176.02 413.563V427.023L199.092 426.405L199.943 414.209L176.02 413.563Z" fill="#E8A185"/>
<path d="M201.3 425.36L204.872 428.733L225.743 447.856C227.125 449.122 226.202 451.425 224.328 451.386L177.302 450.417C176.046 450.391 175.056 449.339 175.106 448.083L175.319 426.056L201.3 425.36Z" fill="#E16C2E"/>
<path d="M225.742 447.856L225.016 447.191C224.661 447.511 224.199 447.726 223.636 447.714L176.61 446.745C176.031 446.733 175.515 446.496 175.125 446.129L175.106 448.083C175.055 449.339 176.046 450.39 177.302 450.417L224.328 451.386C226.202 451.424 227.124 449.122 225.742 447.856Z" fill="#111111"/>
<path d="M218.922 447.969C218.919 447.969 218.917 447.969 218.914 447.969L175.15 447.289C174.874 447.285 174.653 447.057 174.658 446.781C174.662 446.505 174.845 446.284 175.166 446.289L218.93 446.969C219.206 446.973 219.427 447.2 219.422 447.477C219.418 447.75 219.194 447.969 218.922 447.969Z" fill="white"/>
<path d="M185.184 440.579C184.9 440.579 184.613 440.552 184.328 440.495C183.18 440.269 182.189 439.609 181.537 438.639C180.885 437.667 180.65 436.5 180.876 435.352C181.102 434.204 181.762 433.212 182.733 432.56C183.704 431.908 184.872 431.671 186.02 431.9C187.168 432.126 188.16 432.786 188.812 433.757C189.464 434.729 189.699 435.896 189.473 437.044C189.247 438.192 188.587 439.184 187.616 439.835C186.885 440.325 186.044 440.579 185.184 440.579ZM185.167 432.815C184.503 432.815 183.854 433.011 183.291 433.389C182.542 433.893 182.032 434.658 181.858 435.544C181.498 437.372 182.693 439.153 184.522 439.514C185.408 439.687 186.309 439.508 187.059 439.004C187.808 438.501 188.318 437.736 188.492 436.85C188.667 435.964 188.486 435.063 187.982 434.313C187.479 433.563 186.714 433.054 185.828 432.879C185.607 432.837 185.386 432.815 185.167 432.815Z" fill="white"/>
<path d="M200.904 433.504C200.782 433.504 200.66 433.46 200.564 433.37C200.362 433.182 200.35 432.866 200.538 432.664L204.505 428.393C204.692 428.189 205.009 428.177 205.211 428.367C205.413 428.555 205.425 428.871 205.237 429.073L201.27 433.344C201.172 433.45 201.039 433.504 200.904 433.504Z" fill="white"/>
<path d="M204.116 436.575C203.994 436.575 203.872 436.531 203.776 436.441C203.574 436.253 203.562 435.937 203.75 435.735L207.717 431.463C207.905 431.259 208.221 431.248 208.424 431.437C208.626 431.625 208.638 431.941 208.45 432.143L204.483 436.414C204.384 436.522 204.251 436.575 204.116 436.575Z" fill="white"/>
<path d="M207.136 439.593C207.014 439.593 206.892 439.549 206.796 439.459C206.594 439.271 206.582 438.955 206.77 438.753L210.737 434.482C210.925 434.279 211.241 434.266 211.443 434.456C211.645 434.644 211.657 434.96 211.469 435.162L207.502 439.433C207.404 439.539 207.271 439.593 207.136 439.593Z" fill="white"/>
<path d="M201.079 428.153C200.98 428.153 200.88 428.129 200.785 428.081C199.78 427.577 197.537 422.118 197.387 421.275C197.144 419.91 198.056 418.601 199.42 418.358C200.08 418.242 200.749 418.386 201.299 418.771C201.85 419.155 202.218 419.731 202.336 420.392C202.41 420.807 202.846 427.337 201.34 428.091C201.259 428.133 201.169 428.153 201.079 428.153ZM198.371 421.1C198.536 422.026 200.28 425.895 201.043 426.959C201.492 425.864 201.575 421.826 201.351 420.568C201.28 420.17 201.058 419.823 200.726 419.591C200.394 419.359 199.993 419.273 199.595 419.342C198.773 419.489 198.224 420.277 198.371 421.1Z" fill="white"/>
<path d="M201.709 428.164C201.25 428.164 200.919 428.083 200.798 427.884C200.708 427.733 200.62 427.478 200.715 427.111C201.104 425.601 204.761 422.675 205.614 422.182C206.812 421.488 208.354 421.899 209.049 423.097C209.385 423.679 209.475 424.357 209.302 425.005C209.129 425.654 208.714 426.196 208.133 426.532C207.756 426.75 203.622 428.164 201.709 428.164ZM206.871 422.844C206.614 422.844 206.353 422.909 206.115 423.047C205.025 423.678 202.129 426.241 201.722 427.211C202.898 427.146 206.795 426.151 207.632 425.667C207.982 425.465 208.232 425.138 208.337 424.747C208.441 424.356 208.387 423.948 208.185 423.598C207.903 423.114 207.394 422.844 206.871 422.844Z" fill="white"/>
<path d="M142.082 413.563V427.023L165.154 426.405L166.004 414.209L142.082 413.563Z" fill="#E8A185"/>
<path d="M166.547 426.368L170.119 429.741L190.99 448.864C192.372 450.13 191.449 452.432 189.575 452.394L142.549 451.425C141.293 451.399 140.303 450.347 140.353 449.092L140.566 427.065L166.547 426.368Z" fill="#EB8D2E"/>
<path d="M190.99 448.864L190.264 448.199C189.909 448.519 189.447 448.733 188.884 448.722L141.858 447.753C141.279 447.741 140.763 447.504 140.373 447.137L140.354 449.092C140.304 450.347 141.294 451.399 142.55 451.425L189.576 452.394C191.449 452.432 192.372 450.13 190.99 448.864Z" fill="#111111"/>
<path d="M184.169 448.977C184.167 448.977 184.164 448.977 184.161 448.977L140.398 448.297C140.122 448.293 139.901 448.065 139.906 447.789C139.91 447.513 140.097 447.273 140.414 447.297L184.177 447.977C184.453 447.981 184.674 448.208 184.669 448.485C184.665 448.758 184.442 448.977 184.169 448.977Z" fill="white"/>
<path d="M150.431 441.588C150.147 441.588 149.861 441.561 149.576 441.504C148.428 441.278 147.436 440.618 146.784 439.647C146.132 438.675 145.897 437.508 146.123 436.36C146.59 433.99 148.901 432.438 151.268 432.908C153.638 433.376 155.186 435.683 154.72 438.053C154.494 439.201 153.834 440.193 152.863 440.845C152.133 441.334 151.292 441.588 150.431 441.588ZM150.421 433.824C148.839 433.824 147.422 434.942 147.105 436.553C146.93 437.439 147.111 438.34 147.615 439.09C148.118 439.84 148.883 440.349 149.769 440.524C150.655 440.699 151.557 440.517 152.306 440.014C153.056 439.51 153.565 438.745 153.739 437.859C154.099 436.031 152.904 434.25 151.075 433.888C150.856 433.845 150.637 433.824 150.421 433.824Z" fill="white"/>
<path d="M166.152 434.513C166.03 434.513 165.908 434.469 165.812 434.379C165.61 434.191 165.598 433.875 165.786 433.673L169.753 429.401C169.941 429.198 170.257 429.185 170.46 429.375C170.662 429.563 170.674 429.879 170.486 430.081L166.519 434.352C166.42 434.459 166.287 434.513 166.152 434.513Z" fill="white"/>
<path d="M169.364 437.583C169.242 437.583 169.12 437.539 169.024 437.449C168.822 437.261 168.81 436.945 168.998 436.743L172.965 432.472C173.152 432.269 173.469 432.256 173.672 432.446C173.874 432.634 173.886 432.95 173.698 433.152L169.731 437.424C169.632 437.529 169.498 437.583 169.364 437.583Z" fill="white"/>
<path d="M172.384 440.602C172.262 440.602 172.14 440.558 172.044 440.468C171.842 440.28 171.83 439.964 172.018 439.762L175.985 435.491C176.171 435.288 176.489 435.275 176.692 435.465C176.894 435.653 176.906 435.969 176.718 436.171L172.751 440.443C172.652 440.548 172.518 440.602 172.384 440.602Z" fill="white"/>
<path d="M166.326 429.161C166.228 429.161 166.127 429.137 166.033 429.09C165.028 428.586 162.784 423.126 162.634 422.283C162.516 421.622 162.663 420.955 163.047 420.403C163.431 419.852 164.007 419.484 164.668 419.366C166.03 419.123 167.341 420.036 167.584 421.4C167.658 421.815 168.096 428.346 166.588 429.099C166.506 429.141 166.417 429.161 166.326 429.161ZM165.108 420.327C165.02 420.327 164.932 420.335 164.842 420.35C164.444 420.421 164.097 420.643 163.866 420.975C163.635 421.307 163.547 421.708 163.617 422.107C163.782 423.033 165.526 426.902 166.289 427.966C166.739 426.87 166.822 422.832 166.598 421.575C166.469 420.844 165.828 420.327 165.108 420.327Z" fill="white"/>
<path d="M166.958 429.172C166.498 429.172 166.167 429.091 166.047 428.891C165.957 428.742 165.869 428.486 165.963 428.12C166.351 426.611 170.007 423.684 170.862 423.19C171.442 422.853 172.12 422.761 172.769 422.936C173.418 423.11 173.96 423.525 174.297 424.107C174.633 424.687 174.723 425.365 174.55 426.013C174.377 426.662 173.961 427.204 173.38 427.54C173.004 427.758 168.871 429.172 166.958 429.172ZM172.118 423.851C171.855 423.851 171.596 423.919 171.362 424.055C170.272 424.686 167.377 427.249 166.969 428.219C168.145 428.153 172.042 427.159 172.879 426.675C173.229 426.473 173.479 426.146 173.584 425.755C173.688 425.364 173.634 424.957 173.432 424.607C173.229 424.256 172.903 424.006 172.512 423.902C172.381 423.867 172.249 423.851 172.118 423.851Z" fill="white"/>
<path d="M229.063 323.011L206.004 236.423H174.598L174.081 230.441H138.859L134.083 244.489C131.199 252.972 131.047 262.147 133.65 270.721L134.253 272.708L138.859 324.458L137.685 416.773C137.664 418.447 139.027 419.809 140.701 419.786L166.88 419.424C168.293 419.404 169.465 418.324 169.598 416.917L178.219 326.027C178.316 324.982 178.359 323.933 178.349 322.883L177.95 282.059L190.265 330.335L174.114 415.126C173.783 416.864 175.116 418.475 176.885 418.475H201.185C202.93 418.475 204.475 417.347 205.006 415.684L228.313 342.674C230.528 336.342 230.789 329.492 229.063 323.011Z" fill="#111111"/>
<path d="M178.132 283.542C178.114 283.542 178.094 283.541 178.075 283.539C177.801 283.508 177.603 283.26 177.634 282.986L180.052 261.585C180.184 260.413 180.219 259.224 180.156 258.047L179.38 243.609C179.365 243.333 179.577 243.098 179.853 243.083C180.12 243.066 180.364 243.28 180.379 243.556L181.155 257.994C181.221 259.224 181.184 260.471 181.046 261.696L178.628 283.097C178.599 283.353 178.383 283.542 178.132 283.542Z" fill="white"/>
<path d="M218.291 159.309L232.907 175.937L250.496 146.919L263.554 155.433L252.031 199.838C248.129 214.877 228.803 219.121 218.958 207.102L204.046 188.897L218.291 159.309Z" fill="#E8A185"/>
<path d="M228.42 184.124C228.334 184.124 228.247 184.102 228.168 184.056C227.93 183.916 227.85 183.61 227.989 183.372L232.887 175.005C233.027 174.766 233.334 174.686 233.571 174.826C233.809 174.966 233.889 175.272 233.75 175.51L228.852 183.877C228.759 184.036 228.592 184.124 228.42 184.124Z" fill="#E06A4B"/>
<path d="M289.139 128.942H237.97V196.384H289.139V128.942Z" fill="white"/>
<path d="M265.563 141.816H244.223C244.016 141.816 243.848 141.648 243.848 141.441C243.848 141.234 244.016 141.066 244.223 141.066H265.563C265.77 141.066 265.938 141.234 265.938 141.441C265.938 141.648 265.77 141.816 265.563 141.816Z" fill="#5C69AB"/>
<path d="M268.652 151.251H244.223C244.016 151.251 243.848 151.083 243.848 150.876C243.848 150.669 244.016 150.501 244.223 150.501H268.652C268.859 150.501 269.027 150.669 269.027 150.876C269.027 151.083 268.859 151.251 268.652 151.251Z" fill="#5C69AB"/>
<path d="M268.652 181.651H244.223C244.016 181.651 243.848 181.483 243.848 181.276C243.848 181.069 244.016 180.901 244.223 180.901H268.652C268.859 180.901 269.027 181.069 269.027 181.276C269.027 181.483 268.859 181.651 268.652 181.651Z" fill="#5C69AB"/>
<path d="M282.454 157.99H244.224C244.017 157.99 243.849 157.822 243.849 157.615C243.849 157.408 244.017 157.24 244.224 157.24H282.454C282.661 157.24 282.829 157.408 282.829 157.615C282.829 157.822 282.661 157.99 282.454 157.99Z" fill="#5C69AB"/>
<path d="M282.454 173.658H244.224C244.017 173.658 243.849 173.49 243.849 173.283C243.849 173.076 244.017 172.908 244.224 172.908H282.454C282.661 172.908 282.829 173.076 282.829 173.283C282.829 173.49 282.661 173.658 282.454 173.658Z" fill="#5C69AB"/>
<path d="M282.454 151.251H270.956C270.749 151.251 270.581 151.083 270.581 150.876C270.581 150.669 270.749 150.501 270.956 150.501H282.454C282.661 150.501 282.829 150.669 282.829 150.876C282.829 151.083 282.661 151.251 282.454 151.251Z" fill="#5C69AB"/>
<path d="M255.721 165.908H244.223C244.016 165.908 243.848 165.74 243.848 165.533C243.848 165.326 244.016 165.158 244.223 165.158H255.721C255.928 165.158 256.096 165.326 256.096 165.533C256.096 165.74 255.928 165.908 255.721 165.908Z" fill="#5C69AB"/>
<path d="M257.526 121.044C259.06 121.167 260.214 122.522 260.091 124.056L259.39 132.813C259.267 134.347 257.912 135.501 256.378 135.378C254.844 135.255 253.69 133.9 253.813 132.366L254.514 123.609C254.637 122.076 255.992 120.921 257.526 121.044Z" fill="#E8A185"/>
<path d="M251.91 120.5C253.444 120.623 254.598 121.978 254.475 123.512L253.718 132.965C253.595 134.499 252.24 135.653 250.706 135.53C249.172 135.407 248.018 134.052 248.141 132.518L248.898 123.065C249.021 121.532 250.376 120.377 251.91 120.5Z" fill="#E8A185"/>
<path d="M262.876 123.373C264.41 123.496 265.564 124.851 265.441 126.385L264.986 132.072C264.863 133.606 263.508 134.76 261.974 134.637C260.44 134.514 259.286 133.159 259.409 131.625L259.864 125.938C259.987 124.405 261.342 123.25 262.876 123.373Z" fill="#E8A185"/>
<path d="M268.18 123.852C269.714 123.975 270.868 125.33 270.745 126.864L270.521 129.665C270.398 131.199 269.043 132.353 267.509 132.23C265.975 132.107 264.821 130.752 264.944 129.218L265.168 126.417C265.291 124.884 266.647 123.73 268.18 123.852Z" fill="#E8A185"/>
<path d="M253.956 132.998C253.944 132.998 253.933 132.997 253.92 132.996C253.645 132.977 253.437 132.738 253.457 132.462L254.082 123.549C254.101 123.274 254.333 123.058 254.616 123.086C254.891 123.105 255.099 123.344 255.079 123.62L254.454 132.533C254.436 132.796 254.216 132.998 253.956 132.998Z" fill="#E06A4B"/>
<path d="M259.788 133.345C259.775 133.345 259.763 133.344 259.749 133.344C259.474 133.323 259.268 133.083 259.289 132.807L259.914 124.624C259.935 124.349 260.171 124.142 260.451 124.164C260.726 124.185 260.932 124.425 260.911 124.701L260.286 132.884C260.266 133.145 260.047 133.345 259.788 133.345Z" fill="#E06A4B"/>
<path d="M265.249 132.325C265.241 132.325 265.232 132.325 265.224 132.325C264.948 132.311 264.736 132.077 264.749 131.801L265.062 125.36C265.076 125.085 265.314 124.872 265.586 124.885C265.862 124.899 266.074 125.133 266.061 125.409L265.748 131.85C265.734 132.117 265.514 132.325 265.249 132.325Z" fill="#E06A4B"/>
<path d="M229.111 165.31L205.225 142.88C201.267 138.013 195.306 134.845 188.589 134.647L151.865 133.568C151.492 133.568 151.126 133.593 150.76 133.621L150.719 133.565L143.837 133.696C133.714 133.889 124.383 139.848 120.561 149.224C120.054 150.468 119.64 151.763 119.331 153.103L112.962 181.874C112.515 183.894 114.014 185.824 116.082 185.89L134.586 186.482L130.423 239.798H213.353L211.456 189.279L229.263 170.478C230.652 169.012 230.585 166.694 229.111 165.31Z" fill="#5C69AB"/>
<path d="M200.522 75.763C199.835 72.521 197.109 69.961 193.636 69.639C193.275 69.606 192.92 69.606 192.569 69.622C188.8 66.367 186.172 62.847 179.565 63.697C177.018 64.025 174.651 65.337 173.202 67.458C173 67.753 172.824 68.07 172.662 68.396C172.532 68.659 169.162 69.037 168.714 69.161C165.565 70.032 161.537 71.33 159.966 74.448C159.271 75.828 159.051 77.382 158.994 78.936C156.619 80.821 155.652 84.157 156.611 87.177L159.087 94.976C159.606 94.846 160.145 94.769 160.702 94.769H164.21H164.864C165.919 95.46 167.387 96.148 168.045 95.173C168.23 94.899 169.152 91.673 169.169 91.362C169.219 90.479 169.233 89.594 169.277 88.711C169.364 86.98 169.224 85.141 169.632 83.438C170.663 84.415 172.054 85.014 173.587 85.014H179.948C181.852 85.014 183.568 84.228 184.804 82.968C185.051 82.946 185.295 82.913 185.533 82.861C186.365 85.023 188.44 86.567 190.895 86.567H193.876C193.93 86.567 193.983 86.56 194.037 86.558C194.098 86.741 194.148 86.915 194.175 87.063C194.334 87.957 195.535 87.361 196.751 85.919C199.075 84.834 200.692 82.486 200.692 79.751V75.763H200.522Z" fill="#111111"/>
<path d="M190.894 86.5669C188.247 86.5669 186.022 84.7819 185.344 82.3509C184.098 83.9679 182.147 85.0139 179.948 85.0139H173.587C171.128 85.0139 169.034 83.4719 168.205 81.3049V94.7699H164.209H160.701C160.143 94.7699 159.604 94.8469 159.086 94.9769C156.184 95.7049 154.016 98.3359 154.016 101.456V102.108C154.016 105.785 157.024 108.794 160.702 108.794H162.486L160.7 131.113C160.178 137.639 165.044 143.352 171.57 143.874L172.723 143.966C179.248 144.488 184.962 139.622 185.484 133.096L186.157 124.689C192.055 124.591 196.808 119.787 196.808 113.866V87.7429C196.808 87.1389 196.746 86.5499 196.651 85.9729C195.803 86.3519 194.865 86.5669 193.876 86.5669H190.894Z" fill="#E8A185"/>
<path d="M159.93 104.357C159.766 104.357 159.607 104.277 159.511 104.13C159.36 103.899 159.426 103.589 159.657 103.438L161.462 102.261L159.401 99.967C159.216 99.762 159.233 99.446 159.439 99.261C159.643 99.077 159.96 99.093 160.145 99.299L162.597 102.028C162.695 102.136 162.74 102.282 162.721 102.427C162.702 102.572 162.621 102.701 162.498 102.781L160.204 104.277C160.119 104.331 160.024 104.357 159.93 104.357Z" fill="#E06A4B"/>
<path d="M186.102 105.407H184.228C183.952 105.407 183.728 105.183 183.728 104.907C183.728 104.631 183.952 104.407 184.228 104.407H186.102C186.629 104.407 187.125 104.176 187.464 103.772C187.802 103.369 187.944 102.84 187.853 102.321L186.695 95.7441C186.647 95.4721 186.829 95.2131 187.101 95.1651C187.372 95.1181 187.632 95.2991 187.68 95.5711L188.838 102.148C188.981 102.958 188.759 103.785 188.23 104.415C187.7 105.045 186.925 105.407 186.102 105.407Z" fill="#E06A4B"/>
<path d="M193.444 99.4791C193.578 100.219 193.087 100.928 192.347 101.062C191.607 101.196 190.898 100.705 190.764 99.9651C190.63 99.2251 191.121 98.5161 191.861 98.3821C192.601 98.2481 193.31 98.7391 193.444 99.4791Z" fill="#111111"/>
<path d="M184.917 117.545C184.856 117.561 184.79 117.557 184.727 117.529C184.664 117.5 183.164 116.842 182.052 118.02C181.945 118.134 181.766 118.139 181.651 118.031C181.537 117.924 181.532 117.744 181.639 117.63C183.036 116.153 184.944 117.004 184.963 117.012C185.105 117.077 185.167 117.245 185.102 117.387C185.066 117.469 184.996 117.524 184.917 117.545Z" fill="#E06A4B"/>
<path d="M173.424 94.7701C174.131 94.9521 174.976 94.7341 175.804 94.5701C176.635 94.3881 177.473 94.2251 178.207 94.1101C178.942 93.9941 179.791 93.8901 180.637 93.8071C181.476 93.7071 182.351 93.6531 182.958 93.2641C183.546 92.8981 183.683 92.0941 182.787 91.2721C181.942 90.4681 179.95 89.7631 177.517 90.1411C175.089 90.5301 173.441 91.8101 172.912 92.8301C172.344 93.8841 172.744 94.6041 173.424 94.7701Z" fill="#111111"/>
<path d="M196.615 94.8519C196.121 94.9969 195.542 94.8289 194.973 94.7029C194.403 94.5629 193.827 94.4379 193.323 94.3499C192.818 94.2609 192.233 94.1829 191.65 94.1209C191.072 94.0459 190.469 94.0059 190.058 93.7029C189.66 93.4179 189.586 92.7869 190.225 92.1389C190.83 91.5049 192.224 90.9449 193.898 91.2329C195.568 91.5299 196.676 92.5279 197.016 93.3279C197.384 94.1529 197.09 94.7199 196.615 94.8519Z" fill="#111111"/>
<path d="M181.59 99.9509C181.528 100.772 180.813 101.387 179.992 101.325C179.171 101.263 178.556 100.548 178.618 99.7269C178.68 98.9059 179.395 98.2909 180.216 98.3529C181.036 98.4149 181.651 99.1309 181.59 99.9509Z" fill="#111111"/>
<path d="M178.565 101.402C178.565 101.402 179.896 100.445 181.187 101.586Z" fill="#E8A185"/>
<path d="M181.187 102.085C181.069 102.085 180.951 102.044 180.856 101.96C179.906 101.121 178.959 101.736 178.854 101.81C178.628 101.966 178.317 101.914 178.158 101.689C177.999 101.465 178.05 101.156 178.273 100.996C178.846 100.584 180.259 100.1 181.518 101.21C181.725 101.393 181.745 101.709 181.562 101.916C181.462 102.028 181.325 102.085 181.187 102.085Z" fill="#E06A4B"/>
<path d="M191.044 101.306C191.044 101.306 192.249 100.766 193.361 101.33Z" fill="#E8A185"/>
<path d="M193.361 101.83C193.285 101.83 193.208 101.813 193.135 101.776C192.257 101.33 191.256 101.758 191.246 101.764C190.993 101.875 190.7 101.759 190.588 101.508C190.477 101.257 190.588 100.963 190.84 100.85C190.898 100.824 192.278 100.221 193.588 100.885C193.834 101.01 193.933 101.31 193.808 101.557C193.719 101.729 193.543 101.83 193.361 101.83Z" fill="#E06A4B"/>
<path d="M177.357 105.978C177.82 105.67 178.436 105.746 178.847 106.122C179.595 106.807 181.222 108.021 183.553 108.259C184.125 108.317 184.421 108.983 184.175 109.503C183.635 110.647 182.188 112.411 179.176 110.998C175.507 109.277 176.149 106.782 177.357 105.978Z" fill="white"/>
<path d="M186.086 124.751C186.086 124.751 173.905 125.537 170.898 120.603C170.898 120.603 172.572 131.413 185.54 131.569L186.086 124.751Z" fill="#E06A4B"/>
<path d="M191.026 139.137L188.227 131.943C188.121 130.547 186.727 129.89 185.847 130.821L175.58 141.557C175.496 141.645 175.358 141.653 175.264 141.576L160.045 129.133C159.501 128.682 158.595 128.842 158.303 129.439L154.046 138.167C153.603 139.075 153.737 140.158 154.388 140.93L163.329 151.55C164.127 152.497 165.73 152.609 166.698 151.785L175.134 143.994C175.317 143.825 175.602 143.84 175.767 144.026L181.101 150.06C181.686 150.931 182.815 150.866 183.327 149.931L190.58 141.633C191.186 140.941 191.357 139.986 191.026 139.137Z" fill="#5C69AB"/>
<path d="M165.131 152.839C165.046 152.839 164.96 152.836 164.875 152.828C164.107 152.765 163.405 152.416 162.947 151.873L154.006 141.252C153.229 140.329 153.068 139.032 153.598 137.947L157.854 129.219C158.053 128.811 158.443 128.517 158.925 128.413C159.438 128.301 159.976 128.427 160.364 128.747L175.39 141.032L185.486 130.474C185.997 129.933 186.704 129.749 187.372 129.987C188.104 130.246 188.626 130.964 188.718 131.827L191.492 138.955C191.889 139.976 191.684 141.129 190.956 141.962L183.736 150.221C183.405 150.791 182.853 151.145 182.249 151.173C181.646 151.2 181.055 150.889 180.685 150.339L175.392 144.357L167.037 152.152C166.515 152.599 165.835 152.839 165.131 152.839ZM159.3 129.374C159.246 129.374 159.191 129.38 159.136 129.392C158.955 129.431 158.816 129.528 158.752 129.659L154.496 138.387C154.14 139.117 154.248 139.989 154.77 140.609L163.711 151.23C163.999 151.571 164.453 151.791 164.957 151.832C165.488 151.877 166.003 151.721 166.373 151.406L174.794 143.628C174.983 143.454 175.232 143.367 175.483 143.379C175.738 143.392 175.972 143.505 176.142 143.697L181.476 149.731C181.692 150.045 181.948 150.191 182.205 150.176C182.478 150.164 182.727 149.987 182.889 149.693L182.951 149.604L190.204 141.307C190.686 140.755 190.823 139.994 190.561 139.321L187.729 131.984C187.691 131.481 187.42 131.069 187.039 130.933C186.746 130.83 186.452 130.913 186.212 131.167L175.943 141.906C175.681 142.181 175.246 142.207 174.951 141.967L159.73 129.523C159.613 129.425 159.46 129.374 159.3 129.374Z" fill="#111111"/>
<path d="M216.314 157.95H194.523C194.033 157.95 193.636 158.347 193.636 158.836V160.766C193.636 161.256 194.033 161.653 194.523 161.653H216.314C216.803 161.653 217.2 161.256 217.2 160.766V158.836C217.2 158.347 216.803 157.95 216.314 157.95Z" fill="#EB8D2E"/>
<path d="M215.288 194.685H195.549L191.872 162.663H218.965L215.288 194.685Z" fill="#EB8D2E"/>
<path d="M218.467 166.144H192.369C190.925 166.144 189.754 164.973 189.754 163.529C189.754 162.084 190.925 160.914 192.369 160.914H218.467C219.911 160.914 221.082 162.085 221.082 163.529C221.083 164.973 219.912 166.144 218.467 166.144Z" fill="#111111"/>
<path d="M205.418 182.994C208.819 182.994 211.577 180.237 211.577 176.835C211.577 173.434 208.819 170.676 205.418 170.676C202.016 170.676 199.259 173.434 199.259 176.835C199.259 180.237 202.016 182.994 205.418 182.994Z" fill="#F6EEE3"/>
<path d="M219.278 181.125C219.32 178.394 217.126 177.916 214.935 178.02C216.426 177.656 217.694 176.855 217.461 175.012C216.346 169.796 210.094 172.373 206.169 173.455C204.354 174.098 202.686 174.665 201.124 175.185C201.851 173.43 202.579 171.654 202.643 169.767C202.664 169.16 202.578 168.476 202.105 168.094C201.741 167.801 201.223 167.762 200.772 167.884C200.321 168.006 199.923 168.269 199.539 168.535C195.958 171.016 187.017 180.115 187.017 180.115C186.12 181.218 185.305 182.414 184.574 183.656L147.062 195.518L148.767 186.684L117.469 185.763L113.721 204.673C112.115 218.838 126.061 229.686 139.395 224.644L192.536 203.684C193.921 203.752 195.2 203.636 196.161 203.19L211.783 196.415C214.72 195.315 215.988 191.488 213.636 191.032C216.06 190.788 218.631 189.653 218.026 186.721C217.881 185.063 216.678 184.609 215.281 184.572C217.491 184.293 219.595 183.596 219.278 181.125ZM211.69 184.912C211.976 184.862 212.309 184.827 212.672 184.796C212.313 184.845 211.979 184.889 211.69 184.912Z" fill="#E8A185"/>
<path d="M147.212 195.247C147.181 195.247 147.149 195.244 147.117 195.238C146.846 195.186 146.668 194.924 146.721 194.653L148.356 186.181L152.432 186.214C152.436 186.214 152.44 186.214 152.445 186.214C153.224 186.214 153.86 185.608 153.896 184.829L154.973 161.877C154.986 161.601 155.217 161.382 155.496 161.401C155.772 161.414 155.985 161.648 155.972 161.924L154.895 184.876C154.833 186.199 153.756 187.241 152.424 187.214L149.181 187.188L147.703 194.842C147.656 195.081 147.447 195.247 147.212 195.247Z" fill="#111111"/>
<path opacity="0.36" d="M201.125 175.184L192.624 178.843C192.624 178.843 200.702 172.468 202.297 171.946L201.125 175.184Z" fill="#E06A4B"/>
<path d="M209.718 180.135C209.51 180.135 209.316 180.005 209.245 179.797C209.156 179.536 209.295 179.252 209.556 179.162C210.089 178.979 214.791 177.375 215.728 177.325C215.99 177.285 216.239 177.521 216.254 177.797C216.269 178.072 216.057 178.308 215.781 178.323C215.18 178.355 211.842 179.435 209.879 180.108C209.827 180.126 209.772 180.135 209.718 180.135Z" fill="#E06A4B"/>
<path d="M141.501 197.977C141.292 197.977 141.097 197.845 141.027 197.636C140.939 197.374 141.08 197.091 141.342 197.003L151.888 193.467C152.149 193.381 152.433 193.52 152.521 193.782C152.609 194.044 152.468 194.327 152.206 194.415L141.66 197.951C141.607 197.969 141.553 197.977 141.501 197.977Z" fill="#E06A4B"/>
<path d="M210.964 186.54C210.753 186.54 210.557 186.405 210.489 186.194C210.404 185.931 210.548 185.65 210.811 185.565L215.588 184.021C215.852 183.936 216.133 184.081 216.217 184.343C216.302 184.606 216.158 184.887 215.895 184.972L211.118 186.516C211.067 186.532 211.015 186.54 210.964 186.54Z" fill="#E06A4B"/>
<path d="M211.044 192.306C210.829 192.306 210.63 192.166 210.565 191.949C210.486 191.684 210.636 191.406 210.901 191.327L213.493 190.552C213.754 190.473 214.036 190.623 214.115 190.888C214.194 191.153 214.044 191.431 213.779 191.51L211.187 192.285C211.14 192.299 211.092 192.306 211.044 192.306Z" fill="#E06A4B"/>
</svg>
