<svg width="787" height="768" viewBox="0 0 787 768" fill="none" xmlns="http://www.w3.org/2000/svg">
<path d="M698.627 642.955C684.232 658.109 670.612 667.881 659.851 675.602C533.359 766.362 383.685 739.906 351.875 733.445C304.901 723.905 214.103 705.463 148.457 628.265C49.1411 511.471 64.606 327.466 141.642 206.001C155.734 183.783 230.167 60.4678 381.454 40.6919C473.01 28.7237 579.736 52.862 657.024 117.614C819.258 253.534 807.709 528.117 698.627 642.955Z" fill="url(#paint0_linear_68_491)"/>
<path d="M575.759 575.758C681.753 469.764 681.753 297.914 575.759 191.919C469.764 85.9252 297.914 85.9251 191.92 191.919C85.9253 297.914 85.9253 469.764 191.92 575.758C297.914 681.753 469.764 681.753 575.759 575.758Z" fill="#BDD0FB"/>
<path d="M383.845 615.484C511.779 615.484 615.49 511.773 615.49 383.839C615.49 255.905 511.779 152.194 383.845 152.194C255.911 152.194 152.2 255.905 152.2 383.839C152.2 511.773 255.911 615.484 383.845 615.484Z" fill="url(#paint1_linear_68_491)"/>
<path d="M383.845 627.087C249.719 627.087 140.599 517.967 140.599 383.839C140.599 249.711 249.719 140.592 383.845 140.592C517.971 140.592 627.091 249.711 627.091 383.839C627.091 517.967 517.971 627.087 383.845 627.087ZM383.845 152.194C256.116 152.194 152.202 256.109 152.202 383.839C152.202 511.569 256.116 615.484 383.845 615.484C511.574 615.484 615.489 511.569 615.489 383.839C615.489 256.109 511.574 152.194 383.845 152.194Z" fill="white"/>
<path d="M383.845 525.061C461.839 525.061 525.066 461.834 525.066 383.839C525.066 305.845 461.839 242.618 383.845 242.618C305.85 242.618 242.623 305.845 242.623 383.839C242.623 461.834 305.85 525.061 383.845 525.061Z" fill="url(#paint2_linear_68_491)"/>
<path d="M383.844 536.664C299.577 536.664 231.021 468.107 231.021 383.839C231.021 299.572 299.577 231.017 383.844 231.017C468.111 231.017 536.668 299.572 536.668 383.839C536.668 468.107 468.111 536.664 383.844 536.664ZM383.844 254.221C312.372 254.221 254.225 312.367 254.225 383.839C254.225 455.312 312.372 513.46 383.844 513.46C455.317 513.46 513.464 455.312 513.464 383.839C513.464 312.367 455.317 254.221 383.844 254.221Z" fill="white"/>
<path d="M383.843 438.552C414.061 438.552 438.557 414.056 438.557 383.839C438.557 353.622 414.061 329.125 383.843 329.125C353.626 329.125 329.13 353.622 329.13 383.839C329.13 414.056 353.626 438.552 383.843 438.552Z" fill="url(#paint3_linear_68_491)"/>
<path d="M383.844 450.155C347.277 450.155 317.528 420.406 317.528 383.839C317.528 347.271 347.277 317.522 383.844 317.522C420.41 317.522 450.16 347.271 450.16 383.839C450.16 420.406 420.41 450.155 383.844 450.155ZM383.844 340.727C360.072 340.727 340.733 360.066 340.733 383.839C340.733 407.612 360.072 426.951 383.844 426.951C407.615 426.951 426.956 407.612 426.956 383.839C426.956 360.066 407.615 340.727 383.844 340.727Z" fill="white"/>
<path d="M642.826 125.558L648.589 131.321L430.364 349.546L424.602 343.783L642.826 125.558Z" fill="url(#paint4_linear_68_491)"/>
<path d="M428.683 329.878C431.99 326.572 447.576 342.158 444.27 345.464L386.461 390.911C384.325 392.59 381.558 389.822 383.237 387.686L428.683 329.878Z" fill="url(#paint5_linear_68_491)"/>
<path d="M648.464 131.446L677.822 134.364L637.519 174.667C624.314 187.871 605.883 194.457 587.3 192.61L648.464 131.446Z" fill="#91B3FA"/>
<path d="M642.702 125.683L639.784 96.325L599.481 136.628C586.276 149.833 579.69 168.264 581.537 186.847L642.702 125.683Z" fill="#91B3FA"/>
<g opacity="0.3">
<path d="M239.809 85.0458C238.989 85.8661 237.659 85.8654 236.839 85.045C235.246 83.4513 233.56 81.9028 231.828 80.443C230.952 79.7043 230.831 78.4019 231.55 77.5153C231.559 77.5047 231.567 77.4944 231.576 77.4835C232.323 76.5967 233.648 76.484 234.535 77.2316C236.358 78.7685 238.134 80.3983 239.81 82.0762C240.577 82.8432 240.626 84.0567 239.958 84.8811C239.911 84.9382 239.862 84.9935 239.809 85.0458ZM222.91 73.9156C220.996 72.7059 219.012 71.567 217.011 70.5288C215.983 69.995 215.58 68.7274 216.114 67.6976C216.654 66.6661 217.916 66.2666 218.946 66.801C221.05 67.8927 223.139 69.0918 225.153 70.3641C226.133 70.9836 226.426 72.2812 225.807 73.2617C225.762 73.333 225.713 73.4007 225.661 73.4644C225 74.2797 223.819 74.4901 222.91 73.9156ZM206.876 66.1365C204.746 65.3854 202.559 64.7179 200.372 64.1522C199.249 63.8619 198.574 62.7159 198.864 61.5931C199.156 60.4716 200.3 59.7961 201.424 60.0858C203.727 60.6816 206.031 61.3847 208.273 62.1757C209.367 62.5615 209.941 63.7611 209.555 64.8551C209.473 65.0883 209.354 65.2977 209.207 65.4794C208.663 66.1494 207.736 66.4402 206.876 66.1365ZM189.505 62.1389C187.259 61.8822 184.976 61.7207 182.718 61.6573C181.559 61.6245 180.645 60.6581 180.678 59.4992C180.711 58.34 181.677 57.4272 182.836 57.4585C185.213 57.5255 187.617 57.696 189.98 57.9651C191.133 58.0967 191.96 59.1374 191.829 60.2897C191.782 60.7021 191.619 61.0729 191.375 61.3731C190.938 61.9117 190.245 62.2227 189.505 62.1389ZM171.677 62.1108C169.435 62.3589 167.172 62.7066 164.951 63.1452C163.813 63.3693 162.709 62.6287 162.484 61.4908C162.259 60.3521 163.001 59.2481 164.138 59.0245C166.474 58.5634 168.856 58.1975 171.215 57.9366C172.367 57.8087 173.405 58.6397 173.533 59.7928C173.597 60.3736 173.418 60.9254 173.077 61.3463C172.741 61.7604 172.249 62.0474 171.677 62.1108ZM154.286 66.0281C152.152 66.7669 150.023 67.6064 147.958 68.5241C146.898 68.995 145.657 68.5175 145.187 67.4581C144.715 66.398 145.192 65.1573 146.252 64.6858C148.425 63.7199 150.667 62.8364 152.913 62.059C154.009 61.6801 155.205 62.2609 155.584 63.3569C155.831 64.0689 155.672 64.8228 155.23 65.368C154.991 65.6618 154.671 65.8953 154.286 66.0281ZM100.718 122.705C99.5958 122.413 98.9224 121.266 99.2148 120.144C99.8138 117.844 100.521 115.54 101.318 113.295C101.706 112.202 102.907 111.63 104 112.019C105.092 112.406 105.664 113.607 105.276 114.699C104.52 116.831 103.848 119.019 103.28 121.203C103.202 121.502 103.063 121.769 102.88 121.995C102.377 122.615 101.541 122.92 100.718 122.705ZM138.207 73.6981C136.291 74.8923 134.404 76.1841 132.598 77.5388C131.67 78.2344 130.353 78.0464 129.658 77.1184C128.961 76.1899 129.154 74.8782 130.078 74.1781C131.98 72.7519 133.968 71.3914 135.985 70.1337C136.969 69.5203 138.264 69.8204 138.878 70.805C139.365 71.5854 139.277 72.5622 138.728 73.2387C138.585 73.4153 138.41 73.571 138.207 73.6981ZM106.856 105.462C105.828 104.926 105.429 103.657 105.965 102.628C107.063 100.522 108.267 98.4349 109.542 96.4248C110.16 95.4418 111.461 95.1558 112.441 95.7766C113.42 96.3978 113.71 97.6954 113.089 98.6752C111.877 100.585 110.733 102.569 109.689 104.571C109.623 104.699 109.544 104.816 109.457 104.924C108.841 105.683 107.757 105.931 106.856 105.462ZM124.247 84.7674C122.648 86.3593 121.097 88.0409 119.636 89.767C118.887 90.6531 117.562 90.7632 116.677 90.0139C115.803 89.2744 115.684 87.974 116.401 87.089C116.411 87.0776 116.42 87.0657 116.43 87.0549C117.967 85.2373 119.6 83.4665 121.283 81.7909C122.106 80.9731 123.435 80.9759 124.254 81.7977C125.018 82.5653 125.066 83.7767 124.398 84.5999C124.351 84.6572 124.301 84.7133 124.247 84.7674Z" fill="#91B3FA"/>
<path d="M100.47 136.544C100.73 136.223 100.899 135.821 100.932 135.378C101.011 134.297 101.115 133.202 101.239 132.119C101.371 130.967 100.544 129.925 99.3924 129.793C98.24 129.661 97.1971 130.487 97.0667 131.64C96.9359 132.779 96.827 133.932 96.7431 135.068C96.6577 136.224 97.5266 137.232 98.6827 137.317C99.3957 137.37 100.052 137.06 100.47 136.544Z" fill="#91B3FA"/>
</g>
<g opacity="0.3">
<path d="M121.069 197.167C121.708 196.38 121.699 195.224 121.001 194.445C120.278 193.639 119.56 192.804 118.867 191.963C118.129 191.068 116.806 190.941 115.911 191.679C115.012 192.42 114.889 193.741 115.626 194.635C116.356 195.52 117.112 196.399 117.872 197.248C118.646 198.112 119.974 198.185 120.838 197.411C120.923 197.335 121 197.253 121.069 197.167Z" fill="#91B3FA"/>
<path d="M242.827 197.353C242.053 198.217 240.725 198.291 239.861 197.516C238.997 196.742 238.925 195.417 239.698 194.551C241.171 192.906 242.596 191.172 243.952 189.38C244.646 188.457 245.97 188.272 246.895 188.972C247.82 189.672 248.002 190.989 247.303 191.914C246.715 192.691 246.117 193.455 245.508 194.205C244.64 195.276 243.738 196.336 242.827 197.353ZM250.713 183.141C249.703 182.573 249.343 181.293 249.912 180.282C251.002 178.34 252.023 176.333 252.944 174.313C253.422 173.257 254.671 172.792 255.727 173.273C256.781 173.755 257.247 175.001 256.765 176.055C255.795 178.182 254.721 180.296 253.573 182.339C253.513 182.445 253.446 182.544 253.372 182.635C252.739 183.415 251.619 183.65 250.713 183.141ZM234.627 205.336C232.845 206.847 230.974 208.303 229.065 209.662C228.12 210.335 226.809 210.114 226.135 209.169C225.463 208.225 225.684 206.915 226.628 206.24C228.441 204.95 230.218 203.568 231.909 202.132C232.794 201.382 234.119 201.491 234.87 202.376C235.533 203.158 235.524 204.286 234.901 205.055C234.82 205.155 234.729 205.249 234.627 205.336ZM258.178 166.749C257.067 166.417 256.435 165.247 256.768 164.136C257.405 162.006 257.958 159.823 258.412 157.648C258.649 156.512 259.762 155.785 260.898 156.022C262.033 156.26 262.761 157.372 262.523 158.507C262.045 160.797 261.462 163.096 260.792 165.339C260.71 165.61 260.58 165.853 260.412 166.06C259.892 166.701 259.018 167 258.178 166.749ZM219.316 215.64C217.246 216.721 215.102 217.729 212.941 218.636C211.871 219.085 210.641 218.582 210.192 217.513C209.743 216.443 210.246 215.212 211.316 214.763C213.368 213.902 215.405 212.945 217.37 211.917C218.398 211.38 219.667 211.778 220.204 212.806C220.605 213.572 220.486 214.471 219.974 215.102C219.799 215.318 219.578 215.503 219.316 215.64ZM202.116 222.336C199.855 222.941 197.542 223.457 195.241 223.87C194.099 224.075 193.008 223.316 192.802 222.175C192.597 221.031 193.356 219.94 194.498 219.737C196.684 219.343 198.882 218.853 201.031 218.279C202.152 217.979 203.303 218.645 203.603 219.765C203.783 220.441 203.613 221.127 203.204 221.631C202.934 221.964 202.561 222.217 202.116 222.336ZM183.865 225.125C181.525 225.223 179.154 225.223 176.82 225.126C175.66 225.077 174.761 224.099 174.809 222.94C174.858 221.779 175.837 220.881 176.995 220.929C179.213 221.022 181.465 221.022 183.69 220.929C184.849 220.88 185.828 221.781 185.876 222.939C185.898 223.472 185.721 223.965 185.41 224.349C185.043 224.801 184.492 225.099 183.865 225.125ZM165.441 223.867C163.136 223.451 160.822 222.931 158.563 222.322C157.444 222.02 156.78 220.868 157.082 219.747C157.384 218.63 158.537 217.965 159.657 218.267C161.801 218.845 163.998 219.338 166.188 219.733C167.329 219.939 168.087 221.031 167.881 222.172C167.816 222.533 167.663 222.855 167.447 223.121C166.98 223.697 166.222 224.007 165.441 223.867ZM147.734 218.588C145.583 217.676 143.442 216.66 141.37 215.568C140.344 215.026 139.951 213.756 140.492 212.73C141.032 211.708 142.303 211.311 143.329 211.852C145.297 212.89 147.33 213.854 149.374 214.721C150.442 215.173 150.94 216.406 150.488 217.474C150.409 217.66 150.307 217.829 150.186 217.978C149.611 218.687 148.616 218.961 147.734 218.588ZM131.635 209.559C130.234 208.558 128.847 207.501 127.512 206.419C127.028 206.027 126.551 205.631 126.078 205.23C125.194 204.481 125.058 203.152 125.834 202.271C126.584 201.385 127.909 201.276 128.794 202.026C129.243 202.406 129.698 202.784 130.157 203.156C131.426 204.186 132.745 205.189 134.077 206.141C135.021 206.815 135.239 208.127 134.565 209.07C134.54 209.106 134.514 209.141 134.486 209.174C133.792 210.03 132.543 210.208 131.635 209.559Z" fill="#91B3FA"/>
<path d="M263.632 148.291C263.895 147.967 264.064 147.562 264.095 147.114C264.173 145.98 264.228 144.822 264.26 143.674C264.292 142.514 263.377 141.549 262.218 141.517C261.059 141.486 260.093 142.398 260.061 143.559C260.031 144.65 259.978 145.749 259.905 146.826C259.824 147.982 260.698 148.985 261.855 149.065C262.565 149.114 263.216 148.804 263.632 148.291Z" fill="#91B3FA"/>
</g>
<path d="M240.008 121.122C239.922 120.712 239.586 120.401 239.171 120.348L227.321 118.835C224.969 113.776 221.793 109.056 217.837 104.896L220.77 93.3231C220.873 92.9171 220.707 92.4906 220.357 92.261L208.374 84.4043C208.023 84.1744 207.566 84.1924 207.235 84.4485L197.791 91.7534C192.399 89.7835 186.803 88.7534 181.226 88.614L175.114 78.3498C174.899 77.9901 174.48 77.8059 174.07 77.8913L160.041 80.8091C159.631 80.8943 159.32 81.2303 159.267 81.6459L157.755 93.4962C152.695 95.8478 147.975 99.0231 143.815 102.98L132.242 100.047C131.836 99.9435 131.41 100.109 131.18 100.46L123.323 112.443C123.094 112.793 123.112 113.251 123.368 113.582L130.673 123.025C128.702 128.418 127.673 134.013 127.533 139.59L117.269 145.703C116.91 145.917 116.725 146.336 116.811 146.746L119.729 160.776C119.814 161.185 120.15 161.496 120.565 161.549L132.416 163.062C134.767 168.122 137.943 172.842 141.9 177.002L138.966 188.575C138.863 188.981 139.029 189.407 139.379 189.636L151.363 197.493C151.713 197.723 152.17 197.705 152.502 197.449L161.945 190.144C167.338 192.114 172.933 193.144 178.51 193.283L184.623 203.548C184.837 203.907 185.255 204.091 185.666 204.006L199.695 201.088C200.105 201.003 200.416 200.667 200.469 200.252L201.982 188.401C207.041 186.05 211.761 182.875 215.921 178.918L227.494 181.851C227.9 181.954 228.326 181.788 228.556 181.438L236.413 169.454C236.642 169.104 236.625 168.647 236.368 168.316L229.064 158.873C231.033 153.48 232.063 147.885 232.203 142.307L242.467 136.195C242.827 135.981 243.011 135.561 242.926 135.152L240.008 121.122Z" fill="#91B3FA"/>
<path d="M189.613 151.554C183.765 156.928 174.636 156.543 169.261 150.695C166.658 147.862 165.313 144.185 165.476 140.34C165.638 136.497 167.287 132.946 170.121 130.343C175.969 124.969 185.099 125.354 190.473 131.203C195.362 136.523 195.484 144.559 191.062 150.013C190.624 150.554 190.141 151.07 189.613 151.554ZM168.834 140.483C168.709 143.43 169.74 146.249 171.736 148.422C175.856 152.905 182.857 153.201 187.34 149.081C191.826 144.96 192.119 137.96 187.999 133.476C183.879 128.993 176.878 128.697 172.395 132.817C171.988 133.191 171.614 133.589 171.273 134.011C169.79 135.84 168.935 138.087 168.834 140.483Z" fill="#BDD0FB"/>
<path d="M207.037 163.344C207.797 162.408 208.514 161.427 209.184 160.405C209.395 160.084 209.601 159.758 209.801 159.43C210.79 157.811 211.649 156.115 212.364 154.37C212.373 154.346 212.383 154.322 212.393 154.299C212.42 154.231 212.447 154.163 212.474 154.095C212.527 153.963 212.579 153.831 212.63 153.698C212.764 153.35 212.651 152.968 212.376 152.744C212.309 152.69 212.233 152.645 212.148 152.612C211.715 152.445 211.23 152.662 211.062 153.094C210.204 155.322 209.099 157.471 207.779 159.484C201.225 169.482 190.23 174.854 179.08 174.71C172.878 174.631 166.628 172.845 161.067 169.2C160.092 168.561 159.156 167.877 158.263 167.152C152.251 162.276 148.133 155.537 146.536 147.857C144.7 139.034 146.411 130.025 151.352 122.489C161.557 106.926 182.507 102.574 198.063 112.773C199.022 113.402 199.946 114.077 200.831 114.795C204.666 117.905 207.777 121.82 209.929 126.27C209.985 126.385 210.062 126.481 210.156 126.556C210.401 126.755 210.748 126.807 211.051 126.66C211.468 126.457 211.644 125.957 211.441 125.538C209.182 120.867 205.916 116.756 201.889 113.491C200.961 112.737 199.991 112.029 198.984 111.368C182.652 100.66 160.651 105.241 149.946 121.567C144.759 129.479 142.964 138.936 144.891 148.199C146.567 156.262 150.891 163.337 157.202 168.455C158.14 169.216 159.122 169.934 160.146 170.605C168.058 175.792 177.515 177.588 186.777 175.661C194.843 173.984 201.918 169.658 207.037 163.344Z" fill="#BDD0FB"/>
<g opacity="0.3">
<path d="M328.082 64.068C328.436 63.6322 328.477 63.0001 328.141 62.5147C327.516 61.6085 326.855 60.7086 326.176 59.8405C325.735 59.2765 324.92 59.177 324.355 59.6181C323.788 60.058 323.692 60.8748 324.133 61.439C324.78 62.2661 325.41 63.1236 326.007 63.9885C326.413 64.5776 327.221 64.7257 327.811 64.3194C327.916 64.2472 328.006 64.162 328.082 64.068Z" fill="#91B3FA"/>
<path d="M321.597 56.5097C321.091 57.017 320.27 57.0193 319.762 56.5135C318.48 55.2386 317.118 54.0143 315.714 52.8758C315.418 52.6358 315.118 52.3983 314.815 52.1629C314.25 51.7235 314.147 50.9087 314.586 50.3428C315.023 49.8243 315.84 49.675 316.407 50.1141C316.724 50.3607 317.038 50.6093 317.348 50.8605C318.82 52.054 320.248 53.3374 321.592 54.675C322.068 55.1479 322.099 55.8993 321.685 56.4099C321.658 56.4443 321.628 56.4771 321.597 56.5097ZM309.376 48.4469C307.494 47.3229 305.525 46.3052 303.525 45.4232C302.87 45.1337 302.573 44.3691 302.862 43.713C303.15 43.0614 303.917 42.7603 304.572 43.0498C306.668 43.974 308.732 45.0407 310.705 46.2198C311.321 46.5872 311.521 47.3838 311.154 47.9992C311.122 48.053 311.086 48.1041 311.047 48.1518C310.647 48.6447 309.936 48.7817 309.376 48.4469ZM297.343 43.1458C295.247 42.518 293.088 42.0157 290.927 41.6522C290.221 41.5332 289.745 40.8639 289.864 40.158C289.984 39.4493 290.651 38.9743 291.358 39.0938C293.624 39.4748 295.888 40.0026 298.087 40.66C298.773 40.8657 299.164 41.5885 298.958 42.2747C298.907 42.4417 298.827 42.5915 298.723 42.7193C298.402 43.1155 297.862 43.3007 297.343 43.1458ZM284.376 40.9629C282.186 40.8684 279.97 40.9091 277.792 41.085C277.077 41.1421 276.452 40.61 276.395 39.896C276.338 39.1838 276.869 38.557 277.583 38.4988C279.868 38.3149 282.191 38.2722 284.488 38.3713C285.204 38.4018 285.759 39.0079 285.729 39.7237C285.715 40.012 285.61 40.2745 285.441 40.4831C285.19 40.7914 284.803 40.9816 284.376 40.9629ZM271.269 42.0122C269.123 42.4531 266.985 43.0309 264.911 43.7292C264.233 43.9581 263.497 43.593 263.268 42.9139C263.039 42.235 263.403 41.4985 264.083 41.2707C266.256 40.5385 268.498 39.9331 270.747 39.4703C271.449 39.3268 272.134 39.7783 272.278 40.4796C272.36 40.876 272.251 41.2674 272.015 41.5587C271.833 41.7833 271.575 41.949 271.269 42.0122ZM258.814 46.2112C256.841 47.1599 254.91 48.2407 253.073 49.4247C252.471 49.8125 251.668 49.6389 251.28 49.0371C250.893 48.435 251.065 47.6349 251.668 47.2435C253.594 46.002 255.621 44.8681 257.69 43.8729C258.336 43.5632 259.111 43.8343 259.421 44.4796C259.645 44.947 259.565 45.4823 259.259 45.8595C259.142 46.0035 258.993 46.1253 258.814 46.2112ZM247.769 53.3258C246.095 54.7252 244.486 56.2484 242.988 57.8545C242.499 58.3775 241.678 58.4061 241.155 57.9172C240.631 57.4291 240.61 56.6161 241.091 56.0832C242.663 54.4008 244.349 52.8033 246.105 51.3357C246.655 50.8766 247.473 50.9496 247.932 51.4992C248.336 51.9825 248.328 52.6745 247.945 53.1467C247.893 53.2103 247.835 53.2707 247.769 53.3258ZM233.499 69.0024C232.872 68.6555 232.646 67.8668 232.993 67.2397C233.953 65.5045 235.025 63.792 236.175 62.1544C236.348 61.9045 236.525 61.6584 236.703 61.4131C237.105 60.8244 237.935 60.7052 238.515 61.1286C239.094 61.5503 239.221 62.361 238.8 62.9409C238.633 63.17 238.467 63.4022 238.302 63.6404C237.2 65.2076 236.178 66.841 235.262 68.4956C235.225 68.5638 235.181 68.6275 235.134 68.6856C234.745 69.1654 234.058 69.3117 233.499 69.0024Z" fill="#91B3FA"/>
</g>
<g opacity="0.3">
<path d="M325.046 130.231C323.599 131.968 322.034 133.632 320.394 135.177C319.873 135.668 319.052 135.644 318.56 135.122C318.068 134.6 318.102 133.781 318.615 133.288C320.18 131.815 321.672 130.228 323.052 128.57C323.51 128.019 324.328 127.945 324.878 128.403C325.424 128.858 325.503 129.667 325.057 130.217C325.053 130.221 325.049 130.226 325.046 130.231ZM327.277 125.141C326.676 124.752 326.504 123.949 326.893 123.348C328.063 121.539 329.136 119.64 330.081 117.705C330.395 117.066 331.172 116.794 331.816 117.11C332.46 117.424 332.726 118.199 332.413 118.844C331.422 120.872 330.298 122.861 329.071 124.757C329.045 124.797 329.018 124.835 328.988 124.871C328.577 125.379 327.84 125.505 327.277 125.141ZM315.172 139.525C313.347 140.862 311.426 142.099 309.461 143.201C308.836 143.552 308.045 143.329 307.695 142.704C307.344 142.08 307.566 141.292 308.191 140.938C310.066 139.887 311.898 138.707 313.639 137.432C314.217 137.009 315.029 137.135 315.451 137.711C315.807 138.197 315.776 138.848 315.413 139.295C315.345 139.38 315.264 139.457 315.172 139.525ZM333.365 113.369C332.688 113.136 332.328 112.397 332.561 111.72C333.262 109.683 333.844 107.582 334.292 105.476C334.441 104.777 335.13 104.329 335.829 104.477C336.53 104.626 336.978 105.314 336.829 106.015C336.36 108.224 335.75 110.428 335.014 112.564C334.962 112.712 334.888 112.845 334.795 112.959C334.461 113.37 333.894 113.551 333.365 113.369ZM303.349 146.155C301.261 147.012 299.099 147.75 296.922 148.349C296.231 148.539 295.517 148.133 295.327 147.442C295.136 146.752 295.541 146.037 296.233 145.847C298.311 145.277 300.372 144.572 302.363 143.754C303.025 143.482 303.783 143.798 304.055 144.462C304.242 144.916 304.151 145.415 303.862 145.772C303.73 145.935 303.557 146.069 303.349 146.155ZM290.278 149.755C288.042 150.088 285.764 150.287 283.512 150.349C282.796 150.369 282.2 149.805 282.18 149.089C282.16 148.374 282.725 147.776 283.442 147.757C285.59 147.698 287.762 147.507 289.897 147.189C290.605 147.083 291.265 147.573 291.37 148.281C291.426 148.655 291.316 149.016 291.095 149.289C290.897 149.532 290.612 149.705 290.278 149.755ZM276.72 150.123C274.468 149.91 272.208 149.558 270.006 149.075C269.306 148.922 268.864 148.23 269.017 147.531C269.169 146.831 269.862 146.389 270.561 146.541C272.661 147.002 274.815 147.338 276.963 147.539C277.676 147.606 278.2 148.239 278.133 148.952C278.109 149.217 278.006 149.455 277.85 149.647C277.586 149.972 277.169 150.164 276.72 150.123Z" fill="#91B3FA"/>
<path d="M337.556 99.9371C337.713 99.7428 337.816 99.501 337.84 99.233C337.936 98.1269 337.999 97.0132 338.029 95.922C338.048 95.2062 337.484 94.6092 336.768 94.5893C336.053 94.5718 335.456 95.1347 335.435 95.8507C335.407 96.8912 335.346 97.9538 335.255 99.0094C335.193 99.7231 335.722 100.352 336.435 100.413C336.881 100.451 337.294 100.26 337.556 99.9371Z" fill="#91B3FA"/>
</g>
<path d="M321.907 80.8335C321.85 80.5591 321.625 80.3512 321.347 80.3158L313.418 79.3032C311.844 75.9179 309.719 72.7593 307.071 69.9756L309.035 62.2317C309.103 61.9601 308.992 61.6748 308.758 61.521L300.739 56.2636C300.505 56.1098 300.199 56.1219 299.977 56.2932L293.658 61.1814C290.049 59.8631 286.305 59.1739 282.573 59.0806L278.483 52.2124C278.339 51.9716 278.059 51.8483 277.785 51.9054L268.397 53.8579C268.123 53.915 267.915 54.1398 267.88 54.4178L266.867 62.3472C263.482 63.9209 260.323 66.0457 257.539 68.6937L249.795 66.7306C249.524 66.6619 249.238 66.7728 249.085 67.007L243.827 75.0261C243.673 75.2606 243.686 75.5665 243.857 75.7881L248.745 82.1071C247.427 85.7157 246.737 89.4597 246.644 93.1918L239.776 97.2819C239.535 97.4252 239.412 97.7056 239.469 97.98L241.422 107.368C241.479 107.642 241.704 107.85 241.981 107.886L249.911 108.898C251.485 112.283 253.609 115.442 256.257 118.226L254.294 125.97C254.225 126.242 254.337 126.527 254.571 126.681L262.59 131.938C262.824 132.092 263.13 132.08 263.352 131.908L269.671 127.021C273.279 128.339 277.023 129.028 280.755 129.121L284.845 135.99C284.989 136.23 285.269 136.354 285.544 136.297L294.931 134.344C295.206 134.287 295.413 134.062 295.449 133.784L296.461 125.855C299.847 124.281 303.006 122.156 305.789 119.508L313.533 121.471C313.805 121.54 314.09 121.429 314.244 121.195L319.501 113.176C319.655 112.942 319.643 112.635 319.471 112.414L314.583 106.095C315.902 102.486 316.591 98.742 316.684 95.0101L323.552 90.9197C323.793 90.7765 323.916 90.496 323.859 90.2217L321.907 80.8335Z" fill="#91B3FA"/>
<path d="M288.304 101.325C286.374 103.099 283.869 104.015 281.25 103.904C278.633 103.793 276.214 102.67 274.441 100.74C270.78 96.7567 271.044 90.5486 275.026 86.8761C279.011 83.2162 285.229 83.4792 288.888 87.462C290.662 89.3914 291.578 91.8962 291.467 94.5147C291.377 96.643 290.618 98.6397 289.3 100.265C288.997 100.638 288.664 100.993 288.304 101.325ZM276.35 98.984C277.655 100.404 279.434 101.231 281.361 101.312C283.286 101.393 285.129 100.719 286.548 99.4153C287.966 98.1091 288.794 96.3317 288.875 94.405C288.957 92.4796 288.283 90.6367 286.979 89.2179C284.286 86.2879 279.712 86.0944 276.781 88.7864C276.517 89.0297 276.275 89.2876 276.055 89.5587C273.84 92.2913 273.901 96.3188 276.35 98.984Z" fill="#BDD0FB"/>
<path d="M300.43 109.529C300.947 108.892 301.436 108.223 301.896 107.523C302.808 106.132 303.58 104.647 304.191 103.105C304.218 103.035 304.245 102.966 304.272 102.896C304.48 102.359 304.305 101.768 303.88 101.423C303.777 101.339 303.658 101.27 303.528 101.22C302.86 100.962 302.111 101.297 301.852 101.963C301.295 103.409 300.579 104.8 299.727 106.099L299.726 106.1C299.68 106.171 299.632 106.242 299.584 106.313C297.538 109.37 294.806 111.802 291.631 113.465C289.908 114.368 288.052 115.044 286.102 115.468C286.086 115.471 286.071 115.475 286.055 115.478C286.006 115.488 285.958 115.499 285.909 115.509C280.198 116.696 274.365 115.589 269.487 112.39C268.855 111.977 268.25 111.534 267.671 111.065C263.779 107.909 261.114 103.546 260.079 98.5731C258.891 92.8614 259.999 87.0298 263.198 82.1516C266.396 77.2775 271.303 73.9322 277.014 72.7432C282.726 71.5558 288.558 72.6626 293.437 75.8614C294.058 76.2679 294.656 76.7055 295.228 77.1697C297.711 79.1838 299.726 81.7176 301.118 84.598C301.204 84.7754 301.325 84.9245 301.469 85.0404C301.846 85.3469 302.383 85.4272 302.85 85.2009C303.494 84.8873 303.766 84.114 303.453 83.4677C301.895 80.2449 299.641 77.4089 296.864 75.156C296.223 74.6358 295.554 74.147 294.86 73.6917C289.401 70.1129 282.876 68.8742 276.486 70.2034C270.096 71.5328 264.605 75.2649 261.028 80.7282C257.449 86.1862 256.21 92.7106 257.54 99.1014C258.696 104.664 261.679 109.545 266.034 113.077C266.68 113.601 267.358 114.096 268.064 114.559C278.632 121.487 292.637 119.141 300.43 109.529Z" fill="#BDD0FB"/>
<path d="M169.823 722.222C169.823 722.222 168.363 730.054 167.609 737.813C167.315 740.845 169.629 743.502 172.672 743.658C183.01 744.188 205.122 745.236 213.064 744.958C214.257 744.916 215.049 743.702 214.618 742.588C214.257 741.654 213.55 740.896 212.645 740.469L176.265 723.327L169.823 722.222Z" fill="url(#paint6_linear_68_491)"/>
<path d="M168.732 717.601L169.756 726.995C169.756 726.995 176.128 730.036 180.532 726.723L177.981 716.24L168.732 717.601Z" fill="url(#paint7_linear_68_491)"/>
<path d="M171.252 541.195C170.748 543.641 167.504 663.454 179.801 717.278C180.001 718.156 179.549 719.055 178.711 719.388C176.739 720.172 172.877 721.298 168.259 721.408C166.829 721.443 165.557 720.502 165.166 719.126C161.624 706.631 144.674 644.038 142.954 584.383C141.032 517.723 142.976 582.114 142.976 582.114L144.869 540.938L171.252 541.195Z" fill="url(#paint8_linear_68_491)"/>
<path d="M127.752 725.913C127.752 725.913 125.508 729.852 123.272 740.356C122.869 742.253 124.179 744.084 126.107 744.293C129.519 744.661 134.772 745.143 138.983 745.154C140.924 745.159 142.455 743.483 142.24 741.554C141.81 737.709 140.417 731.392 135.975 726.437L127.752 725.913Z" fill="url(#paint9_linear_68_491)"/>
<path d="M125.929 713.825L128.395 728.04C128.395 728.04 130.949 729.978 136.05 728.64L134.954 713.36L125.929 713.825Z" fill="url(#paint10_linear_68_491)"/>
<path d="M120.517 544.389C109.438 607.514 121.299 700.677 125.425 718.928C125.678 720.046 126.569 720.908 127.698 721.107C129.614 721.443 132.771 721.733 135.895 720.857C136.971 720.556 137.734 719.595 137.789 718.479C138.506 703.762 138.33 613.37 148.432 577.743C148.944 575.938 150.065 574.37 151.604 573.297L170.679 560.009L172.34 538.25L120.517 544.389Z" fill="url(#paint11_linear_68_491)"/>
<path d="M188.416 425.226C157.025 424.408 122.3 432.84 122.3 432.84C112.421 487.356 119.542 550.413 119.542 550.413C143.787 557.019 171.303 547.01 171.303 547.01C175.56 524.225 195.022 460.17 195.022 460.17C210.38 458.413 223.058 454.108 233.52 448.356C225.671 439.079 222.04 427.336 220.481 420.399C209.347 423.743 198.098 425.479 188.416 425.226Z" fill="url(#paint12_linear_68_491)"/>
<path d="M281.594 379.867C278.545 376.112 274.625 377.837 274.625 377.837C269.819 397.309 245.443 412.902 220.481 420.399C222.041 427.335 225.671 439.079 233.521 448.356C275.046 425.526 281.594 379.867 281.594 379.867Z" fill="url(#paint13_linear_68_491)"/>
<path d="M280.836 380.807C281.149 381.836 277.397 383.363 275.237 379.146C275.179 377.134 274.038 368.508 275.256 366.88C281.739 358.217 294.251 347.397 294.251 347.397C296.328 349.487 294.581 351.503 294.581 351.503L288.502 357.716C289.739 360.003 291.257 361.938 291.95 364.697C292.475 366.786 292.121 369.01 291.05 370.897C289.975 372.79 288.51 375.251 287.129 377.174C284.514 380.815 280.836 380.807 280.836 380.807Z" fill="url(#paint14_linear_68_491)"/>
<path d="M285.83 361.759L280.3 366.357L278.534 370.97L283.373 376.442C283.373 376.442 285.105 367.272 286.346 365.295C287.587 363.319 286.963 362.351 285.83 361.759Z" fill="url(#paint15_linear_68_491)"/>
<path d="M134.052 463.355L122.301 432.84C122.301 432.84 92.7853 452.485 87.7217 477.702C93.2587 478.163 103.328 479.7 113.15 484.778C115.432 472.87 134.052 463.355 134.052 463.355Z" fill="url(#paint16_linear_68_491)"/>
<path d="M159.406 492.205C159.406 492.205 126.304 510.498 115.346 494.503C113.071 491.182 112.551 487.898 113.149 484.778C103.327 479.7 93.2586 478.163 87.7213 477.702C86.1948 485.304 86.8861 493.411 91.2832 501.64C110.403 537.424 163.686 500.364 163.686 500.364L159.406 492.205Z" fill="url(#paint17_linear_68_491)"/>
<path d="M156.858 399.435L146.593 428.228C146.423 428.705 146.614 429.237 147.055 429.487C149.764 431.018 159.533 435.463 171.427 428.08C172.666 427.311 173.517 426.046 173.718 424.601L177.191 399.628L156.858 399.435Z" fill="url(#paint18_linear_68_491)"/>
<path d="M178.848 372.89C178.848 372.89 189.621 393.643 188.135 401.971C186.649 410.299 173.06 409.57 161.253 402.683L153.17 380.307L178.848 372.89Z" fill="url(#paint19_linear_68_491)"/>
<path d="M161.882 391.738C162.367 391.529 162.55 390.94 162.266 390.495C161.399 389.145 159.778 386.39 159.275 383.987C159.275 383.987 157.316 382.705 164.322 381.098C171.33 379.492 181.78 376.994 184.028 371.064C186.22 365.283 180.746 350.639 171.679 362.179C171.334 362.618 170.666 362.621 170.33 362.175C168.88 360.25 165.058 356.247 159.676 358.6C154.64 360.803 154.04 364.472 154.091 366.325C154.106 366.87 153.615 367.289 153.08 367.182C150.549 366.674 144.469 366.2 141.569 372.415C139.181 377.534 140.674 380.459 142.044 381.896C142.489 382.361 142.285 383.119 141.668 383.301C139.996 383.795 137.831 385.188 138.009 389.094C138.256 394.494 144.295 394.076 146.015 393.846C146.297 393.809 146.58 393.908 146.768 394.121C148.226 395.765 154.797 402.75 161.973 403.653C162.594 403.731 163.082 403.122 162.884 402.528L159.861 393.461C159.721 393.04 159.926 392.582 160.333 392.405L161.882 391.738Z" fill="url(#paint20_linear_68_491)"/>
<path d="M163.12 393.032C163.12 393.032 155.361 387.599 154.747 392.106C154.134 396.614 161.718 398.71 165.5 397.063L163.12 393.032Z" fill="url(#paint21_linear_68_491)"/>
<path d="M152.642 521.115L170.674 458.142C170.878 457.428 171.488 456.906 172.227 456.82C175.494 456.439 184.961 455.369 195.891 454.444C209.057 453.33 224.347 452.428 233.484 453.196C234.782 453.305 235.567 454.679 234.99 455.847C229.794 466.359 208.423 509.117 197.72 523.124C197.366 523.588 196.817 523.859 196.233 523.854L154.396 523.465C153.178 523.453 152.306 522.285 152.642 521.115Z" fill="url(#paint22_linear_68_491)"/>
<path d="M156.998 505.901C156.998 505.901 154.486 495.572 155.5 491.908C156.513 488.243 158.476 483.532 165.02 484.579C171.564 485.625 179.283 488.382 179.283 488.382C179.283 488.382 178.893 493.155 173.919 491.615L177.003 494.002C177.003 494.002 176.562 497.823 172.362 495.781L175.23 498.946C175.23 498.946 173.426 502.085 170.335 500.072C167.245 498.059 165.763 507.145 156.998 505.901Z" fill="url(#paint23_linear_68_491)"/>
<path d="M194.688 473.242C194.688 476.166 197.058 478.536 199.982 478.536C202.905 478.536 205.275 476.166 205.275 473.242C205.275 470.319 202.905 467.949 199.982 467.949C197.058 467.949 194.688 470.319 194.688 473.242Z" fill="#91B3FA"/>
<path d="M172.714 476.732L176.385 464.278C176.835 462.748 178.065 461.6 179.594 461.281C191.101 458.88 222.596 458.37 222.913 458.366L222.892 456.959C221.593 456.979 190.944 457.476 179.306 459.904C177.269 460.329 175.633 461.852 175.035 463.88L171.363 476.334L172.714 476.732Z" fill="#BDD0FB"/>
<path d="M641.367 383.081C641.868 382.125 643.283 382.275 643.572 383.315C644.641 387.164 647.229 393.881 652.66 396.266C652.934 396.386 653.193 396.507 653.443 396.63C653.689 395.891 653.693 395.034 653.103 394.132C651.415 391.551 654.463 388.027 654.463 388.027C654.463 388.027 654.664 391.131 657.024 393.085C659.056 394.769 660.031 398.515 658.643 401.588C655.704 413.005 651.302 428.105 668.447 439.137C685.592 450.169 709.737 418.318 709.737 418.318L697.753 456.308C697.753 456.308 679.256 469.958 657.741 450.764C636.226 431.57 650.487 403.641 650.487 403.641C650.487 403.641 634.077 397.021 641.367 383.081Z" fill="url(#paint24_linear_68_491)"/>
<path d="M712.74 362.499C712.74 362.499 707.773 340.218 733.295 346.116C733.295 346.116 745.684 344.091 746.314 355.785C746.314 355.785 754.3 361.047 748.453 371.166C748.453 371.166 772.186 361.999 782.527 382.802C792.867 403.604 783.362 415.05 773.398 418.032C773.398 418.032 781.471 422.085 777.65 431.238C773.829 440.39 754.477 446.842 743.045 435.712C743.045 435.712 710.517 440.01 711.168 417.034C711.168 417.034 696.039 407.264 711.93 388.276C727.82 369.289 712.74 362.499 712.74 362.499Z" fill="url(#paint25_linear_68_491)"/>
<path d="M711.338 414.144C716.467 412.607 731.4 409.768 745.603 422.876C748.012 425.099 748.997 428.477 748.138 431.64C744.322 445.685 734.257 487.181 743.083 505.136C743.083 505.136 727.529 522.281 710.561 508.462C710.561 508.462 702.948 475.282 692.977 460.715C686.093 450.659 703.954 422.952 708.474 416.258C709.158 415.245 710.167 414.495 711.338 414.144Z" fill="url(#paint26_linear_68_491)"/>
<path d="M725.499 386.24C725.499 386.24 733.083 407.694 733.654 417.159C733.654 417.159 725.271 420.971 717.372 414.537C717.372 414.537 716.543 393.108 715.346 389.271L725.499 386.24Z" fill="url(#paint27_linear_68_491)"/>
<path d="M714.963 356.988C714.963 356.988 695.124 384.751 706.983 392.815C718.842 400.879 732.965 381.149 732.965 381.149C732.965 381.149 737.568 365.953 732.755 360.798C727.941 355.643 714.963 356.988 714.963 356.988Z" fill="url(#paint28_linear_68_491)"/>
<path d="M724.146 350.353C724.146 350.353 715.032 352.513 713.755 356.636C712.478 360.76 726.679 364.584 730.658 364.771L733.864 381.411C733.864 381.411 743.343 365.758 739.588 356.717C735.834 347.676 724.146 350.353 724.146 350.353Z" fill="url(#paint29_linear_68_491)"/>
<path d="M729.119 379.106C729.119 379.106 736.841 370.163 739.912 375.993C742.984 381.823 732.962 386.2 729.493 383.338L729.119 379.106Z" fill="url(#paint30_linear_68_491)"/>
<path d="M690.754 578.128C690.812 579.634 688.167 591.582 686.728 597.955C686.149 600.519 686.552 603.203 687.858 605.485L737.704 689.379C738.307 690.394 738.746 691.493 739.013 692.643C739.926 696.579 741.821 706.228 740.832 715.006L738.253 720.361L749.406 717.829L751.832 687.88L748.674 685.955C745.947 684.292 743.823 681.805 742.607 678.852C738.1 667.903 726.907 640.033 724.022 626.451C720.743 611.015 703.602 598.478 703.602 598.478L706.613 591.358L690.754 578.128Z" fill="url(#paint31_linear_68_491)"/>
<path d="M761.799 707.524C761.799 707.524 755.777 697.976 755.068 694.259C754.36 690.543 752.387 683.979 748.674 685.955C748.674 685.955 746.925 704.01 747.528 711.064C748.131 718.119 739.553 717.892 739.553 717.892C739.553 717.892 737.189 718.224 735.457 719.955C734.262 721.15 735.117 723.224 736.804 723.333C739.611 723.514 744.07 723.561 748.751 722.656C750.387 722.34 751.6 720.948 751.699 719.284L752.935 698.505L760.532 708.098L761.799 707.524Z" fill="url(#paint32_linear_68_491)"/>
<path d="M720.531 591.491C720.531 591.491 722.289 666.534 722.527 677.192C722.766 687.85 720.844 711.469 710.16 718.529L714.809 721.971C714.809 721.971 720.619 717.032 726.296 707.529C732.672 696.852 734.6 694.902 734.6 694.902L732.484 690.568C731.558 688.671 731.286 686.525 731.712 684.458C734.018 673.283 741.72 636.114 743.822 628.11C746.302 618.661 746.478 606.043 737.849 595.481C729.221 584.919 720.531 591.491 720.531 591.491Z" fill="url(#paint33_linear_68_491)"/>
<path d="M730.398 725.353C730.729 725.356 731.011 725.119 731.058 724.79C731.413 722.289 732.893 712.259 734.105 709.662C735.492 706.687 740.024 694.169 734.102 693.105C734.102 693.105 719.379 714.615 716.553 717.516C713.727 720.416 710.16 718.529 710.16 718.529C710.16 718.529 707.407 719.342 705.33 721.996C704.342 723.259 705.262 725.113 706.866 725.128L716.783 725.223C719.663 725.251 722.253 723.501 723.324 720.827C725.069 716.467 728.068 710.072 731.562 707.235L729.746 724.623C729.706 725.011 730.008 725.349 730.398 725.353Z" fill="url(#paint34_linear_68_491)"/>
<path d="M708.215 500.372C708.215 500.372 710.449 507.494 707.016 519.226L685.719 593.595C685.385 594.764 686.016 595.987 687.16 596.398C693.53 598.684 714.471 605.146 743.057 603.175C744.496 603.076 745.703 602.057 746.016 600.649C747.9 592.17 754.327 563.243 755.65 557.299C760.692 534.651 766.322 510.228 741.555 495.459C730.141 500.348 719.495 503.229 708.215 500.372Z" fill="url(#paint35_linear_68_491)"/>
<path d="M747.636 425.679C747.636 425.679 771.867 445.815 777.88 473.332C783.894 500.849 742.473 503.774 742.473 503.774C742.473 503.774 736.85 497.495 730.174 499.734C723.498 501.973 729.657 488.775 737.468 488.81C745.278 488.845 741.66 495.021 752.709 490.016C763.473 485.14 770.126 470.062 742.663 447.204C741.072 445.879 739.801 444.19 739.036 442.265C733.701 428.835 737.933 420.032 747.636 425.679Z" fill="url(#paint36_linear_68_491)"/>
<path d="M596.009 631.27H587.366V724.739H596.009V631.27Z" fill="#7D97F4"/>
<path d="M629.538 726.541H553.838V721.54C553.838 721.195 554.118 720.915 554.463 720.915H628.914C629.259 720.915 629.538 721.195 629.538 721.54V726.541Z" fill="#7D97F4"/>
<path d="M643.854 627.822C643.854 633.255 639.409 637.701 633.976 637.701H552.58C547.147 637.701 542.702 633.255 542.702 627.822V618.891C542.702 613.458 547.147 609.013 552.58 609.013H633.976C639.409 609.013 643.854 613.458 643.854 618.891V627.822Z" fill="#7D97F4"/>
<path d="M515.071 696.354C515.071 696.354 487.13 708.389 488.73 720.984C488.73 720.984 517.614 715.445 522.783 707.19C527.952 698.934 525.104 694.152 525.104 694.152L515.071 696.354Z" fill="url(#paint37_linear_68_491)"/>
<path d="M521.915 682.599L523.334 694.862C523.548 696.713 522.52 698.539 520.767 699.17C519.889 699.486 518.737 699.703 517.227 699.711C515.095 699.721 513.207 698.32 512.638 696.266L509.89 686.347L521.915 682.599Z" fill="url(#paint38_linear_68_491)"/>
<path d="M582.956 588.558C582.956 588.558 531.562 586.18 505.989 601.094C480.416 616.007 507.286 687.584 507.286 687.584C507.286 687.584 513.966 689.02 523.585 683.88C523.585 683.88 509.858 631.482 533.702 622.366C560.509 612.118 588.237 614.611 588.237 614.611L583.1 590.177L582.956 588.558Z" fill="url(#paint39_linear_68_491)"/>
<path d="M494.346 715.457C500.19 714.177 517.519 706.996 520.152 707.093C522.783 707.189 526.512 711.133 526.512 711.133C526.512 711.133 527.154 713.288 525.272 716.383C520.807 719.865 511.189 726.257 500.006 726.957C491.78 727.472 486.831 724.199 484 721.024C486.478 718.612 490.455 716.31 494.346 715.457Z" fill="url(#paint40_linear_68_491)"/>
<path d="M500.006 726.958C511.189 726.258 520.807 719.865 525.272 716.383C524 718.474 521.577 720.994 517.019 723.569C505.719 729.954 487.041 729.023 483.338 727.586C480.371 726.435 481.288 723.664 483.999 721.025C486.83 724.2 491.78 727.473 500.006 726.958Z" fill="url(#paint41_linear_68_491)"/>
<path d="M532.647 704.714C532.265 706.161 528.171 710.509 525.805 712.932C524.681 714.084 523.048 714.578 521.475 714.234C520.478 714.016 519.351 713.676 518.377 713.147C516.914 712.353 516.405 710.495 517.207 709.036L523.192 698.152L532.647 704.714Z" fill="url(#paint42_linear_68_491)"/>
<path d="M633.888 584.249C633.888 584.249 638.374 616.073 625.403 622.578C612.433 629.083 583.983 633.342 574.184 649.848C564.386 666.354 546.786 698.752 530.771 708.061C530.771 708.061 521.624 705.087 518.951 700.588C518.951 700.588 537.961 650.614 545.892 638.467C552.76 627.948 562.803 612.794 577.071 606.239C581.155 604.363 581.475 600.03 580.756 595.593L579.446 587.513L633.888 584.249Z" fill="url(#paint43_linear_68_491)"/>
<path d="M513.673 548.172C531.857 553.363 539.996 502.185 539.923 500.94L567.804 533.539C567.804 533.539 551.192 562.771 526.106 565.882C519.76 566.669 514.361 565.571 509.833 563.497C513.169 558.033 513.931 552.636 513.673 548.172Z" fill="url(#paint44_linear_68_491)"/>
<path d="M479.997 531.421C487.922 528.164 494.646 534.664 494.646 534.664C502.499 542.702 508.727 546.761 513.672 548.172C513.931 552.636 513.169 558.033 509.833 563.497C500.035 559.008 494.323 549.934 491.971 545.406C491.123 543.776 489.138 543.085 487.484 543.885C485.804 544.697 484.073 545.936 483.964 547.62C483.75 550.939 479.8 551.135 479.777 549.909C479.754 548.683 482.836 542.127 482.836 542.127C482.836 542.127 473.73 547.968 470.185 550.202C466.64 552.437 463.621 548.749 463.621 548.749C463.621 548.749 472.072 534.678 479.997 531.421Z" fill="url(#paint45_linear_68_491)"/>
<path d="M626.882 479.882C626.882 479.882 602.446 463.211 543.427 493.362C543.427 493.362 537.349 501.066 540.196 509.752C543.043 518.438 578.085 565.445 579.446 587.513C579.446 587.513 603.401 601.614 634.497 587.635C634.497 587.635 644.924 529.364 626.882 479.882Z" fill="url(#paint46_linear_68_491)"/>
<path d="M575.998 458.567L585.655 477.491C586.614 479.369 586.413 481.644 585.097 483.292C582.438 486.624 576.887 491.102 567.412 488.216C564.594 487.357 562.437 485.064 561.758 482.198L556.752 461.076L575.998 458.567Z" fill="url(#paint47_linear_68_491)"/>
<path d="M644.979 545.96C646.633 534.457 616.236 512.162 616.236 512.162L626.882 479.882C626.882 479.882 684.886 521.275 672.687 555.078C670.939 559.924 668.331 563.455 665.15 565.957C659.008 553.359 650.678 548.124 644.979 545.96Z" fill="url(#paint48_linear_68_491)"/>
<path d="M602.573 549.152C602.573 549.152 636.957 558.756 644.091 548.289C644.575 547.579 644.859 546.797 644.979 545.96C650.679 548.125 659.008 553.36 665.151 565.957C648.825 578.8 617.348 564.403 608.795 560.088C607.388 559.378 605.77 559.239 604.266 559.708C601.224 560.657 595.953 562.131 593.016 561.97C588.719 561.734 584.107 577.261 576.795 573.331C576.795 573.331 580.118 546.802 602.573 549.152Z" fill="url(#paint49_linear_68_491)"/>
<path d="M563.618 427.643C563.312 427.908 550.573 450.156 544.089 461.497C542.11 464.96 543.592 469.368 547.258 470.939L550.067 472.143C553.905 473.788 562.159 475.166 565.408 472.542L585.886 450.926C585.886 450.926 570.506 421.681 563.618 427.643Z" fill="url(#paint50_linear_68_491)"/>
<path d="M591.656 445.028C594.167 443.617 597.186 440.76 594.836 435.707C592.446 430.57 587.724 430.124 584.682 430.452C583.452 430.584 582.339 429.803 581.982 428.618C581.778 427.944 581.279 427.349 580.201 427.178C578.748 426.948 577.845 425.464 578.224 424.043C578.953 421.312 578.829 417.603 574.436 414.943C566.642 410.224 559.357 417.079 557.328 423.037C555.299 428.995 564.04 433.632 569.621 434.577C573.864 435.296 575.934 440.191 576.683 442.496C576.92 443.226 576.807 444.021 576.385 444.663L570.159 454.123C571.872 456.277 573.389 458.554 574.885 460.857C575.445 460.254 575.934 459.752 576.317 459.4C579.021 456.923 583.83 458.201 585.811 458.883C586.46 459.106 587.166 459.054 587.776 458.738C589.932 457.624 594.286 454.493 590.718 448.572C589.971 447.333 590.394 445.737 591.656 445.028Z" fill="url(#paint51_linear_68_491)"/>
<path d="M572.618 464.9C572.618 464.9 576.599 454.67 581.123 455.24C585.648 455.811 589.032 460.483 583.193 465.333C575.929 471.366 572.618 464.9 572.618 464.9Z" fill="url(#paint52_linear_68_491)"/>
<path d="M558.667 571.046C558.606 571.049 558.545 571.05 558.483 571.05L478.153 570.962C476.168 570.96 474.56 569.349 474.562 567.363C474.564 565.377 476.181 563.736 478.161 563.772L558.491 563.859C560.477 563.861 562.084 565.472 562.082 567.458C562.08 569.382 560.567 570.952 558.667 571.046Z" fill="url(#paint53_linear_68_491)"/>
<path d="M405.941 498.111H472.84C477.775 498.111 482.267 500.959 484.372 505.422L515.299 571.002H432.162C428.981 571.002 426.124 569.059 424.955 566.101L400.972 505.417C399.586 501.911 402.17 498.111 405.941 498.111Z" fill="url(#paint54_linear_68_491)"/>
<path d="M453.072 531.736C454.522 536.24 453.451 540.614 450.68 541.506C447.909 542.398 444.488 539.47 443.038 534.965C441.588 530.461 442.659 526.087 445.43 525.195C448.201 524.303 451.622 527.231 453.072 531.736Z" fill="#91B3FA"/>
<path d="M416.786 743.337C416.341 743.337 415.889 743.25 415.454 743.069C413.741 742.356 412.95 740.434 413.687 738.776L484.482 579.444C485.219 577.787 487.203 577.022 488.917 577.733C490.63 578.447 491.421 580.369 490.684 582.027L419.888 741.359C419.339 742.596 418.094 743.337 416.786 743.337Z" fill="#91B3FA"/>
<path d="M496.541 743.336C495.232 743.336 493.987 742.596 493.438 741.359L422.642 582.027C421.905 580.369 422.696 578.447 424.409 577.733C426.12 577.02 428.106 577.785 428.844 579.444L499.639 738.776C500.376 740.434 499.585 742.356 497.872 743.069C497.438 743.25 496.986 743.336 496.541 743.336Z" fill="#91B3FA"/>
<path d="M635.93 743.337C635.485 743.337 635.032 743.25 634.597 743.069C632.885 742.356 632.094 740.434 632.83 738.776L703.626 579.444C704.363 577.787 706.346 577.022 708.061 577.733C709.773 578.447 710.564 580.369 709.828 582.027L639.032 741.359C638.483 742.596 637.238 743.337 635.93 743.337Z" fill="#91B3FA"/>
<path d="M715.684 743.336C714.375 743.336 713.131 742.596 712.581 741.359L641.785 582.027C641.049 580.369 641.84 578.447 643.552 577.733C645.264 577.02 647.25 577.785 647.987 579.444L718.783 738.776C719.52 740.434 718.729 742.356 717.016 743.069C716.581 743.25 716.129 743.336 715.684 743.336Z" fill="#91B3FA"/>
<path d="M723.987 574.525C724.168 573.48 723.922 572.399 723.317 571.578C722.712 570.757 721.811 570.282 720.86 570.282H398.791C397.54 570.282 396.376 570.995 395.703 572.175C395.029 573.354 394.939 574.836 395.463 576.107L398.953 584.564C399.752 586.501 401.484 587.741 403.389 587.741H718.65C720.423 587.741 721.946 586.333 722.283 584.385L723.987 574.525Z" fill="#91B3FA"/>
<defs>
<linearGradient id="paint0_linear_68_491" x1="871.03" y1="949.887" x2="244.351" y2="171.59" gradientUnits="userSpaceOnUse">
<stop stop-color="#DAE3FE"/>
<stop offset="1" stop-color="#E9EFFD"/>
</linearGradient>
<linearGradient id="paint1_linear_68_491" x1="585.65" y1="115.91" x2="64.0739" y2="808.387" gradientUnits="userSpaceOnUse">
<stop stop-color="#4F52FF"/>
<stop offset="1" stop-color="#4042E2"/>
</linearGradient>
<linearGradient id="paint2_linear_68_491" x1="585.65" y1="115.91" x2="64.0748" y2="808.386" gradientUnits="userSpaceOnUse">
<stop stop-color="#4F52FF"/>
<stop offset="1" stop-color="#4042E2"/>
</linearGradient>
<linearGradient id="paint3_linear_68_491" x1="431.141" y1="11.0168" x2="402.108" y2="239.872" gradientUnits="userSpaceOnUse">
<stop stop-color="#FF928E"/>
<stop offset="1" stop-color="#FE7062"/>
</linearGradient>
<linearGradient id="paint4_linear_68_491" x1="322.214" y1="367.24" x2="555.61" y2="226.05" gradientUnits="userSpaceOnUse">
<stop stop-color="#09005D"/>
<stop offset="1" stop-color="#1A0F91"/>
</linearGradient>
<linearGradient id="paint5_linear_68_491" x1="400.893" y1="367.182" x2="566.103" y2="230.147" gradientUnits="userSpaceOnUse">
<stop stop-color="#09005D"/>
<stop offset="1" stop-color="#1A0F91"/>
</linearGradient>
<linearGradient id="paint6_linear_68_491" x1="212.221" y1="711.783" x2="77.0367" y2="856.052" gradientUnits="userSpaceOnUse">
<stop stop-color="#09005D"/>
<stop offset="1" stop-color="#1A0F91"/>
</linearGradient>
<linearGradient id="paint7_linear_68_491" x1="168.689" y1="722.179" x2="180.574" y2="722.292" gradientUnits="userSpaceOnUse">
<stop stop-color="#FEBBBA"/>
<stop offset="1" stop-color="#FF928E"/>
</linearGradient>
<linearGradient id="paint8_linear_68_491" x1="224.328" y1="547.283" x2="109.001" y2="700.524" gradientUnits="userSpaceOnUse">
<stop stop-color="#09005D"/>
<stop offset="1" stop-color="#1A0F91"/>
</linearGradient>
<linearGradient id="paint9_linear_68_491" x1="182.468" y1="683.898" x2="47.2776" y2="828.172" gradientUnits="userSpaceOnUse">
<stop stop-color="#09005D"/>
<stop offset="1" stop-color="#1A0F91"/>
</linearGradient>
<linearGradient id="paint10_linear_68_491" x1="125.859" y1="721.16" x2="136.121" y2="721.258" gradientUnits="userSpaceOnUse">
<stop stop-color="#FEBBBA"/>
<stop offset="1" stop-color="#FF928E"/>
</linearGradient>
<linearGradient id="paint11_linear_68_491" x1="204.177" y1="532.118" x2="88.8519" y2="685.358" gradientUnits="userSpaceOnUse">
<stop stop-color="#09005D"/>
<stop offset="1" stop-color="#1A0F91"/>
</linearGradient>
<linearGradient id="paint12_linear_68_491" x1="-3417.66" y1="-2167.45" x2="-3296.4" y2="-2077.79" gradientUnits="userSpaceOnUse">
<stop stop-color="#FF928E"/>
<stop offset="1" stop-color="#FE7062"/>
</linearGradient>
<linearGradient id="paint13_linear_68_491" x1="220.556" y1="412.57" x2="281.278" y2="413.147" gradientUnits="userSpaceOnUse">
<stop stop-color="#FEBBBA"/>
<stop offset="1" stop-color="#FF928E"/>
</linearGradient>
<linearGradient id="paint14_linear_68_491" x1="267.848" y1="402.841" x2="226.222" y2="495.158" gradientUnits="userSpaceOnUse">
<stop stop-color="#FEBBBA"/>
<stop offset="1" stop-color="#FF928E"/>
</linearGradient>
<linearGradient id="paint15_linear_68_491" x1="281.376" y1="372.093" x2="298.626" y2="346.115" gradientUnits="userSpaceOnUse">
<stop stop-color="#FEBBBA"/>
<stop offset="1" stop-color="#FF928E"/>
</linearGradient>
<linearGradient id="paint16_linear_68_491" x1="-3426.23" y1="-2155.86" x2="-3304.97" y2="-2066.2" gradientUnits="userSpaceOnUse">
<stop stop-color="#FF928E"/>
<stop offset="1" stop-color="#FE7062"/>
</linearGradient>
<linearGradient id="paint17_linear_68_491" x1="86.8662" y1="497.311" x2="163.708" y2="498.041" gradientUnits="userSpaceOnUse">
<stop stop-color="#FEBBBA"/>
<stop offset="1" stop-color="#FF928E"/>
</linearGradient>
<linearGradient id="paint18_linear_68_491" x1="143.36" y1="454.879" x2="172.393" y2="398.519" gradientUnits="userSpaceOnUse">
<stop stop-color="#FEBBBA"/>
<stop offset="1" stop-color="#FF928E"/>
</linearGradient>
<linearGradient id="paint19_linear_68_491" x1="184.444" y1="396.754" x2="151.234" y2="376.063" gradientUnits="userSpaceOnUse">
<stop stop-color="#FEBBBA"/>
<stop offset="1" stop-color="#FF928E"/>
</linearGradient>
<linearGradient id="paint20_linear_68_491" x1="133.756" y1="354.418" x2="176.586" y2="388.912" gradientUnits="userSpaceOnUse">
<stop stop-color="#09005D"/>
<stop offset="1" stop-color="#1A0F91"/>
</linearGradient>
<linearGradient id="paint21_linear_68_491" x1="175.599" y1="404.268" x2="145.718" y2="385.652" gradientUnits="userSpaceOnUse">
<stop stop-color="#FEBBBA"/>
<stop offset="1" stop-color="#FF928E"/>
</linearGradient>
<linearGradient id="paint22_linear_68_491" x1="184.313" y1="448.485" x2="226.715" y2="625.157" gradientUnits="userSpaceOnUse">
<stop stop-color="#09005D"/>
<stop offset="1" stop-color="#1A0F91"/>
</linearGradient>
<linearGradient id="paint23_linear_68_491" x1="155.259" y1="495.224" x2="179.282" y2="495.224" gradientUnits="userSpaceOnUse">
<stop stop-color="#FEBBBA"/>
<stop offset="1" stop-color="#FF928E"/>
</linearGradient>
<linearGradient id="paint24_linear_68_491" x1="634.046" y1="356.334" x2="698.503" y2="459.637" gradientUnits="userSpaceOnUse">
<stop stop-color="#FEBBBA"/>
<stop offset="1" stop-color="#FF928E"/>
</linearGradient>
<linearGradient id="paint25_linear_68_491" x1="812.981" y1="346.827" x2="747.874" y2="390.235" gradientUnits="userSpaceOnUse">
<stop stop-color="#09005D"/>
<stop offset="1" stop-color="#1A0F91"/>
</linearGradient>
<linearGradient id="paint26_linear_68_491" x1="794.727" y1="354.113" x2="747.761" y2="426.697" gradientUnits="userSpaceOnUse">
<stop stop-color="#FF928E"/>
<stop offset="1" stop-color="#FE7062"/>
</linearGradient>
<linearGradient id="paint27_linear_68_491" x1="713.433" y1="427.793" x2="725.518" y2="400.955" gradientUnits="userSpaceOnUse">
<stop stop-color="#FEBBBA"/>
<stop offset="1" stop-color="#FF928E"/>
</linearGradient>
<linearGradient id="paint28_linear_68_491" x1="712.811" y1="362.572" x2="737.336" y2="415.668" gradientUnits="userSpaceOnUse">
<stop stop-color="#FEBBBA"/>
<stop offset="1" stop-color="#FF928E"/>
</linearGradient>
<linearGradient id="paint29_linear_68_491" x1="795.484" y1="320.584" x2="730.375" y2="363.994" gradientUnits="userSpaceOnUse">
<stop stop-color="#09005D"/>
<stop offset="1" stop-color="#1A0F91"/>
</linearGradient>
<linearGradient id="paint30_linear_68_491" x1="724.349" y1="357.241" x2="748.874" y2="410.337" gradientUnits="userSpaceOnUse">
<stop stop-color="#FEBBBA"/>
<stop offset="1" stop-color="#FF928E"/>
</linearGradient>
<linearGradient id="paint31_linear_68_491" x1="781.245" y1="762.015" x2="691.21" y2="599.502" gradientUnits="userSpaceOnUse">
<stop stop-color="#FEBBBA"/>
<stop offset="1" stop-color="#FF928E"/>
</linearGradient>
<linearGradient id="paint32_linear_68_491" x1="761.827" y1="704.676" x2="735.06" y2="704.422" gradientUnits="userSpaceOnUse">
<stop stop-color="#09005D"/>
<stop offset="1" stop-color="#1A0F91"/>
</linearGradient>
<linearGradient id="paint33_linear_68_491" x1="678.609" y1="641.45" x2="815.141" y2="686.543" gradientUnits="userSpaceOnUse">
<stop stop-color="#FEBBBA"/>
<stop offset="1" stop-color="#FF928E"/>
</linearGradient>
<linearGradient id="paint34_linear_68_491" x1="736.965" y1="709.274" x2="705.057" y2="708.971" gradientUnits="userSpaceOnUse">
<stop stop-color="#09005D"/>
<stop offset="1" stop-color="#1A0F91"/>
</linearGradient>
<linearGradient id="paint35_linear_68_491" x1="832.062" y1="470.525" x2="755.208" y2="529.447" gradientUnits="userSpaceOnUse">
<stop stop-color="#09005D"/>
<stop offset="1" stop-color="#1A0F91"/>
</linearGradient>
<linearGradient id="paint36_linear_68_491" x1="772.599" y1="511.292" x2="643.546" y2="319.947" gradientUnits="userSpaceOnUse">
<stop stop-color="#FEBBBA"/>
<stop offset="1" stop-color="#FF928E"/>
</linearGradient>
<linearGradient id="paint37_linear_68_491" x1="498.407" y1="674.302" x2="506.819" y2="706.895" gradientUnits="userSpaceOnUse">
<stop stop-color="#09005D"/>
<stop offset="1" stop-color="#1A0F91"/>
</linearGradient>
<linearGradient id="paint38_linear_68_491" x1="524.155" y1="692.23" x2="509.315" y2="688.946" gradientUnits="userSpaceOnUse">
<stop stop-color="#FEBBBA"/>
<stop offset="1" stop-color="#FF928E"/>
</linearGradient>
<linearGradient id="paint39_linear_68_491" x1="553.383" y1="657.509" x2="509.882" y2="555.164" gradientUnits="userSpaceOnUse">
<stop stop-color="#09005D"/>
<stop offset="1" stop-color="#1A0F91"/>
</linearGradient>
<linearGradient id="paint40_linear_68_491" x1="500.496" y1="705.835" x2="537.194" y2="784.801" gradientUnits="userSpaceOnUse">
<stop stop-color="#09005D"/>
<stop offset="1" stop-color="#1A0F91"/>
</linearGradient>
<linearGradient id="paint41_linear_68_491" x1="523.103" y1="726.182" x2="483.198" y2="717.35" gradientUnits="userSpaceOnUse">
<stop stop-color="#4F52FF"/>
<stop offset="1" stop-color="#4042E2"/>
</linearGradient>
<linearGradient id="paint42_linear_68_491" x1="531.854" y1="708.3" x2="517.925" y2="705.218" gradientUnits="userSpaceOnUse">
<stop stop-color="#FEBBBA"/>
<stop offset="1" stop-color="#FF928E"/>
</linearGradient>
<linearGradient id="paint43_linear_68_491" x1="566.365" y1="706.586" x2="589.045" y2="587.637" gradientUnits="userSpaceOnUse">
<stop stop-color="#09005D"/>
<stop offset="1" stop-color="#1A0F91"/>
</linearGradient>
<linearGradient id="paint44_linear_68_491" x1="610.696" y1="476.787" x2="473.646" y2="583.097" gradientUnits="userSpaceOnUse">
<stop stop-color="#FF928E"/>
<stop offset="1" stop-color="#FE7062"/>
</linearGradient>
<linearGradient id="paint45_linear_68_491" x1="514.175" y1="550.608" x2="465.59" y2="539.855" gradientUnits="userSpaceOnUse">
<stop stop-color="#FEBBBA"/>
<stop offset="1" stop-color="#FF928E"/>
</linearGradient>
<linearGradient id="paint46_linear_68_491" x1="453.134" y1="624.392" x2="583.779" y2="543.699" gradientUnits="userSpaceOnUse">
<stop stop-color="#FF928E"/>
<stop offset="1" stop-color="#FE7062"/>
</linearGradient>
<linearGradient id="paint47_linear_68_491" x1="587.079" y1="476.831" x2="554.844" y2="469.697" gradientUnits="userSpaceOnUse">
<stop stop-color="#FEBBBA"/>
<stop offset="1" stop-color="#FF928E"/>
</linearGradient>
<linearGradient id="paint48_linear_68_491" x1="461.03" y1="637.175" x2="591.676" y2="556.482" gradientUnits="userSpaceOnUse">
<stop stop-color="#FF928E"/>
<stop offset="1" stop-color="#FE7062"/>
</linearGradient>
<linearGradient id="paint49_linear_68_491" x1="612.677" y1="557.407" x2="740.696" y2="736.672" gradientUnits="userSpaceOnUse">
<stop stop-color="#FEBBBA"/>
<stop offset="1" stop-color="#FF928E"/>
</linearGradient>
<linearGradient id="paint50_linear_68_491" x1="569.236" y1="435.516" x2="553.042" y2="511.485" gradientUnits="userSpaceOnUse">
<stop stop-color="#FEBBBA"/>
<stop offset="1" stop-color="#FF928E"/>
</linearGradient>
<linearGradient id="paint51_linear_68_491" x1="591.632" y1="455.797" x2="559.364" y2="418.521" gradientUnits="userSpaceOnUse">
<stop stop-color="#09005D"/>
<stop offset="1" stop-color="#1A0F91"/>
</linearGradient>
<linearGradient id="paint52_linear_68_491" x1="575.607" y1="507.928" x2="579.621" y2="460.669" gradientUnits="userSpaceOnUse">
<stop stop-color="#FEBBBA"/>
<stop offset="1" stop-color="#FF928E"/>
</linearGradient>
<linearGradient id="paint53_linear_68_491" x1="572.296" y1="549.702" x2="508.528" y2="570.616" gradientUnits="userSpaceOnUse">
<stop stop-color="#09005D"/>
<stop offset="1" stop-color="#1A0F91"/>
</linearGradient>
<linearGradient id="paint54_linear_68_491" x1="484.699" y1="507.891" x2="438.775" y2="556.429" gradientUnits="userSpaceOnUse">
<stop stop-color="#09005D"/>
<stop offset="1" stop-color="#1A0F91"/>
</linearGradient>
</defs>
</svg>
