<svg width="750" height="500" viewBox="0 0 750 500" fill="none" xmlns="http://www.w3.org/2000/svg">
<path d="M87.0853 328.448H191.239V248.116H87.0853L87.0853 328.448Z" fill="#F5F5F5"/>
<path d="M113.18 327.881C113.324 327.881 113.44 309.975 113.44 287.891C113.44 265.8 113.323 247.898 113.18 247.898C113.036 247.898 112.92 265.8 112.92 287.891C112.919 309.974 113.036 327.881 113.18 327.881Z" fill="#EBEBEB"/>
<path d="M95.9164 319.19H103.901V310.164H95.9164V319.19Z" fill="#FAFAFA"/>
<path d="M159.463 248.322H147.633V265.463H159.463V248.322Z" fill="#EBEBEB"/>
<path d="M159.463 311.068H147.633V328.209H159.463V311.068Z" fill="#EBEBEB"/>
<path d="M230.929 329.579H58.9922V462.192H230.929V329.579Z" fill="#EBEBEB"/>
<path d="M187.851 461.256C187.663 461.256 187.51 431.697 187.51 395.242C187.51 358.774 187.663 329.221 187.851 329.221C188.039 329.221 188.192 358.774 188.192 395.242C188.192 431.696 188.039 461.256 187.851 461.256Z" fill="#E0E0E0"/>
<path d="M216.351 432.007H203.169V446.908H216.351V432.007Z" fill="#FAFAFA"/>
<path d="M130.975 329.921H111.445V358.218H130.975V329.921Z" fill="#E0E0E0"/>
<path d="M130.975 433.501H111.445V461.797H130.975V433.501Z" fill="#E0E0E0"/>
<path d="M365.26 95.9768C365.26 96.1208 364.141 96.2368 362.76 96.2368C361.379 96.2368 360.26 96.1198 360.26 95.9768C360.26 95.8338 361.379 95.7168 362.76 95.7168C364.141 95.7158 365.26 95.8328 365.26 95.9768Z" fill="#EBEBEB"/>
<path d="M375.26 95.9768C375.26 96.1208 374.141 96.2368 372.76 96.2368C371.379 96.2368 370.26 96.1198 370.26 95.9768C370.26 95.8338 371.379 95.7168 372.76 95.7168C374.141 95.7158 375.26 95.8328 375.26 95.9768Z" fill="#EBEBEB"/>
<path d="M385.26 95.9768C385.26 96.1208 384.141 96.2368 382.76 96.2368C381.379 96.2368 380.26 96.1198 380.26 95.9768C380.26 95.8338 381.379 95.7168 382.76 95.7168C384.141 95.7158 385.26 95.8328 385.26 95.9768Z" fill="#EBEBEB"/>
<path d="M395.26 95.9768C395.26 96.1208 394.141 96.2368 392.76 96.2368C391.379 96.2368 390.26 96.1198 390.26 95.9768C390.26 95.8338 391.379 95.7168 392.76 95.7168C394.141 95.7158 395.26 95.8328 395.26 95.9768Z" fill="#EBEBEB"/>
<path d="M405.26 95.9768C405.26 96.1208 404.141 96.2368 402.76 96.2368C401.379 96.2368 400.26 96.1198 400.26 95.9768C400.26 95.8338 401.379 95.7168 402.76 95.7168C404.141 95.7158 405.26 95.8328 405.26 95.9768Z" fill="#EBEBEB"/>
<path d="M415.26 95.9768C415.26 96.1208 414.141 96.2368 412.76 96.2368C411.379 96.2368 410.26 96.1198 410.26 95.9768C410.26 95.8338 411.379 95.7168 412.76 95.7168C414.141 95.7158 415.26 95.8328 415.26 95.9768Z" fill="#EBEBEB"/>
<path d="M425.26 95.9768C425.26 96.1208 424.141 96.2368 422.76 96.2368C421.379 96.2368 420.26 96.1198 420.26 95.9768C420.26 95.8338 421.379 95.7168 422.76 95.7168C424.141 95.7158 425.26 95.8328 425.26 95.9768Z" fill="#EBEBEB"/>
<path d="M435.26 95.9768C435.26 96.1208 434.141 96.2368 432.76 96.2368C431.379 96.2368 430.26 96.1198 430.26 95.9768C430.26 95.8338 431.379 95.7168 432.76 95.7168C434.141 95.7158 435.26 95.8328 435.26 95.9768Z" fill="#EBEBEB"/>
<path d="M445.26 95.9768C445.26 96.1208 444.141 96.2368 442.76 96.2368C441.379 96.2368 440.26 96.1198 440.26 95.9768C440.26 95.8338 441.379 95.7168 442.76 95.7168C444.141 95.7158 445.26 95.8328 445.26 95.9768Z" fill="#EBEBEB"/>
<path d="M455.26 95.9768C455.26 96.1208 454.141 96.2368 452.76 96.2368C451.379 96.2368 450.26 96.1198 450.26 95.9768C450.26 95.8338 451.379 95.7168 452.76 95.7168C454.141 95.7158 455.26 95.8328 455.26 95.9768Z" fill="#EBEBEB"/>
<path d="M465.26 95.9768C465.26 96.1208 464.141 96.2368 462.76 96.2368C461.379 96.2368 460.26 96.1198 460.26 95.9768C460.26 95.8338 461.379 95.7168 462.76 95.7168C464.141 95.7158 465.26 95.8328 465.26 95.9768Z" fill="#EBEBEB"/>
<path d="M475.26 95.9768C475.26 96.1208 474.141 96.2368 472.76 96.2368C471.379 96.2368 470.26 96.1198 470.26 95.9768C470.26 95.8338 471.379 95.7168 472.76 95.7168C474.141 95.7158 475.26 95.8328 475.26 95.9768Z" fill="#EBEBEB"/>
<path d="M485.26 95.9768C485.26 96.1208 484.141 96.2368 482.76 96.2368C481.379 96.2368 480.26 96.1198 480.26 95.9768C480.26 95.8338 481.379 95.7168 482.76 95.7168C484.141 95.7158 485.26 95.8328 485.26 95.9768Z" fill="#EBEBEB"/>
<path d="M495.26 95.9768C495.26 96.1208 494.141 96.2368 492.76 96.2368C491.379 96.2368 490.26 96.1198 490.26 95.9768C490.26 95.8338 491.379 95.7168 492.76 95.7168C494.141 95.7158 495.26 95.8328 495.26 95.9768Z" fill="#EBEBEB"/>
<path d="M505.26 95.9768C505.26 96.1208 504.141 96.2368 502.76 96.2368C501.379 96.2368 500.26 96.1198 500.26 95.9768C500.26 95.8338 501.379 95.7168 502.76 95.7168C504.141 95.7158 505.26 95.8328 505.26 95.9768Z" fill="#EBEBEB"/>
<path d="M515.26 95.9768C515.26 96.1208 514.141 96.2368 512.76 96.2368C511.379 96.2368 510.26 96.1198 510.26 95.9768C510.26 95.8338 511.379 95.7168 512.76 95.7168C514.141 95.7158 515.26 95.8328 515.26 95.9768Z" fill="#EBEBEB"/>
<path d="M525.26 95.9768C525.26 96.1208 524.141 96.2368 522.76 96.2368C521.379 96.2368 520.26 96.1198 520.26 95.9768C520.26 95.8338 521.379 95.7168 522.76 95.7168C524.141 95.7158 525.26 95.8328 525.26 95.9768Z" fill="#EBEBEB"/>
<path d="M535.26 95.9768C535.26 96.1208 534.141 96.2368 532.76 96.2368C531.379 96.2368 530.26 96.1198 530.26 95.9768C530.26 95.8338 531.379 95.7168 532.76 95.7168C534.141 95.7158 535.26 95.8328 535.26 95.9768Z" fill="#EBEBEB"/>
<path d="M545.26 95.9768C545.26 96.1208 544.141 96.2368 542.76 96.2368C541.379 96.2368 540.26 96.1198 540.26 95.9768C540.26 95.8338 541.379 95.7168 542.76 95.7168C544.141 95.7158 545.26 95.8328 545.26 95.9768Z" fill="#EBEBEB"/>
<path d="M555.26 95.9768C555.26 96.1208 554.141 96.2368 552.76 96.2368C551.379 96.2368 550.26 96.1198 550.26 95.9768C550.26 95.8338 551.379 95.7168 552.76 95.7168C554.141 95.7158 555.26 95.8328 555.26 95.9768Z" fill="#EBEBEB"/>
<path d="M565.26 95.9768C565.26 96.1208 564.141 96.2368 562.76 96.2368C561.379 96.2368 560.26 96.1198 560.26 95.9768C560.26 95.8338 561.379 95.7168 562.76 95.7168C564.141 95.7158 565.26 95.8328 565.26 95.9768Z" fill="#EBEBEB"/>
<path d="M575.26 95.9768C575.26 96.1208 574.141 96.2368 572.76 96.2368C571.379 96.2368 570.26 96.1198 570.26 95.9768C570.26 95.8338 571.379 95.7168 572.76 95.7168C574.141 95.7158 575.26 95.8328 575.26 95.9768Z" fill="#EBEBEB"/>
<path d="M585.26 95.9768C585.26 96.1208 584.141 96.2368 582.76 96.2368C581.379 96.2368 580.26 96.1198 580.26 95.9768C580.26 95.8338 581.379 95.7168 582.76 95.7168C584.141 95.7158 585.26 95.8328 585.26 95.9768Z" fill="#EBEBEB"/>
<path d="M587.823 103.414C587.679 103.414 587.562 102.295 587.562 100.914C587.562 99.5331 587.68 98.4141 587.823 98.4141C587.967 98.4141 588.083 99.5331 588.083 100.914C588.083 102.295 587.966 103.414 587.823 103.414Z" fill="#EBEBEB"/>
<path d="M587.823 113.414C587.679 113.414 587.562 112.295 587.562 110.914C587.562 109.533 587.68 108.414 587.823 108.414C587.967 108.414 588.083 109.533 588.083 110.914C588.083 112.295 587.966 113.414 587.823 113.414Z" fill="#EBEBEB"/>
<path d="M587.823 123.414C587.679 123.414 587.562 122.295 587.562 120.914C587.562 119.533 587.68 118.414 587.823 118.414C587.967 118.414 588.083 119.533 588.083 120.914C588.083 122.295 587.966 123.414 587.823 123.414Z" fill="#EBEBEB"/>
<path d="M587.823 133.414C587.679 133.414 587.562 132.295 587.562 130.914C587.562 129.533 587.68 128.414 587.823 128.414C587.967 128.414 588.083 129.533 588.083 130.914C588.083 132.295 587.966 133.414 587.823 133.414Z" fill="#EBEBEB"/>
<path d="M587.823 143.414C587.679 143.414 587.562 142.295 587.562 140.914C587.562 139.533 587.68 138.414 587.823 138.414C587.967 138.414 588.083 139.533 588.083 140.914C588.083 142.295 587.966 143.414 587.823 143.414Z" fill="#EBEBEB"/>
<path d="M589.771 151.464C589.771 151.588 588.939 151.692 587.822 151.718L587.57 151.724L587.568 151.464C587.566 151.276 587.564 151.097 587.562 150.914C587.562 149.533 587.679 148.414 587.822 148.414C587.966 148.414 588.081 149.533 588.081 150.914C588.079 151.097 588.078 151.276 588.076 151.464L587.822 151.21C588.939 151.236 589.771 151.34 589.771 151.464Z" fill="#EBEBEB"/>
<path d="M599.771 151.464C599.771 151.608 598.652 151.724 597.271 151.724C595.89 151.724 594.771 151.607 594.771 151.464C594.771 151.32 595.89 151.204 597.271 151.204C598.652 151.204 599.771 151.321 599.771 151.464Z" fill="#EBEBEB"/>
<path d="M609.771 151.464C609.771 151.608 608.652 151.724 607.271 151.724C605.89 151.724 604.771 151.607 604.771 151.464C604.771 151.32 605.89 151.204 607.271 151.204C608.652 151.204 609.771 151.321 609.771 151.464Z" fill="#EBEBEB"/>
<path d="M619.771 151.464C619.771 151.608 618.652 151.724 617.271 151.724C615.89 151.724 614.771 151.607 614.771 151.464C614.771 151.32 615.89 151.204 617.271 151.204C618.652 151.204 619.771 151.321 619.771 151.464Z" fill="#EBEBEB"/>
<path d="M629.771 151.464C629.771 151.608 628.652 151.724 627.271 151.724C625.89 151.724 624.771 151.607 624.771 151.464C624.771 151.32 625.89 151.204 627.271 151.204C628.652 151.204 629.771 151.321 629.771 151.464Z" fill="#EBEBEB"/>
<path d="M639.771 151.464C639.771 151.608 638.652 151.724 637.271 151.724C635.89 151.724 634.771 151.607 634.771 151.464C634.771 151.32 635.89 151.204 637.271 151.204C638.652 151.204 639.771 151.321 639.771 151.464Z" fill="#EBEBEB"/>
<path d="M649.771 151.464C649.771 151.608 648.652 151.724 647.271 151.724C645.89 151.724 644.771 151.607 644.771 151.464C644.771 151.32 645.89 151.204 647.271 151.204C648.652 151.204 649.771 151.321 649.771 151.464Z" fill="#EBEBEB"/>
<path d="M659.771 151.464C659.771 151.608 658.652 151.724 657.271 151.724C655.89 151.724 654.771 151.607 654.771 151.464C654.771 151.32 655.89 151.204 657.271 151.204C658.652 151.204 659.771 151.321 659.771 151.464Z" fill="#EBEBEB"/>
<path d="M669.771 151.464C669.771 151.608 668.652 151.724 667.271 151.724C665.89 151.724 664.771 151.607 664.771 151.464C664.771 151.32 665.89 151.204 667.271 151.204C668.652 151.204 669.771 151.321 669.771 151.464Z" fill="#EBEBEB"/>
<path d="M673.661 157.576C673.517 157.576 673.401 156.457 673.401 155.076C673.401 153.695 673.518 152.576 673.661 152.576C673.804 152.576 673.921 153.695 673.921 155.076C673.921 156.456 673.805 157.576 673.661 157.576Z" fill="#EBEBEB"/>
<path d="M673.661 167.576C673.517 167.576 673.401 166.457 673.401 165.076C673.401 163.695 673.518 162.576 673.661 162.576C673.804 162.576 673.921 163.695 673.921 165.076C673.921 166.456 673.805 167.576 673.661 167.576Z" fill="#EBEBEB"/>
<path d="M673.661 177.576C673.517 177.576 673.401 176.457 673.401 175.076C673.401 173.695 673.518 172.576 673.661 172.576C673.804 172.576 673.921 173.695 673.921 175.076C673.921 176.456 673.805 177.576 673.661 177.576Z" fill="#EBEBEB"/>
<path d="M673.661 187.576C673.517 187.576 673.401 186.457 673.401 185.076C673.401 183.695 673.518 182.576 673.661 182.576C673.804 182.576 673.921 183.695 673.921 185.076C673.921 186.456 673.805 187.576 673.661 187.576Z" fill="#EBEBEB"/>
<path d="M673.661 197.576C673.517 197.576 673.401 196.457 673.401 195.076C673.401 193.695 673.518 192.576 673.661 192.576C673.804 192.576 673.921 193.695 673.921 195.076C673.921 196.456 673.805 197.576 673.661 197.576Z" fill="#EBEBEB"/>
<path d="M673.661 207.576C673.517 207.576 673.401 206.457 673.401 205.076C673.401 203.695 673.518 202.576 673.661 202.576C673.804 202.576 673.921 203.695 673.921 205.076C673.921 206.456 673.805 207.576 673.661 207.576Z" fill="#EBEBEB"/>
<path d="M673.661 217.576C673.517 217.576 673.401 216.457 673.401 215.076C673.401 213.695 673.518 212.576 673.661 212.576C673.804 212.576 673.921 213.695 673.921 215.076C673.921 216.456 673.805 217.576 673.661 217.576Z" fill="#EBEBEB"/>
<path d="M673.661 227.576C673.517 227.576 673.401 226.457 673.401 225.076C673.401 223.695 673.518 222.576 673.661 222.576C673.804 222.576 673.921 223.695 673.921 225.076C673.921 226.456 673.805 227.576 673.661 227.576Z" fill="#EBEBEB"/>
<path d="M673.661 237.576C673.517 237.576 673.401 236.457 673.401 235.076C673.401 233.695 673.518 232.576 673.661 232.576C673.804 232.576 673.921 233.695 673.921 235.076C673.921 236.456 673.805 237.576 673.661 237.576Z" fill="#EBEBEB"/>
<path d="M673.661 247.576C673.517 247.576 673.401 246.457 673.401 245.076C673.401 243.695 673.518 242.576 673.661 242.576C673.804 242.576 673.921 243.695 673.921 245.076C673.921 246.456 673.805 247.576 673.661 247.576Z" fill="#EBEBEB"/>
<path d="M673.661 257.576C673.517 257.576 673.401 256.457 673.401 255.076C673.401 253.695 673.518 252.576 673.661 252.576C673.804 252.576 673.921 253.695 673.921 255.076C673.921 256.457 673.805 257.576 673.661 257.576Z" fill="#EBEBEB"/>
<path d="M417.733 113.043C417.733 113.043 409.971 108.744 402.363 127.1C394.755 145.457 392.147 155.903 392.147 155.903C392.147 155.903 390.06 159.788 387.33 157.57C384.6 155.353 380.582 148.769 376.361 150.343C371.984 151.975 370.902 157.089 372.333 164.365C373.764 171.641 376.314 187.698 376.539 189.151C376.76 190.577 376.104 192.755 374.003 191.543C371.901 190.331 359.425 178.455 354.144 184.713C348.864 190.97 356.181 210.586 356.94 212.746C357.699 214.906 357.341 215.882 356.336 216.51C355.331 217.138 351.514 212.752 347.827 209.519C344.14 206.287 339.298 203.186 336.554 207.051C333.81 210.917 334.024 226.05 350.275 249.38L358.513 259.698L371.656 257.928C399.551 252.426 410.214 241.686 410.924 236.999C411.634 232.312 405.996 231.181 401.099 230.947C396.202 230.712 390.408 231.218 390.121 230.068C389.834 228.918 390.255 227.967 392.301 226.94C394.347 225.913 413.234 216.88 413.78 208.71C414.326 200.54 397.102 200.421 394.748 199.833C392.394 199.246 393.434 197.223 394.584 196.351C395.755 195.462 408.74 185.679 414.823 181.437C420.906 177.195 423.678 172.765 421.662 168.55C419.718 164.486 412.255 166.433 408.751 166.133C405.247 165.833 406.443 161.588 406.443 161.588C406.443 161.588 411.821 152.26 419.094 133.769C426.367 115.277 417.569 112.966 417.569 112.966" fill="#EBEBEB"/>
<path d="M358.964 256.959C364.355 243.398 371.964 224.727 380.437 204.13C388.907 183.54 396.561 164.892 402.028 151.363C404.749 144.61 406.955 139.139 408.488 135.335C409.247 133.459 409.839 131.994 410.25 130.979C410.45 130.497 410.606 130.122 410.719 129.85C410.827 129.597 410.893 129.471 410.893 129.471C410.893 129.471 410.856 129.608 410.762 129.867C410.659 130.143 410.517 130.524 410.335 131.012C409.943 132.035 409.377 133.51 408.652 135.4C407.186 139.208 405.024 144.703 402.326 151.483C396.935 165.044 389.327 183.713 380.857 204.303C372.384 224.9 364.729 243.55 359.263 257.079" fill="#E0E0E0"/>
<path d="M381.611 159.779C381.64 159.768 381.785 160.076 382.021 160.643C382.26 161.209 382.58 162.037 382.964 163.065C383.729 165.121 384.711 167.989 385.735 171.174C386.728 174.31 387.625 177.145 388.319 179.339C388.63 180.308 388.895 181.131 389.113 181.808C389.302 182.391 389.393 182.719 389.364 182.73C389.335 182.741 389.188 182.434 388.947 181.869C388.71 181.302 388.39 180.473 388.016 179.442C387.271 177.377 386.327 174.498 385.304 171.313C384.289 168.186 383.372 165.358 382.662 163.171C382.346 162.204 382.076 161.38 381.855 160.704C381.67 160.119 381.581 159.79 381.611 159.779Z" fill="#E0E0E0"/>
<path d="M390.591 182.869C390.547 182.752 396.369 180.463 403.592 177.758C410.818 175.052 416.709 172.953 416.753 173.07C416.797 173.187 410.976 175.475 403.75 178.181C396.527 180.887 390.634 182.986 390.591 182.869Z" fill="#E0E0E0"/>
<path d="M376.155 213.906C376.154 213.875 376.498 213.83 377.122 213.777C377.843 213.721 378.725 213.653 379.763 213.572C381.993 213.397 385.071 213.147 388.457 212.748C391.846 212.357 394.9 211.897 397.109 211.55C398.138 211.39 399.012 211.254 399.727 211.143C400.346 211.051 400.692 211.016 400.698 211.046C400.704 211.077 400.37 211.172 399.76 211.317C399.15 211.462 398.264 211.653 397.164 211.865C394.965 212.294 391.908 212.804 388.509 213.197C385.112 213.597 382.02 213.799 379.781 213.891C378.661 213.933 377.755 213.956 377.128 213.953C376.503 213.952 376.156 213.937 376.155 213.906Z" fill="#E0E0E0"/>
<path d="M363.436 194.81C363.462 194.792 363.667 195.039 364.016 195.501C364.365 195.963 364.858 196.64 365.459 197.481C366.661 199.164 368.296 201.507 370.078 204.11C371.861 206.714 373.454 209.086 374.589 210.815C375.156 211.68 375.609 212.384 375.913 212.876C376.217 213.368 376.373 213.649 376.348 213.667C376.322 213.685 376.117 213.438 375.768 212.976C375.419 212.514 374.926 211.838 374.325 210.996C373.123 209.313 371.488 206.97 369.705 204.365C367.923 201.762 366.33 199.39 365.195 197.661C364.628 196.796 364.175 196.092 363.871 195.6C363.566 195.108 363.41 194.828 363.436 194.81Z" fill="#E0E0E0"/>
<path d="M347.21 220.592C347.235 220.574 347.495 220.893 347.942 221.485C348.433 222.155 349.056 223.004 349.799 224.017C351.351 226.166 353.469 229.153 355.785 232.468C358.102 235.784 360.179 238.8 361.664 240.996C362.36 242.042 362.943 242.918 363.403 243.61C363.805 244.233 364.016 244.586 363.99 244.604C363.965 244.622 363.705 244.303 363.259 243.711C362.768 243.041 362.145 242.192 361.402 241.179C359.85 239.03 357.732 236.043 355.415 232.727C353.099 229.412 351.022 226.396 349.537 224.2C348.841 223.154 348.258 222.278 347.798 221.586C347.395 220.963 347.185 220.61 347.21 220.592Z" fill="#E0E0E0"/>
<path d="M363.75 243.916C363.747 243.885 364.182 243.818 364.971 243.724C365.845 243.625 366.967 243.497 368.311 243.345C371.131 243.024 375.023 242.568 379.307 241.946C383.592 241.33 387.457 240.673 390.251 240.18C391.584 239.947 392.695 239.752 393.562 239.601C394.345 239.468 394.781 239.409 394.787 239.44C394.793 239.47 394.369 239.588 393.597 239.774C392.824 239.96 391.702 240.21 390.31 240.495C387.527 241.069 383.664 241.777 379.37 242.394C375.079 243.017 371.172 243.423 368.341 243.664C366.925 243.781 365.778 243.862 364.984 243.9C364.192 243.94 363.752 243.947 363.75 243.916Z" fill="#E0E0E0"/>
<path d="M708.797 282.047C708.797 260.414 689.247 243.348 666.851 247.551C652.764 250.195 641.538 261.7 639.07 275.819C637.528 284.644 639.349 292.946 643.375 299.798H643.356L643.456 299.93C644.803 302.201 646.491 303.824 648.197 306.21L668.598 333.234C671.137 336.597 676.187 336.597 678.726 333.234L698.787 306.656C698.787 306.656 702.531 302.191 703.89 299.895L703.963 299.799H703.949C707.01 294.585 708.797 288.532 708.797 282.047ZM673.661 297.346C665.121 297.346 658.198 290.423 658.198 281.883C658.198 273.343 665.121 266.42 673.661 266.42C682.201 266.42 689.124 273.343 689.124 281.883C689.124 290.422 682.201 297.346 673.661 297.346Z" fill="#F5F5F5"/>
<path d="M542.899 125.817V167.141C542.899 168.03 543.62 168.751 544.509 168.751H631.153C632.051 168.751 632.775 168.017 632.763 167.12L632.565 151.988C632.561 151.648 632.448 151.317 632.244 151.045L619.818 134.431C619.517 134.028 619.044 133.789 618.541 133.785L604.222 133.676C603.337 133.669 602.624 132.95 602.624 132.066V125.818C602.624 124.929 601.903 124.208 601.014 124.208H544.51C543.62 124.207 542.899 124.928 542.899 125.817Z" fill="#F5F5F5"/>
<path d="M606.653 137.281V150.541C606.653 151.057 607.076 151.473 607.593 151.464L626.719 151.122C627.452 151.109 627.878 150.288 627.467 149.681L618.526 136.488C618.349 136.227 618.052 136.075 617.737 136.083L607.552 136.358C607.051 136.372 606.653 136.781 606.653 137.281Z" fill="#EBEBEB"/>
<path d="M634.489 170.01H541.156V172.89H634.489V170.01Z" fill="#F5F5F5"/>
<path d="M569.314 177.642C572.92 174.037 572.92 168.192 569.314 164.586C565.709 160.981 559.864 160.981 556.258 164.586C552.653 168.192 552.653 174.037 556.258 177.642C559.864 181.247 565.709 181.247 569.314 177.642Z" fill="#EBEBEB"/>
<path d="M568.225 171.111C568.225 174.112 565.792 176.545 562.791 176.545C559.79 176.545 557.357 174.112 557.357 171.111C557.357 168.11 559.79 165.677 562.791 165.677C565.792 165.678 568.225 168.111 568.225 171.111Z" fill="#FAFAFA"/>
<path d="M602.551 168.752C602.318 168.752 602.13 158.779 602.13 146.481C602.13 134.178 602.319 124.208 602.551 124.208C602.784 124.208 602.972 134.178 602.972 146.481C602.973 158.779 602.784 168.752 602.551 168.752Z" fill="#EBEBEB"/>
<path d="M619.62 177.642C623.225 174.037 623.225 168.192 619.62 164.586C616.015 160.981 610.169 160.981 606.564 164.586C602.959 168.192 602.959 174.037 606.564 177.642C610.169 181.247 616.015 181.247 619.62 177.642Z" fill="#EBEBEB"/>
<path d="M618.531 171.111C618.531 174.112 616.098 176.545 613.097 176.545C610.096 176.545 607.663 174.112 607.663 171.111C607.663 168.11 610.096 165.677 613.097 165.677C616.098 165.678 618.531 168.111 618.531 171.111Z" fill="#FAFAFA"/>
<path d="M613.12 154.077C613.12 154.31 611.798 154.498 610.168 154.498C608.537 154.498 607.216 154.309 607.216 154.077C607.216 153.844 608.538 153.656 610.168 153.656C611.798 153.656 613.12 153.845 613.12 154.077Z" fill="#EBEBEB"/>
<path d="M726.135 462.192C726.135 462.336 569.406 462.452 376.116 462.452C182.759 462.452 26.0645 462.335 26.0645 462.192C26.0645 462.048 182.759 461.932 376.116 461.932C569.406 461.931 726.135 462.048 726.135 462.192Z" fill="#263238"/>
<path d="M165.864 457.789C179.338 448.445 182.449 431.025 181.972 415.354C181.893 412.738 182.19 409.982 180.954 407.682C179.717 405.384 176.82 403.805 174.475 404.899C172.529 405.807 171.675 408.063 170.582 409.928C169.128 412.409 166.967 414.459 164.428 415.765C162.759 416.623 160.697 417.145 159.056 416.232C156.804 414.979 156.549 411.862 156.575 409.26C156.623 404.412 156.669 399.563 156.717 394.716C156.742 392.115 156.759 389.459 155.959 386.987C155.159 384.515 153.379 382.216 150.907 381.514C148.434 380.812 145.369 382.228 144.838 384.773C144.617 385.832 144.829 386.933 144.753 388.012C144.677 389.092 144.17 390.285 143.143 390.582C142.104 390.883 141.065 390.142 140.29 389.378C137.614 386.742 135.804 383.352 134.113 379.981C132.422 376.61 130.781 373.16 128.355 370.286C125.929 367.413 122.567 365.131 118.843 364.907C115.118 364.683 111.141 366.969 110.186 370.622C109.229 374.286 111.356 378.014 113.674 380.991C117.113 385.407 121.185 389.317 125.723 392.557C126.541 393.142 127.428 393.774 127.738 394.738C128.297 396.474 126.648 398.191 124.933 398.755C122.992 399.394 120.889 399.185 118.859 399.417C116.83 399.649 114.629 400.536 113.856 402.45C112.781 405.105 114.995 407.9 117.177 409.733C121.545 413.404 126.538 416.309 131.869 418.282C133.78 418.989 135.792 419.61 137.33 420.96C138.868 422.31 139.791 424.651 138.853 426.48C137.914 428.311 135.519 428.889 133.516 428.51C131.514 428.132 129.723 427.037 127.815 426.31C124.245 424.948 119.628 425.178 117.327 428.26C115.815 430.286 115.673 433.113 116.426 435.536C117.178 437.959 118.715 440.05 120.347 441.979C126.053 448.721 133.369 454.158 141.652 457.063C149.931 459.969 157.612 460.774 165.864 457.789Z" fill="#E8505B"/>
<path d="M164.973 462.198C164.427 455.989 164.148 455.861 161.854 447.952C159.576 440.037 156.358 431.567 152.689 422.824C151.764 420.642 150.849 418.486 149.948 416.361C149.044 414.242 148.147 412.14 147.143 410.139C145.152 406.126 142.931 402.421 140.714 398.969C138.497 395.515 136.268 392.318 134.161 389.344C132.047 386.373 130.025 383.642 128.076 381.231C124.191 376.392 120.602 372.868 118.04 370.549C116.761 369.385 115.739 368.514 115.038 367.934C114.701 367.658 114.436 367.442 114.237 367.279C114.055 367.134 113.959 367.063 113.954 367.069C113.948 367.075 114.034 367.159 114.206 367.317C114.397 367.489 114.652 367.718 114.976 368.008C115.655 368.612 116.656 369.505 117.915 370.688C120.435 373.047 123.973 376.596 127.813 381.447C129.74 383.865 131.742 386.602 133.838 389.578C135.929 392.56 138.143 395.76 140.345 399.212C142.547 402.662 144.75 406.359 146.724 410.352C147.72 412.344 148.606 414.428 149.511 416.553C150.411 418.677 151.324 420.832 152.248 423.014C155.914 431.75 159.135 440.194 161.431 448.079C163.74 455.957 164.049 456.048 164.635 462.231" fill="#263238"/>
<path d="M147.006 410.12C147.038 410.125 147.128 409.73 147.264 409.011C147.403 408.293 147.57 407.247 147.757 405.952C148.134 403.363 148.532 399.77 148.957 395.808C149.381 391.843 149.83 388.266 150.245 385.691C150.449 384.403 150.624 383.361 150.755 382.643C150.881 381.924 150.937 381.522 150.904 381.514C150.872 381.507 150.756 381.894 150.573 382.603C150.386 383.31 150.159 384.345 149.912 385.631C149.409 388.201 148.906 391.786 148.481 395.755C148.072 399.666 147.703 403.205 147.421 405.909C147.286 407.13 147.171 408.158 147.079 408.984C147.002 409.71 146.973 410.115 147.006 410.12Z" fill="#263238"/>
<path d="M113.584 403.753C113.583 403.786 114.059 403.843 114.918 403.917C115.776 403.997 117.018 404.105 118.548 404.288C121.61 404.629 125.823 405.249 130.442 406.136C135.06 407.032 139.205 408.02 142.183 408.821C143.675 409.211 144.874 409.56 145.704 409.795C146.533 410.034 146.997 410.151 147.008 410.12C147.018 410.088 146.574 409.91 145.76 409.615C144.945 409.324 143.758 408.925 142.273 408.491C139.311 407.603 135.163 406.558 130.531 405.659C125.899 404.77 121.662 404.201 118.581 403.947C117.042 403.807 115.792 403.75 114.928 403.729C114.063 403.713 113.585 403.719 113.584 403.753Z" fill="#263238"/>
<path d="M161.445 447.335C161.46 447.342 161.539 447.202 161.676 446.928C161.832 446.601 162.022 446.203 162.252 445.72C162.748 444.669 163.425 443.129 164.237 441.216C165.864 437.39 167.945 432.035 170.162 426.095C172.38 420.152 174.408 414.785 175.953 410.931C176.71 409.057 177.333 407.517 177.796 406.371C177.994 405.874 178.157 405.464 178.291 405.127C178.399 404.841 178.449 404.687 178.434 404.68C178.419 404.674 178.34 404.814 178.203 405.088C178.047 405.414 177.857 405.812 177.627 406.295C177.131 407.346 176.454 408.886 175.642 410.799C174.015 414.625 171.934 419.98 169.717 425.923C167.5 431.864 165.471 437.231 163.927 441.086C163.169 442.959 162.547 444.5 162.084 445.645C161.886 446.142 161.723 446.553 161.59 446.889C161.479 447.175 161.43 447.329 161.445 447.335Z" fill="#263238"/>
<path d="M117.052 432.857C117.048 432.873 117.2 432.936 117.492 433.041C117.839 433.159 118.265 433.303 118.781 433.478C119.972 433.869 121.579 434.396 123.535 435.037C127.549 436.355 133.071 438.237 139.171 440.326C145.273 442.416 150.818 444.25 154.86 445.484C156.881 446.102 158.521 446.585 159.661 446.896C160.188 447.037 160.623 447.152 160.976 447.247C161.278 447.322 161.44 447.353 161.444 447.337C161.448 447.321 161.296 447.258 161.004 447.153C160.658 447.036 160.232 446.892 159.715 446.717C158.524 446.326 156.917 445.8 154.962 445.158C150.948 443.841 145.425 441.958 139.323 439.868C133.223 437.778 127.679 435.945 123.637 434.711C121.616 434.093 119.976 433.61 118.835 433.299C118.308 433.159 117.874 433.042 117.52 432.949C117.218 432.871 117.058 432.84 117.052 432.857Z" fill="#263238"/>
<path d="M328.244 462.192H189.072C172.257 462.115 158.045 447.777 158.116 430.961L159.598 80.447C159.669 63.622 173.369 50.042 190.194 50.12L330.007 50.766C346.822 50.844 360.393 64.535 360.322 81.35L358.84 431.865C358.769 448.69 345.069 462.269 328.244 462.192Z" fill="#263238"/>
<path d="M329.808 64.0851L302.701 63.9601C299.066 63.9441 296.105 67.0111 296.09 70.8111L296.068 75.7281C296.053 79.5281 293.092 82.5961 289.457 82.5791L236.619 82.3351C232.984 82.3191 230.05 79.2241 230.066 75.4241L230.087 70.5071C230.103 66.7071 227.168 63.6121 223.533 63.5961L213.999 63.5521L190.274 63.4431C178.491 63.3891 168.896 72.8991 168.847 84.6831L167.401 426.807C167.351 438.585 176.855 448.173 188.632 448.228L328.166 448.872C339.948 448.927 349.543 439.417 349.593 427.633L351.039 85.5051C351.088 73.7281 341.585 64.1391 329.808 64.0851Z" fill="#F5F5F5"/>
<path d="M270.588 384.219C270.428 388.35 270.277 392.225 270.151 395.445H290.194L287.74 383.134L270.588 384.219Z" fill="#F5F5F5"/>
<path d="M189.131 389.372L189.306 395.446H268.152C268.286 392.035 268.433 388.25 268.584 384.347L189.131 389.372Z" fill="#F5F5F5"/>
<path d="M288.748 383.07L291.214 395.445H328.166L327.72 380.605L288.748 383.07Z" fill="#F5F5F5"/>
<path d="M272.59 210.078L279.577 169.568L261.276 168.212V210.078H272.59Z" fill="#F5F5F5"/>
<path d="M187.482 366.882L167.621 374.663L167.562 388.732L188.074 387.434L187.482 366.882Z" fill="#F5F5F5"/>
<path d="M187.392 363.718L186.306 325.988L186.291 325.989V312.682L167.875 314.633L167.635 371.435L187.384 363.699L187.392 363.718Z" fill="#F5F5F5"/>
<path d="M186.291 282.977L168.019 280.565L167.888 311.616L186.291 309.666V282.977Z" fill="#F5F5F5"/>
<path d="M322.475 313.243L321.706 324.056L300.127 326.384L301.797 334.939L326.294 333.092L325.926 320.824L327.88 312.698L322.475 313.243Z" fill="#F5F5F5"/>
<path d="M283.582 336.312L300.793 335.015L297.044 315.81L282.023 317.326L283.582 336.312Z" fill="#F5F5F5"/>
<path d="M283.746 338.305L285.061 354.32L287.395 376.283L288.353 381.091L327.66 378.605L326.354 335.094L283.746 338.305Z" fill="#F5F5F5"/>
<path d="M216.093 262.702L217.605 265.294L187.29 282.976V324.917L219.284 322.653L280.946 316.43L278.688 288.937L219.78 281.242L220.169 278.267L278.437 285.879L274.616 239.349L216.944 244.894L216.753 242.903L274.453 237.355L272.46 213.077H216.984L168.266 221.943L168.031 277.54L186.477 279.975L216.093 262.702ZM190.395 320.914C190.395 320.914 190.624 286.329 190.395 285.038L215.131 271.879L218.338 319.146L190.395 320.914Z" fill="#F5F5F5"/>
<path d="M320.455 313.447L298.043 315.709L299.742 324.414L319.83 322.247L320.455 313.447Z" fill="#F5F5F5"/>
<path d="M270.873 376.81C270.804 378.625 270.734 380.435 270.666 382.21L287.347 381.155L286.49 376.852L270.873 376.81Z" fill="#F5F5F5"/>
<path d="M234.943 210.078L237.884 196.755H260.276V168.138L190.252 162.951V189.822L168.381 194.768L168.279 218.892L216.714 210.078H234.943Z" fill="#F5F5F5"/>
<path d="M281.668 130.449L281.071 127.997L307.811 117.415L290.418 82.5009C290.104 82.5479 289.785 82.5789 289.458 82.5779L259.908 82.4409L260.712 131.305L281.668 130.449Z" fill="#F5F5F5"/>
<path d="M322.192 111.724L322.161 64.049L302.7 63.96C299.065 63.944 296.104 67.011 296.089 70.811L296.067 75.728C296.058 78.073 294.924 80.137 293.205 81.371L310.609 116.308L322.192 111.724Z" fill="#F5F5F5"/>
<path d="M221.67 113.77L219.416 63.5751L214 63.5501L192.85 63.4531L183.84 108.34L221.67 113.77ZM216.85 68.6621L217.571 109.54L189.46 105.426L195.616 68.6621H216.85Z" fill="#F5F5F5"/>
<path d="M222.691 113.916L222.696 114.344C222.744 118.261 222.825 125.311 222.883 132.851L259.711 131.346L258.906 82.4361L236.618 82.3331C232.983 82.3171 230.049 79.2221 230.065 75.4221L230.086 70.5051C230.102 66.7051 227.167 63.6101 223.532 63.5941L220.415 63.5791L222.676 113.914L222.691 113.916Z" fill="#F5F5F5"/>
<path d="M180.865 107.912L189.787 63.4629C178.23 63.6709 168.895 73.0609 168.846 84.6799L168.752 106.839L168.846 106.187L180.865 107.912Z" fill="#F5F5F5"/>
<path d="M187.253 162.729L168.523 161.341L168.395 191.689L187.253 187.424V162.729Z" fill="#F5F5F5"/>
<path d="M180.668 108.894L168.751 107.183L168.543 156.329L171.109 156.519L180.668 108.894Z" fill="#F5F5F5"/>
<path d="M218.501 363.145L218.816 323.688L187.304 325.917L188.417 364.572L218.501 363.145Z" fill="#F5F5F5"/>
<path d="M224.297 354.038L268.925 375.417C269.456 361.446 269.932 348.382 269.887 347.55L270.854 347.498L271.327 346.556C271.961 346.873 271.961 346.873 271.629 356.397C271.444 361.71 271.179 368.782 270.91 375.855H286.344L284.066 354.414L281.029 317.427L222.721 323.311L224.297 354.038Z" fill="#F5F5F5"/>
<path d="M333.687 288.555L333.183 283.353L279.69 288.917L281.941 316.329L328.128 311.668L333.687 288.555Z" fill="#F5F5F5"/>
<path d="M260.277 199.755H240.296L238.016 210.078H260.277V199.755Z" fill="#F5F5F5"/>
<path d="M325.427 203.239L275.382 199.777L273.342 211.6L275.449 237.259L328.229 232.184L325.427 203.239ZM277.222 211.578L279.908 204.117L323.376 206.866L325.892 228.212L278.694 233.809L277.222 211.578Z" fill="#F5F5F5"/>
<path d="M330.619 256.872L328.422 234.176L275.612 239.254L277.595 263.405L330.619 256.872Z" fill="#F5F5F5"/>
<path d="M188.13 389.435L167.642 390.731L167.558 389.397L167.533 395.445H188.303L188.13 389.435Z" fill="#F5F5F5"/>
<path d="M350.67 100.454L350.972 101.216L351.038 85.5042C351.087 73.7272 341.584 64.1392 329.807 64.0852L323.16 64.0542L323.191 111.328L350.67 100.454Z" fill="#F5F5F5"/>
<path d="M268.883 376.506L223.329 354.683L221.724 323.411L219.816 323.604L219.493 364.098L188.445 365.571L188.471 366.474L188.478 366.492L188.471 366.495L189.072 387.372L268.659 382.338C268.734 380.401 268.809 378.449 268.883 376.506ZM190.395 368.145L233.852 365.095L262.125 378.213L190.395 382.095V368.145Z" fill="#F5F5F5"/>
<path d="M337.724 152.959L339.587 141.905C323.251 136.076 322.121 119.041 322.169 113.884L311.505 118.104L327.56 150.333L337.724 152.959Z" fill="#F5F5F5"/>
<path d="M279.446 285.927L301.656 283.617L297.278 264.002L277.842 266.397L279.446 285.927Z" fill="#F5F5F5"/>
<path d="M325.506 169.904L284.023 169.897L280.58 169.642L275.895 196.805L325.134 200.212L323.99 188.401L328.837 170.955L325.506 169.904Z" fill="#F5F5F5"/>
<path d="M324.49 164.904L325.009 151.939L308.706 119.213L283.427 129.217L292.118 164.905L324.49 164.904ZM307.722 123.193L322.661 151.614L320.503 160.471L294.941 159.509L288.55 132.626L307.722 123.193Z" fill="#F5F5F5"/>
<path d="M330.943 321.343L331.708 346.809L349.68 345.798L349.737 346.796L331.738 347.809L332.653 378.289L349.646 377.214L349.772 379.21L332.713 380.289L333.168 395.445H349.728L350.087 310.457L333.151 312.166L330.943 321.343Z" fill="#F5F5F5"/>
<path d="M221.701 114.785L183.642 109.322L174.123 156.743L221.868 160.28C222.06 152.978 221.893 130.584 221.701 114.785Z" fill="#F5F5F5"/>
<path d="M284.3 164.904H290.059L281.91 131.44L260.729 132.306L261.237 163.195L284.3 164.904Z" fill="#F5F5F5"/>
<path d="M167.43 419.789L167.4 426.806C167.399 427.023 167.424 427.233 167.43 427.448V419.789Z" fill="#F5F5F5"/>
<path d="M222.845 160.351L260.236 163.121L259.729 132.346L222.892 133.851C222.97 144.259 223.001 155.36 222.845 160.351Z" fill="#F5F5F5"/>
<path d="M330.908 259.858L298.275 263.879L302.656 283.513L332.894 280.367L330.908 259.858Z" fill="#F5F5F5"/>
<path d="M339.756 140.903L341.847 128.498L350.855 129.199L350.968 102.487L323.182 113.483C322.616 132.281 334.422 138.89 339.756 140.903Z" fill="#F5F5F5"/>
<path d="M329.057 188.845L330.191 200.561L350.547 201.97L350.649 177.843L333.608 172.462L329.057 188.845Z" fill="#F5F5F5"/>
<path d="M338.744 288.909L333.398 311.137L350.091 309.452L350.19 286.143C345.067 284.794 340.597 283.695 338.195 283.232L338.744 288.909Z" fill="#F5F5F5"/>
<path d="M327.478 165.283L350.671 172.607L350.727 159.417L327.948 153.532L327.478 165.283Z" fill="#F5F5F5"/>
<path d="M337.899 280.179C339.768 280.461 343.311 281.214 350.203 283.025L350.419 232.06L333.399 233.697L337.899 280.179Z" fill="#F5F5F5"/>
<path d="M333.206 231.706L350.427 230.05L350.533 204.976L330.483 203.589L333.206 231.706Z" fill="#F5F5F5"/>
<path d="M341.678 141.535C344.942 142.528 347.979 143.295 350.793 143.859L350.846 131.205L343.515 130.634L341.678 141.535Z" fill="#F5F5F5"/>
<path d="M339.667 153.462L350.739 156.323L350.787 144.887C347.923 144.313 344.832 143.534 341.509 142.528L339.667 153.462Z" fill="#F5F5F5"/>
<path d="M188.131 389.435L188.304 395.445H189.305L189.13 389.371L268.582 384.345C268.431 388.249 268.284 392.033 268.15 395.444H270.151C270.277 392.223 270.428 388.349 270.588 384.218L287.741 383.133L290.195 395.444H291.214L288.748 383.069L327.721 380.604L328.166 395.444H333.169L332.714 380.288L349.773 379.209L349.647 377.213L332.655 378.288L331.74 347.808L349.739 346.795L349.682 345.797L331.71 346.808L330.945 321.342L333.152 312.165L350.089 310.456L350.093 309.451L333.4 311.136L338.746 288.908L338.196 283.231C340.598 283.694 345.068 284.793 350.191 286.142L350.204 283.025C343.312 281.213 339.769 280.461 337.9 280.179L333.4 233.697L350.42 232.06L350.428 230.05L333.207 231.706L330.485 203.589L350.535 204.976L350.548 201.969L330.192 200.561L329.057 188.844L333.608 172.461L350.649 177.842L350.671 172.606L327.478 165.282L327.948 153.531L350.726 159.417L350.739 156.323L339.667 153.462L341.509 142.528C344.832 143.535 347.923 144.314 350.787 144.887L350.791 143.859C347.978 143.295 344.941 142.527 341.676 141.535L343.513 130.634L350.844 131.205L350.852 129.2L341.844 128.499L339.753 140.904C334.419 138.891 322.612 132.281 323.178 113.484L350.964 102.488L350.969 101.217L350.667 100.455L323.188 111.329L323.157 64.055L322.157 64.05L322.188 111.725L310.606 116.308L293.207 81.37C292.391 81.956 291.442 82.349 290.418 82.501L307.811 117.415L281.071 127.997L281.668 130.449L260.711 131.305L259.907 82.441L258.907 82.436L259.712 131.346L222.884 132.851C222.825 125.311 222.745 118.261 222.697 114.344L222.692 113.916L222.678 113.914L220.417 63.579L219.416 63.574L221.67 113.769L183.84 108.338L192.85 63.451L190.274 63.439C190.11 63.438 189.951 63.458 189.788 63.461L180.866 107.91L168.847 106.185L168.753 106.837L168.752 107.182L180.669 108.893L171.11 156.518L168.544 156.328L168.523 161.34L187.253 162.727V187.423L168.395 191.688L168.382 194.767L190.253 189.82V162.949L260.277 168.136V196.753H237.885L234.943 210.076H216.714L168.279 218.89L168.266 221.941L216.984 213.075H272.46L274.453 237.353L216.753 242.901L216.944 244.892L274.616 239.347L278.437 285.877L220.169 278.265L219.78 281.24L278.688 288.935L280.946 316.428L219.284 322.651L187.29 324.915V282.974L217.605 265.292L216.093 262.7L186.477 279.973L168.031 277.538L168.018 280.563L186.29 282.975V309.664L167.887 311.613L167.874 314.63L186.29 312.679V325.985L186.305 325.984L187.391 363.714L187.383 363.695L167.634 371.432L167.62 374.659L187.481 366.878L188.073 387.431L167.561 388.729L167.558 389.394L167.642 390.728L188.131 389.435ZM270.667 382.21C270.735 380.435 270.805 378.625 270.874 376.81L286.49 376.853L287.347 381.156L270.667 382.21ZM288.354 381.091L287.396 376.283L285.062 354.32L283.747 338.305L326.355 335.094L327.661 378.605L288.354 381.091ZM298.044 315.709L320.456 313.447L319.83 322.247L299.743 324.413L298.044 315.709ZM297.045 315.81L300.793 335.015L283.582 336.312L282.023 317.326L297.045 315.81ZM326.295 333.092L301.798 334.938L300.128 326.383L321.707 324.055L322.476 313.242L327.881 312.696L325.927 320.822L326.295 333.092ZM297.278 264.002L301.655 283.617L279.445 285.928L277.841 266.397L297.278 264.002ZM302.657 283.513L298.276 263.879L330.91 259.858L332.896 280.367L302.657 283.513ZM325.134 200.212L275.895 196.805L280.581 169.642L284.024 169.897L325.507 169.904L328.837 170.956L323.99 188.402L325.134 200.212ZM322.17 113.884C322.122 119.041 323.252 136.076 339.588 141.905L337.725 152.959L327.562 150.332L311.507 118.103L322.17 113.884ZM308.706 119.212L325.009 151.938L324.49 164.903H292.117L283.426 129.215L308.706 119.212ZM281.91 131.44L290.059 164.903H284.301L261.237 163.195L260.729 132.305L281.91 131.44ZM259.729 132.346L260.236 163.121L222.845 160.351C223.001 155.359 222.97 144.259 222.892 133.851L259.729 132.346ZM183.644 109.321L221.703 114.784C221.895 130.583 222.062 152.978 221.871 160.279L174.126 156.742L183.644 109.321ZM279.578 169.568L272.59 210.078H261.277V168.212L279.578 169.568ZM240.296 199.755H260.278V210.078H238.017L240.296 199.755ZM273.342 211.6L275.382 199.777L325.427 203.239L328.23 232.184L275.45 237.259L273.342 211.6ZM328.423 234.176L330.62 256.872L277.596 263.406L275.613 239.254L328.423 234.176ZM279.691 288.917L333.184 283.353L333.688 288.555L328.129 311.668L281.942 316.329L279.691 288.917ZM284.066 354.413L286.344 375.854H270.91C271.179 368.781 271.443 361.709 271.629 356.396C271.962 346.873 271.962 346.873 271.327 346.555L270.854 347.497L269.887 347.549C269.932 348.381 269.456 361.445 268.925 375.416L224.297 354.037L222.72 323.309L281.028 317.425L284.066 354.413ZM218.816 323.688L218.501 363.145L188.417 364.572L187.305 325.917L218.816 323.688ZM188.472 366.494L188.479 366.491L188.472 366.473L188.446 365.57L219.494 364.097L219.817 323.603L221.725 323.41L223.33 354.682L268.884 376.505C268.81 378.447 268.735 380.4 268.661 382.336L189.074 387.37L188.472 366.494Z" fill="white"/>
<path d="M233.853 365.095L190.396 368.145V382.095L262.126 378.213L233.853 365.095Z" fill="#EBEBEB"/>
<path d="M323.376 206.866L279.909 204.117L277.222 211.578L278.694 233.809L325.892 228.212L323.376 206.866Z" fill="#EBEBEB"/>
<path d="M188.632 448.227L328.166 448.871C339.948 448.926 349.543 439.416 349.593 427.632L349.729 395.445H333.169H328.166H291.214H290.195H270.152H268.151H189.305H188.304H167.533L167.43 419.789V427.448C167.724 438.928 177.071 448.174 188.632 448.227Z" fill="#EBEBEB"/>
<path d="M217.57 109.54L216.849 68.6621H195.615L189.458 105.426L217.57 109.54Z" fill="#EBEBEB"/>
<path d="M320.503 160.471L322.661 151.614L307.722 123.193L288.55 132.626L294.941 159.509L320.503 160.471Z" fill="#EBEBEB"/>
<path d="M190.396 285.038C190.625 286.329 190.396 320.914 190.396 320.914L218.338 319.147L215.131 271.88L190.396 285.038Z" fill="#EBEBEB"/>
<path d="M283.589 313.124L282.111 291.69L330.035 285.531V289.226L324.24 308.936L283.589 313.124Z" fill="#EBEBEB"/>
<path d="M248.139 135.39C248.139 138.613 245.526 141.227 242.302 141.227C239.078 141.227 236.465 138.614 236.465 135.39C236.465 132.166 239.078 129.553 242.302 129.553C245.526 129.553 248.139 132.167 248.139 135.39Z" fill="#E8505B"/>
<g opacity="0.6">
<path d="M248.133 135.14C248.271 138.361 245.772 141.083 242.552 141.221C239.331 141.359 236.609 138.86 236.471 135.64C236.333 132.419 238.832 129.697 242.052 129.559C245.273 129.421 247.995 131.919 248.133 135.14Z" fill="white"/>
</g>
<path d="M242.302 139.071C244.446 139.071 246.184 137.333 246.184 135.189C246.184 133.045 244.446 131.307 242.302 131.307C240.158 131.307 238.42 133.045 238.42 135.189C238.42 137.333 240.158 139.071 242.302 139.071Z" fill="#E8505B"/>
<path d="M332.529 368.537C332.529 369.915 331.412 371.031 330.035 371.031C328.658 371.031 327.541 369.914 327.541 368.537C327.541 367.159 328.658 366.043 330.035 366.043C331.412 366.043 332.529 367.159 332.529 368.537Z" fill="#E8505B"/>
<path d="M328.536 367.726L327.934 353.749L285.805 355.797C284.707 355.853 283.606 355.617 282.622 355.121L222.869 324.941C221.486 324.242 220.577 322.847 220.498 321.3L212.364 163.564C212.325 162.808 212.613 162.071 213.154 161.542C213.695 161.013 214.444 160.747 215.194 160.796L240.802 162.694V134.699H243.802V163.082C243.802 163.813 243.495 164.518 242.959 165.016C242.423 165.514 241.697 165.765 240.968 165.715L215.381 163.819L223.494 321.147C223.518 321.622 223.797 322.049 224.222 322.264L283.974 352.443C284.494 352.706 285.069 352.833 285.659 352.801L328.137 350.736C328.853 350.708 329.527 350.946 330.053 351.424C330.579 351.904 330.885 352.559 330.916 353.27L331.533 367.598L328.536 367.726Z" fill="#E8505B"/>
<path d="M217.256 239.612C221.432 239.612 224.816 236.227 224.816 232.052C224.816 227.877 221.432 224.492 217.256 224.492C213.081 224.492 209.696 227.877 209.696 232.052C209.696 236.227 213.081 239.612 217.256 239.612Z" fill="#E8505B"/>
<path d="M217.256 237.304C220.157 237.304 222.508 234.952 222.508 232.052C222.508 229.151 220.157 226.8 217.256 226.8C214.355 226.8 212.004 229.151 212.004 232.052C212.004 234.952 214.355 237.304 217.256 237.304Z" fill="#FAFAFA"/>
<path d="M217.257 237.679C214.154 237.679 211.629 235.155 211.629 232.052C211.629 228.949 214.154 226.425 217.257 226.425C220.359 226.425 222.884 228.949 222.884 232.052C222.883 235.155 220.359 237.679 217.257 237.679ZM217.257 227.175C214.568 227.175 212.379 229.363 212.379 232.052C212.379 234.741 214.567 236.929 217.257 236.929C219.946 236.929 222.134 234.741 222.134 232.052C222.133 229.363 219.945 227.175 217.257 227.175Z" fill="#E8505B"/>
<path d="M261.794 200.337H225.792C224.042 200.337 222.623 201.756 222.623 203.506V216.544C222.623 218.294 224.042 219.713 225.792 219.713H226.212V222.82L229.816 219.713H261.794C263.544 219.713 264.962 218.294 264.962 216.544V203.506C264.962 201.756 263.544 200.337 261.794 200.337Z" fill="#E8505B"/>
<g opacity="0.4">
<path d="M261.794 200.337H225.792C224.042 200.337 222.623 201.756 222.623 203.506V216.544C222.623 218.294 224.042 219.713 225.792 219.713H226.212V222.82L229.816 219.713H261.794C263.544 219.713 264.962 218.294 264.962 216.544V203.506C264.962 201.756 263.544 200.337 261.794 200.337Z" fill="white"/>
</g>
<path d="M230.718 209.822C230.718 208.63 231.637 207.74 232.887 207.74C234.125 207.74 235.044 208.624 235.044 209.822C235.044 211.02 234.125 211.903 232.887 211.903C231.637 211.903 230.718 211.014 230.718 209.822ZM234.462 209.822C234.462 208.921 233.788 208.258 232.887 208.258C231.974 208.258 231.3 208.921 231.3 209.822C231.3 210.723 231.974 211.386 232.887 211.386C233.788 211.386 234.462 210.723 234.462 209.822Z" fill="white"/>
<path d="M239.044 210.316C239.044 211.258 238.387 211.891 237.486 211.891C237.032 211.891 236.637 211.717 236.387 211.368V211.856H235.852V207.543H236.41V209.24C236.666 208.909 237.05 208.746 237.486 208.746C238.387 208.746 239.044 209.374 239.044 210.316ZM238.48 210.316C238.48 209.659 238.032 209.235 237.44 209.235C236.853 209.235 236.405 209.659 236.405 210.316C236.405 210.973 236.852 211.403 237.44 211.403C238.032 211.403 238.48 210.973 238.48 210.316Z" fill="white"/>
<path d="M238.753 212.833L238.933 212.403C239.043 212.496 239.206 212.549 239.386 212.549C239.683 212.549 239.845 212.363 239.845 212.008V208.776H240.403V211.997C240.403 212.625 240.054 213.02 239.421 213.02C239.166 213.019 238.91 212.961 238.753 212.833ZM239.747 207.822C239.747 207.618 239.91 207.456 240.124 207.456C240.339 207.456 240.502 207.613 240.502 207.81C240.502 208.019 240.345 208.182 240.124 208.182C239.91 208.182 239.747 208.026 239.747 207.822Z" fill="white"/>
<path d="M244.241 210.502H241.741C241.811 211.042 242.247 211.403 242.857 211.403C243.217 211.403 243.52 211.281 243.747 211.031L244.055 211.392C243.776 211.717 243.351 211.891 242.84 211.891C241.846 211.891 241.183 211.234 241.183 210.316C241.183 209.403 241.84 208.746 242.729 208.746C243.619 208.746 244.252 209.386 244.252 210.333C244.253 210.38 244.247 210.45 244.241 210.502ZM241.741 210.101H243.718C243.66 209.584 243.27 209.218 242.73 209.218C242.195 209.218 241.799 209.578 241.741 210.101Z" fill="white"/>
<path d="M244.741 210.316C244.741 209.398 245.421 208.746 246.369 208.746C246.921 208.746 247.381 208.973 247.625 209.403L247.2 209.676C247.003 209.374 246.7 209.234 246.363 209.234C245.758 209.234 245.305 209.658 245.305 210.315C245.305 210.984 245.759 211.402 246.363 211.402C246.7 211.402 247.003 211.263 247.2 210.96L247.625 211.228C247.381 211.658 246.921 211.891 246.369 211.891C245.421 211.891 244.741 211.235 244.741 210.316Z" fill="white"/>
<path d="M250.118 211.678C249.949 211.823 249.693 211.893 249.443 211.893C248.821 211.893 248.466 211.55 248.466 210.928V209.236H247.943V208.777H248.466V208.103H249.024V208.777H249.908V209.236H249.024V210.904C249.024 211.236 249.198 211.422 249.506 211.422C249.669 211.422 249.826 211.37 249.942 211.277L250.118 211.678Z" fill="white"/>
<path d="M250.693 207.822C250.693 207.618 250.856 207.456 251.071 207.456C251.286 207.456 251.449 207.613 251.449 207.81C251.449 208.019 251.292 208.182 251.071 208.182C250.856 208.182 250.693 208.026 250.693 207.822ZM250.792 208.776H251.35V211.857H250.792V208.776Z" fill="white"/>
<path d="M255.141 208.776L253.792 211.857H253.222L251.873 208.776H252.454L253.512 211.247L254.593 208.776H255.141Z" fill="white"/>
<path d="M258.351 210.502H255.851C255.921 211.042 256.357 211.403 256.967 211.403C257.327 211.403 257.63 211.281 257.857 211.031L258.165 211.392C257.886 211.717 257.461 211.891 256.95 211.891C255.956 211.891 255.293 211.234 255.293 210.316C255.293 209.403 255.95 208.746 256.839 208.746C257.729 208.746 258.362 209.386 258.362 210.333C258.362 210.38 258.357 210.45 258.351 210.502ZM255.851 210.101H257.828C257.77 209.584 257.38 209.218 256.84 209.218C256.304 209.218 255.909 209.578 255.851 210.101Z" fill="white"/>
<path d="M249.901 115.778C249.901 111.17 245.737 107.535 240.966 108.43C237.965 108.993 235.574 111.444 235.048 114.451C234.719 116.331 235.107 118.099 235.965 119.559H235.961L235.982 119.587C236.269 120.071 236.629 120.416 236.992 120.925L241.338 126.681C241.879 127.397 242.955 127.397 243.495 126.681L247.768 121.02C247.768 121.02 248.566 120.069 248.855 119.58L248.871 119.56H248.868C249.521 118.449 249.901 117.16 249.901 115.778ZM242.417 119.037C240.598 119.037 239.123 117.562 239.123 115.743C239.123 113.924 240.598 112.449 242.417 112.449C244.236 112.449 245.711 113.924 245.711 115.743C245.711 117.562 244.236 119.037 242.417 119.037Z" fill="#E8505B"/>
<path d="M201.444 410.65H200.049V410.144H203.415V410.65H202.02V414.213H201.444V410.65Z" fill="#263238"/>
<path d="M203.361 412.672C203.361 411.754 204.041 411.103 204.966 411.103C205.89 411.103 206.565 411.754 206.565 412.672C206.565 413.591 205.891 414.248 204.966 414.248C204.042 414.248 203.361 413.591 203.361 412.672ZM206.001 412.672C206.001 412.016 205.56 411.591 204.966 411.591C204.373 411.591 203.925 412.016 203.925 412.672C203.925 413.329 204.373 413.76 204.966 413.76C205.559 413.76 206.001 413.329 206.001 412.672Z" fill="#263238"/>
<path d="M209.071 414.032C208.902 414.178 208.646 414.248 208.396 414.248C207.774 414.248 207.419 413.904 207.419 413.282V411.591H206.896V411.132H207.419V410.457H207.977V411.132H208.861V411.591H207.977V413.26C207.977 413.591 208.151 413.778 208.459 413.778C208.622 413.778 208.779 413.725 208.895 413.632L209.071 414.032Z" fill="#263238"/>
<path d="M212.188 412.353V414.213H211.659V413.806C211.473 414.085 211.13 414.248 210.647 414.248C209.949 414.248 209.507 413.876 209.507 413.341C209.507 412.847 209.827 412.44 210.745 412.44H211.629V412.33C211.629 411.859 211.356 411.586 210.803 411.586C210.437 411.586 210.065 411.714 209.826 411.918L209.594 411.499C209.914 411.243 210.373 411.103 210.867 411.103C211.711 411.103 212.188 411.51 212.188 412.353ZM211.63 413.272V412.841H210.77C210.218 412.841 210.06 413.056 210.06 413.318C210.06 413.627 210.316 413.818 210.74 413.818C211.159 413.818 211.49 413.626 211.63 413.272Z" fill="#263238"/>
<path d="M213.222 409.899H213.78V414.212H213.222V409.899Z" fill="#263238"/>
<path d="M219.315 409.899V414.212H218.78V413.724C218.53 414.073 218.135 414.247 217.681 414.247C216.78 414.247 216.123 413.613 216.123 412.671C216.123 411.73 216.78 411.102 217.681 411.102C218.117 411.102 218.501 411.265 218.757 411.596V409.899H219.315ZM218.762 412.671C218.762 412.015 218.315 411.59 217.727 411.59C217.134 411.59 216.687 412.015 216.687 412.671C216.687 413.328 217.135 413.759 217.727 413.759C218.315 413.759 218.762 413.328 218.762 412.671Z" fill="#263238"/>
<path d="M220.273 410.179C220.273 409.975 220.436 409.812 220.651 409.812C220.866 409.812 221.029 409.969 221.029 410.167C221.029 410.376 220.872 410.539 220.651 410.539C220.436 410.539 220.273 410.382 220.273 410.179ZM220.372 411.132H220.93V414.213H220.372V411.132Z" fill="#263238"/>
<path d="M221.605 413.888L221.837 413.446C222.099 413.633 222.517 413.766 222.918 413.766C223.435 413.766 223.65 413.609 223.65 413.347C223.65 412.656 221.702 413.254 221.702 412.028C221.702 411.475 222.196 411.103 222.987 411.103C223.388 411.103 223.842 411.207 224.109 411.382L223.871 411.823C223.592 411.643 223.284 411.579 222.982 411.579C222.493 411.579 222.255 411.76 222.255 412.004C222.255 412.731 224.209 412.138 224.209 413.335C224.209 413.894 223.697 414.248 222.878 414.248C222.366 414.248 221.86 414.091 221.605 413.888Z" fill="#263238"/>
<path d="M226.64 414.032C226.471 414.178 226.215 414.248 225.965 414.248C225.343 414.248 224.988 413.904 224.988 413.282V411.591H224.465V411.132H224.988V410.457H225.546V411.132H226.43V411.591H225.546V413.26C225.546 413.591 225.72 413.778 226.028 413.778C226.191 413.778 226.348 413.725 226.464 413.632L226.64 414.032Z" fill="#263238"/>
<path d="M229.756 412.353V414.213H229.227V413.806C229.041 414.085 228.698 414.248 228.215 414.248C227.517 414.248 227.075 413.876 227.075 413.341C227.075 412.847 227.395 412.44 228.313 412.44H229.197V412.33C229.197 411.859 228.924 411.586 228.371 411.586C228.005 411.586 227.633 411.714 227.394 411.918L227.162 411.499C227.482 411.243 227.941 411.103 228.435 411.103C229.28 411.103 229.756 411.51 229.756 412.353ZM229.198 413.272V412.841H228.338C227.786 412.841 227.628 413.056 227.628 413.318C227.628 413.627 227.884 413.818 228.308 413.818C228.727 413.818 229.058 413.626 229.198 413.272Z" fill="#263238"/>
<path d="M233.715 412.44V414.213H233.157V412.504C233.157 411.9 232.855 411.603 232.326 411.603C231.733 411.603 231.349 411.957 231.349 412.626V414.213H230.791V411.132H231.326V411.597C231.553 411.283 231.948 411.103 232.436 411.103C233.186 411.103 233.715 411.534 233.715 412.44Z" fill="#263238"/>
<path d="M234.482 412.672C234.482 411.754 235.162 411.103 236.11 411.103C236.662 411.103 237.121 411.33 237.366 411.76L236.941 412.033C236.744 411.73 236.441 411.591 236.104 411.591C235.499 411.591 235.046 412.016 235.046 412.672C235.046 413.341 235.5 413.76 236.104 413.76C236.441 413.76 236.744 413.62 236.941 413.318L237.366 413.586C237.121 414.017 236.662 414.249 236.11 414.249C235.162 414.248 234.482 413.591 234.482 412.672Z" fill="#263238"/>
<path d="M240.814 412.859H238.314C238.384 413.4 238.82 413.76 239.43 413.76C239.79 413.76 240.093 413.638 240.32 413.388L240.628 413.748C240.349 414.073 239.924 414.248 239.413 414.248C238.419 414.248 237.756 413.591 237.756 412.672C237.756 411.76 238.413 411.103 239.302 411.103C240.192 411.103 240.825 411.743 240.825 412.69C240.825 412.737 240.819 412.806 240.814 412.859ZM238.314 412.457H240.291C240.233 411.939 239.843 411.573 239.303 411.573C238.767 411.574 238.372 411.934 238.314 412.457Z" fill="#263238"/>
<path d="M205.096 418.776V428.485H202.849V420.579H200.907V418.776H205.096Z" fill="#263238"/>
<path d="M209.41 427.237C209.41 427.597 209.354 427.861 209.036 428.624L208.246 430.621H206.872L207.482 428.416C207.024 428.235 206.733 427.806 206.733 427.237C206.733 426.432 207.316 425.905 208.079 425.905C208.855 425.905 209.41 426.446 209.41 427.237Z" fill="#263238"/>
<path d="M213.945 418.776V428.485H211.698V420.579H209.756V418.776H213.945Z" fill="#263238"/>
<path d="M215.638 423.63C215.638 420.426 217.413 418.609 219.799 418.609C222.198 418.609 223.96 420.426 223.96 423.63C223.96 426.834 222.198 428.651 219.799 428.651C217.414 428.651 215.638 426.834 215.638 423.63ZM221.699 423.63C221.699 421.425 220.923 420.509 219.799 420.509C218.689 420.509 217.912 421.425 217.912 423.63C217.912 425.835 218.689 426.751 219.799 426.751C220.923 426.751 221.699 425.835 221.699 423.63Z" fill="#263238"/>
<path d="M225.056 423.63C225.056 420.426 226.831 418.609 229.217 418.609C231.616 418.609 233.378 420.426 233.378 423.63C233.378 426.834 231.616 428.651 229.217 428.651C226.831 428.651 225.056 426.834 225.056 423.63ZM231.117 423.63C231.117 421.425 230.341 420.509 229.217 420.509C228.107 420.509 227.33 421.425 227.33 423.63C227.33 425.835 228.107 426.751 229.217 426.751C230.34 426.751 231.117 425.835 231.117 423.63Z" fill="#263238"/>
<path d="M251.464 424.212V428.485H249.3V424.545C249.3 423.339 248.759 422.784 247.885 422.784C246.914 422.784 246.234 423.408 246.234 424.739V428.484H244.07V424.544C244.07 423.338 243.557 422.783 242.656 422.783C241.699 422.783 241.019 423.407 241.019 424.738V428.483H238.855V421.021H240.922V421.88C241.477 421.242 242.309 420.909 243.266 420.909C244.306 420.909 245.194 421.311 245.721 422.13C246.318 421.367 247.288 420.909 248.412 420.909C250.187 420.911 251.464 421.938 251.464 424.212Z" fill="#263238"/>
<path d="M194.934 419.932C195.993 415.43 193.202 410.921 188.699 409.863C184.197 408.804 179.689 411.595 178.63 416.098C177.571 420.6 180.363 425.108 184.865 426.167C189.367 427.226 193.876 424.434 194.934 419.932Z" fill="#E8505B"/>
<path d="M183.424 419.543C183.424 419.495 184.207 419.449 185.575 419.41C186.943 419.371 188.897 419.339 191.239 419.316L191.066 419.689C190.405 418.925 189.685 418.093 188.93 417.221L188.796 417.065L188.926 416.902C189.597 416.064 190.305 415.179 191.036 414.267L191.238 414.69C190.936 414.69 190.612 414.69 190.286 414.691C187.817 414.681 185.485 414.672 183.423 414.664L183.656 414.431C183.635 416.971 183.602 419.108 183.562 420.609C183.522 422.11 183.474 422.976 183.423 422.976C183.372 422.976 183.325 422.11 183.284 420.609C183.244 419.108 183.21 416.972 183.189 414.431L183.188 414.199L183.423 414.198C185.485 414.19 187.817 414.181 190.286 414.171C190.612 414.171 190.936 414.171 191.238 414.172H191.783L191.439 414.595C190.703 415.503 189.99 416.384 189.314 417.218L189.309 416.899C190.051 417.782 190.759 418.624 191.409 419.397L191.726 419.775L191.236 419.77C188.894 419.748 186.94 419.715 185.572 419.676C184.207 419.637 183.424 419.591 183.424 419.543Z" fill="#FAFAFA"/>
<path d="M322.224 403.733H296.915C294.241 403.733 292.073 405.901 292.073 408.575V428.5C292.073 431.174 294.241 433.342 296.915 433.342H297.557V438.091L303.065 433.342H322.224C324.898 433.342 327.066 431.174 327.066 428.5V408.575C327.066 405.901 324.899 403.733 322.224 403.733Z" fill="#E8505B"/>
<path d="M299.329 412.872V423.088C299.329 423.308 299.507 423.486 299.727 423.486H321.146C321.368 423.486 321.547 423.305 321.544 423.083L321.495 419.342C321.494 419.258 321.466 419.176 321.416 419.109L318.344 415.002C318.269 414.902 318.153 414.843 318.028 414.842L314.488 414.815C314.269 414.813 314.093 414.636 314.093 414.417V412.872C314.093 412.652 313.915 412.474 313.695 412.474H299.727C299.507 412.475 299.329 412.653 299.329 412.872Z" fill="#FAFAFA"/>
<path d="M315.09 415.705V418.983C315.09 419.111 315.195 419.213 315.322 419.211L320.05 419.126C320.231 419.123 320.336 418.92 320.235 418.77L318.025 415.509C317.981 415.445 317.908 415.407 317.83 415.409L315.312 415.477C315.189 415.481 315.09 415.582 315.09 415.705Z" fill="#E8505B"/>
<path d="M321.97 423.797H298.898V424.509H321.97V423.797Z" fill="#FAFAFA"/>
<path d="M306.529 424.07C306.529 425.33 305.507 426.352 304.247 426.352C302.987 426.352 301.965 425.33 301.965 424.07C301.965 422.81 302.987 421.788 304.247 421.788C305.508 421.787 306.529 422.809 306.529 424.07Z" fill="#E8505B"/>
<path d="M305.59 424.07C305.59 424.812 304.989 425.413 304.247 425.413C303.505 425.413 302.904 424.812 302.904 424.07C302.904 423.328 303.505 422.727 304.247 422.727C304.988 422.726 305.59 423.328 305.59 424.07Z" fill="#FAFAFA"/>
<path d="M314.076 423.486C314.018 423.486 313.972 421.021 313.972 417.98C313.972 414.939 314.019 412.474 314.076 412.474C314.133 412.474 314.18 414.939 314.18 417.98C314.18 421.021 314.134 423.486 314.076 423.486Z" fill="#E8505B"/>
<path d="M318.964 424.07C318.964 425.33 317.942 426.352 316.682 426.352C315.422 426.352 314.4 425.33 314.4 424.07C314.4 422.81 315.422 421.788 316.682 421.788C317.942 421.788 318.964 422.809 318.964 424.07Z" fill="#E8505B"/>
<path d="M318.026 424.071C318.026 424.813 317.425 425.414 316.683 425.414C315.941 425.414 315.34 424.813 315.34 424.071C315.34 423.329 315.941 422.728 316.683 422.728C317.425 422.727 318.026 423.329 318.026 424.071Z" fill="#FAFAFA"/>
<path d="M316.689 419.859C316.689 419.917 316.362 419.963 315.959 419.963C315.556 419.963 315.229 419.916 315.229 419.859C315.229 419.802 315.556 419.755 315.959 419.755C316.362 419.755 316.689 419.801 316.689 419.859Z" fill="#E8505B"/>
<path d="M555.335 252.13C555.335 252.13 571.47 254.856 572.769 255.202C574.068 255.548 579.177 257.973 579.437 259.532C579.697 261.091 579.437 265.68 579.437 265.68C579.437 265.68 578.515 266.433 577.937 264.931C577.359 263.429 577.446 260.458 577.446 260.458L574.588 259.358L576.147 262.129L576.407 268.624C576.407 268.624 574.411 268.442 574.023 266.887C573.636 265.333 573.642 263.601 573.642 263.601L571.557 261.835L573.116 263.947L573.642 268.623C573.642 268.623 572.121 269.114 571.642 268.077C571.164 267.039 571.124 263.947 571.124 263.947L565.245 261.893L561.35 264.061L554.077 259.948L555.335 252.13Z" fill="#FFBE9D"/>
<path d="M498.864 212.258C498.937 212.578 518.303 239.235 518.303 239.235L557.203 251.333L555.431 265.944L507.756 256.344L490.836 236.926L498.864 212.258Z" fill="#E8505B"/>
<g opacity="0.2">
<path d="M498.864 212.258C498.937 212.578 518.303 239.235 518.303 239.235L557.203 251.333L555.431 265.944L507.756 256.344L490.836 236.926L498.864 212.258Z" fill="black"/>
</g>
<path d="M431.106 264.44H351.623C349.94 264.44 348.575 263.075 348.575 261.392V251.997C348.575 250.314 349.94 248.949 351.623 248.949H431.106C432.79 248.949 434.154 250.314 434.154 251.997V261.392C434.154 263.075 432.79 264.44 431.106 264.44Z" fill="#F5F5F5"/>
<path d="M431.106 264.441C431.105 264.423 431.28 264.434 431.607 264.369C431.929 264.302 432.425 264.169 432.932 263.763C433.433 263.371 433.948 262.681 434.054 261.742C434.091 260.803 434.05 259.682 434.053 258.441C434.046 257.193 434.039 255.809 434.03 254.295C434.025 253.538 434.021 252.748 434.016 251.928C434 251.142 433.635 250.337 432.99 249.791C432.671 249.515 432.281 249.313 431.861 249.203C431.443 249.083 430.995 249.105 430.515 249.105C429.57 249.108 428.595 249.111 427.592 249.115C425.585 249.121 423.464 249.127 421.238 249.133C403.403 249.153 378.801 249.179 351.628 249.209C350.847 249.203 350.082 249.548 349.564 250.123C349.034 250.703 348.788 251.459 348.835 252.273C348.835 253.951 348.834 255.619 348.834 257.274C348.834 258.101 348.833 258.926 348.833 259.747V260.977C348.829 261.4 348.83 261.761 348.933 262.124C349.125 262.845 349.622 263.475 350.27 263.833C350.593 264.013 350.952 264.127 351.318 264.167C351.67 264.198 352.103 264.179 352.494 264.185C358.903 264.19 365.086 264.195 370.976 264.2C382.751 264.221 393.356 264.24 402.271 264.256C411.162 264.291 418.365 264.319 423.369 264.339C425.842 264.36 427.771 264.377 429.105 264.388C429.744 264.399 430.239 264.408 430.597 264.414C430.934 264.423 431.106 264.441 431.106 264.441C431.106 264.441 430.934 264.459 430.598 264.468C430.241 264.474 429.745 264.483 429.106 264.494C427.772 264.505 425.843 264.522 423.37 264.543C418.366 264.563 411.163 264.591 402.272 264.626C393.357 264.642 382.752 264.661 370.977 264.682C365.087 264.687 358.904 264.692 352.495 264.697C352.086 264.69 351.714 264.714 351.264 264.677C350.83 264.631 350.405 264.496 350.022 264.283C349.254 263.86 348.666 263.116 348.437 262.261C348.314 261.837 348.313 261.372 348.318 260.979L348.317 259.749C348.317 258.928 348.317 258.103 348.316 257.276C348.316 255.621 348.315 253.954 348.315 252.275C348.257 251.414 348.551 250.439 349.179 249.775C349.792 249.094 350.704 248.684 351.628 248.691C378.801 248.721 403.403 248.748 421.238 248.767C423.464 248.774 425.585 248.78 427.592 248.785C428.595 248.788 429.569 248.792 430.515 248.795C430.977 248.798 431.472 248.777 431.939 248.913C432.402 249.039 432.83 249.265 433.178 249.571C433.883 250.177 434.276 251.065 434.285 251.923C434.282 252.746 434.28 253.538 434.278 254.297C434.27 255.811 434.262 257.195 434.255 258.443C434.237 259.692 434.263 260.787 434.208 261.762C434.079 262.748 433.524 263.456 432.996 263.848C432.46 264.254 431.946 264.373 431.616 264.423C431.28 264.47 431.106 264.441 431.106 264.441Z" fill="#263238"/>
<path d="M646.899 462.335C669.454 461.251 686.86 442.088 685.776 419.534C684.692 396.979 665.529 379.573 642.974 380.657C620.418 381.741 603.012 400.904 604.096 423.459C605.18 446.014 624.344 463.419 646.899 462.335Z" fill="#263238"/>
<path d="M604.077 420.843C604.076 420.878 604.07 420.913 604.07 420.948C603.744 443.527 621.785 462.096 644.364 462.422C666.944 462.748 685.513 444.707 685.838 422.128C685.839 422.092 685.834 422.058 685.834 422.022L604.077 420.843Z" fill="#263238"/>
<path d="M616.251 421.124C616.022 436.977 628.688 450.013 644.54 450.242C660.393 450.471 673.429 437.805 673.658 421.952C673.887 406.1 661.221 393.063 645.368 392.834C629.516 392.606 616.48 405.271 616.251 421.124Z" fill="#FAFAFA"/>
<path d="M645.368 392.834C629.516 392.605 616.48 405.271 616.251 421.124L673.658 421.952C673.886 406.1 661.221 393.063 645.368 392.834Z" fill="#E0E0E0"/>
<path d="M627.47 421.286C627.331 430.943 635.046 438.884 644.702 439.023C654.359 439.162 662.3 431.447 662.44 421.791C662.579 412.134 654.863 404.193 645.207 404.054C635.55 403.914 627.609 411.629 627.47 421.286Z" fill="#263238"/>
<path d="M625.546 361.585C625.546 361.585 667.41 348.922 684.724 394.404L597.12 421.538L625.546 361.585Z" fill="#E8505B"/>
<path d="M394.625 462.344C417.18 461.26 434.586 442.097 433.502 419.542C432.418 396.988 413.255 379.582 390.699 380.666C368.144 381.75 350.738 400.913 351.822 423.468C352.906 446.023 372.069 463.428 394.625 462.344Z" fill="#263238"/>
<path d="M351.791 420.843C351.79 420.878 351.784 420.913 351.784 420.948C351.458 443.527 369.499 462.096 392.078 462.422C414.658 462.748 433.227 444.707 433.552 422.128C433.552 422.092 433.548 422.058 433.548 422.022L351.791 420.843Z" fill="#263238"/>
<path d="M363.964 421.124C363.736 436.977 376.401 450.013 392.253 450.242C408.106 450.471 421.142 437.805 421.371 421.952C421.6 406.1 408.934 393.063 393.081 392.834C377.229 392.606 364.193 405.271 363.964 421.124Z" fill="#FAFAFA"/>
<path d="M393.081 392.834C377.229 392.605 364.193 405.271 363.964 421.124L421.371 421.952C421.6 406.1 408.934 393.063 393.081 392.834Z" fill="#E0E0E0"/>
<path d="M375.183 421.287C375.044 430.944 382.759 438.885 392.415 439.024C402.072 439.163 410.013 431.448 410.153 421.792C410.292 412.135 402.576 404.194 392.92 404.055C383.263 403.915 375.322 411.63 375.183 421.287Z" fill="#263238"/>
<path d="M450.826 405.123C450.599 405.239 429.308 401.831 429.308 401.831C426.975 404.871 423.423 406.731 419.596 406.915C410.401 407.356 401.407 407.761 393.62 408.109C386.356 408.434 380.728 414.577 381.035 421.842L381.036 421.853C381.326 428.72 386.837 434.216 393.706 434.487L438.986 436.27C446.431 436.563 456.33 432.037 460.979 426.214L450.826 405.123Z" fill="#455A64"/>
<path d="M339.586 387.028C339.586 387.028 337.638 347.18 375.086 338.878V333.769H506.275V345.951C506.275 345.951 487.02 369.136 493.307 388.392C499.595 407.648 501.559 409.612 501.559 409.612H576.223C576.223 409.612 585.261 398.216 585.654 381.318C586.047 364.42 579.025 335.525 573.784 317.056C569.019 300.262 566.005 286.22 566.005 286.22L588.404 278.754C588.404 278.754 629.851 332.946 631.544 335.994C633.237 339.041 638.993 346.152 637.639 361.727C636.285 377.303 599.039 425.383 589.22 430.801C579.401 436.219 570.597 436.557 561.794 437.912C554.152 439.088 497.628 438.31 482.843 438.084C477.708 438.006 472.637 436.694 468.245 434.03C463.824 431.349 460.498 426.913 456.829 419.627L449.041 404.39L339.586 387.028Z" fill="#E8505B"/>
<path d="M349.624 384.256L333.099 410.138C330.983 413.451 334.406 417.621 338.013 416.058C339.762 415.3 341.646 414.115 343.556 412.298C351.114 405.108 364.584 386.169 364.584 386.169L349.624 384.256Z" fill="#455A64"/>
<path d="M468.114 388.918C468.106 388.915 468.139 388.787 468.211 388.541C468.293 388.272 468.403 387.912 468.543 387.454C468.825 386.497 469.163 385.061 469.408 383.184C469.829 379.459 469.637 373.768 466.851 367.565C465.493 364.472 463.481 361.311 460.764 358.411C458.033 355.532 454.659 352.87 450.722 350.75C446.798 348.615 442.367 346.939 437.618 345.873C432.868 344.807 427.818 344.326 422.652 344.326C417.48 344.325 412.438 344.784 407.6 345.43C402.761 346.082 398.115 346.884 393.744 347.882C384.994 349.849 377.38 352.76 371.491 356.116C365.581 359.45 361.391 363.087 358.775 365.819C357.455 367.181 356.51 368.313 355.877 369.086C355.578 369.46 355.343 369.754 355.167 369.974C355.004 370.173 354.918 370.272 354.91 370.266C354.91 370.266 356.026 368.466 358.628 365.679C361.21 362.892 365.388 359.19 371.309 355.796C377.209 352.379 384.857 349.415 393.636 347.414C398.023 346.4 402.68 345.585 407.532 344.924C412.384 344.27 417.449 343.804 422.652 343.805C427.85 343.805 432.938 344.293 437.731 345.375C442.522 346.457 446.993 348.16 450.953 350.329C454.925 352.483 458.33 355.188 461.08 358.115C463.817 361.063 465.838 364.279 467.189 367.415C469.963 373.707 470.097 379.462 469.61 383.208C469.332 385.096 468.959 386.533 468.644 387.484C468.483 387.937 468.356 388.292 468.261 388.558C468.172 388.799 468.123 388.921 468.114 388.918Z" fill="#263238"/>
<path d="M460.556 379.971C460.5 379.949 460.775 379.342 461.051 378.197C461.359 377.059 461.49 375.326 461.2 373.243C460.914 371.157 460.111 368.738 458.763 366.297C458.103 365.07 457.289 363.845 456.345 362.659C455.415 361.462 454.321 360.323 453.095 359.292C450.629 357.222 447.881 355.764 445.292 354.728C442.684 353.72 440.223 353.117 438.133 352.773C436.042 352.424 434.327 352.277 433.142 352.205C431.956 352.132 431.297 352.105 431.297 352.064C431.297 352.046 431.462 352.031 431.776 352.019C432.09 352.012 432.554 351.986 433.15 352.003C434.343 352.013 436.074 352.104 438.191 352.41C440.308 352.711 442.809 353.283 445.466 354.282C448.106 355.31 450.908 356.778 453.429 358.894C454.688 359.952 455.802 361.118 456.745 362.344C457.703 363.558 458.523 364.811 459.184 366.069C460.535 368.57 461.319 371.054 461.564 373.195C461.814 375.333 461.621 377.105 461.246 378.249C461.128 378.84 460.873 379.248 460.771 379.544C460.646 379.831 460.572 379.978 460.556 379.971Z" fill="#F5F5F5"/>
<g opacity="0.4">
<path d="M434.865 345.06C442.197 346.459 448.606 349.088 454.62 353.102C460.634 357.116 465.236 362.799 467.853 369.539C470.471 376.279 470.079 385.206 467.324 390.789L476.593 391.556C479.715 381.15 476.316 368.377 468.817 360.229C460.019 350.67 447.917 345.06 434.865 345.06Z" fill="black"/>
</g>
<path d="M431.912 333.77H350.818C346.08 333.77 342.239 329.929 342.239 325.191V272.237C342.239 267.499 346.08 263.658 350.818 263.658H431.912C436.65 263.658 440.491 267.499 440.491 272.237V325.191C440.49 329.929 436.65 333.77 431.912 333.77Z" fill="#455A64"/>
<path d="M440.49 279.304C440.49 279.448 418.4 279.564 391.157 279.564C363.905 279.564 341.819 279.448 341.819 279.304C341.819 279.16 363.904 279.044 391.157 279.044C418.4 279.044 440.49 279.16 440.49 279.304Z" fill="#263238"/>
<path d="M506.21 338.411C506.21 338.555 476.725 338.671 440.362 338.671C403.986 338.671 374.507 338.554 374.507 338.411C374.507 338.268 403.986 338.151 440.362 338.151C476.725 338.151 506.21 338.268 506.21 338.411Z" fill="#263238"/>
<path d="M506.274 333.77C506.274 333.77 508.438 331.188 508.645 327.893C508.852 324.598 507.349 320.479 503.804 320.479H458.504C451.163 320.479 445.213 326.43 445.213 333.77H506.274Z" fill="#455A64"/>
<path d="M566.006 286.22L558.128 269.79C555.974 265.118 557.692 259.575 562.11 256.939L585.667 242.888C586.899 242.153 588.307 241.765 589.741 241.765H594.832L596.871 274.974L589.017 277.978L593.987 286.062L566.006 286.22Z" fill="#E8505B"/>
<path d="M594.906 242.971C594.906 242.971 602.966 244.819 603.98 257.245C604.994 269.671 596.871 273.538 596.871 273.538L594.906 242.971Z" fill="#EBEBEB"/>
<path d="M568.752 263.354C568.752 263.354 552.458 271.076 550.469 272.343C549.09 273.222 547.905 274.762 548.987 277.469C550.832 282.085 558.451 277.743 558.451 277.743L573.615 270.161C573.615 270.161 579.447 267.408 577.294 263.965C574.884 260.11 568.752 263.354 568.752 263.354Z" fill="#263238"/>
<path d="M545.693 260.537C545.693 260.537 560.997 263.161 562.296 263.507C563.595 263.853 568.704 266.278 568.964 267.837C569.224 269.396 568.964 273.985 568.964 273.985C568.964 273.985 568.042 274.738 567.464 273.236C566.886 271.734 566.973 268.763 566.973 268.763L564.115 267.663L565.674 270.434L565.934 276.929C565.934 276.929 563.938 276.747 563.55 275.193C563.163 273.639 563.169 271.907 563.169 271.907L561.084 270.141L562.643 272.253L563.169 276.929C563.169 276.929 561.648 277.421 561.169 276.383C560.691 275.345 560.651 272.253 560.651 272.253L554.772 270.199L550.878 272.367L544.756 269.012L545.693 260.537Z" fill="#FFBE9D"/>
<path d="M569.532 239.222C569.532 245.417 566.684 250.44 563.17 250.44C559.656 250.44 556.808 245.418 556.808 239.222C556.808 233.026 559.657 228.004 563.17 228.004C566.684 228.004 569.532 233.026 569.532 239.222Z" fill="#263238"/>
<path d="M564.214 246.934L567.709 259.046C569.27 258.254 569.595 256.698 569.336 255.47C568.459 251.321 567.964 248.367 567.001 244.735C566.883 244.366 564.214 246.934 564.214 246.934Z" fill="#263238"/>
<g opacity="0.4">
<path d="M495.034 393.568C494.688 392.57 494.336 391.548 494.002 390.5C493.691 389.523 493.325 388.509 493.057 387.538C492.578 385.8 492.301 384.008 492.183 382.973C486.285 406.991 495.29 423.903 510.756 425.092C533.35 426.829 560.897 428.093 572.041 425.168C592.351 419.837 599.804 402.904 601.581 400.112C603.358 397.319 619.516 367.793 609.615 339.359C599.714 310.925 582.458 280.738 582.458 280.738L566.008 286.221C566.008 286.221 569.022 300.263 573.787 317.057C579.028 335.527 586.049 364.422 585.657 381.319C585.264 398.217 576.226 409.613 576.226 409.613H501.562C501.56 409.613 499.96 408.009 495.034 393.568Z" fill="black"/>
</g>
<path d="M336.599 380.779L337.125 375.082L473.406 390.782C481.097 391.684 486.443 398.873 485.094 406.499L484.482 409.953L343.435 389.457C339.211 388.843 336.207 385.029 336.599 380.779Z" fill="#E8505B"/>
<g opacity="0.6">
<path d="M336.599 380.779L337.125 375.082L473.406 390.782C481.097 391.684 486.443 398.873 485.094 406.499L484.482 409.953L343.435 389.457C339.211 388.843 336.207 385.029 336.599 380.779Z" fill="black"/>
</g>
<g opacity="0.3">
<path d="M601.579 418.905C601.579 418.905 631.58 385.908 637.765 359.965C639.843 359.944 644.687 360.155 647.058 360.653C647.058 360.653 629.316 408.878 601.579 418.905Z" fill="black"/>
</g>
<path d="M637.329 348.336C637.347 348.333 637.402 348.62 637.492 349.169C637.57 349.72 637.733 350.529 637.834 351.583C638.029 353.688 638.157 356.779 637.601 360.54C637.061 364.297 635.776 368.681 633.643 373.22C631.558 377.785 628.688 382.494 625.7 387.419C619.69 397.305 613.002 405.392 608.14 411.166C605.695 414.049 603.682 416.35 602.281 417.933C601.601 418.692 601.06 419.296 600.657 419.746C600.281 420.156 600.077 420.366 600.064 420.355C600.05 420.343 600.228 420.11 600.578 419.678C600.962 419.213 601.478 418.588 602.127 417.802C603.513 416.14 605.462 413.803 607.857 410.931C612.644 405.101 619.27 396.996 625.255 387.151C628.244 382.224 631.115 377.54 633.208 373.02C635.349 368.524 636.655 364.2 637.237 360.486C637.834 356.769 637.763 353.703 637.632 351.603C637.563 350.552 637.433 349.742 637.389 349.187C637.333 348.632 637.312 348.339 637.329 348.336Z" fill="#263238"/>
<path d="M585.469 418.665C585.368 418.768 583.217 416.825 580.664 414.325C578.11 411.825 576.122 409.716 576.223 409.613C576.323 409.51 578.474 411.453 581.028 413.953C583.581 416.452 585.569 418.562 585.469 418.665Z" fill="#263238"/>
<path d="M496.434 417.648C496.31 417.592 497.133 415.582 498.635 413.378C500.129 411.167 501.692 409.66 501.789 409.755C501.902 409.857 500.534 411.497 499.065 413.671C497.589 415.837 496.571 417.715 496.434 417.648Z" fill="#263238"/>
<path d="M438.792 436.7C438.67 436.598 440.944 435.151 442.884 431.501C443.851 429.7 444.648 427.349 444.889 424.656C445.137 421.974 444.748 418.939 443.433 416.118C442.068 413.32 439.954 411.107 437.712 409.612C435.467 408.104 433.138 407.244 431.13 406.863C427.073 406.075 424.518 406.932 424.515 406.773C424.511 406.756 424.664 406.71 424.962 406.638C425.261 406.581 425.696 406.436 426.276 406.383C427.426 406.204 429.136 406.15 431.198 406.501C433.258 406.844 435.658 407.686 437.979 409.213C440.295 410.726 442.491 412.996 443.903 415.894C445.265 418.814 445.648 421.949 445.367 424.7C445.093 427.463 444.238 429.859 443.208 431.676C442.183 433.5 441.065 434.795 440.203 435.576C439.797 435.994 439.41 436.24 439.178 436.437C438.935 436.623 438.803 436.714 438.792 436.7Z" fill="#263238"/>
<path d="M389.028 426.253C388.884 426.26 388.665 424.108 388.538 421.447C388.411 418.785 388.425 416.622 388.569 416.616C388.713 416.609 388.932 418.761 389.059 421.423C389.185 424.083 389.171 426.246 389.028 426.253Z" fill="#263238"/>
<path d="M392.642 426.26C392.499 426.278 392.108 424.131 391.767 421.465C391.426 418.798 391.266 416.622 391.409 416.604C391.552 416.586 391.943 418.732 392.284 421.399C392.624 424.065 392.785 426.242 392.642 426.26Z" fill="#263238"/>
<path d="M448.845 333.77C448.845 333.914 432.275 334.03 411.84 334.03C391.398 334.03 374.832 333.913 374.832 333.77C374.832 333.627 391.398 333.51 411.84 333.51C432.275 333.509 448.845 333.626 448.845 333.77Z" fill="#263238"/>
<path d="M395.189 333.719C395.045 333.719 394.929 314.741 394.929 291.337C394.929 267.924 395.046 248.951 395.189 248.951C395.333 248.951 395.449 267.925 395.449 291.337C395.449 314.742 395.332 333.719 395.189 333.719Z" fill="#263238"/>
<path d="M385.043 333.651C384.899 333.645 385.609 314.677 386.627 291.291C387.646 267.897 388.588 248.944 388.732 248.95C388.876 248.956 388.166 267.92 387.148 291.314C386.129 314.7 385.187 333.657 385.043 333.651Z" fill="#263238"/>
<path d="M362.093 449.297C362.079 449.309 361.929 449.157 361.654 448.856C361.387 448.549 360.961 448.12 360.486 447.508C359.498 446.316 358.173 444.495 356.796 442.086C354.031 437.315 351.292 429.86 351.326 421.328C351.362 412.793 354.164 405.361 356.968 400.612C358.365 398.214 359.704 396.404 360.703 395.221C361.183 394.613 361.613 394.188 361.882 393.883C362.159 393.585 362.311 393.434 362.325 393.446C362.338 393.458 362.212 393.632 361.961 393.952C361.718 394.278 361.315 394.723 360.862 395.347C359.917 396.563 358.633 398.393 357.289 400.793C354.59 405.548 351.884 412.906 351.847 421.329C351.814 429.75 354.46 437.128 357.119 441.906C358.443 444.317 359.711 446.158 360.646 447.382C361.094 448.01 361.493 448.458 361.733 448.786C361.981 449.11 362.106 449.285 362.093 449.297Z" fill="#455A64"/>
<path d="M505.352 373.105L505.04 373.693L499.022 385.025L490.582 393.152L507.449 415.607L521.505 413.276C521.505 413.276 519.926 410.067 512.873 409.448L510.176 396.026L520.088 380.666" fill="#455A64"/>
<path d="M490.582 393.153L507.449 415.609L521.504 413.278L519.57 411.428L508.036 412.695L492.377 391.425L490.582 393.153Z" fill="#E0E0E0"/>
<path d="M511.754 403.279C511.674 403.44 510.787 403.114 509.705 403.326C508.617 403.507 507.901 404.122 507.769 404C507.619 403.916 508.271 402.942 509.593 402.71C510.913 402.464 511.865 403.148 511.754 403.279Z" fill="#263238"/>
<path d="M510.971 399.97C510.847 400.093 510.083 399.367 508.926 399.335C507.769 399.291 506.959 399.964 506.843 399.834C506.785 399.779 506.907 399.516 507.266 399.235C507.617 398.956 508.23 398.686 508.946 398.709C509.661 398.733 510.255 399.043 510.587 399.345C510.928 399.648 511.033 399.918 510.971 399.97Z" fill="#263238"/>
<path d="M510.347 395.656C510.206 395.759 509.592 395.027 508.556 394.851C507.522 394.662 506.695 395.14 506.598 394.995C506.549 394.931 506.694 394.705 507.059 394.495C507.417 394.285 508.013 394.12 508.665 394.234C509.317 394.349 509.82 394.709 510.085 395.028C510.356 395.35 510.416 395.612 510.347 395.656Z" fill="#263238"/>
<path d="M513.555 391.697C513.398 391.783 512.87 391.05 511.903 390.63C510.949 390.182 510.049 390.272 510.01 390.096C509.935 389.941 510.984 389.521 512.161 390.059C513.342 390.585 513.72 391.65 513.555 391.697Z" fill="#263238"/>
<path d="M514.908 388.505C514.844 388.564 514.287 388.075 513.437 387.238C512.954 386.747 512.467 386.252 511.968 385.746C511.71 385.45 511.379 385.211 511.127 384.719C511.01 384.469 510.964 384.157 511.071 383.851C511.165 383.529 511.529 383.275 511.846 383.267C512.474 383.254 512.869 383.513 513.272 383.73C513.665 383.969 514.003 384.257 514.288 384.564C514.856 385.182 515.189 385.872 515.363 386.47C515.707 387.69 515.418 388.466 515.364 388.442C515.251 388.437 515.362 387.68 514.943 386.611C514.734 386.084 514.394 385.488 513.87 384.962C513.608 384.702 513.304 384.459 512.96 384.259C512.625 384.069 512.195 383.87 511.903 383.891C511.763 383.909 511.702 383.956 511.658 384.063C511.616 384.176 511.624 384.331 511.687 384.467C511.813 384.754 512.141 385.057 512.393 385.355C512.858 385.893 513.313 386.418 513.764 386.938C514.529 387.852 514.972 388.447 514.908 388.505Z" fill="#263238"/>
<path d="M515.48 388.839C515.413 388.846 515.344 388.098 515.964 387.126C516.571 386.204 518.054 385.079 520.006 385.681C520.153 385.77 520.287 385.953 520.308 386.147C520.333 386.343 520.273 386.501 520.212 386.62C520.082 386.866 519.916 387.005 519.782 387.146C519.494 387.429 519.189 387.673 518.883 387.879C518.271 388.293 517.652 388.552 517.12 388.703C516.047 389.002 515.355 388.9 515.357 388.83C515.349 388.73 516.014 388.669 516.977 388.284C517.456 388.092 518.007 387.812 518.55 387.408C518.821 387.207 519.092 386.976 519.347 386.714C519.476 386.577 519.606 386.448 519.657 386.337C519.705 386.202 519.693 386.241 519.665 386.208C519.611 386.163 519.413 386.136 519.233 386.125C519.053 386.112 518.873 386.114 518.698 386.131C518.347 386.162 518.013 386.247 517.711 386.368C517.103 386.608 516.643 387.002 516.323 387.389C515.684 388.18 515.581 388.863 515.48 388.839Z" fill="#263238"/>
<path d="M501.722 390.861C501.876 391.782 501.254 392.653 500.333 392.806C499.412 392.96 498.541 392.338 498.388 391.417C498.234 390.496 498.856 389.625 499.777 389.472C500.697 389.319 501.568 389.94 501.722 390.861Z" fill="#E0E0E0"/>
<path d="M556.552 383.908L561.062 413.193L597.525 407.768C596.793 404.317 576.889 400.13 576.889 400.13L574.769 381.248L556.552 383.908Z" fill="#455A64"/>
<path d="M565.379 400.228C564.702 400.526 564.333 401.392 564.603 402.08C564.873 402.769 565.749 403.152 566.431 402.866C567.113 402.58 567.59 401.554 567.244 400.9C566.899 400.246 565.843 399.852 565.249 400.293" fill="#E0E0E0"/>
<path d="M561.062 413.193L560.723 410.223L595.81 406.132C595.81 406.132 597.538 406.597 597.525 407.767L561.062 413.193Z" fill="#E0E0E0"/>
<path d="M577.453 399.857C577.474 400.036 576.596 400.249 575.805 400.952C574.995 401.634 574.659 402.473 574.485 402.426C574.316 402.416 574.423 401.312 575.395 400.478C576.359 399.635 577.467 399.687 577.453 399.857Z" fill="#263238"/>
<path d="M581.513 400.869C581.58 401.036 580.853 401.453 580.361 402.296C579.843 403.124 579.812 403.961 579.634 403.98C579.471 404.033 579.192 403.008 579.825 401.972C580.447 400.931 581.484 400.7 581.513 400.869Z" fill="#263238"/>
<path d="M584.366 405.124C584.21 405.186 583.83 404.334 584.142 403.291C584.447 402.245 585.229 401.736 585.327 401.873C585.449 402.004 584.987 402.608 584.743 403.468C584.479 404.322 584.54 405.08 584.366 405.124Z" fill="#263238"/>
<path d="M576.492 395.607C576.442 395.78 575.588 395.656 574.592 395.874C573.591 396.072 572.858 396.526 572.743 396.387C572.621 396.274 573.287 395.501 574.464 395.26C575.639 395.012 576.559 395.454 576.492 395.607Z" fill="#263238"/>
<path d="M574.98 391.41C574.993 391.483 574.306 391.698 573.152 391.672C572.578 391.658 571.891 391.573 571.154 391.369C570.786 391.266 570.405 391.135 570.023 390.969C569.839 390.886 569.624 390.807 569.408 390.621C569.183 390.465 569.001 390.009 569.185 389.686C569.33 389.378 569.642 389.208 569.905 389.163C570.172 389.114 570.398 389.136 570.604 389.156C571.025 389.194 571.425 389.272 571.797 389.377C572.541 389.59 573.167 389.907 573.645 390.232C574.608 390.89 574.995 391.512 574.939 391.555C574.867 391.626 574.372 391.129 573.415 390.611C572.938 390.353 572.34 390.102 571.65 389.936C571.305 389.855 570.937 389.795 570.554 389.769C570.153 389.725 569.824 389.771 569.75 389.958C569.724 390.029 569.723 390.056 569.821 390.156C569.92 390.248 570.092 390.327 570.273 390.409C570.627 390.571 570.979 390.706 571.32 390.817C572.003 391.038 572.643 391.163 573.186 391.231C574.274 391.367 574.969 391.313 574.98 391.41Z" fill="#263238"/>
<path d="M574.786 391.7C574.727 391.737 574.279 391.151 574.042 390.008C573.927 389.441 573.883 388.739 573.994 387.972C574.052 387.589 574.148 387.192 574.294 386.794C574.454 386.402 574.643 385.881 575.322 385.699C575.681 385.632 576.022 385.869 576.161 386.095C576.318 386.324 576.374 386.532 576.448 386.737C576.578 387.153 576.633 387.572 576.632 387.967C576.633 388.76 576.411 389.453 576.133 389.969C575.561 391.02 574.85 391.343 574.826 391.285C574.753 391.204 575.323 390.768 575.733 389.779C575.935 389.291 576.086 388.665 576.055 387.977C576.041 387.634 575.982 387.277 575.865 386.927C575.75 386.548 575.558 386.257 575.419 386.318C575.237 386.342 574.973 386.68 574.869 387.011C574.731 387.366 574.631 387.722 574.564 388.068C574.434 388.761 574.428 389.407 574.481 389.943C574.59 391.02 574.879 391.658 574.786 391.7Z" fill="#263238"/>
<path d="M527.86 315.128L496.588 383.267L517.24 395.666L560.479 313.677" fill="#263238"/>
<path d="M579.429 397.221L556.989 400.819L543.56 320.682L477.213 325.492C475.455 325.6 473.681 325.452 471.982 324.986C453.346 319.88 455.869 296.122 457.665 292.313L549.478 289.676C559.437 289.39 568.018 296.639 569.4 306.506L579.429 397.221Z" fill="#263238"/>
<path d="M456.757 296.085L457.09 262.203C457.09 262.203 452.717 240.173 451.423 231.514C449.414 218.067 446.663 211.685 468.684 202.127L473.497 200.27L480.948 200.369C489.834 201.037 499.195 209.068 499.41 214.394L507.983 290.74L456.757 296.085Z" fill="#E8505B"/>
<path d="M458.135 210.005C458.135 210.005 451.921 223.383 453.163 235.57L476.328 257.809C481.524 263.593 488.019 266.05 496.325 266.553L544.269 271.794L545.6 259.251L499.994 246.326C498.18 245.992 497.274 244.096 495.883 242.884L458.135 210.005Z" fill="#E8505B"/>
<path d="M454.389 213.856C454.389 213.856 454.65 213.57 455.308 213.241C455.965 212.917 457.01 212.587 458.406 212.375C459.797 212.178 461.557 212.021 463.586 212.389C464.086 212.506 464.615 212.625 465.109 212.911C465.592 213.187 466.05 213.522 466.518 213.875C467.444 214.592 468.376 215.415 469.321 216.323C471.245 218.113 473.058 220.383 475.189 222.681C477.312 224.995 479.653 227.453 482.185 230.041C484.718 232.629 487.447 235.344 490.375 238.142C491.844 239.535 493.36 240.954 494.959 242.345C495.771 243.011 496.573 243.791 497.343 244.521C498.127 245.237 499.011 245.91 500.035 246.098L500.049 246.101L500.06 246.104C513.623 249.939 529.176 254.336 545.673 259.001L545.884 259.061L545.861 259.279C545.767 260.166 545.665 261.125 545.563 262.087C545.209 265.422 544.858 268.721 544.529 271.821L544.502 272.08L544.243 272.052C537.268 271.286 530.484 270.542 523.952 269.825C520.686 269.465 517.483 269.113 514.351 268.768C511.215 268.451 508.15 268.142 505.162 267.84C502.176 267.513 499.272 267.169 496.46 266.759C493.652 266.35 490.916 265.828 488.405 264.887C485.886 263.968 483.639 262.652 481.617 261.242C479.589 259.833 477.744 258.358 476.014 256.916C469.163 251.067 464.133 245.844 460.642 242.282C458.908 240.488 457.583 239.08 456.694 238.119C456.263 237.646 455.93 237.281 455.691 237.019C455.468 236.769 455.364 236.631 455.364 236.631C455.364 236.631 455.492 236.746 455.727 236.984C455.975 237.238 456.318 237.591 456.765 238.05C457.695 239 459.044 240.377 460.778 242.147C464.308 245.665 469.378 250.85 476.238 256.645C477.968 258.071 479.816 259.535 481.835 260.924C483.849 262.315 486.066 263.6 488.547 264.496C491.023 265.414 493.722 265.921 496.523 266.32C499.326 266.721 502.228 267.057 505.211 267.376C508.197 267.671 511.262 267.974 514.398 268.284C517.532 268.624 520.736 268.972 524.002 269.326C530.536 270.037 537.322 270.776 544.299 271.536L544.013 271.766C544.342 268.666 544.692 265.366 545.045 262.031C545.147 261.069 545.249 260.11 545.343 259.223L545.531 259.501C529.039 254.816 513.492 250.4 499.933 246.548L499.957 246.553C498.772 246.328 497.84 245.588 497.037 244.856C496.232 244.09 495.497 243.367 494.667 242.681C493.062 241.277 491.549 239.851 490.081 238.45C487.157 235.637 484.436 232.909 481.912 230.307C479.388 227.705 477.058 225.233 474.945 222.903C472.816 220.581 471.027 218.309 469.131 216.519C468.198 215.61 467.28 214.784 466.37 214.067C465.913 213.714 465.458 213.378 464.997 213.108C464.544 212.838 464.029 212.714 463.545 212.595C461.565 212.213 459.809 212.344 458.429 212.517C457.042 212.705 456.001 213.009 455.342 213.307C454.681 213.611 454.407 213.879 454.389 213.856Z" fill="#263238"/>
<path d="M466.354 170.884L468.682 203.865C469.062 209.25 473.541 213.424 478.939 213.424C484.882 213.424 489.59 208.399 489.2 202.469C488.994 199.33 488.807 196.759 488.807 196.759C488.807 196.759 496.791 195.517 496.89 187.535C496.947 182.924 496.152 172.461 495.47 164.446C495.009 159.027 490.473 154.867 485.034 154.867H480.211C471.907 155.351 465.64 162.595 466.354 170.884Z" fill="#FFBE9D"/>
<path d="M488.821 196.644C488.821 196.644 483.776 197.054 478.414 193.686C478.414 193.686 480.874 199.431 488.84 198.712L488.821 196.644Z" fill="#EB996E"/>
<path d="M493.675 174.703C493.696 175.305 493.204 175.82 492.576 175.853C491.949 175.886 491.422 175.427 491.401 174.825C491.38 174.223 491.872 173.708 492.499 173.674C493.127 173.641 493.654 174.101 493.675 174.703Z" fill="#263238"/>
<path d="M494.095 172.45C493.954 172.599 493.09 171.96 491.863 171.963C490.638 171.949 489.737 172.58 489.604 172.429C489.539 172.362 489.683 172.094 490.075 171.809C490.461 171.525 491.119 171.248 491.883 171.252C492.647 171.256 493.29 171.538 493.66 171.825C494.037 172.115 494.165 172.383 494.095 172.45Z" fill="#263238"/>
<path d="M482.156 174.703C482.177 175.305 481.685 175.819 481.057 175.853C480.43 175.887 479.903 175.427 479.882 174.825C479.861 174.223 480.353 173.708 480.98 173.674C481.608 173.641 482.135 174.101 482.156 174.703Z" fill="#263238"/>
<path d="M482.036 172.679C481.895 172.828 481.03 172.189 479.804 172.192C478.579 172.178 477.678 172.809 477.545 172.658C477.48 172.592 477.622 172.323 478.016 172.038C478.402 171.754 479.06 171.477 479.824 171.48C480.588 171.484 481.231 171.766 481.601 172.053C481.976 172.344 482.105 172.613 482.036 172.679Z" fill="#263238"/>
<path d="M486.488 181.777C486.482 181.707 487.245 181.576 488.48 181.418C488.793 181.386 489.09 181.323 489.143 181.109C489.217 180.883 489.086 180.545 488.934 180.181C488.639 179.423 488.331 178.628 488.008 177.796C486.722 174.4 485.79 171.607 485.927 171.556C486.064 171.505 487.218 174.217 488.505 177.613C488.815 178.451 489.111 179.249 489.393 180.013C489.511 180.369 489.715 180.773 489.555 181.242C489.471 181.476 489.241 181.646 489.04 181.7C488.839 181.761 488.663 181.765 488.508 181.774C487.264 181.841 486.492 181.847 486.488 181.777Z" fill="#263238"/>
<path d="M482.877 182.626C483.077 182.614 483.079 183.946 484.219 184.891C485.357 185.839 486.776 185.69 486.787 185.876C486.805 185.959 486.471 186.134 485.872 186.151C485.284 186.171 484.426 185.982 483.729 185.404C483.034 184.824 482.735 184.051 482.689 183.505C482.638 182.948 482.786 182.618 482.877 182.626Z" fill="#263238"/>
<path d="M482.353 167.871C482.232 168.205 481.007 168.047 479.568 168.22C478.125 168.365 476.964 168.786 476.774 168.487C476.689 168.344 476.891 168.03 477.36 167.707C477.825 167.385 478.567 167.078 479.431 166.982C480.295 166.888 481.086 167.025 481.61 167.238C482.139 167.451 482.405 167.713 482.353 167.871Z" fill="#263238"/>
<path d="M493.644 168.9C493.428 169.179 492.583 168.89 491.567 168.876C490.551 168.827 489.69 169.063 489.492 168.772C489.405 168.631 489.541 168.351 489.917 168.088C490.287 167.825 490.907 167.61 491.606 167.631C492.304 167.653 492.909 167.906 493.263 168.191C493.621 168.477 493.74 168.764 493.644 168.9Z" fill="#263238"/>
<path d="M469.047 176.876C468.911 176.817 463.562 175.254 463.736 180.711C463.91 186.169 469.354 184.868 469.358 184.711C469.362 184.555 469.047 176.876 469.047 176.876Z" fill="#FFBE9D"/>
<path d="M467.625 182.697C467.6 182.68 467.532 182.767 467.374 182.845C467.22 182.922 466.952 182.98 466.664 182.882C466.081 182.689 465.566 181.789 465.508 180.806C465.478 180.31 465.567 179.833 465.731 179.436C465.885 179.031 466.134 178.744 466.423 178.683C466.71 178.607 466.921 178.774 466.993 178.926C467.071 179.076 467.04 179.186 467.069 179.195C467.085 179.208 467.183 179.1 467.132 178.876C467.106 178.768 467.038 178.642 466.906 178.541C466.771 178.439 466.577 178.391 466.376 178.419C465.956 178.461 465.59 178.861 465.41 179.297C465.207 179.736 465.096 180.271 465.129 180.829C465.199 181.928 465.795 182.939 466.591 183.142C466.978 183.23 467.295 183.104 467.456 182.97C467.619 182.829 467.644 182.706 467.625 182.697Z" fill="#EB996E"/>
<path d="M466.009 176.691C466.841 176.49 468.281 177.258 468.636 178.037C468.991 178.816 469.069 179.7 469.423 180.479C469.777 181.259 470.577 181.964 471.41 181.767C471.985 181.631 472.396 181.092 472.547 180.522C472.699 179.951 472.637 179.348 472.563 178.762C472.241 176.213 471.705 173.686 471.603 171.119C471.5 168.552 471.866 165.885 473.214 163.698C474.562 161.511 477.038 159.903 479.598 160.109C481.294 160.246 482.85 161.13 484.535 161.366C486.533 161.646 488.645 160.941 490.075 159.517C490.258 159.335 491.11 158.773 491.11 158.773C491.11 158.641 490.985 157.501 490.536 157.085C487.193 153.993 481.169 153.13 476.753 154.242C472.337 155.353 468.198 158.471 466.298 162.609C464.399 166.747 464.962 172.503 466.009 176.691Z" fill="#263238"/>
<path d="M495.559 163.213C495.559 163.213 474.616 156.475 465.556 174.594C465.556 174.594 464.202 170.06 464.202 167.629C464.202 166.006 465.173 156.337 475.121 153.296C475.121 153.296 490.108 147.576 495.559 163.213Z" fill="#E8505B"/>
<path d="M477.564 163.666C478.304 164.862 479.625 165.678 481.025 165.806C482.426 165.933 483.872 165.368 484.815 164.326C485.229 165.358 486.338 166.067 487.449 166.009C488.559 165.951 489.589 165.13 489.892 164.06C490.5 164.65 491.134 165.256 491.929 165.548C492.725 165.839 493.733 165.729 494.256 165.062C494.788 164.382 494.633 163.347 494.111 162.66C493.589 161.972 492.785 161.563 491.988 161.231C489.5 160.192 486.757 159.671 484.085 160.033C481.414 160.395 478.826 161.69 477.156 163.807" fill="#263238"/>
<g opacity="0.4">
<path d="M495.559 163.213C495.559 163.213 493.176 160.378 488.899 160.189C482.722 159.916 471.158 163.39 465.556 174.594C465.556 174.594 464.202 170.06 464.202 167.629C464.202 166.006 465.173 156.337 475.121 153.296C475.121 153.296 490.108 147.576 495.559 163.213Z" fill="black"/>
</g>
<path d="M466.432 172.473C469.538 167.722 473.819 163.793 478.633 160.786C483.447 157.779 491.408 154.804 496.894 153.348C498.541 152.911 500.258 152.529 501.937 152.819C503.616 153.109 505.26 154.227 505.677 155.88C506.199 157.948 502.528 161.14 500.803 162.395C499.078 163.65 495.56 165.491 495.56 165.491C495.56 165.491 495.607 161.655 489.467 160.864C481.115 159.787 466.432 172.473 466.432 172.473Z" fill="#E8505B"/>
<g opacity="0.3">
<path d="M459.061 240.521C461.219 245.734 463.398 252.159 466.527 256.854C469.657 261.549 473.839 265.706 479.044 267.885C485.576 270.619 493.307 271.063 499.808 268.257C500.338 268.028 501.376 267.736 501.281 267.167C501.281 267.167 499.126 266.925 498.465 266.814C485.326 264.598 483.902 262.977 477.614 258.007C473.694 254.908 465.004 245.539 459.061 240.521Z" fill="black"/>
</g>
<path d="M500.817 278.462C500.842 278.473 500.676 278.921 500.271 279.68C499.87 280.442 499.177 281.491 498.147 282.642C496.111 284.962 492.484 287.476 487.972 288.867C483.46 290.254 479.178 290.512 476.13 290.642C474.599 290.699 473.361 290.711 472.506 290.707C471.65 290.703 471.177 290.682 471.176 290.647C471.175 290.611 471.646 290.563 472.5 290.505C473.455 290.444 474.666 290.367 476.111 290.274C479.146 290.051 483.383 289.734 487.818 288.37C492.246 287.003 495.815 284.599 497.879 282.391C499.979 280.194 500.716 278.4 500.817 278.462Z" fill="#263238"/>
<path d="M557.39 403.215C557.381 403.216 557.354 403.111 557.311 402.905C557.265 402.67 557.205 402.367 557.131 401.985C556.978 401.14 556.762 399.952 556.487 398.439C555.944 395.321 555.17 390.869 554.215 385.381C552.341 374.318 549.762 359.09 546.913 342.27C545.643 334.657 544.428 327.371 543.319 320.725L543.578 320.927C531.923 321.779 521.961 322.508 514.873 323.026C511.371 323.264 508.581 323.453 506.629 323.586C505.696 323.641 504.965 323.684 504.433 323.715C504.204 323.724 504.018 323.732 503.867 323.738C503.74 323.741 503.674 323.739 503.674 323.732C503.673 323.725 503.738 323.713 503.864 323.697C504.014 323.68 504.199 323.659 504.427 323.634C504.957 323.584 505.687 323.515 506.617 323.428C508.566 323.262 511.353 323.026 514.85 322.729C521.934 322.164 531.892 321.371 543.541 320.442L543.763 320.424L543.8 320.644C544.919 327.288 546.145 334.572 547.427 342.184C550.217 359.014 552.743 374.251 554.578 385.321C555.464 390.82 556.183 395.281 556.687 398.406C556.921 399.926 557.104 401.119 557.234 401.968C557.288 402.353 557.33 402.659 557.363 402.897C557.39 403.105 557.399 403.213 557.39 403.215Z" fill="#455A64"/>
<path d="M550.297 313.539C550.391 313.658 548.643 315.159 546.661 317.18C544.671 319.195 543.198 320.966 543.078 320.874C542.968 320.794 544.273 318.858 546.29 316.815C548.3 314.766 550.216 313.43 550.297 313.539Z" fill="#455A64"/>
<path d="M489.001 203.174C489.018 203.169 489.059 203.281 489.122 203.501C489.195 203.719 489.256 204.049 489.312 204.482C489.413 205.343 489.358 206.639 488.825 208.118C488.285 209.578 487.235 211.222 485.531 212.444C483.838 213.674 481.505 214.311 479.115 214.157C476.72 213.995 474.519 213.094 472.886 211.823C471.234 210.565 470.103 209.042 469.346 207.693C468.599 206.328 468.2 205.129 467.991 204.292C467.889 203.872 467.821 203.544 467.793 203.318C467.76 203.093 467.751 202.974 467.769 202.97C467.882 202.932 468.129 204.875 469.665 207.509C470.445 208.803 471.571 210.252 473.174 211.439C474.757 212.638 476.861 213.481 479.149 213.637C481.431 213.783 483.643 213.191 485.256 212.051C486.882 210.918 487.921 209.371 488.482 207.986C489.036 206.584 489.148 205.34 489.11 204.497C489.075 203.648 488.948 203.186 489.001 203.174Z" fill="#263238"/>
<path d="M503.107 246.842C503.071 246.846 502.997 246.474 502.893 245.799C502.782 245.009 502.647 244.056 502.489 242.938C502.158 240.39 501.732 237.111 501.261 233.485C500.808 229.788 500.452 226.434 500.234 224.003C500.124 222.788 500.046 221.803 500.006 221.121C499.965 220.439 499.959 220.06 499.995 220.057C500.031 220.053 500.105 220.425 500.208 221.1C500.316 221.89 500.447 222.845 500.6 223.963C500.918 226.512 501.326 229.793 501.778 233.422C502.231 237.116 502.623 240.465 502.855 242.895C502.972 244.11 503.053 245.095 503.095 245.777C503.137 246.46 503.143 246.838 503.107 246.842Z" fill="#263238"/>
</svg>
