<svg width="500" height="500" viewBox="0 0 500 500" fill="none" xmlns="http://www.w3.org/2000/svg">
<path d="M409.538 208.587C396.305 189.34 365.454 185.616 348.022 201.161C347.665 185.527 337.311 170.573 322.804 164.737C308.296 158.9 290.471 162.518 279.387 173.549C281.885 164.801 272.701 156.271 263.615 155.798C254.53 155.325 246.133 160.212 238.338 164.904C230.543 169.596 222.089 174.422 213.011 173.809C203.184 173.145 195.012 166.291 185.826 162.739C163.35 154.048 134.9 169.473 129.919 193.05C105.04 183.006 73.1205 199.451 66.8555 225.539L431.144 229.793C428.688 219.437 419.937 210.848 409.538 208.587Z" fill="#F5F5F5"/>
<path d="M394.876 91.3559C395.506 86.7789 389.045 83.0139 384.191 82.6219C381.876 82.4349 379.473 82.7889 377.28 82.0249C372.529 80.3689 370.63 74.2309 365.994 72.2749C362.528 70.8129 358.538 72.1149 355.178 73.8059C351.818 75.4969 348.497 77.6249 344.743 77.8659C341.478 78.0749 337.932 76.8639 335.075 78.4589C332.946 79.6479 331.831 82.1009 329.869 83.5479C327.949 84.9639 325.446 85.2639 323.065 85.3929C320.683 85.5229 318.217 85.5469 316.049 86.5399C313.88 87.5329 312.086 89.8259 312.536 92.1689L394.876 91.3559Z" fill="#FAFAFA"/>
<path d="M77.769 53.6976C78.121 51.1436 74.516 49.0426 71.808 48.8246C70.516 48.7206 69.175 48.9176 67.951 48.4916C65.3 47.5676 64.241 44.1426 61.654 43.0516C59.72 42.2356 57.493 42.9616 55.619 43.9056C53.744 44.8496 51.891 46.0366 49.797 46.1706C47.975 46.2876 45.996 45.6116 44.402 46.5016C43.214 47.1646 42.592 48.5336 41.497 49.3406C40.426 50.1306 39.029 50.2976 37.7 50.3706C36.371 50.4426 34.995 50.4566 33.785 51.0106C32.575 51.5646 31.574 52.8446 31.825 54.1516L77.769 53.6976Z" fill="#FAFAFA"/>
<path d="M453.257 138.049C453.981 132.787 446.555 128.459 440.976 128.009C438.315 127.794 435.551 128.201 433.03 127.323C427.568 125.419 425.387 118.363 420.057 116.115C416.073 114.435 411.486 115.93 407.623 117.874C403.76 119.818 399.943 122.265 395.628 122.541C391.874 122.781 387.798 121.389 384.514 123.223C382.067 124.589 380.785 127.409 378.529 129.073C376.322 130.701 373.444 131.045 370.706 131.194C367.968 131.343 365.133 131.37 362.64 132.512C360.147 133.654 358.084 136.29 358.602 138.983L453.257 138.049Z" fill="#EBEBEB"/>
<path d="M443.065 47.7679C443.575 44.0639 438.348 41.0179 434.421 40.7009C432.548 40.5499 430.603 40.8359 428.828 40.2179C424.984 38.8779 423.448 33.9109 419.697 32.3289C416.893 31.1459 413.664 32.1989 410.945 33.5669C408.226 34.9349 405.539 36.6569 402.502 36.8519C399.86 37.0209 396.991 36.0409 394.679 37.3319C392.957 38.2939 392.054 40.2789 390.467 41.4499C388.914 42.5959 386.888 42.8379 384.96 42.9429C383.033 43.0479 381.038 43.0669 379.283 43.8709C377.528 44.6739 376.076 46.5299 376.441 48.4249L443.065 47.7679Z" fill="#EBEBEB"/>
<path d="M92.8181 136.2C93.1971 133.444 89.3081 131.177 86.3861 130.942C84.9921 130.83 83.5451 131.043 82.2251 130.583C79.3651 129.586 78.2221 125.891 75.4311 124.713C73.3441 123.833 70.9421 124.616 68.9191 125.635C66.8961 126.653 64.8971 127.934 62.6371 128.079C60.6711 128.205 58.5361 127.476 56.8161 128.436C55.5341 129.152 54.8631 130.629 53.6821 131.5C52.5261 132.352 51.0191 132.533 49.5851 132.611C48.1511 132.689 46.6671 132.703 45.3611 133.301C44.0551 133.899 42.9751 135.28 43.2461 136.69L92.8181 136.2Z" fill="#EBEBEB"/>
<path d="M195.617 93.928C196.418 88.105 188.201 83.315 182.026 82.818C179.081 82.581 176.023 83.031 173.233 82.058C167.189 79.951 164.774 72.143 158.877 69.655C154.468 67.795 149.392 69.451 145.117 71.602C140.842 73.753 136.618 76.461 131.843 76.766C127.689 77.032 123.178 75.491 119.544 77.521C116.836 79.033 115.417 82.154 112.921 83.995C110.479 85.796 107.293 86.178 104.263 86.342C101.233 86.507 98.0958 86.537 95.3368 87.801C92.5778 89.064 90.2958 91.982 90.8678 94.962L195.617 93.928Z" fill="#F5F5F5"/>
<path d="M27.8549 302.906C27.8549 302.906 19.3329 304.116 24.1749 322.774C29.0179 341.432 33.1059 351.043 33.1059 351.043C33.1059 351.043 33.7619 355.271 30.3519 355.15C26.9419 355.03 19.9829 352.282 17.6359 355.968C15.2019 359.791 17.3539 364.382 22.7159 369.178C28.0779 373.974 39.4399 384.913 40.4629 385.906C41.4679 386.881 42.2339 388.95 39.8979 389.241C37.5619 389.531 20.9609 387.633 20.5319 395.564C20.1029 403.495 37.2359 414.402 39.0859 415.63C40.9359 416.858 41.2299 417.823 40.8189 418.897C40.4089 419.971 34.8879 418.807 30.1449 418.461C25.4009 418.115 19.8399 418.544 19.9759 423.141C20.1119 427.738 29.1249 439.327 55.3459 447.886L67.7549 451.057L76.8939 442.003C95.2719 421.435 97.2469 406.887 95.0559 402.843C92.8649 398.8 87.8399 401.22 83.9119 403.902C79.9839 406.584 75.7939 410.362 74.8999 409.639C74.0049 408.917 73.7749 407.935 74.7589 405.944C75.7419 403.953 85.0819 385.918 80.7279 379.274C76.3739 372.631 62.9709 382.608 60.8049 383.53C58.6389 384.452 58.2629 382.278 58.6419 380.93C59.0289 379.557 63.3609 364.392 65.5899 357.552C67.8189 350.712 67.3739 345.661 63.3499 343.578C59.4689 341.569 54.8299 347.439 51.9419 349.255C49.0539 351.071 47.4979 347.086 47.4979 347.086C47.4979 347.086 46.2079 336.721 41.0259 318.154C35.8449 299.587 27.6829 302.941 27.6829 302.941" fill="#EBEBEB"/>
<path d="M67.7511 454.14C64.0001 440.489 57.7401 416.116 52.2571 395.217C46.7761 374.326 41.7961 355.416 38.1141 341.748C36.2691 334.927 34.7751 329.403 33.7371 325.566C33.2251 323.668 32.8261 322.187 32.5501 321.165C32.4221 320.673 32.3221 320.291 32.2511 320.018C32.1861 319.759 32.1621 319.623 32.1621 319.623C32.1621 319.623 32.2121 319.751 32.2901 320.006C32.3701 320.277 32.4821 320.655 32.6271 321.143C32.9191 322.161 33.3431 323.634 33.8861 325.524C34.9751 329.33 36.5121 334.848 38.3851 341.674C42.1361 355.325 47.1601 374.225 52.6411 395.116C58.1241 416.014 64.3401 440.398 68.0221 454.066" fill="#E0E0E0"/>
<path d="M27.2164 360.204C27.2314 360.181 27.5214 360.337 28.0344 360.64C28.5484 360.94 29.2794 361.397 30.1764 361.968C31.9684 363.116 34.4044 364.764 37.0584 366.631C39.6694 368.482 42.0304 370.155 43.8364 371.436C44.6534 372.008 45.3434 372.49 45.8984 372.878C46.3864 373.217 46.6504 373.415 46.6364 373.438C46.6224 373.461 46.3304 373.307 45.8154 373.008C45.3014 372.706 44.5704 372.25 43.6794 371.668C41.8974 370.502 39.4854 368.823 36.8314 366.956C34.2084 365.125 31.8364 363.469 30.0224 362.202C29.2014 361.634 28.5094 361.155 27.9524 360.769C27.4634 360.427 27.2014 360.227 27.2164 360.204Z" fill="#E0E0E0"/>
<path d="M47.668 372.827C47.575 372.768 50.752 367.598 54.762 361.28C58.774 354.96 62.1 349.886 62.192 349.945C62.285 350.004 59.109 355.173 55.097 361.493C51.087 367.811 47.76 372.886 47.668 372.827Z" fill="#E0E0E0"/>
<path d="M54.6385 405.294C54.6215 405.273 54.8635 405.039 55.3165 404.635C55.8335 404.18 56.4795 403.611 57.2455 402.937C58.8715 401.501 61.1095 399.509 63.4985 397.22C65.8935 394.936 67.9885 392.793 69.4925 391.23C70.2015 390.495 70.7985 389.876 71.2765 389.38C71.7005 388.945 71.9445 388.713 71.9645 388.731C71.9855 388.749 71.7805 389.016 71.3915 389.484C71.0025 389.951 70.4275 390.616 69.6985 391.422C68.2445 393.037 66.1755 395.217 63.7745 397.508C61.3795 399.804 59.1055 401.769 57.4295 403.152C56.5885 403.84 55.9015 404.39 55.4165 404.756C54.9315 405.122 54.6555 405.315 54.6385 405.294Z" fill="#E0E0E0"/>
<path d="M33.6281 397.947C33.6371 397.921 33.9391 397.996 34.4791 398.152C35.0971 398.341 35.8561 398.573 36.7521 398.847C38.6661 399.451 41.3001 400.311 44.2021 401.284C47.1051 402.257 49.7251 403.161 51.6161 403.833C52.4961 404.154 53.2411 404.427 53.8481 404.648C54.3721 404.849 54.6581 404.972 54.6491 404.998C54.6401 405.024 54.3381 404.95 53.7981 404.794C53.1801 404.605 52.4211 404.372 51.5261 404.097C49.6131 403.493 46.9781 402.634 44.0751 401.661C41.1731 400.688 38.5531 399.786 36.6621 399.114C35.7831 398.793 35.0371 398.52 34.4301 398.299C33.9051 398.098 33.6201 397.973 33.6281 397.947Z" fill="#E0E0E0"/>
<path d="M36.1408 427.393C36.1488 427.367 36.5358 427.465 37.2268 427.664C37.9868 427.893 38.9658 428.189 40.1428 428.544C42.5998 429.304 45.9848 430.38 49.7158 431.592C53.4478 432.804 56.8198 433.923 59.2538 434.751C60.4138 435.155 61.3808 435.491 62.1298 435.752C62.8058 435.997 63.1758 436.144 63.1678 436.17C63.1588 436.196 62.7728 436.098 62.0818 435.899C61.3218 435.67 60.3428 435.374 59.1658 435.018C56.7088 434.258 53.3238 433.182 49.5918 431.97C45.8608 430.758 42.4888 429.64 40.0548 428.811C38.8948 428.407 37.9278 428.071 37.1788 427.811C36.5028 427.566 36.1328 427.419 36.1408 427.393Z" fill="#E0E0E0"/>
<path d="M62.5818 435.777C62.5638 435.756 62.8628 435.452 63.4198 434.92C64.0308 434.342 64.8278 433.588 65.7878 432.679C67.7858 430.784 70.5338 428.157 73.4868 425.171C76.4448 422.189 79.0508 419.419 80.9228 417.401C81.8228 416.432 82.5698 415.628 83.1428 415.012C83.6698 414.45 83.9708 414.147 83.9908 414.166C84.0118 414.184 83.7498 414.521 83.2588 415.115C82.7678 415.709 82.0438 416.557 81.1318 417.59C79.3108 419.659 76.7328 422.464 73.7698 425.451C70.8128 428.442 68.0278 431.042 65.9798 432.885C64.9528 433.804 64.1148 434.54 63.5238 435.035C62.9338 435.533 62.5998 435.798 62.5818 435.777Z" fill="#E0E0E0"/>
<path d="M422.149 455.152C401.422 443.679 393.635 418.153 391.221 394.575C390.818 390.64 389.859 386.564 391.139 382.885C392.421 379.207 396.171 376.297 399.675 377.495C402.581 378.49 404.222 381.711 406.122 384.301C408.649 387.747 412.081 390.413 415.898 391.894C418.406 392.867 421.399 393.261 423.52 391.585C426.43 389.284 426.174 384.563 425.627 380.668C424.606 373.41 423.587 366.152 422.567 358.895C422.02 355.001 421.474 351.023 422.109 347.168C422.745 343.313 424.787 339.531 428.114 338.015C431.442 336.499 436.017 338.045 437.263 341.759C437.781 343.304 437.701 344.994 438.02 346.597C438.339 348.201 439.285 349.894 440.782 350.146C442.298 350.403 443.608 349.096 444.544 347.805C447.777 343.351 449.647 337.93 451.354 332.56C453.062 327.19 454.682 321.71 457.518 316.947C460.354 312.184 464.618 308.132 469.795 307.096C474.973 306.061 480.998 308.739 483.054 314.036C485.116 319.348 482.869 325.336 480.205 330.233C476.253 337.499 471.314 344.124 465.589 349.834C464.558 350.864 463.439 351.978 463.194 353.482C462.752 356.19 465.402 358.452 467.916 358.976C470.763 359.569 473.67 358.861 476.56 358.827C479.45 358.793 482.709 359.709 484.171 362.433C486.2 366.211 483.646 370.816 480.949 373.973C475.547 380.296 469.12 385.588 462.036 389.548C459.496 390.967 456.798 392.276 454.907 394.588C453.016 396.901 452.183 400.583 453.858 403.148C455.535 405.716 459.006 406.132 461.74 405.188C464.472 404.245 466.767 402.267 469.298 400.819C474.035 398.107 480.553 397.584 484.384 401.771C486.902 404.523 487.658 408.734 487.079 412.508C486.502 416.282 484.759 419.704 482.85 422.902C476.178 434.08 466.992 443.605 455.952 449.515C444.913 455.425 434.304 458.075 422.149 455.152Z" fill="#F5F5F5"/>
<path d="M425.836 439.654C427.473 427.362 430.316 414.063 433.74 400.269C434.608 396.825 435.465 393.421 436.31 390.066C437.161 386.72 438.005 383.401 439.018 380.213C441.02 373.825 443.403 367.853 445.833 362.262C448.261 356.668 450.757 351.458 453.125 346.604C455.504 341.754 457.801 337.28 460.06 333.299C464.554 325.316 468.892 319.359 472.027 315.402C473.591 313.416 474.852 311.92 475.72 310.918C476.139 310.441 476.466 310.067 476.713 309.785C476.94 309.533 477.06 309.409 477.069 309.417C477.078 309.426 476.975 309.568 476.765 309.836C476.53 310.13 476.218 310.52 475.822 311.017C474.989 312.051 473.76 313.576 472.229 315.586C469.161 319.595 464.899 325.579 460.47 333.572C458.244 337.558 455.977 342.037 453.624 346.892C451.28 351.755 448.805 356.968 446.398 362.555C443.991 368.14 441.63 374.095 439.647 380.451C438.643 383.624 437.81 386.914 436.959 390.269C436.115 393.622 435.26 397.024 434.393 400.467C430.973 414.25 428.118 427.512 426.451 439.761" fill="#E0E0E0"/>
<path d="M439.206 380.158C439.162 380.172 438.958 379.597 438.626 378.545C438.29 377.494 437.85 375.959 437.333 374.053C436.295 370.244 435.03 364.933 433.656 359.074C432.281 353.211 430.949 347.934 429.86 344.151C429.32 342.258 428.869 340.73 428.545 339.679C428.226 338.625 428.07 338.033 428.114 338.015C428.158 337.998 428.397 338.557 428.792 339.585C429.193 340.61 429.715 342.119 430.313 343.999C431.523 347.757 432.935 353.036 434.31 358.904C435.653 364.69 436.866 369.925 437.794 373.924C438.224 375.728 438.587 377.248 438.879 378.468C439.132 379.542 439.252 380.144 439.206 380.158Z" fill="#E0E0E0"/>
<path d="M484.806 364.334C484.814 364.383 484.158 364.558 482.969 364.831C481.782 365.111 480.062 365.507 477.954 366.068C473.729 367.155 467.945 368.876 461.645 371.073C455.347 373.283 449.731 375.544 445.715 377.304C443.7 378.169 442.088 378.917 440.971 379.426C439.855 379.94 439.229 380.203 439.207 380.158C439.186 380.112 439.775 379.762 440.857 379.167C441.942 378.578 443.528 377.756 445.524 376.826C449.502 374.938 455.11 372.593 461.427 370.375C467.745 368.172 473.574 366.523 477.841 365.563C479.971 365.064 481.712 364.744 482.919 364.55C484.126 364.365 484.797 364.284 484.806 364.334Z" fill="#E0E0E0"/>
<path d="M426.288 438.654C426.268 438.667 426.13 438.472 425.884 438.087C425.601 437.627 425.256 437.065 424.839 436.385C423.937 434.903 422.684 432.722 421.17 430.007C418.137 424.578 414.166 416.943 409.89 408.455C405.611 399.964 401.712 392.3 398.789 386.814C397.36 384.148 396.183 381.956 395.309 380.326C394.934 379.618 394.625 379.034 394.371 378.555C394.163 378.147 394.063 377.926 394.083 377.911C394.103 377.899 394.241 378.094 394.487 378.479C394.77 378.939 395.114 379.5 395.532 380.18C396.434 381.662 397.686 383.843 399.201 386.558C402.234 391.986 406.205 399.622 410.482 408.113C414.759 416.601 418.658 424.264 421.582 429.751C423.013 432.416 424.188 434.609 425.062 436.238C425.438 436.946 425.747 437.531 426 438.01C426.208 438.42 426.308 438.641 426.288 438.654Z" fill="#E0E0E0"/>
<path d="M485.669 408.608C485.678 408.631 485.478 408.754 485.088 408.965C484.624 409.207 484.056 409.503 483.367 409.862C481.775 410.672 479.625 411.764 477.01 413.092C471.643 415.821 464.271 419.681 456.132 423.958C447.99 428.238 440.577 432.028 435.154 434.638C432.443 435.944 430.239 436.977 428.702 437.657C427.991 437.966 427.404 438.221 426.927 438.429C426.518 438.598 426.298 438.675 426.289 438.652C426.28 438.629 426.481 438.506 426.87 438.293C427.332 438.053 427.901 437.757 428.591 437.397C430.183 436.587 432.332 435.496 434.947 434.167C440.315 431.439 447.687 427.578 455.829 423.299C463.968 419.021 471.38 415.231 476.804 412.621C479.515 411.315 481.719 410.282 483.258 409.602C483.969 409.293 484.555 409.037 485.033 408.83C485.44 408.662 485.659 408.585 485.669 408.608Z" fill="#E0E0E0"/>
<path d="M484.727 478.355C484.727 478.499 379.18 478.615 249.011 478.615C118.797 478.615 13.2725 478.498 13.2725 478.355C13.2725 478.211 118.797 478.095 249.011 478.095C379.18 478.094 484.727 478.211 484.727 478.355Z" fill="#263238"/>
<path d="M423.353 472.816H70.774C62.729 472.816 56.207 466.294 56.207 458.249V234.96C56.207 226.915 62.729 220.393 70.774 220.393H423.353C431.398 220.393 437.92 226.915 437.92 234.96V458.249C437.92 466.294 431.398 472.816 423.353 472.816Z" fill="#455A64"/>
<path d="M437.422 478.601H58.7121C49.0891 478.601 41.2881 470.8 41.2881 461.177V456.514H454.845V461.177C454.846 470.8 447.045 478.601 437.422 478.601Z" fill="#455A64"/>
<path d="M426.607 230.422H66.4531V443.59H426.607V230.422Z" fill="#263238"/>
<path d="M209.435 454.146L214.567 462.309H286.779L291.545 454.146H209.435Z" fill="#263238"/>
<path d="M416.656 442.908H77.1441C75.3361 442.908 73.8711 441.443 73.8711 439.635V240.911C73.8711 239.103 75.3361 237.638 77.1441 237.638H416.657C418.464 237.638 419.929 239.103 419.929 240.911V439.635C419.929 441.443 418.464 442.908 416.656 442.908Z" fill="#EBEBEB"/>
<path d="M419.559 443.208H73.5L73.871 252.979H419.559V443.208Z" fill="#FAFAFA"/>
<path d="M102.253 245.566C102.253 247.092 101.016 248.33 99.4886 248.33C97.9626 248.33 96.7256 247.093 96.7256 245.566C96.7256 244.039 97.9626 242.803 99.4886 242.803C101.015 242.802 102.253 244.039 102.253 245.566Z" fill="#263238"/>
<path d="M85.5016 245.566C85.5016 247.092 84.2646 248.33 82.7376 248.33C81.2116 248.33 79.9736 247.093 79.9736 245.566C79.9736 244.039 81.2116 242.803 82.7376 242.803C84.2646 242.802 85.5016 244.039 85.5016 245.566Z" fill="#263238"/>
<path d="M93.5426 245.566C93.5426 247.092 92.3056 248.33 90.7786 248.33C89.2526 248.33 88.0146 247.093 88.0146 245.566C88.0146 244.039 89.2516 242.803 90.7786 242.803C92.3056 242.802 93.5426 244.039 93.5426 245.566Z" fill="#263238"/>
<path d="M434.64 454.146C434.64 454.283 349.918 454.393 245.433 454.393C140.911 454.393 56.207 454.282 56.207 454.146C56.207 454.01 140.911 453.899 245.433 453.899C349.918 453.899 434.64 454.009 434.64 454.146Z" fill="#263238"/>
<path d="M383.105 334.878C373.365 343.015 368.889 356.951 372.069 369.238C363.089 367.45 353.302 370.401 346.807 376.855C340.312 383.309 337.299 393.076 339.029 402.067C329.114 395.248 313.972 397.803 306.844 407.497C306.692 401.095 306.442 394.349 303.077 388.9C299.712 383.451 292.073 380.089 286.685 383.55C290.744 378.938 291.356 371.628 288.121 366.405C284.887 361.182 278.069 358.473 272.132 360.052C271.98 352.364 267.109 297.988 263.096 252.107H229.05C225.102 297.189 220.477 348.967 220.329 356.455C214.392 354.877 207.575 357.585 204.34 362.808C201.105 368.031 201.718 375.341 205.776 379.953C200.388 376.492 192.749 379.855 189.384 385.303C186.019 390.752 185.769 397.497 185.617 403.9C178.489 394.205 163.346 391.651 153.432 398.47C155.162 389.479 152.149 379.711 145.654 373.258C139.159 366.805 129.372 363.854 120.393 365.641C123.573 353.354 119.098 339.418 109.357 331.281C99.617 323.144 85.107 321.218 73.582 326.534V443.108H418.88V330.131C407.355 324.815 392.845 326.741 383.105 334.878Z" fill="#E8505B"/>
<g opacity="0.8">
<path d="M383.105 334.878C373.365 343.015 368.889 356.951 372.069 369.238C363.089 367.45 353.302 370.401 346.807 376.855C340.312 383.309 337.299 393.076 339.029 402.067C329.114 395.248 313.972 397.803 306.844 407.497C306.692 401.095 306.442 394.349 303.077 388.9C299.712 383.451 292.073 380.089 286.685 383.55C290.744 378.938 291.356 371.628 288.121 366.405C284.887 361.182 278.069 358.473 272.132 360.052C271.98 352.364 267.109 297.988 263.096 252.107H229.05C225.102 297.189 220.477 348.967 220.329 356.455C214.392 354.877 207.575 357.585 204.34 362.808C201.105 368.031 201.718 375.341 205.776 379.953C200.388 376.492 192.749 379.855 189.384 385.303C186.019 390.752 185.769 397.497 185.617 403.9C178.489 394.205 163.346 391.651 153.432 398.47C155.162 389.479 152.149 379.711 145.654 373.258C139.159 366.805 129.372 363.854 120.393 365.641C123.573 353.354 119.098 339.418 109.357 331.281C99.617 323.144 85.107 321.218 73.582 326.534V443.108H418.88V330.131C407.355 324.815 392.845 326.741 383.105 334.878Z" fill="white"/>
</g>
<path d="M381.03 419.838C368.68 411.542 352.849 408.619 338.35 411.96C323.851 415.3 310.895 424.855 303.42 437.718C300.415 433.607 296.387 430.304 291.844 428.014C292.162 427.152 292.441 426.274 292.646 425.375C294.685 416.45 290.843 406.468 283.344 401.215C278.027 397.49 271.106 396.318 264.785 397.714L254.566 252.108H241.14V385.947C232.838 387.215 227.052 397.05 229.977 404.923C224.2 405.766 218.958 409.661 216.484 414.949C215.679 416.67 215.56 420.307 216.252 424.426C206.169 424.562 196.181 429.557 190.215 437.719C182.74 424.855 169.783 415.301 155.285 411.961C140.786 408.621 124.956 411.543 112.605 419.839C109.094 402.838 90.0851 390.759 73.2031 394.801V443.334L228.99 443.131C230.02 443.419 231.11 443.588 232.276 443.588L270.364 443.139L420.433 443.335V394.802C403.55 390.758 384.541 402.837 381.03 419.838Z" fill="#E8505B"/>
<g opacity="0.6">
<path d="M381.03 419.838C368.68 411.542 352.849 408.619 338.35 411.96C323.851 415.3 310.895 424.855 303.42 437.718C300.415 433.607 296.387 430.304 291.844 428.014C292.162 427.152 292.441 426.274 292.646 425.375C294.685 416.45 290.843 406.468 283.344 401.215C278.027 397.49 271.106 396.318 264.785 397.714L254.566 252.108H241.14V385.947C232.838 387.215 227.052 397.05 229.977 404.923C224.2 405.766 218.958 409.661 216.484 414.949C215.679 416.67 215.56 420.307 216.252 424.426C206.169 424.562 196.181 429.557 190.215 437.719C182.74 424.855 169.783 415.301 155.285 411.961C140.786 408.621 124.956 411.543 112.605 419.839C109.094 402.838 90.0851 390.759 73.2031 394.801V443.334L228.99 443.131C230.02 443.419 231.11 443.588 232.276 443.588L270.364 443.139L420.433 443.335V394.802C403.55 390.758 384.541 402.837 381.03 419.838Z" fill="white"/>
</g>
<path d="M233.253 206.526C225.567 210.176 222.093 220.699 226.094 228.208C227.672 231.17 230.246 233.777 230.587 237.116C231.111 242.235 226.267 246.24 224.771 251.164C223.017 256.938 226.849 263.784 232.687 265.309C235.317 265.996 238.466 265.877 240.227 267.946C242.476 270.587 240.853 274.976 242.776 277.864C244.512 280.471 248.563 280.598 251.172 278.867C253.781 277.136 255.22 274.122 256.249 271.164C257.278 268.206 258.052 265.093 259.829 262.514C261.785 259.676 264.778 257.745 267.156 255.25C272.879 249.246 274.627 240.237 273.34 232.043C272.053 223.849 268.081 216.322 263.593 209.347" fill="#E8505B"/>
<g opacity="0.3">
<path d="M233.253 206.526C225.567 210.176 222.093 220.699 226.094 228.208C227.672 231.17 230.246 233.777 230.587 237.116C231.111 242.235 226.267 246.24 224.771 251.164C223.017 256.938 226.849 263.784 232.687 265.309C235.317 265.996 238.466 265.877 240.227 267.946C242.476 270.587 240.853 274.976 242.776 277.864C244.512 280.471 248.563 280.598 251.172 278.867C253.781 277.136 255.22 274.122 256.249 271.164C257.278 268.206 258.052 265.093 259.829 262.514C261.785 259.676 264.778 257.745 267.156 255.25C272.879 249.246 274.627 240.237 273.34 232.043C272.053 223.849 268.081 216.322 263.593 209.347" fill="white"/>
</g>
<path d="M240 210.853C233.492 213.719 230.639 222.749 234.318 228.834C236.566 232.551 240.928 235.908 239.871 240.121C239.154 242.978 236.089 244.73 235.209 247.541C234.037 251.283 237.583 255.253 241.476 255.726C245.369 256.199 249.142 254.114 252.089 251.526C262.305 242.553 264.79 224.923 258.424 212.908" fill="#E8505B"/>
<path d="M273.565 153.609C273.565 153.609 307.003 175.731 303.35 213.979L272.606 200.183L273.565 153.609Z" fill="#E8505B"/>
<path d="M218.002 199.428L225.596 212.017H265.012L272.606 200.149L218.002 199.428Z" fill="#263238"/>
<path d="M243.263 72.4011C227.685 73.4431 215.678 86.548 215.999 102.158L218.002 200.149H272.606L274.43 102.1C274.748 84.981 260.347 71.2581 243.263 72.4011Z" fill="#E8505B"/>
<g opacity="0.8">
<path d="M243.263 72.4011C227.685 73.4431 215.678 86.548 215.999 102.158L218.002 200.149H272.606L274.43 102.1C274.748 84.981 260.347 71.2581 243.263 72.4011Z" fill="white"/>
</g>
<path d="M217.043 153.609C217.043 153.609 183.605 175.731 187.257 213.979L218.001 200.183L217.043 153.609Z" fill="#E8505B"/>
<path d="M216.306 98.9092C227.848 88.8002 264.099 89.0202 273.832 97.2472C271.328 60.8672 243.552 47.2632 243.552 47.2632C215.128 66.9292 216.306 98.9092 216.306 98.9092Z" fill="#E8505B"/>
<path d="M243.55 47.2632C243.55 47.2632 243.664 47.3592 243.876 47.5562C244.093 47.7612 244.405 48.0552 244.812 48.4382C245.224 48.8302 245.73 49.3122 246.328 49.8812C246.627 50.1672 246.95 50.4742 247.294 50.8032C247.618 51.1532 247.962 51.5252 248.327 51.9192C249.051 52.7132 249.869 53.5842 250.738 54.5612C251.557 55.5812 252.447 56.6892 253.403 57.8792C253.856 58.4942 254.298 59.1482 254.769 59.8142C255.224 60.4902 255.747 61.1532 256.188 61.8992C257.083 63.3822 258.074 64.9242 258.922 66.6532C260.698 70.0612 262.308 73.9852 263.431 78.3702C264.012 80.5572 264.44 82.8632 264.743 85.2532C264.906 86.4452 265.003 87.6692 265.168 88.8842C265.314 90.1062 265.292 91.4012 265.302 92.6572C265.319 102.813 265.174 113.973 265.043 125.689C264.76 149.128 264.433 170.343 264.181 185.699C264.046 193.371 263.937 199.581 263.861 203.884C263.816 206.024 263.781 207.688 263.757 208.828C263.742 209.387 263.73 209.815 263.722 210.114C263.713 210.404 263.7 210.552 263.7 210.552C263.7 210.552 263.692 210.403 263.692 210.114C263.693 209.815 263.695 209.387 263.697 208.828C263.708 207.689 263.724 206.024 263.745 203.883C263.799 199.58 263.876 193.37 263.971 185.697C264.17 170.333 264.444 149.121 264.747 125.686C264.878 113.971 265.032 102.809 265.029 92.6592C265.019 91.3802 265.048 90.1572 264.905 88.9252C264.739 87.6882 264.646 86.4772 264.486 85.2872C264.188 82.9062 263.767 80.6102 263.194 78.4322C262.086 74.0642 260.494 70.1512 258.736 66.7502C257.898 65.0242 256.915 63.4842 256.029 62.0012C255.593 61.2552 255.074 60.5922 254.623 59.9162C254.156 59.2502 253.718 58.5942 253.27 57.9792C252.323 56.7862 251.442 55.6762 250.63 54.6532C249.769 53.6732 248.958 52.7982 248.242 51.9992C247.881 51.6022 247.541 51.2282 247.221 50.8752C246.881 50.5432 246.562 50.2332 246.266 49.9442C245.677 49.3682 245.177 48.8802 244.771 48.4822C244.373 48.0892 244.068 47.7882 243.856 47.5792C243.65 47.3732 243.55 47.2632 243.55 47.2632Z" fill="#263238"/>
<path d="M246.339 106.721C253.566 108.317 258.032 115.913 256.316 123.687C254.599 131.461 247.349 136.47 240.123 134.874C232.896 133.278 228.43 125.682 230.146 117.908C231.863 110.134 239.113 105.125 246.339 106.721Z" fill="#FAFAFA"/>
<path d="M246.339 106.721C246.338 106.726 246.261 106.719 246.113 106.699C245.951 106.676 245.735 106.645 245.458 106.606C245.313 106.584 245.153 106.56 244.977 106.534C244.797 106.526 244.601 106.518 244.39 106.509C244.178 106.499 243.95 106.489 243.706 106.479C243.462 106.479 243.203 106.506 242.928 106.519C242.376 106.525 241.775 106.648 241.115 106.755C240.468 106.92 239.757 107.084 239.037 107.391C237.588 107.96 236.029 108.876 234.602 110.225C233.184 111.571 231.866 113.337 231.032 115.492C230.832 116.033 230.61 116.577 230.478 117.159C230.405 117.447 230.314 117.735 230.253 118.031C230.202 118.329 230.151 118.63 230.1 118.932L230.023 119.388L229.988 119.852C229.965 120.163 229.941 120.475 229.918 120.79C229.924 121.106 229.929 121.423 229.935 121.743L229.945 122.224L229.999 122.705C230.245 125.275 231.202 127.939 232.955 130.147C234.659 132.392 237.249 134.052 240.152 134.729C243.07 135.339 246.12 134.924 248.612 133.605C251.132 132.34 253.122 130.327 254.428 128.099L254.68 127.685L254.891 127.253C255.031 126.965 255.169 126.68 255.307 126.396C255.418 126.101 255.529 125.807 255.638 125.516L255.802 125.08L255.924 124.634C256.005 124.338 256.085 124.044 256.165 123.752C256.235 123.458 256.273 123.159 256.328 122.867C256.453 122.283 256.481 121.696 256.528 121.121C256.679 118.814 256.227 116.658 255.507 114.84C254.781 113.015 253.752 111.528 252.677 110.402C252.154 109.821 251.578 109.373 251.06 108.951C250.507 108.576 250.013 108.212 249.515 107.974C249.272 107.846 249.047 107.713 248.827 107.61C248.602 107.517 248.391 107.431 248.194 107.35C247.999 107.269 247.818 107.194 247.651 107.126C247.481 107.076 247.325 107.03 247.185 106.988C246.918 106.907 246.708 106.844 246.552 106.796C246.411 106.752 246.338 106.726 246.339 106.721C246.34 106.716 246.415 106.732 246.56 106.767C246.719 106.807 246.932 106.862 247.203 106.931C247.346 106.969 247.503 107.01 247.676 107.056C247.845 107.121 248.029 107.192 248.227 107.268C248.427 107.345 248.641 107.429 248.87 107.517C249.095 107.617 249.323 107.747 249.571 107.872C250.078 108.105 250.581 108.465 251.146 108.838C251.674 109.258 252.262 109.705 252.798 110.288C253.898 111.417 254.953 112.916 255.703 114.762C256.446 116.602 256.917 118.79 256.775 121.134C256.731 121.718 256.705 122.315 256.58 122.909C256.525 123.207 256.487 123.51 256.417 123.809C256.337 124.106 256.257 124.405 256.176 124.707L256.053 125.161L255.888 125.605C255.777 125.902 255.666 126.201 255.554 126.502C255.415 126.791 255.275 127.083 255.133 127.376L254.919 127.816L254.664 128.238C253.341 130.511 251.317 132.568 248.745 133.864C246.202 135.214 243.078 135.644 240.091 135.018C237.119 134.327 234.467 132.622 232.73 130.327C230.943 128.069 229.974 125.351 229.731 122.733L229.677 122.243L229.668 121.753C229.664 121.428 229.659 121.104 229.654 120.783C229.679 120.463 229.704 120.145 229.728 119.829L229.765 119.357L229.844 118.894C229.898 118.586 229.951 118.281 230.003 117.978C230.066 117.677 230.159 117.386 230.235 117.093C230.372 116.502 230.599 115.95 230.805 115.401C231.663 113.215 233.011 111.429 234.46 110.073C235.917 108.714 237.505 107.798 238.979 107.237C239.71 106.934 240.432 106.775 241.088 106.617C241.757 106.517 242.365 106.402 242.923 106.404C243.2 106.395 243.462 106.373 243.708 106.377C243.953 106.393 244.182 106.408 244.396 106.421C244.608 106.435 244.804 106.448 244.985 106.46C245.161 106.491 245.322 106.52 245.467 106.546C245.742 106.598 245.958 106.638 246.119 106.668C246.266 106.699 246.34 106.716 246.339 106.721Z" fill="#263238"/>
<path d="M229.42 118.642C229.416 118.813 226.338 118.728 222.632 119.4C218.921 120.047 216.061 121.188 215.998 121.028C215.971 120.963 216.652 120.592 217.821 120.143C218.988 119.693 220.651 119.188 222.535 118.852C224.419 118.519 226.154 118.419 227.404 118.44C228.655 118.458 229.423 118.571 229.42 118.642Z" fill="#263238"/>
<path d="M273.565 118.623C273.549 118.703 272.617 118.581 271.113 118.394C269.609 118.206 267.532 117.969 265.23 117.806C262.927 117.645 260.836 117.588 259.321 117.564C257.806 117.539 256.865 117.528 256.861 117.447C256.857 117.374 257.792 117.246 259.315 117.17C260.837 117.094 262.947 117.088 265.269 117.25C267.59 117.415 269.679 117.716 271.175 118.004C272.671 118.293 273.579 118.551 273.565 118.623Z" fill="#263238"/>
<path d="M273.869 174.701C273.867 174.72 273.667 174.718 273.289 174.696C272.849 174.664 272.303 174.623 271.638 174.575C270.125 174.459 268.073 174.302 265.573 174.11C260.451 173.748 253.363 173.401 245.53 173.406C237.694 173.418 230.606 173.779 225.485 174.152C222.985 174.349 220.933 174.51 219.421 174.629C218.756 174.679 218.211 174.721 217.771 174.754C217.393 174.776 217.193 174.779 217.191 174.76C217.189 174.741 217.384 174.701 217.758 174.643C218.195 174.582 218.737 174.506 219.398 174.414C220.823 174.222 222.892 173.995 225.453 173.76C230.574 173.286 237.676 172.862 245.529 172.85C253.38 172.846 260.482 173.255 265.604 173.718C268.165 173.948 270.235 174.171 271.661 174.36C272.322 174.451 272.865 174.525 273.302 174.585C273.675 174.643 273.871 174.682 273.869 174.701Z" fill="#263238"/>
<path d="M230.871 132.687C230.875 132.77 230.532 132.802 230.297 133.192C230.185 133.377 230.111 133.646 230.189 133.876C230.255 134.103 230.503 134.279 230.812 134.305C231.122 134.326 231.394 134.192 231.495 133.977C231.608 133.762 231.576 133.485 231.494 133.285C231.322 132.863 230.989 132.779 231.006 132.698C230.981 132.63 231.467 132.553 231.839 133.096C232.003 133.35 232.134 133.751 231.963 134.188C231.795 134.637 231.26 134.909 230.769 134.861C230.277 134.833 229.79 134.481 229.694 134.011C229.593 133.553 229.784 133.177 229.985 132.952C230.437 132.472 230.906 132.623 230.871 132.687Z" fill="#263238"/>
<path d="M242.771 139.105C242.775 139.188 242.432 139.22 242.197 139.61C242.085 139.795 242.011 140.064 242.089 140.294C242.156 140.521 242.403 140.697 242.712 140.723C243.022 140.744 243.294 140.61 243.395 140.395C243.508 140.18 243.476 139.903 243.394 139.703C243.222 139.281 242.889 139.197 242.906 139.116C242.881 139.048 243.367 138.971 243.739 139.514C243.903 139.768 244.034 140.169 243.863 140.606C243.695 141.055 243.16 141.327 242.669 141.279C242.177 141.251 241.69 140.899 241.594 140.429C241.493 139.971 241.684 139.595 241.885 139.37C242.338 138.89 242.807 139.041 242.771 139.105Z" fill="#263238"/>
<path d="M255.904 133.634C255.908 133.717 255.565 133.749 255.33 134.139C255.218 134.324 255.144 134.593 255.222 134.823C255.289 135.05 255.536 135.226 255.845 135.252C256.155 135.274 256.427 135.139 256.528 134.924C256.641 134.709 256.609 134.432 256.527 134.232C256.355 133.81 256.022 133.726 256.039 133.645C256.014 133.577 256.5 133.5 256.872 134.043C257.036 134.297 257.167 134.698 256.996 135.135C256.828 135.584 256.293 135.856 255.802 135.808C255.31 135.78 254.823 135.428 254.727 134.958C254.626 134.5 254.817 134.124 255.018 133.899C255.471 133.42 255.94 133.571 255.904 133.634Z" fill="#263238"/>
<path d="M260.167 123.82C260.171 123.903 259.828 123.935 259.593 124.324C259.481 124.509 259.407 124.778 259.485 125.008C259.551 125.235 259.799 125.411 260.108 125.437C260.418 125.458 260.69 125.324 260.791 125.109C260.904 124.894 260.872 124.617 260.79 124.417C260.618 123.995 260.285 123.911 260.302 123.83C260.277 123.762 260.763 123.685 261.135 124.228C261.299 124.482 261.43 124.883 261.259 125.32C261.091 125.769 260.556 126.041 260.065 125.993C259.573 125.965 259.086 125.613 258.99 125.143C258.889 124.685 259.08 124.309 259.281 124.084C259.734 123.605 260.203 123.756 260.167 123.82Z" fill="#263238"/>
<path d="M226.531 122.87C226.535 122.953 226.192 122.985 225.957 123.375C225.845 123.56 225.771 123.829 225.849 124.059C225.915 124.286 226.163 124.462 226.472 124.488C226.782 124.509 227.054 124.375 227.155 124.16C227.268 123.945 227.236 123.668 227.154 123.468C226.982 123.046 226.649 122.962 226.666 122.881C226.641 122.813 227.127 122.736 227.499 123.279C227.663 123.533 227.794 123.934 227.623 124.371C227.455 124.82 226.92 125.092 226.429 125.044C225.937 125.016 225.45 124.664 225.354 124.194C225.253 123.736 225.444 123.36 225.645 123.135C226.098 122.656 226.566 122.807 226.531 122.87Z" fill="#263238"/>
<path d="M255.88 109.411C255.876 109.328 256.219 109.296 256.454 108.907C256.566 108.722 256.64 108.453 256.562 108.223C256.495 107.996 256.248 107.82 255.939 107.794C255.629 107.773 255.357 107.907 255.256 108.122C255.143 108.337 255.175 108.614 255.257 108.814C255.429 109.236 255.762 109.32 255.745 109.401C255.77 109.469 255.284 109.546 254.912 109.003C254.748 108.749 254.617 108.348 254.788 107.911C254.956 107.462 255.491 107.19 255.982 107.238C256.474 107.266 256.961 107.618 257.057 108.088C257.158 108.546 256.967 108.922 256.766 109.147C256.313 109.625 255.844 109.474 255.88 109.411Z" fill="#263238"/>
<path d="M242.747 103.593C242.743 103.51 243.086 103.478 243.321 103.089C243.433 102.904 243.507 102.635 243.429 102.405C243.362 102.178 243.115 102.002 242.806 101.976C242.496 101.955 242.224 102.089 242.123 102.304C242.01 102.519 242.042 102.796 242.124 102.996C242.296 103.418 242.629 103.502 242.612 103.583C242.637 103.651 242.151 103.728 241.779 103.185C241.615 102.931 241.484 102.53 241.655 102.093C241.823 101.644 242.358 101.372 242.849 101.42C243.341 101.448 243.828 101.8 243.924 102.27C244.025 102.728 243.834 103.104 243.633 103.329C243.18 103.807 242.711 103.656 242.747 103.593Z" fill="#263238"/>
<path d="M229.767 109.411C229.763 109.328 230.106 109.296 230.341 108.907C230.453 108.722 230.527 108.453 230.449 108.223C230.382 107.996 230.135 107.82 229.826 107.794C229.516 107.773 229.244 107.907 229.143 108.122C229.03 108.337 229.062 108.614 229.144 108.814C229.316 109.236 229.649 109.32 229.632 109.401C229.657 109.469 229.171 109.546 228.799 109.003C228.635 108.749 228.504 108.348 228.675 107.911C228.843 107.462 229.378 107.19 229.869 107.238C230.361 107.266 230.848 107.618 230.944 108.088C231.045 108.546 230.854 108.922 230.653 109.147C230.2 109.625 229.731 109.474 229.767 109.411Z" fill="#263238"/>
<path d="M241.094 157.633L242.26 216.142C242.294 217.837 243.693 219.186 245.388 219.158C247.054 219.13 248.395 217.789 248.414 216.123C248.53 205.584 248.916 170.079 248.981 157.554C248.994 155.137 246.848 153.298 244.457 153.653C242.495 153.945 241.054 155.649 241.094 157.633Z" fill="#E8505B"/>
<g opacity="0.3">
<path d="M241.094 157.633L242.26 216.142C242.294 217.837 243.693 219.186 245.388 219.158C247.054 219.13 248.395 217.789 248.414 216.123C248.53 205.584 248.916 170.079 248.981 157.554C248.994 155.137 246.848 153.298 244.457 153.653C242.495 153.945 241.054 155.649 241.094 157.633Z" fill="black"/>
</g>
<path d="M242.898 50.599C243.075 50.797 241.127 52.683 238.303 55.981C236.883 57.623 235.292 59.658 233.629 61.987C231.996 64.338 230.309 66.994 228.735 69.895C227.183 72.81 225.897 75.682 224.836 78.341C223.81 81.012 222.989 83.462 222.403 85.553C221.209 89.727 220.71 92.392 220.448 92.354C220.255 92.331 220.339 89.591 221.258 85.265C221.707 83.101 222.425 80.563 223.395 77.802C224.399 75.054 225.674 72.09 227.264 69.105C228.877 66.134 230.645 63.436 232.384 61.084C234.152 58.752 235.873 56.753 237.431 55.186C240.532 52.033 242.772 50.45 242.898 50.599Z" fill="white"/>
<path d="M215.765 159.429C215.926 159.676 213.159 161.475 209.301 165.051C208.823 165.505 208.325 165.979 207.806 166.472C207.289 166.968 206.802 167.536 206.269 168.093C205.182 169.19 204.16 170.486 203.049 171.815C200.923 174.552 198.783 177.713 196.894 181.238C195.046 184.787 193.641 188.337 192.579 191.636C192.108 193.303 191.613 194.878 191.319 196.394C191.16 197.149 190.965 197.871 190.846 198.578C190.731 199.284 190.621 199.963 190.515 200.613C189.735 205.815 189.809 209.113 189.515 209.12C189.4 209.124 189.289 208.306 189.188 206.81C189.165 206.428 189.141 206.013 189.114 205.564C189.103 205.108 189.127 204.614 189.137 204.081C189.177 203.018 189.164 201.798 189.344 200.466C189.418 199.796 189.495 199.096 189.575 198.369C189.662 197.64 189.829 196.895 189.963 196.115C190.205 194.549 190.66 192.919 191.105 191.195C192.113 187.782 193.516 184.108 195.418 180.458C197.361 176.831 199.604 173.602 201.854 170.846C203.028 169.507 204.117 168.213 205.274 167.13C205.842 166.58 206.364 166.022 206.917 165.539C207.473 165.063 208.007 164.605 208.519 164.166C209.517 163.267 210.532 162.589 211.388 161.957C211.822 161.649 212.218 161.351 212.6 161.103C212.986 160.872 213.343 160.658 213.671 160.462C214.966 159.701 215.704 159.332 215.765 159.429Z" fill="white"/>
<path d="M172.73 350.211C170.078 348.69 168.535 345.441 169.032 342.425C169.529 339.408 172.032 336.826 175.032 336.236C177.773 335.697 181.196 336.472 182.924 334.277C184.493 332.284 183.309 329.637 183.998 326.429C184.668 323.31 187.435 321.721 190.468 321.765C193.501 321.81 196.312 323.778 197.826 326.407C199.34 329.036 200.296 333.087 199.942 336.099C199.129 343.013 195.438 346.555 190.852 349.484C186.266 352.412 177.567 353.079 172.73 350.211Z" fill="#E8505B"/>
<g opacity="0.8">
<path d="M172.73 350.211C170.078 348.69 168.535 345.441 169.032 342.425C169.529 339.408 172.032 336.826 175.032 336.236C177.773 335.697 181.196 336.472 182.924 334.277C184.493 332.284 183.309 329.637 183.998 326.429C184.668 323.31 187.435 321.721 190.468 321.765C193.501 321.81 196.312 323.778 197.826 326.407C199.34 329.036 200.296 333.087 199.942 336.099C199.129 343.013 195.438 346.555 190.852 349.484C186.266 352.412 177.567 353.079 172.73 350.211Z" fill="white"/>
</g>
<path d="M284.92 294.819C287.135 290.59 292.111 287.988 296.847 288.582C301.584 289.176 305.763 292.927 306.864 297.572C307.87 301.816 306.866 307.204 310.394 309.768C313.599 312.097 317.657 310.09 322.704 310.973C327.61 311.831 330.257 316.054 330.369 320.789C330.481 325.524 327.578 330.028 323.568 332.548C319.558 335.068 313.294 336.803 308.572 336.431C297.736 335.577 291.988 330.03 287.142 323.051C282.297 316.072 280.734 302.538 284.92 294.819Z" fill="#E8505B"/>
<g opacity="0.8">
<path d="M284.92 294.819C287.135 290.59 292.111 287.988 296.847 288.582C301.584 289.176 305.763 292.927 306.864 297.572C307.87 301.816 306.866 307.204 310.394 309.768C313.599 312.097 317.657 310.09 322.704 310.973C327.61 311.831 330.257 316.054 330.369 320.789C330.481 325.524 327.578 330.028 323.568 332.548C319.558 335.068 313.294 336.803 308.572 336.431C297.736 335.577 291.988 330.03 287.142 323.051C282.297 316.072 280.734 302.538 284.92 294.819Z" fill="white"/>
</g>
<path d="M204.107 280.637C202.255 281.448 200.044 284.164 200.157 287.202C200.305 291.188 204.444 294.533 208.372 293.839C212.3 293.146 215.045 288.585 213.819 284.79C212.592 280.995 207.698 278.902 204.107 280.637Z" fill="#E8505B"/>
<g opacity="0.8">
<path d="M204.107 280.637C202.255 281.448 200.044 284.164 200.157 287.202C200.305 291.188 204.444 294.533 208.372 293.839C212.3 293.146 215.045 288.585 213.819 284.79C212.592 280.995 207.698 278.902 204.107 280.637Z" fill="white"/>
</g>
<path d="M310.43 364.501C309.504 364.906 308.398 366.264 308.455 367.783C308.529 369.776 310.599 371.448 312.563 371.102C314.527 370.755 315.899 368.475 315.286 366.577C314.673 364.68 312.226 363.634 310.43 364.501Z" fill="#E8505B"/>
<g opacity="0.8">
<path d="M310.43 364.501C309.504 364.906 308.398 366.264 308.455 367.783C308.529 369.776 310.599 371.448 312.563 371.102C314.527 370.755 315.899 368.475 315.286 366.577C314.673 364.68 312.226 363.634 310.43 364.501Z" fill="white"/>
</g>
<path d="M282.578 379.387H220.426C209.522 379.387 200.683 370.548 200.683 359.644V356.877C200.683 345.973 209.522 337.134 220.426 337.134H282.578C293.482 337.134 302.321 345.973 302.321 356.877V359.644C302.321 370.547 293.482 379.387 282.578 379.387Z" fill="#E8505B"/>
<path d="M231.067 361.052L231.756 359.524C232.495 360.062 233.598 360.438 234.65 360.438C235.853 360.438 236.341 360.038 236.341 359.499C236.341 357.858 231.242 358.985 231.242 355.728C231.242 354.237 232.445 352.996 234.937 352.996C236.04 352.996 237.167 353.26 237.981 353.773L237.355 355.314C236.541 354.85 235.701 354.625 234.924 354.625C233.722 354.625 233.258 355.076 233.258 355.627C233.258 357.243 238.357 356.128 238.357 359.348C238.357 360.814 237.142 362.067 234.636 362.067C233.247 362.067 231.844 361.654 231.067 361.052Z" fill="white"/>
<path d="M241.435 354.801H238.629V353.147H246.27V354.801H243.464V361.916H241.435V354.801Z" fill="white"/>
<path d="M252.693 360.037H248.622L247.846 361.916H245.767L249.675 353.146H251.679L255.601 361.916H253.471L252.693 360.037ZM252.054 358.496L250.663 355.139L249.272 358.496H252.054Z" fill="white"/>
<path d="M262.096 361.916L260.405 359.474H260.305H258.538V361.916H256.509V353.146H260.305C262.648 353.146 264.113 354.362 264.113 356.329C264.113 357.644 263.45 358.608 262.309 359.098L264.276 361.916H262.096ZM260.192 354.801H258.539V357.858H260.192C261.432 357.858 262.059 357.282 262.059 356.33C262.059 355.365 261.432 354.801 260.192 354.801Z" fill="white"/>
<path d="M267.402 354.801H264.595V353.147H272.237V354.801H269.431V361.916H267.402V354.801Z" fill="white"/>
<path d="M405.181 458.752L416.999 462.897L416.873 474.263C411.215 475.859 410.423 478.72 410.423 478.72L422.249 478.45L432.539 457.526L424.398 452.2L409.182 445.544" fill="#E8505B"/>
<g opacity="0.6">
<path d="M432.538 457.525L422.248 478.449L410.422 478.72L411.714 476.912L421.319 476.164L430.806 456.392L432.538 457.525Z" fill="white"/>
</g>
<path d="M416.83 469.058C416.92 469.177 417.594 468.774 418.509 468.78C419.424 468.759 420.104 469.151 420.192 469.03C420.301 468.938 419.619 468.244 418.504 468.259C417.39 468.263 416.719 468.968 416.83 469.058Z" fill="#263238"/>
<path d="M416.958 466.237C417.079 466.318 417.589 465.608 418.528 465.403C419.465 465.188 420.23 465.613 420.304 465.488C420.343 465.434 420.202 465.239 419.866 465.065C419.536 464.892 418.995 464.766 418.414 464.896C417.834 465.026 417.398 465.371 417.173 465.668C416.944 465.968 416.9 466.204 416.958 466.237Z" fill="#263238"/>
<path d="M416.8 462.62C416.931 462.682 417.319 461.99 418.136 461.686C418.95 461.372 419.699 461.634 419.756 461.501C419.786 461.441 419.633 461.279 419.303 461.164C418.979 461.048 418.467 461.005 417.953 461.199C417.439 461.394 417.084 461.765 416.918 462.066C416.746 462.373 416.738 462.595 416.8 462.62Z" fill="#263238"/>
<path d="M415.931 462.613C416.076 462.578 415.986 461.832 416.341 461.033C416.673 460.223 417.273 459.773 417.198 459.643C417.157 459.507 416.279 459.839 415.863 460.829C415.436 461.814 415.803 462.678 415.931 462.613Z" fill="#263238"/>
<path d="M414.531 461.281C414.602 461.285 414.704 460.678 414.809 459.693C414.861 459.124 414.914 458.549 414.968 457.961C414.978 457.635 415.065 457.307 414.968 456.859C414.912 456.637 414.777 456.412 414.547 456.272C414.317 456.115 413.949 456.143 413.742 456.304C413.332 456.626 413.214 457 413.07 457.351C412.943 457.711 412.878 458.075 412.856 458.421C412.816 459.117 412.965 459.735 413.169 460.211C413.591 461.176 414.184 461.522 414.206 461.478C414.276 461.415 413.806 460.987 413.513 460.081C413.37 459.633 413.275 459.071 413.335 458.458C413.367 458.153 413.434 457.837 413.549 457.527C413.664 457.229 413.835 456.875 414.035 456.735C414.134 456.673 414.198 456.671 414.283 456.717C414.369 456.768 414.446 456.871 414.477 456.992C414.547 457.243 414.495 457.61 414.491 457.934C414.475 458.524 414.459 459.101 414.444 459.672C414.431 460.662 414.459 461.276 414.531 461.281Z" fill="#263238"/>
<path d="M414.339 461.796C414.385 461.765 414.037 461.248 413.127 460.951C412.252 460.678 410.709 460.735 409.772 462.149C409.724 462.283 409.734 462.472 409.823 462.607C409.91 462.746 410.031 462.816 410.133 462.861C410.346 462.951 410.526 462.953 410.686 462.973C411.02 463.003 411.344 462.999 411.649 462.971C412.26 462.915 412.794 462.756 413.214 462.573C414.061 462.201 414.452 461.771 414.414 461.726C414.366 461.657 413.907 461.968 413.086 462.228C412.677 462.357 412.176 462.467 411.615 462.493C411.335 462.506 411.04 462.5 410.738 462.466C410.583 462.446 410.431 462.432 410.34 462.387C410.238 462.326 410.266 462.344 410.267 462.308C410.278 462.251 410.391 462.129 410.501 462.027C410.61 461.924 410.726 461.831 410.848 461.75C411.09 461.586 411.349 461.464 411.607 461.383C412.124 461.218 412.627 461.228 413.037 461.308C413.862 461.479 414.287 461.864 414.339 461.796Z" fill="#263238"/>
<g opacity="0.6">
<path d="M423.096 457.377C423.113 458.152 423.755 458.766 424.529 458.749C425.304 458.732 425.918 458.09 425.901 457.315C425.884 456.54 425.242 455.926 424.467 455.943C423.693 455.96 423.079 456.602 423.096 457.377Z" fill="white"/>
</g>
<path d="M344.536 453.998L344.696 469.483C344.696 469.483 329.011 474.846 328.762 477.711L358.797 478.478L359.537 454.341L344.536 453.998Z" fill="#E8505B"/>
<g opacity="0.6">
<path d="M354.016 468.418C354.593 468.592 354.978 469.256 354.828 469.84C354.678 470.424 354.006 470.821 353.426 470.658C352.846 470.494 352.359 469.712 352.574 469.148C352.788 468.584 353.603 468.161 354.126 468.459" fill="white"/>
</g>
<g opacity="0.6">
<path d="M358.796 478.478L358.776 476.042L329.987 476.217C329.987 476.217 328.635 476.764 328.762 477.71L358.796 478.478Z" fill="white"/>
</g>
<path d="M344.213 469.317C344.214 469.464 344.946 469.549 345.655 470.039C346.377 470.51 346.733 471.155 346.87 471.101C347.006 471.076 346.81 470.194 345.94 469.615C345.076 469.03 344.185 469.182 344.213 469.317Z" fill="#263238"/>
<path d="M341.029 470.54C340.992 470.681 341.621 470.947 342.103 471.58C342.604 472.199 342.712 472.873 342.858 472.87C342.995 472.897 343.119 472.04 342.504 471.265C341.897 470.483 341.036 470.4 341.029 470.54Z" fill="#263238"/>
<path d="M339.143 474.264C339.276 474.299 339.498 473.571 339.142 472.759C338.792 471.943 338.108 471.609 338.043 471.729C337.957 471.847 338.391 472.29 338.673 472.962C338.972 473.627 338.998 474.246 339.143 474.264Z" fill="#263238"/>
<path d="M344.567 465.784C344.625 465.919 345.303 465.734 346.131 465.812C346.96 465.873 347.598 466.167 347.678 466.043C347.765 465.939 347.15 465.38 346.174 465.303C345.198 465.218 344.498 465.668 344.567 465.784Z" fill="#263238"/>
<g opacity="0.3">
<path d="M344.57 457.065L344.595 459.824L359.36 460.067L359.442 457.583L344.57 457.065Z" fill="black"/>
</g>
<path d="M344.593 462.66C344.59 462.721 345.167 462.826 346.098 462.691C346.561 462.623 347.108 462.486 347.684 462.248C347.972 462.129 348.266 461.984 348.559 461.812C348.7 461.726 348.866 461.641 349.022 461.47C349.189 461.321 349.291 460.935 349.109 460.692C348.961 460.457 348.692 460.351 348.475 460.34C348.254 460.327 348.073 460.367 347.909 460.404C347.572 460.477 347.256 460.579 346.966 460.701C346.385 460.947 345.911 461.266 345.556 461.576C344.843 462.204 344.591 462.745 344.64 462.775C344.705 462.825 345.056 462.374 345.779 461.86C346.139 461.604 346.598 461.342 347.14 461.138C347.411 461.038 347.703 460.953 348.01 460.894C348.33 460.819 348.601 460.823 348.679 460.967C348.707 461.022 348.71 461.043 348.642 461.135C348.571 461.219 348.44 461.3 348.301 461.385C348.031 461.552 347.76 461.695 347.495 461.819C346.965 462.066 346.459 462.23 346.027 462.339C345.16 462.555 344.593 462.58 344.593 462.66Z" fill="#263238"/>
<path d="M344.779 462.875C344.83 462.899 345.135 462.381 345.213 461.432C345.25 460.962 345.216 460.389 345.05 459.78C344.965 459.476 344.848 459.164 344.69 458.857C344.521 458.556 344.317 458.153 343.75 458.073C343.453 458.054 343.2 458.28 343.111 458.476C343.007 458.677 342.982 458.851 342.943 459.024C342.879 459.373 342.877 459.718 342.916 460.037C342.994 460.679 343.242 461.217 343.519 461.607C344.086 462.4 344.694 462.591 344.707 462.542C344.758 462.469 344.254 462.174 343.824 461.414C343.612 461.04 343.428 460.548 343.384 459.988C343.362 459.709 343.373 459.414 343.434 459.12C343.489 458.802 343.615 458.548 343.734 458.583C343.883 458.584 344.131 458.831 344.247 459.089C344.394 459.362 344.51 459.641 344.599 459.914C344.773 460.461 344.842 460.983 344.852 461.422C344.871 462.306 344.7 462.85 344.779 462.875Z" fill="#263238"/>
<path d="M414.355 446.107L379.77 433.246L416.128 428.142L417.959 410.43L349.968 416.363L340.366 430.185L342.895 447.53L409.137 464.371L414.355 446.107Z" fill="#263238"/>
<path d="M341.024 458.503L337.713 395.204C337.893 389.039 341.251 383.406 346.589 380.316C351.003 377.76 356.301 377.221 361.14 378.834L405.253 393.541L429.464 399.766C429.464 399.766 433.587 409.94 431.163 417.844C428.79 425.581 420.312 430.727 412.85 428.516C403.584 425.77 361.042 407.475 361.042 407.475V459.019L341.024 458.503Z" fill="#263238"/>
<path d="M412.209 428.685C412.206 428.692 412.117 428.662 411.946 428.599C411.756 428.526 411.506 428.43 411.19 428.308C410.505 428.034 409.535 427.646 408.297 427.15C405.768 426.119 402.149 424.642 397.687 422.822C388.723 419.123 376.378 414.028 362.742 408.401C362.133 408.148 361.526 407.897 360.963 407.664L361.246 407.475C361.221 421.797 361.199 434.672 361.183 443.996C361.156 448.629 361.134 452.377 361.119 454.995C361.103 456.272 361.09 457.272 361.081 457.978C361.073 458.302 361.066 458.558 361.061 458.753C361.054 458.927 361.047 459.017 361.04 459.017C361.033 459.017 361.026 458.928 361.019 458.753C361.014 458.557 361.007 458.301 360.999 457.978C360.99 457.271 360.977 456.271 360.961 454.995C360.946 452.377 360.924 448.628 360.897 443.996C360.881 434.672 360.859 421.796 360.835 407.475V407.168L361.119 407.286C361.682 407.519 362.288 407.771 362.898 408.023C376.516 413.694 388.845 418.827 397.797 422.555C402.238 424.426 405.84 425.943 408.357 427.003C409.582 427.529 410.542 427.941 411.22 428.232C411.53 428.37 411.774 428.478 411.961 428.561C412.128 428.636 412.212 428.678 412.209 428.685Z" fill="#455A64"/>
<path d="M371.468 428.757C371.48 428.658 373.652 429.045 376 430.355C378.357 431.65 379.837 433.285 379.759 433.348C379.674 433.442 378.101 431.975 375.801 430.713C373.512 429.434 371.433 428.879 371.468 428.757Z" fill="#455A64"/>
<path d="M357.204 398.911C357.299 398.858 358.435 400.73 359.536 403.192C360.642 405.652 361.284 407.746 361.182 407.781C361.071 407.821 360.261 405.803 359.162 403.359C358.069 400.915 357.101 398.967 357.204 398.911Z" fill="#455A64"/>
<path d="M357.302 371.019L349.501 369.561L341.305 377.921L342.818 383.246L352.373 379.727L357.302 371.019Z" fill="#FFBE9D"/>
<path d="M285.225 351.938L294.1 349.969L308.379 352.206L307.827 361.312C307.827 361.312 303.401 361.954 301.802 361.435C300.203 360.916 298.879 361.369 298.879 361.369C298.879 361.369 299.748 363.163 298.246 363.456C296.744 363.749 294.296 364.371 293.839 362.249C293.839 362.249 292.703 362.422 292.168 361.031C292.168 361.031 291.006 361.448 290.49 359.418C289.974 357.388 290.265 354.343 294.281 353.372C294.491 353.326 294.585 352.838 294.192 352.859L287.846 354.047C287.849 354.047 283.624 354.209 285.225 351.938Z" fill="#FFBE9D"/>
<path d="M292.776 358.292C292.772 358.239 293.35 358.14 294.288 358.021C294.766 357.978 295.293 357.861 295.969 357.872C296.303 357.894 296.697 358.011 296.962 358.345C297.238 358.69 297.214 359.195 297.02 359.557C296.598 360.323 295.777 360.511 295.209 360.67C294.602 360.839 294.044 360.959 293.571 361.026C292.623 361.161 292.031 361.119 292.029 361.073C292.025 361.014 292.609 360.96 293.523 360.76C293.98 360.66 294.519 360.517 295.112 360.331C295.41 360.233 295.727 360.153 296.002 360.008C296.277 359.864 296.548 359.652 296.685 359.382C296.828 359.106 296.832 358.782 296.67 358.575C296.507 358.359 296.22 358.248 295.94 358.223C295.366 358.193 294.775 358.28 294.311 358.29C293.367 358.34 292.781 358.345 292.776 358.292Z" fill="#EB996E"/>
<path d="M294.305 356.336C294.338 356.44 293.856 356.67 293.516 357.197C293.161 357.713 293.13 358.253 293.023 358.261C292.924 358.293 292.77 357.627 293.204 356.982C293.631 356.334 294.297 356.23 294.305 356.336Z" fill="#EB996E"/>
<path d="M296.736 359.579C296.745 359.557 296.827 359.55 296.973 359.607C297.143 359.657 297.275 359.898 297.393 360.091C297.544 360.326 297.653 360.688 297.541 361.08C297.439 361.498 296.997 361.771 296.618 361.866C295.869 362.071 295.192 362.249 294.674 362.297C294.16 362.349 293.841 362.297 293.84 362.248C293.839 362.192 294.148 362.147 294.629 362.03C295.109 361.918 295.772 361.7 296.51 361.499C296.864 361.399 297.126 361.233 297.21 360.97C297.303 360.709 297.255 360.426 297.159 360.223C297.045 359.969 297.004 359.808 296.897 359.735C296.797 359.651 296.724 359.605 296.736 359.579Z" fill="#EB996E"/>
<path d="M297.331 361.129C297.306 361.09 297.43 360.947 297.71 360.909C297.987 360.868 298.361 360.967 298.697 361.174C299.102 361.436 299.186 361.862 299.206 362.109C299.222 362.372 299.174 362.528 299.125 362.531C299.071 362.535 299.023 362.384 298.945 362.164C298.867 361.948 298.745 361.649 298.503 361.502C298.207 361.321 297.922 361.209 297.712 361.179C297.501 361.145 297.356 361.18 297.331 361.129Z" fill="#EB996E"/>
<path d="M301.747 354.052L297.738 355.642L293.96 358.303C293.96 358.303 293.949 359.217 296.088 358.882C298.226 358.548 299.848 357.417 299.848 357.417C299.848 357.417 302.645 359.18 305.113 358.772" fill="#FFBE9D"/>
<path d="M305.113 358.774C305.116 358.792 304.98 358.825 304.72 358.871C304.459 358.906 304.07 358.929 303.58 358.882C302.598 358.794 301.227 358.407 299.761 357.562L299.943 357.558C298.699 358.362 297.091 359.08 295.227 359.146C294.951 359.143 294.67 359.123 294.393 359.018C294.127 358.911 293.813 358.72 293.775 358.302L293.767 358.21L293.856 358.149C295.252 357.181 296.541 356.288 297.654 355.517L297.67 355.506L297.685 355.5C298.91 355.033 299.92 354.656 300.627 354.404C301.334 354.152 301.738 354.024 301.749 354.054C301.76 354.084 301.378 354.267 300.69 354.568C300.002 354.869 299.008 355.288 297.795 355.788L297.826 355.771C296.724 356.559 295.449 357.472 294.067 358.461L294.147 358.308C294.153 358.423 294.316 358.596 294.523 358.662C294.731 358.742 294.98 358.763 295.229 358.765C296.958 358.709 298.566 358.022 299.754 357.282L299.847 357.224L299.936 357.278C301.329 358.117 302.663 358.548 303.604 358.687C304.551 358.836 305.107 358.72 305.113 358.774Z" fill="#EB996E"/>
<path d="M295.931 353.854C295.914 353.955 295.46 353.95 294.997 353.666C294.532 353.384 294.314 352.98 294.394 352.918C294.476 352.848 294.787 353.095 295.191 353.338C295.591 353.586 295.953 353.748 295.931 353.854Z" fill="#EB996E"/>
<path d="M307.607 363.696L341.469 368.606C344.833 369.675 348.483 369.371 351.623 367.759L381.777 352.287L372.747 332.377C371.465 332.848 369.983 333.426 369.349 333.812L344.539 351.694L308.497 350.43L307.607 363.696Z" fill="#E8505B"/>
<path d="M428.789 399.621L426.631 395.834L403.546 390.055L406.265 394.75L428.789 399.621Z" fill="#FFBE9D"/>
<path d="M372.748 332.378C372.78 333.186 369.36 358.238 369.36 363.356C369.36 368.474 379.161 374.029 379.161 374.029L389.893 396.815H428.116L415.049 372.279L409.141 352.625C406.902 345.176 407.132 341.334 401.588 335.878L390.896 328.684L372.748 332.378Z" fill="#E8505B"/>
<path d="M383.85 352.162L390.27 379.098L357.892 369.975L352.372 379.727L394.502 398.916C399.691 401.28 405.829 399.609 409.104 394.941C411.091 392.11 411.74 388.552 410.883 385.202L401.449 348.347C400.15 343.273 394.815 340.372 389.85 342.04C385.619 343.461 383.066 347.767 383.85 352.162Z" fill="#E8505B"/>
<path d="M379.761 375.303C379.754 375.316 379.027 373.988 378.789 373.871C378.551 373.755 378.206 373.573 377.768 373.326C376.895 372.83 375.644 372.076 374.217 370.971C372.825 369.851 371.135 368.41 370.038 366.222C369 363.981 369.074 361.222 369.452 358.524C369.843 355.798 370.404 353.26 370.733 350.913C371.092 348.573 371.34 346.455 371.472 344.671C371.61 342.887 371.632 341.439 371.627 340.438C371.623 339.437 371.594 338.883 371.629 338.88C371.643 338.879 371.665 339.016 371.695 339.279C371.727 339.542 371.759 339.931 371.786 340.433C371.84 341.437 371.862 342.894 371.761 344.69C371.666 346.486 371.447 348.617 371.107 350.968C370.798 353.323 370.245 355.886 369.859 358.579C369.482 361.254 369.415 363.933 370.381 366.063C371.405 368.157 373.044 369.613 374.398 370.745C375.786 371.866 377.006 372.653 377.85 373.19C378.697 373.722 379.776 375.275 379.761 375.303Z" fill="#263238"/>
<path d="M392.636 330.484C392.655 330.505 392.446 330.736 392.052 331.137C391.658 331.539 391.073 332.105 390.337 332.792C388.866 334.165 386.778 336.003 384.383 337.925C381.985 339.845 379.736 341.483 378.075 342.619C377.245 343.188 376.565 343.636 376.087 343.932C375.609 344.23 375.338 344.383 375.322 344.36C375.306 344.337 375.547 344.139 375.996 343.801C376.518 343.413 377.156 342.94 377.906 342.383C379.52 341.189 381.735 339.52 384.126 337.605C386.515 335.689 388.626 333.891 390.143 332.576C390.85 331.965 391.451 331.446 391.943 331.02C392.371 330.656 392.617 330.464 392.636 330.484Z" fill="#263238"/>
<path d="M383.85 352.161C383.862 352.158 383.916 352.334 384.009 352.675C384.107 353.049 384.237 353.548 384.401 354.177C384.737 355.526 385.211 357.428 385.801 359.795C386.97 364.623 388.597 371.339 390.464 379.05L390.544 379.38L390.216 379.288C387.597 378.552 384.819 377.771 381.961 376.968C372.601 374.308 364.107 371.893 357.852 370.116L358.021 370.047C356.305 373.022 354.91 375.441 353.925 377.15C353.447 377.961 353.069 378.602 352.793 379.071C352.671 379.27 352.571 379.433 352.489 379.565C352.419 379.675 352.379 379.73 352.373 379.726C352.367 379.722 352.393 379.661 352.451 379.544C352.523 379.406 352.611 379.237 352.718 379.029C352.978 378.551 353.333 377.897 353.782 377.07C354.74 375.345 356.095 372.905 357.763 369.902L357.819 369.801L357.932 369.832C364.194 371.581 372.7 373.957 382.072 376.574C384.929 377.381 387.706 378.166 390.324 378.905L390.076 379.143C388.264 371.419 386.687 364.691 385.552 359.855C385.01 357.476 384.575 355.565 384.267 354.209C384.13 353.573 384.021 353.069 383.94 352.691C383.869 352.346 383.838 352.164 383.85 352.161Z" fill="#263238"/>
<path d="M401.593 350.484C401.607 350.481 401.661 350.64 401.751 350.946C401.848 351.296 401.973 351.741 402.126 352.291C402.447 353.515 402.89 355.198 403.43 357.255C404.504 361.502 405.966 367.283 407.582 373.67C408.375 376.882 409.151 379.93 409.806 382.727C410.454 385.522 410.741 388.153 410.424 390.33C410.131 392.509 409.332 394.153 408.616 395.137C407.901 396.135 407.323 396.513 407.323 396.513C407.288 396.479 407.823 396.054 408.484 395.047C409.147 394.053 409.886 392.43 410.136 390.294C410.409 388.161 410.102 385.585 409.437 382.812C408.743 380.027 407.982 376.975 407.183 373.77C405.613 367.372 404.192 361.581 403.148 357.326C402.66 355.256 402.261 353.562 401.971 352.33C401.848 351.773 401.749 351.321 401.671 350.967C401.606 350.654 401.579 350.488 401.593 350.484Z" fill="#263238"/>
<g opacity="0.3">
<path d="M407.467 396.815C412.208 397.252 414.959 394.548 415.466 390.849C415.746 388.811 415.072 386.776 414.408 384.829C411.502 376.308 408.563 367.716 403.952 359.984C405.694 367.721 407.916 375.15 409.657 382.887C410.226 385.414 410.434 386.886 410.393 389.476C410.352 392.066 409.191 394.882 407.467 396.815Z" fill="black"/>
</g>
<path d="M368.596 358.04C368.551 358.081 367.765 357.323 366.682 355.932C365.599 354.544 364.258 352.492 363.127 350.046C362.001 347.596 361.312 345.244 360.96 343.519C360.606 341.792 360.54 340.703 360.6 340.695C360.682 340.683 360.876 341.749 361.318 343.434C361.757 345.119 362.491 347.415 363.6 349.827C364.714 352.236 365.983 354.285 366.979 355.713C367.974 357.145 368.659 357.985 368.596 358.04Z" fill="#FAFAFA"/>
<path d="M359.316 363.527C359.256 363.564 358.67 362.74 357.797 361.361C356.924 359.982 355.771 358.042 354.58 355.855C353.389 353.666 352.385 351.646 351.7 350.164C351.015 348.682 350.641 347.743 350.704 347.713C350.77 347.681 351.261 348.564 352.029 350C352.884 351.594 353.907 353.5 355.037 355.606C356.193 357.698 357.239 359.59 358.114 361.173C358.903 362.597 359.378 363.488 359.316 363.527Z" fill="#FAFAFA"/>
<path d="M346.552 368.511C346.41 368.534 345.71 364.952 344.988 360.511C344.266 356.068 343.796 352.449 343.938 352.426C344.08 352.403 344.78 355.985 345.502 360.427C346.224 364.868 346.694 368.488 346.552 368.511Z" fill="#FAFAFA"/>
<path d="M335.192 367.742C335.122 367.745 335.011 366.873 334.926 365.456C334.841 364.039 334.792 362.077 334.843 359.912C334.895 357.746 335.036 355.789 335.188 354.378C335.34 352.967 335.492 352.1 335.562 352.106C335.636 352.113 335.613 352.99 335.555 354.404C335.497 355.818 335.414 357.769 335.363 359.924C335.313 362.079 335.303 364.033 335.294 365.447C335.285 366.862 335.266 367.738 335.192 367.742Z" fill="#FAFAFA"/>
<path d="M323.814 351.195C323.883 351.191 324.003 352.002 324.099 353.322C324.196 354.642 324.26 356.47 324.224 358.49C324.187 360.51 324.057 362.335 323.913 363.651C323.769 364.967 323.621 365.773 323.552 365.766C323.402 365.751 323.636 362.498 323.703 358.481C323.78 354.465 323.663 351.205 323.814 351.195Z" fill="#FAFAFA"/>
<path d="M314.48 352.398C314.623 352.411 314.493 355.143 314.191 358.498C313.889 361.855 313.527 364.564 313.384 364.551C313.241 364.538 313.37 361.808 313.672 358.451C313.974 355.096 314.337 352.385 314.48 352.398Z" fill="#FAFAFA"/>
<path d="M370.77 343.146C370.624 343.192 370.018 341.535 368.999 339.633C367.99 337.724 366.957 336.295 367.076 336.2C367.177 336.11 368.422 337.427 369.459 339.388C370.505 341.344 370.901 343.112 370.77 343.146Z" fill="#FAFAFA"/>
<path d="M388.37 370.361C388.37 370.397 388.092 370.427 387.585 370.451C387.078 370.481 386.344 370.468 385.438 370.403C383.629 370.276 381.131 369.837 378.525 368.866C375.921 367.887 373.748 366.579 372.3 365.487C371.574 364.942 371.011 364.47 370.649 364.114C370.282 363.764 370.092 363.558 370.116 363.531C370.173 363.466 371.026 364.186 372.512 365.186C373.995 366.187 376.152 367.418 378.707 368.378C381.264 369.33 383.698 369.818 385.474 370.037C387.253 370.258 388.37 370.274 388.37 370.361Z" fill="#FAFAFA"/>
<path d="M384.723 357.592C384.712 357.658 383.912 357.597 382.637 357.364C381.363 357.131 379.619 356.706 377.748 356.062C375.877 355.416 374.241 354.677 373.094 354.075C371.946 353.474 371.278 353.029 371.31 352.97C371.384 352.83 374.213 354.303 377.917 355.569C381.615 356.853 384.751 357.436 384.723 357.592Z" fill="#FAFAFA"/>
<path d="M382.603 348.407C382.627 348.531 380.116 348.706 377.302 347.566C374.477 346.451 372.779 344.593 372.882 344.519C372.986 344.393 374.778 346.014 377.495 347.082C380.198 348.182 382.614 348.244 382.603 348.407Z" fill="#FAFAFA"/>
<path d="M397.57 341.873C397.522 341.954 396.742 341.421 395.318 341.025C393.916 340.623 391.798 340.449 389.697 341.228C387.598 342.015 386.111 343.534 385.316 344.756C384.5 345.988 384.259 346.901 384.17 346.871C384.121 346.866 384.235 345.899 385.003 344.561C385.749 343.239 387.278 341.579 389.515 340.74C391.754 339.909 393.997 340.162 395.426 340.673C396.884 341.181 397.603 341.836 397.57 341.873Z" fill="#FAFAFA"/>
<path d="M399.334 354.15C399.363 354.208 398.734 354.608 397.634 355.097C396.537 355.587 394.958 356.139 393.154 356.501C391.349 356.859 389.679 356.956 388.478 356.925C387.275 356.895 386.541 356.768 386.545 356.703C386.55 356.54 389.51 356.713 393.052 355.991C396.599 355.297 399.267 354.001 399.334 354.15Z" fill="#FAFAFA"/>
<path d="M404.46 369.561C404.474 369.704 401.328 370.128 397.435 370.508C393.54 370.888 390.372 371.08 390.358 370.936C390.344 370.793 393.489 370.369 397.384 369.989C401.278 369.61 404.446 369.418 404.46 369.561Z" fill="#FAFAFA"/>
<path d="M408.968 390.91C408.958 390.944 408.675 390.887 408.169 390.752C407.662 390.624 406.944 390.384 406.073 390.044C404.328 389.371 402.011 388.196 399.633 386.626C397.255 385.054 395.237 383.45 393.804 382.264C392.373 381.075 391.521 380.301 391.565 380.246C391.611 380.189 392.545 380.862 394.032 381.975C395.521 383.084 397.564 384.634 399.919 386.191C402.275 387.746 404.528 388.953 406.217 389.705C407.903 390.464 408.994 390.828 408.968 390.91Z" fill="#FAFAFA"/>
<path d="M384.728 394.163C384.665 394.166 384.55 393.301 384.569 391.894C384.586 390.488 384.772 388.54 385.278 386.448C385.788 384.356 386.516 382.539 387.145 381.282C387.774 380.023 388.272 379.307 388.327 379.339C388.477 379.414 386.767 382.446 385.783 386.571C384.767 390.686 384.896 394.165 384.728 394.163Z" fill="#FAFAFA"/>
<path d="M372.537 387.627C372.415 387.652 372.135 384.782 373.173 381.443C374.184 378.095 376.024 375.874 376.111 375.964C376.25 376.052 374.649 378.346 373.671 381.596C372.661 384.835 372.702 387.632 372.537 387.627Z" fill="#FAFAFA"/>
<path d="M365.74 371.673C365.862 371.788 363.638 373.806 362.015 377.048C360.354 380.273 360.038 383.258 359.872 383.227C359.81 383.221 359.806 382.47 360.022 381.279C360.236 380.09 360.713 378.467 361.55 376.812C362.392 375.16 363.42 373.818 364.254 372.943C365.09 372.066 365.699 371.627 365.74 371.673Z" fill="#FAFAFA"/>
<path d="M410.66 357.704C410.766 357.784 409.689 359.065 407.816 359.798C405.949 360.548 404.287 360.352 404.309 360.221C404.306 360.064 405.874 360.021 407.624 359.314C409.383 358.63 410.555 357.588 410.66 357.704Z" fill="#FAFAFA"/>
<path d="M406.076 343.666C406.197 343.724 405.57 345.038 404.205 346.148C402.847 347.268 401.435 347.623 401.402 347.493C401.347 347.349 402.6 346.801 403.875 345.745C405.161 344.704 405.946 343.583 406.076 343.666Z" fill="#FAFAFA"/>
<path d="M389.754 334.326C389.839 334.222 390.95 335.092 391.766 336.594C392.593 338.091 392.729 339.495 392.595 339.511C392.445 339.543 392.093 338.258 391.31 336.844C390.54 335.424 389.646 334.435 389.754 334.326Z" fill="#FAFAFA"/>
<path d="M414.014 370.91C414.091 371.02 412.801 371.949 410.93 372.427C409.061 372.918 407.483 372.732 407.497 372.599C407.499 372.445 409.015 372.394 410.8 371.923C412.588 371.468 413.938 370.776 414.014 370.91Z" fill="#FAFAFA"/>
<path d="M421.006 383.215C421.018 383.358 418.581 383.681 415.564 383.937C412.546 384.192 410.09 384.283 410.077 384.14C410.065 383.997 412.501 383.674 415.52 383.419C418.538 383.163 420.994 383.072 421.006 383.215Z" fill="#FAFAFA"/>
<path d="M425.86 393.119C425.856 393.263 422.252 393.289 417.81 393.178C413.366 393.067 409.768 392.86 409.772 392.716C409.776 392.572 413.38 392.546 417.823 392.657C422.265 392.769 425.864 392.976 425.86 393.119Z" fill="#FAFAFA"/>
<path d="M390.473 293.877C391.136 297.267 396.007 298.615 396.488 302.036C396.694 303.504 395.994 304.962 396.045 306.443C396.114 308.434 397.497 310.106 398.205 311.969C399.663 315.807 398.016 320.358 394.935 323.072C391.854 325.786 387.622 326.879 383.517 326.964" fill="#263238"/>
<path d="M362.892 297.376C363.316 299.185 362.366 301.011 361.365 302.576C360.364 304.141 359.235 305.786 359.259 307.644C359.301 310.937 362.924 313.428 362.778 316.717C362.699 318.48 361.518 320.073 361.541 321.838C361.563 323.545 362.716 325.037 364.025 326.132C365.334 327.227 366.589 326.839 367.786 328.055C369.047 329.337 370.944 330.557 372.637 331.164C376.474 332.54 380.271 329.072 381.896 328.301" fill="#263238"/>
<path d="M391.467 295.732C391.252 294.065 389.514 293.025 387.873 292.66C386.232 292.296 384.478 292.338 382.954 291.629C381.605 291.001 380.583 289.85 379.385 288.966C376.446 286.798 372.324 286.358 368.994 287.857C365.664 289.356 363.26 292.734 362.934 296.371C362.714 298.829 363.561 301.56 365.672 302.836C368.123 304.318 371.265 303.406 373.947 302.401C376.629 301.396 379.677 300.341 382.248 301.603C383.798 302.364 384.85 303.834 385.937 305.177C387.023 306.52 388.332 307.859 390.033 308.16C391.734 308.461 393.773 307.156 393.566 305.441" fill="#263238"/>
<path d="M392.053 331.138L388.007 298.754C387.811 297.307 386.54 296.251 385.082 296.323L369.755 294.892C364.955 295.128 362.72 301.432 363.159 306.218C363.647 311.536 364.453 318.008 365.688 321.84C368.172 329.545 374.384 329.608 374.384 329.608C374.383 329.598 375.543 340.987 375.997 343.803" fill="#FFBE9D"/>
<path d="M365.26 312.127C365.324 312.665 365.833 313.054 366.396 312.997C366.958 312.94 367.363 312.459 367.298 311.921C367.233 311.383 366.725 310.993 366.163 311.05C365.6 311.107 365.195 311.589 365.26 312.127Z" fill="#263238"/>
<path d="M364.972 310.135C365.118 310.248 365.797 309.56 366.888 309.393C367.975 309.211 368.862 309.647 368.96 309.495C369.009 309.427 368.844 309.208 368.456 309.009C368.074 308.81 367.451 308.655 366.772 308.764C366.094 308.873 365.561 309.212 365.273 309.519C364.977 309.829 364.901 310.086 364.972 310.135Z" fill="#263238"/>
<path d="M376.244 310.525C376.308 311.063 376.817 311.452 377.38 311.395C377.942 311.338 378.346 310.857 378.282 310.319C378.218 309.781 377.709 309.391 377.147 309.448C376.584 309.505 376.18 309.987 376.244 310.525Z" fill="#263238"/>
<path d="M375.719 308.67C375.865 308.782 376.545 308.095 377.636 307.928C378.723 307.746 379.611 308.182 379.708 308.03C379.757 307.962 379.593 307.743 379.204 307.544C378.822 307.345 378.199 307.19 377.52 307.299C376.842 307.409 376.309 307.748 376.021 308.054C375.726 308.364 375.649 308.621 375.719 308.67Z" fill="#263238"/>
<path d="M373.021 317.371C373.016 317.308 372.321 317.297 371.2 317.327C370.917 317.342 370.645 317.327 370.568 317.145C370.471 316.954 370.541 316.636 370.625 316.291C370.782 315.577 370.946 314.828 371.118 314.043C371.791 310.847 372.233 308.236 372.104 308.21C371.975 308.184 371.324 310.754 370.651 313.95C370.492 314.737 370.339 315.488 370.194 316.205C370.138 316.538 370.013 316.925 370.22 317.32C370.327 317.516 370.555 317.635 370.741 317.656C370.928 317.683 371.085 317.661 371.224 317.648C372.34 317.535 373.027 317.434 373.021 317.371Z" fill="#263238"/>
<path d="M374.385 329.606C374.385 329.606 379.667 329.25 384.44 325.266C384.354 325.299 382.303 331.356 374.604 331.724L374.385 329.606Z" fill="#EB996E"/>
<path d="M373.892 319.928C374.203 319.349 374.846 318.957 375.54 318.924C376.021 318.901 376.535 319.055 376.882 319.396C377.229 319.736 377.375 320.274 377.171 320.682C376.941 321.142 376.341 321.333 375.798 321.266C375.255 321.199 374.754 320.926 374.275 320.651C374.143 320.575 374.007 320.495 373.913 320.377C373.819 320.259 373.777 320.092 373.851 319.971" fill="#EB996E"/>
<path d="M376.348 317.626C376.169 317.643 376.351 318.827 375.469 319.825C374.589 320.825 373.307 320.889 373.323 321.056C373.318 321.133 373.64 321.242 374.174 321.174C374.699 321.111 375.436 320.824 375.976 320.214C376.514 319.603 376.672 318.874 376.637 318.382C376.605 317.88 376.427 317.607 376.348 317.626Z" fill="#263238"/>
<path d="M374.744 305.697C374.898 305.977 375.964 305.667 377.267 305.622C378.569 305.551 379.659 305.765 379.787 305.472C379.843 305.333 379.62 305.082 379.158 304.86C378.7 304.638 377.998 304.468 377.217 304.502C376.436 304.538 375.752 304.769 375.316 305.031C374.876 305.293 374.676 305.563 374.744 305.697Z" fill="#263238"/>
<path d="M364.882 306.917C365.112 307.135 365.823 306.761 366.725 306.608C367.621 306.424 368.419 306.515 368.555 306.228C368.613 306.09 368.453 305.861 368.083 305.679C367.717 305.497 367.137 305.391 366.519 305.507C365.902 305.623 365.399 305.931 365.124 306.234C364.843 306.538 364.778 306.809 364.882 306.917Z" fill="#263238"/>
<path d="M392.49 322.999C390.387 323.78 390.019 322.705 388.158 321.453C386.297 320.201 385.094 318.023 385.025 315.781C384.964 313.803 385.698 311.664 384.736 309.934C383.464 307.647 379.943 307.438 378.658 305.158C377.911 303.833 378.122 302.112 377.309 300.826C376.545 299.617 375.062 299.086 373.658 298.815C372.254 298.544 370.777 298.438 369.525 297.747C368.273 297.056 367.318 295.53 367.846 294.2C373.849 293.975 379.879 294.469 385.766 295.667C387.131 295.945 388.576 296.309 389.519 297.335C390.517 298.42 390.726 299.992 390.887 301.457C391.676 308.6 392.465 315.744 393.254 322.888" fill="#263238"/>
<path d="M394.913 306.104C394.751 303.462 396.507 300.817 399.005 299.94C401.503 299.063 404.527 300.03 406.052 302.194C407.502 304.251 407.551 307.026 406.884 309.452C406.091 312.336 403.986 315.189 401.013 315.521C398.217 315.834 395.596 313.748 394.375 311.213C393.154 308.678 393.027 305.773 392.921 302.962" fill="#263238"/>
<path d="M398.168 316.676C398.178 316.684 398.339 316.521 398.509 316.152C398.683 315.788 398.851 315.207 398.849 314.479C398.853 313.752 398.695 312.893 398.383 311.995C398.075 311.091 397.608 310.167 397.217 309.169C396.822 308.176 396.554 307.185 396.583 306.274C396.606 305.369 396.902 304.557 396.974 303.834C397.064 303.109 396.942 302.503 396.754 302.137C396.568 301.767 396.372 301.633 396.362 301.647C396.338 301.667 396.494 301.83 396.629 302.191C396.767 302.549 396.843 303.116 396.728 303.799C396.632 304.486 396.307 305.283 396.26 306.263C396.21 307.238 396.487 308.285 396.89 309.297C397.29 310.315 397.765 311.234 398.078 312.102C398.398 312.97 398.573 313.79 398.6 314.483C398.672 315.893 398.094 316.651 398.168 316.676Z" fill="#455A64"/>
<path d="M396.785 307.174C396.76 307.198 397.222 307.689 398.183 308.168C399.129 308.647 400.625 309.056 402.265 308.827C403.906 308.596 405.232 307.793 406.01 307.072C406.802 306.347 407.112 305.749 407.081 305.732C407.032 305.694 406.654 306.232 405.848 306.883C405.054 307.533 403.773 308.26 402.216 308.479C400.659 308.696 399.227 308.349 398.286 307.942C397.333 307.537 396.821 307.124 396.785 307.174Z" fill="#455A64"/>
<path d="M397.372 308.35C397.341 308.371 397.615 308.851 398.237 309.484C398.854 310.117 399.854 310.869 401.115 311.382C402.378 311.891 403.619 312.047 404.503 312.021C405.39 311.998 405.921 311.845 405.913 311.808C405.905 311.749 405.367 311.814 404.506 311.772C403.647 311.734 402.463 311.545 401.246 311.056C400.032 310.561 399.05 309.873 398.407 309.302C397.76 308.735 397.418 308.314 397.372 308.35Z" fill="#455A64"/>
<path d="M397.104 319.554C397.109 319.557 397.133 319.519 397.175 319.442C397.212 319.363 397.285 319.253 397.343 319.092C397.476 318.778 397.618 318.283 397.645 317.629C397.672 316.979 397.555 316.16 397.15 315.317C396.764 314.473 395.999 313.622 394.922 313.135C393.88 312.622 392.588 312.355 391.647 311.426C391.179 310.974 390.91 310.333 390.925 309.639C390.924 308.945 391.128 308.231 391.288 307.481C391.668 305.971 391.395 304.202 390.442 302.782C389.963 302.077 389.319 301.45 388.525 301.044C387.733 300.621 386.826 300.482 385.944 300.422C385.058 300.362 384.187 300.384 383.357 300.27C382.53 300.159 381.719 299.924 381.082 299.455C380.433 298.996 380.074 298.274 379.847 297.527C379.618 296.78 379.436 295.997 379.112 295.29C378.492 293.87 377.532 292.676 376.391 291.89C375.249 291.098 373.947 290.745 372.773 290.755C371.593 290.757 370.541 291.142 369.793 291.699C369.034 292.249 368.554 292.922 368.268 293.507C367.985 294.098 367.89 294.605 367.862 294.945C367.832 295.286 367.865 295.465 367.865 295.465C367.919 295.478 367.81 294.714 368.39 293.569C368.685 293.01 369.167 292.373 369.906 291.86C370.635 291.34 371.641 290.991 372.772 291.004C373.897 291.01 375.14 291.362 376.223 292.129C377.308 292.891 378.224 294.044 378.814 295.419C379.123 296.103 379.292 296.85 379.526 297.628C379.752 298.394 380.152 299.219 380.877 299.732C381.583 300.253 382.449 300.498 383.309 300.616C384.178 300.736 385.052 300.713 385.92 300.773C386.783 300.83 387.636 300.966 388.364 301.355C389.1 301.73 389.703 302.312 390.156 302.974C391.057 304.316 391.327 305.965 390.971 307.415C390.82 308.152 390.61 308.884 390.616 309.641C390.6 310.397 390.922 311.147 391.441 311.632C392.482 312.629 393.807 312.872 394.816 313.359C395.857 313.814 396.581 314.597 396.974 315.404C397.379 316.205 397.514 316.994 397.508 317.626C397.489 318.91 397.048 319.54 397.104 319.554Z" fill="#455A64"/>
<path d="M393.092 297.589C393.092 297.589 393.148 297.463 393.132 297.209C393.12 296.96 393.021 296.574 392.705 296.202C392.396 295.834 391.892 295.468 391.213 295.318C390.527 295.171 389.73 295.306 388.933 295.601C388.13 295.889 387.323 296.355 386.412 296.685C385.517 297.008 384.42 297.208 383.484 296.687C382.544 296.182 381.948 295.142 381.343 294.112C380.745 293.056 379.969 292.02 379.006 291.148C377.08 289.398 374.681 288.368 372.419 288.226C371.289 288.162 370.188 288.357 369.275 288.807C368.364 289.255 367.645 289.923 367.2 290.666C366.745 291.405 366.596 292.218 366.657 292.897C366.708 293.582 366.931 294.143 367.184 294.548C367.436 294.957 367.719 295.211 367.921 295.356C368.124 295.503 368.247 295.554 368.251 295.547C368.287 295.51 367.767 295.285 367.303 294.478C367.078 294.079 366.882 293.536 366.852 292.884C366.813 292.236 366.97 291.484 367.412 290.795C367.843 290.104 368.534 289.482 369.403 289.069C370.27 288.655 371.314 288.478 372.399 288.549C374.57 288.701 376.904 289.709 378.769 291.407C379.707 292.258 380.451 293.245 381.048 294.287C381.657 295.307 382.273 296.407 383.331 296.973C383.847 297.257 384.44 297.348 384.983 297.312C385.532 297.279 386.039 297.13 386.51 296.959C387.453 296.602 388.244 296.127 389.019 295.834C389.784 295.533 390.54 295.394 391.171 295.511C391.806 295.632 392.296 295.96 392.601 296.292C392.914 296.628 393.027 296.981 393.061 297.217C393.101 297.456 393.071 297.587 393.092 297.589Z" fill="#455A64"/>
</svg>
