<svg width="709" height="484" viewBox="0 0 709 484" fill="none" xmlns="http://www.w3.org/2000/svg">
<path d="M58.3467 78.582C39.4757 78.582 24.1777 93.88 24.1777 112.751V131.461H92.5157V112.751C92.5157 93.88 77.2177 78.582 58.3467 78.582Z" fill="#F5F5F5"/>
<path d="M58.3467 78.582V1" stroke="#1F1426" stroke-width="0.5" stroke-miterlimit="10" stroke-linecap="round" stroke-linejoin="round"/>
<path d="M182.968 483.156C283.466 483.156 364.936 475.524 364.936 466.11C364.936 456.696 283.466 449.064 182.968 449.064C82.4698 449.064 1 456.696 1 466.11C1 475.524 82.4698 483.156 182.968 483.156Z" fill="#1F1426"/>
<path d="M364.936 278.069H1V294.662H364.936V278.069Z" fill="#B7AFE8"/>
<path d="M1 289.882H364.936" stroke="#1F1426" stroke-width="0.5" stroke-miterlimit="10" stroke-linecap="round" stroke-linejoin="round"/>
<path d="M357.898 294.662H19.5986V300.689H357.898V294.662Z" fill="#F5F5F5"/>
<path d="M43.7285 300.689H28.3965V470.512H43.7285V300.689Z" fill="#F5F5F5"/>
<path d="M300.092 300.689H284.76V470.512H300.092V300.689Z" fill="#F5F5F5"/>
<path d="M337.289 300.689H321.957V470.512H337.289V300.689Z" fill="#F5F5F5"/>
<path d="M73.6787 300.689H58.3467V470.512H73.6787V300.689Z" fill="#F5F5F5"/>
<path d="M43.7285 300.689H28.3965V307.475H43.7285V300.689Z" fill="#1F1426"/>
<path d="M73.6787 300.689H58.3467V307.475H73.6787V300.689Z" fill="#1F1426"/>
<path d="M300.092 300.689H284.76V307.475H300.092V300.689Z" fill="#1F1426"/>
<path d="M337.289 300.689H321.957V307.475H337.289V300.689Z" fill="#1F1426"/>
<path d="M329.454 250.36H201.382C198.901 250.36 196.89 248.349 196.89 245.868V148.347C196.89 145.866 198.901 143.855 201.382 143.855H329.453C331.934 143.855 333.945 145.866 333.945 148.347V245.868C333.946 248.349 331.935 250.36 329.454 250.36Z" fill="#F5F5F5"/>
<path d="M336.567 250.36H208.496C206.015 250.36 204.004 248.349 204.004 245.868V148.347C204.004 145.866 206.015 143.855 208.496 143.855H336.568C339.049 143.855 341.06 145.866 341.06 148.347V245.868C341.059 248.349 339.048 250.36 336.567 250.36Z" fill="white"/>
<path d="M321.442 143.855C328.347 143.855 333.945 149.453 333.945 156.358V237.857C333.945 244.762 328.347 250.36 321.442 250.36" stroke="#1F1426" stroke-width="0.5" stroke-miterlimit="10" stroke-linecap="round" stroke-linejoin="round"/>
<path d="M333.946 156.358H196.891V230.979H333.946V156.358Z" fill="#1F1426"/>
<path d="M268.476 150.534C268.476 152.223 267.106 153.593 265.417 153.593C263.728 153.593 262.358 152.223 262.358 150.534C262.358 148.844 263.728 147.475 265.417 147.475C267.107 147.475 268.476 148.844 268.476 150.534Z" fill="#1F1426"/>
<path d="M287.652 246.523H249.302V278.069H287.652V246.523Z" fill="#F5F5F5"/>
<path d="M287.652 250.36H249.302V257.245H287.652V250.36Z" fill="#1F1426"/>
<path d="M331.341 158.728H198.829V228.078H331.341V158.728Z" fill="#BDBDBD"/>
<path d="M331.341 158.728H198.829V163.495H331.341V158.728Z" fill="white"/>
<path d="M201.914 161.112C201.914 161.61 201.51 162.013 201.013 162.013C200.516 162.013 200.112 161.609 200.112 161.112C200.112 160.614 200.516 160.211 201.013 160.211C201.51 160.211 201.914 160.614 201.914 161.112Z" fill="#E4B2B0"/>
<path d="M204.906 161.112C204.906 161.61 204.502 162.013 204.005 162.013C203.507 162.013 203.104 161.609 203.104 161.112C203.104 160.614 203.508 160.211 204.005 160.211C204.503 160.21 204.906 160.614 204.906 161.112Z" fill="#D36016"/>
<path d="M207.714 161.112C207.714 161.61 207.31 162.013 206.813 162.013C206.315 162.013 205.912 161.609 205.912 161.112C205.912 160.614 206.316 160.211 206.813 160.211C207.311 160.21 207.714 160.614 207.714 161.112Z" fill="#65A281"/>
<path d="M329.768 160.21H318.234V162.013H329.768V160.21Z" fill="#E3E3E3"/>
<path d="M316.131 160.21H304.597V162.013H316.131V160.21Z" fill="#E3E3E3"/>
<path d="M226.094 223.311L233.568 170.905H244.108L252.06 223.311H244.615L243.365 213.961H234.908L233.776 223.311H226.094ZM235.683 207.56H242.532L239.018 181.237H238.898L235.683 207.56Z" fill="white"/>
<path d="M278.738 223.311L286.212 170.905H296.752L304.704 223.311H297.259L296.009 213.961H287.552L286.42 223.311H278.738ZM288.326 207.56H295.175L291.661 181.237H291.541L288.326 207.56Z" fill="#D36016"/>
<path d="M267.82 191.967L266.405 193.381L270.13 197.108H256.371V198.922H270.13L266.405 202.648L267.82 204.062L273.153 198.728L273.446 198.422V197.594L267.82 191.967Z" fill="white"/>
<path d="M171.57 442.574C176.477 441.997 181.926 439.489 185.685 437.456L187.488 433.694L189.499 373.514L157.663 377.205L159.171 381.82L162.69 442.407L162.684 442.472C164.781 442.823 167.707 443.028 171.57 442.574Z" fill="#65A281"/>
<path d="M185.561 437.715L185.685 437.456C181.926 439.489 176.476 441.997 171.57 442.574C167.707 443.028 164.781 442.823 162.683 442.472L160.93 460.336H211.951V453.466L185.561 437.715Z" fill="#F5F5F5"/>
<path d="M161.243 457.141H211.951" stroke="#1F1426" stroke-width="0.5" stroke-miterlimit="10" stroke-linecap="round" stroke-linejoin="round"/>
<path d="M172.743 442.392L171.208 375.633" stroke="#1F1426" stroke-width="0.5" stroke-miterlimit="10" stroke-linecap="round" stroke-linejoin="round"/>
<path d="M85.4956 397.011C82.5146 397.011 80.0986 394.595 80.0986 391.614V325.898C80.0986 322.949 82.4666 320.545 85.4156 320.502L128.482 319.864C128.509 319.863 128.537 319.863 128.564 319.863C131.508 319.863 133.915 322.227 133.959 325.18C134.003 328.161 131.622 330.613 128.642 330.656L90.8926 331.216V391.614C90.8926 394.595 88.4756 397.011 85.4956 397.011Z" fill="#1F1426"/>
<path d="M131.403 203.949C131.403 203.949 143.635 204.117 145.31 202.441C146.986 200.765 146.818 183.339 146.818 183.339H151.007L144.305 156.195C144.305 156.195 137.77 149.995 128.555 152.341C119.339 154.687 102.584 190.377 102.584 190.377L102.902 205.634H131.404V203.949H131.403Z" fill="#E4B2B0"/>
<path d="M122.354 214.17C124.476 213.934 128.363 212.666 131.898 211.386C131.587 211.345 131.402 211.322 131.402 211.322V205.634H102.9L103.079 214.241C108.248 214.359 118.966 214.546 122.354 214.17Z" fill="#E4B2B0"/>
<path d="M222.687 449.658L220.464 463.122C220.051 465.625 221.83 467.961 224.355 468.211C227.992 468.572 235.25 467.686 240.438 467.874C249.654 468.209 269.821 465.299 269.821 465.299C269.821 465.299 269.975 457.653 269.137 456.816C268.299 455.978 250.035 450.616 247.354 448.941C247.123 448.797 246.91 448.607 246.694 448.425C236.509 451.55 227.02 450.469 222.687 449.658Z" fill="#F5F5F5"/>
<path d="M305.16 277.339C304.657 275.663 303.652 274.825 303.652 274.825L302.144 271.474L293.264 265.274C293.264 265.274 278.348 269.704 274.445 270.107C276.609 273.459 279.484 278.743 280.094 283.852L294.269 281.36H303.652C303.652 281.36 305.662 279.015 305.16 277.339Z" fill="#E4B2B0"/>
<path d="M85.4961 358.074C85.9011 360.844 86.1911 362.78 86.3301 363.631C87.6701 371.841 94.3731 384.911 105.097 386.251C115.821 387.591 144.473 384.073 157.375 382.23C170.277 380.387 218.323 370.836 218.323 370.836L222.723 449.443L222.688 449.658C227.021 450.469 236.51 451.549 246.694 448.424C246.937 444.249 245.112 440.184 245.112 439.725C245.112 439.222 248.191 346.205 246.348 340.341C244.505 334.476 230.598 332.801 225.068 332.131C219.765 331.488 182.584 330.23 179.545 330.128C179.266 333.082 178.553 336.508 176.811 338.499C173.679 342.078 105.132 358.521 85.4961 358.074Z" fill="#65A281"/>
<path d="M273.827 270.134C271.314 269.966 223.057 263.264 223.057 263.264C223.057 263.264 175.303 223.888 168.601 219.531C162.394 215.496 135.799 211.896 131.899 211.385C128.364 212.665 124.477 213.933 122.355 214.169C118.967 214.546 108.249 214.358 103.08 214.24L103.086 214.504C103.086 214.504 80.6327 225.395 76.1087 227.574C71.5847 229.752 70.4117 236.119 70.0767 241.816C69.7767 246.922 81.9927 334.13 85.4957 358.073C105.132 358.52 173.679 342.077 176.812 338.497C178.554 336.506 179.267 333.08 179.546 330.126C179.416 330.122 179.326 330.119 179.326 330.119C179.326 330.119 174.132 329.114 172.456 327.271C170.78 325.428 167.764 310.85 167.429 307.332C167.094 303.813 170.277 266.951 170.277 266.951L220.544 289.404L279.022 284.042L280.095 283.853C279.485 278.745 276.61 273.46 274.446 270.108C274.191 270.134 273.981 270.144 273.827 270.134Z" fill="#D36016"/>
<path d="M131.403 203.949H125.036L131.403 207.803V203.949Z" fill="#1F1426"/>
<path d="M170.277 266.951L160.056 261.756L169.544 275.658L170.277 266.951Z" fill="#1F1426"/>
<path d="M129.477 212.236C129.477 212.236 160.726 217.856 165.166 220.537C169.606 223.218 222.052 267.118 222.052 267.118L276.155 272.951" stroke="#1F1426" stroke-width="0.5" stroke-miterlimit="10" stroke-linecap="round" stroke-linejoin="round"/>
<path d="M160.443 344.111C160.443 344.111 164.243 350.897 168.265 351.064C172.286 351.231 228.753 346.289 230.429 347.587C232.105 348.885 232.495 450.517 232.495 450.517" stroke="#1F1426" stroke-width="0.5" stroke-miterlimit="10" stroke-linecap="round" stroke-linejoin="round"/>
<path d="M220.463 463.122C220.463 463.122 232.105 465.864 241.991 465.194C251.877 464.524 269.83 462.817 269.83 462.817" stroke="#1F1426" stroke-width="0.5" stroke-miterlimit="10" stroke-linecap="round" stroke-linejoin="round"/>
<path d="M218.321 370.836L223.727 368.155L218.712 378.87L218.321 370.836Z" fill="#1F1426"/>
<path d="M142.797 197.079C141.492 190.61 146.836 188.198 146.836 188.198C148.529 186.69 146.836 184.847 146.836 184.847C138.554 182.992 136.765 194.565 136.765 194.565L133.581 193.893C133.581 193.893 133.246 189.035 133.078 183.171C132.91 177.306 134.586 168.426 134.754 167.253C134.922 166.08 132.743 163.064 132.743 163.064L135.591 156.362L142.628 156.53C142.628 156.53 147.152 150.665 146.817 148.152C146.482 145.639 142.963 138.434 131.904 136.088C120.845 133.742 117.494 139.607 117.494 139.607C112.635 137.931 99.2299 142.623 95.3289 145.974C91.4279 149.325 88.0029 158.206 88.0029 162.562C88.0029 166.919 102.654 193.894 102.654 193.894C112.11 196.406 120.342 191.047 121.682 189.707C122.895 188.494 123.277 187.005 121.479 184.747C119.364 183.86 117.794 180.646 117.794 176.805C117.794 172.28 119.97 168.612 122.653 168.612C123.569 168.612 124.423 169.048 125.154 169.791C126.036 169.906 126.75 170.685 127.21 172.617C128.048 176.136 129.053 195.405 131.064 199.761C133.075 204.118 136.929 206.296 138.939 205.458C140.95 204.62 146.479 202.777 146.814 201.269C147.149 199.761 146.354 197.722 146.354 197.722L142.797 197.079Z" fill="#1F1426"/>
<path d="M125.036 173.876C125.036 173.876 122.476 167.95 120.137 172.377Z" fill="#1F1426"/>
<path d="M125.036 173.876C125.036 173.876 122.476 167.95 120.137 172.377" stroke="#1F1426" stroke-width="0.5" stroke-miterlimit="10" stroke-linecap="round" stroke-linejoin="round"/>
<path d="M144.214 175.153C144.239 175.687 143.826 176.14 143.292 176.164C142.758 176.189 142.305 175.776 142.281 175.242C142.257 174.708 142.669 174.255 143.203 174.231C143.737 174.206 144.19 174.619 144.214 175.153Z" fill="#1F1426"/>
<path d="M138.984 170.349C138.927 169.632 140.562 168.607 142.624 168.443C144.687 168.279 146.397 169.039 146.454 169.756C146.511 170.473 144.893 170.875 142.83 171.039C140.768 171.203 139.041 171.066 138.984 170.349Z" fill="#1F1426"/>
<path d="M145.714 190.967C144.564 191.21 143.288 190.627 142.719 189.598" stroke="#1F1426" stroke-width="0.5" stroke-miterlimit="10" stroke-linecap="round" stroke-linejoin="round"/>
<path d="M184.808 397.011H85.4956C82.5146 397.011 80.0986 394.595 80.0986 391.614C80.0986 388.633 82.5156 386.217 85.4956 386.217H184.808C187.789 386.217 190.205 388.633 190.205 391.614C190.205 394.595 187.789 397.011 184.808 397.011Z" fill="#1F1426"/>
<path d="M152.781 368.155H72.0628C68.6268 368.155 65.8408 365.369 65.8408 361.933V269.486C65.8408 266.05 68.6268 263.264 72.0628 263.264H152.781C156.217 263.264 159.003 266.05 159.003 269.486V361.933C159.003 365.37 156.217 368.155 152.781 368.155Z" fill="#B7AFE8"/>
<path d="M136.215 263.264C143.988 263.264 150.29 269.566 150.29 277.339V354.08C150.29 361.853 143.989 368.155 136.215 368.155" stroke="#1F1426" stroke-width="0.5" stroke-miterlimit="10" stroke-linecap="round" stroke-linejoin="round"/>
<path d="M219.055 373.513H73.5488V388.263H219.055V373.513Z" fill="#B7AFE8"/>
<path d="M153.641 373.513V388.262" stroke="#1F1426" stroke-width="0.5" stroke-miterlimit="10" stroke-linecap="round" stroke-linejoin="round"/>
<path d="M166.124 397.011C163.143 397.011 160.727 394.595 160.727 391.614V325.898C160.727 322.949 163.095 320.545 166.044 320.502L209.109 319.864C209.136 319.863 209.164 319.863 209.191 319.863C212.135 319.863 214.542 322.227 214.586 325.18C214.63 328.161 212.25 330.613 209.269 330.656L171.521 331.216V391.614C171.521 394.595 169.105 397.011 166.124 397.011Z" fill="#1F1426"/>
<path d="M104.174 397.011C101.193 397.011 98.7773 394.595 98.7773 391.614V325.931C98.7773 322.95 101.194 320.534 104.174 320.534C107.155 320.534 109.571 322.95 109.571 325.931V391.614C109.572 394.595 107.155 397.011 104.174 397.011Z" fill="#1F1426"/>
<path d="M114.535 337.325H93.2317C91.4307 337.325 89.9697 335.865 89.9697 334.063V301.043C89.9697 299.242 91.4297 297.781 93.2317 297.781H114.535C116.336 297.781 117.797 299.242 117.797 301.043V334.063C117.797 335.864 116.337 337.325 114.535 337.325Z" fill="#1F1426"/>
<path d="M135.151 465.732C132.17 465.732 129.754 463.316 129.754 460.335V396.26C129.754 393.279 132.171 390.863 135.151 390.863C138.132 390.863 140.548 393.279 140.548 396.26V460.335C140.548 463.316 138.132 465.732 135.151 465.732Z" fill="#1F1426"/>
<path d="M198.882 459.261C195.901 459.261 193.485 456.845 193.485 453.864V442.854H76.8174V453.864C76.8174 456.845 74.4004 459.261 71.4204 459.261C68.4394 459.261 66.0234 456.845 66.0234 453.864V437.456C66.0234 434.475 68.4404 432.059 71.4204 432.059H198.882C201.863 432.059 204.279 434.475 204.279 437.456V453.864C204.279 456.845 201.862 459.261 198.882 459.261Z" fill="#1F1426"/>
<path d="M71.4203 472.631C77.343 472.631 82.1443 467.83 82.1443 461.907C82.1443 455.984 77.343 451.183 71.4203 451.183C65.4976 451.183 60.6963 455.984 60.6963 461.907C60.6963 467.83 65.4976 472.631 71.4203 472.631Z" fill="#1F1426"/>
<path d="M78.2079 461.907C78.2079 465.656 75.1689 468.696 71.4189 468.696C67.6689 468.696 64.6299 465.657 64.6299 461.907C64.6299 458.158 67.6689 455.118 71.4189 455.118C75.1689 455.118 78.2079 458.158 78.2079 461.907Z" fill="white"/>
<path d="M135.152 472.631C141.074 472.631 145.876 467.83 145.876 461.907C145.876 455.984 141.074 451.183 135.152 451.183C129.229 451.183 124.428 455.984 124.428 461.907C124.428 467.83 129.229 472.631 135.152 472.631Z" fill="#1F1426"/>
<path d="M141.939 461.907C141.939 465.656 138.9 468.696 135.15 468.696C131.401 468.696 128.361 465.657 128.361 461.907C128.361 458.158 131.4 455.118 135.15 455.118C138.9 455.118 141.939 458.158 141.939 461.907Z" fill="white"/>
<path d="M198.882 472.631C204.805 472.631 209.606 467.83 209.606 461.907C209.606 455.984 204.805 451.183 198.882 451.183C192.96 451.183 188.158 455.984 188.158 461.907C188.158 467.83 192.96 472.631 198.882 472.631Z" fill="#1F1426"/>
<path d="M205.67 461.907C205.67 465.656 202.631 468.696 198.882 468.696C195.133 468.696 192.093 465.657 192.093 461.907C192.093 458.158 195.132 455.118 198.882 455.118C202.631 455.118 205.67 458.158 205.67 461.907Z" fill="white"/>
<path d="M643.031 439.3C660.948 439.3 675.473 437.125 675.473 434.442C675.473 431.759 660.948 429.584 643.031 429.584C625.114 429.584 610.589 431.759 610.589 434.442C610.589 437.125 625.114 439.3 643.031 439.3Z" fill="#1F1426"/>
<path d="M646.583 290.538C646.583 290.538 669.767 146.719 640.916 116.838C640.916 116.838 609.489 167.488 627.006 290.538H646.583Z" fill="#D36016"/>
<path d="M644.199 290.538C644.199 290.538 665.129 229.665 708.405 191.026C708.405 191.026 684.826 271.557 665.704 290.538H644.199Z" fill="#65A281"/>
<path d="M634.218 290.538C634.218 290.538 627.52 191.541 601.761 161.66C601.761 161.66 593.653 239.615 622.694 290.538H634.218Z" fill="#D36016"/>
<path d="M640.915 290.538C640.915 290.538 645.037 203.39 683.161 153.416C683.161 153.416 685.834 216.804 651.421 290.538H640.915Z" fill="#65A281"/>
<path d="M637.824 290.538C637.824 290.538 630.215 226.574 665.704 168.872C665.704 168.872 683.05 245.797 651.421 290.538H637.824Z" fill="#D36016"/>
<path d="M640.915 290.538C640.915 290.538 634.733 198.238 618.762 161.66C618.762 161.66 594.168 222.099 622.693 290.538H640.915Z" fill="#65A281"/>
<path d="M618.762 161.66C618.762 161.66 612.065 224.159 630.096 290.538" stroke="#1F1426" stroke-width="0.5" stroke-miterlimit="10" stroke-linecap="round" stroke-linejoin="round"/>
<path d="M665.704 168.872C665.704 168.872 658.816 246.312 644.199 290.538" stroke="#1F1426" stroke-width="0.5" stroke-miterlimit="10" stroke-linecap="round" stroke-linejoin="round"/>
<path d="M640.915 116.838L637.139 250.59" stroke="#1F1426" stroke-width="0.5" stroke-miterlimit="10" stroke-linecap="round" stroke-linejoin="round"/>
<path d="M708.406 191.025C708.406 191.025 671.93 268.304 655.393 292.518" stroke="#1F1426" stroke-width="0.5" stroke-miterlimit="10" stroke-linecap="round" stroke-linejoin="round"/>
<path d="M665.379 433.68H622.632L611.033 290.538H676.978L665.379 433.68Z" fill="white"/>
<path d="M611.418 295.286H676.978" stroke="#1F1426" stroke-width="0.5" stroke-miterlimit="10" stroke-linecap="round" stroke-linejoin="round"/>
<path d="M622.693 429.679H665.703" stroke="#1F1426" stroke-width="0.5" stroke-miterlimit="10" stroke-linecap="round" stroke-linejoin="round"/>
<path d="M475.557 444.232C540.539 444.232 593.216 439.567 593.216 433.813C593.216 428.059 540.539 423.394 475.557 423.394C410.576 423.394 357.898 428.059 357.898 433.813C357.898 439.567 410.576 444.232 475.557 444.232Z" fill="#1F1426"/>
<path d="M374.362 435.723L432.712 26.5991H514.996L577.073 435.723H518.951L509.19 362.731H443.17L434.335 435.723H374.362ZM449.217 312.76H502.687L475.255 107.26H474.317L449.217 312.76Z" fill="white"/>
<path d="M537.845 177.186C536.004 178.835 533.987 180.25 531.688 181.285C518.312 187.303 501.86 177.935 488.297 183.518C487.358 183.904 486.473 184.368 485.615 184.869L502.687 312.761H449.217L458.556 236.301C452.117 244.428 439.323 248.821 431.282 242.278C423.861 236.239 424.14 224.465 417.835 217.268C414.907 213.926 410.637 212.281 406.252 212.13L374.363 435.723H434.336L443.172 362.731H509.192L518.953 435.723H577.075L537.845 177.186Z" fill="#D36016"/>
<path d="M410.327 197.348C411.594 193.389 412.189 189.215 412.08 185.06C412.001 182.031 411.462 178.818 409.434 176.567C406.358 173.152 400.473 173.267 396.987 176.262C393.501 179.257 392.36 184.404 393.42 188.876C394.583 193.783 398.044 198.026 398.553 203.043C398.892 206.38 397.879 209.751 398.272 213.082C399.08 219.919 413.852 230.044 417.4 220.242C418.741 216.538 414.294 213.324 412.228 211.002C407.971 206.218 408.374 203.451 410.327 197.348Z" fill="#D36016"/>
<path d="M426.964 218.075C428.728 218.402 430.486 217.105 431.219 215.467C431.952 213.83 431.872 211.949 431.626 210.172C430.639 203.053 425.016 190.998 416.772 199.824C413.89 202.91 414.73 204.714 417.062 207.746C418.673 209.84 424.471 217.613 426.964 218.075Z" fill="#D36016"/>
<path d="M421.852 183.925C422.08 185.551 422.323 187.224 423.154 188.64C423.985 190.056 425.558 191.168 427.185 190.95C428.766 190.738 429.974 189.33 430.442 187.805C430.91 186.28 430.783 184.645 430.652 183.055C430.297 178.758 431.817 165.184 425.308 166.47C418.103 167.893 421.244 179.582 421.852 183.925Z" fill="#D36016"/>
<path d="M536.572 179.621C532.007 185.501 524.755 188.725 517.479 190.301C514.85 190.871 511.709 191.64 510.844 194.187C510.203 196.073 511.243 198.218 512.847 199.399C514.451 200.58 516.492 200.981 518.473 201.185C526.03 201.962 533.951 200.196 540.048 195.665C546.145 191.134 550.205 183.733 550.042 176.138C549.922 170.522 545.876 159.78 539.333 159.369C538.683 162.237 540.77 165.827 540.562 169.16C540.328 172.919 538.878 176.651 536.572 179.621Z" fill="#D36016"/>
<path d="M523.516 157.525C524.391 159.289 525.304 161.156 525.169 163.121C524.927 166.649 521.364 169.788 522.458 173.151C523.332 175.839 526.978 176.772 529.558 175.617C532.138 174.462 533.78 171.892 534.948 169.317C536.8 165.235 537.836 160.559 536.583 156.255C533.735 146.471 517.375 145.147 523.516 157.525Z" fill="#D36016"/>
<path d="M521.371 163.871C520.48 165.633 517.885 165.729 516.144 164.797C513.497 163.381 509.826 155.59 514.405 154.066C517.148 153.154 522.672 161.3 521.371 163.871Z" fill="#D36016"/>
<path d="M554.643 142.232C551.228 144.541 549.356 146.413 547.048 149.828C544.739 146.413 542.868 144.541 539.453 142.232C542.868 139.923 544.74 138.052 547.048 134.637C549.356 138.052 551.228 139.923 554.643 142.232Z" fill="#D36016"/>
<path d="M393.04 205.878C389.625 208.187 387.753 210.058 385.445 213.473C383.136 210.058 381.265 208.186 377.85 205.878C381.265 203.569 383.137 201.698 385.445 198.283C387.754 201.697 389.625 203.569 393.04 205.878Z" fill="#D36016"/>
<path d="M401.243 160.372C398.875 161.973 397.578 163.27 395.977 165.638C394.376 163.27 393.079 161.973 390.711 160.372C393.079 158.771 394.376 157.474 395.977 155.106C397.578 157.473 398.875 158.771 401.243 160.372Z" fill="#D36016"/>
<path d="M565.176 170.904C562.808 172.505 561.511 173.802 559.91 176.17C558.309 173.802 557.012 172.505 554.644 170.904C557.012 169.303 558.309 168.006 559.91 165.638C561.511 168.006 562.808 169.303 565.176 170.904Z" fill="#D36016"/>
<path d="M531.704 200.145C532.699 206.629 533.693 213.113 534.687 219.597" stroke="#1F1426" stroke-width="0.5" stroke-miterlimit="10" stroke-linecap="round" stroke-linejoin="round"/>
<path d="M528.078 207.285C528.96 215.139 529.841 222.993 530.723 230.847" stroke="#1F1426" stroke-width="0.5" stroke-miterlimit="10" stroke-linecap="round" stroke-linejoin="round"/>
<path d="M438.471 31.8359H470.718" stroke="#1F1426" stroke-width="0.5" stroke-miterlimit="10" stroke-linecap="round" stroke-linejoin="round"/>
<path d="M526.018 398.779C527.016 404.764 528.014 410.749 529.011 416.733" stroke="#1F1426" stroke-width="0.5" stroke-miterlimit="10" stroke-linecap="round" stroke-linejoin="round"/>
<path d="M533.497 403.642C534.494 410.001 535.492 416.36 536.489 422.719" stroke="#1F1426" stroke-width="0.5" stroke-miterlimit="10" stroke-linecap="round" stroke-linejoin="round"/>
<path d="M447.775 291.038C446.285 295.233 445.546 299.695 445.605 304.146" stroke="#1F1426" stroke-width="0.5" stroke-miterlimit="10" stroke-linecap="round" stroke-linejoin="round"/>
<path d="M442.211 294.795C441.463 301.029 440.715 307.263 439.967 313.498" stroke="#1F1426" stroke-width="0.5" stroke-miterlimit="10" stroke-linecap="round" stroke-linejoin="round"/>
</svg>
